<svg width="180" height="180" viewBox="0 0 180 180" fill="none" xmlns="http://www.w3.org/2000/svg">
<g clip-path="url(#clip0_1579_16362)">
<circle cx="90" cy="90" r="90" fill="url(#paint0_linear_1579_16362)"/>
<circle cx="90" cy="90" r="90" fill="url(#paint1_radial_1579_16362)" fill-opacity="0.3"/>
<g clip-path="url(#clip1_1579_16362)">
<g filter="url(#filter0_ii_1579_16362)">
<path d="M89.5898 48.8867C66.9217 48.8867 47.5557 62.4033 39.8271 81.4658C35.2013 81.9052 31.5751 87.3081 31.1445 93.2969C30.7723 98.4757 32.9044 102.513 36.417 104.091C38.6493 130.298 61.6026 150.901 89.5898 150.901C112.036 150.901 131.245 137.648 139.122 118.88C143.867 119.591 148.165 116.159 149.562 110.149C151.026 103.856 148.754 97.1216 143.746 95.9629C143.422 95.8879 143.096 95.836 142.771 95.8047C140.593 69.5465 117.615 48.8868 89.5898 48.8867Z" fill="url(#paint2_linear_1579_16362)"/>
</g>
<g filter="url(#filter1_ii_1579_16362)">
<path d="M82.0537 62.9883C64.9861 60.2401 48.9105 71.8467 46.1484 88.9121C43.3866 105.977 54.9834 122.039 72.0508 124.787L79.6592 126.012C86.0273 130.09 88.0059 132.033 90.8857 134.86C91.6841 135.644 93.0918 134.995 93.125 133.878C93.1649 132.536 93.3248 131.032 93.7646 129.89C93.9593 129.384 94.2467 128.857 94.5762 128.338C110.829 129.834 125.696 118.497 128.343 102.146C131.105 85.0811 119.508 69.0187 102.44 66.2705L82.0537 62.9883Z" fill="#0C152D"/>
</g>
<ellipse cx="5.78613" cy="5.77123" rx="5.78613" ry="5.77123" transform="matrix(-1 0 0 1 109.582 90.4785)" fill="#00E707"/>
<ellipse cx="5.78613" cy="5.77123" rx="5.78613" ry="5.77123" transform="matrix(-1 0 0 1 71.8242 85.2109)" fill="#00E707"/>
<path d="M79.1924 93.1328C79.1369 93.4537 79.1055 93.7835 79.1055 94.1201C79.1056 97.3072 81.6963 99.8904 84.8916 99.8906C87.877 99.8906 90.3342 97.6358 90.6445 94.7402L79.1924 93.1328Z" fill="#00E707"/>
<g filter="url(#filter2_ii_1579_16362)">
<path d="M89.5956 35.6106C89.5956 39.3348 92.6225 42.354 96.3564 42.354C100.09 42.354 103.117 39.3348 103.117 35.6106C103.117 31.8863 100.09 28.8672 96.3564 28.8672C92.6225 28.8672 89.5956 31.8863 89.5956 35.6106Z" fill="white"/>
</g>
</g>
</g>
<defs>
<filter id="filter0_ii_1579_16362" x="31.1016" y="41.2034" width="118.898" height="111.62" filterUnits="userSpaceOnUse" color-interpolation-filters="sRGB">
<feFlood flood-opacity="0" result="BackgroundImageFix"/>
<feBlend mode="normal" in="SourceGraphic" in2="BackgroundImageFix" result="shape"/>
<feColorMatrix in="SourceAlpha" type="matrix" values="0 0 0 0 0 0 0 0 0 0 0 0 0 0 0 0 0 0 127 0" result="hardAlpha"/>
<feOffset dy="1.92083"/>
<feGaussianBlur stdDeviation="3.84166"/>
<feComposite in2="hardAlpha" operator="arithmetic" k2="-1" k3="1"/>
<feColorMatrix type="matrix" values="0 0 0 0 0.826923 0 0 0 0 0.826923 0 0 0 0 0.826923 0 0 0 1 0"/>
<feBlend mode="normal" in2="shape" result="effect1_innerShadow_1579_16362"/>
<feColorMatrix in="SourceAlpha" type="matrix" values="0 0 0 0 0 0 0 0 0 0 0 0 0 0 0 0 0 0 127 0" result="hardAlpha"/>
<feOffset dy="-7.68333"/>
<feGaussianBlur stdDeviation="5.76249"/>
<feComposite in2="hardAlpha" operator="arithmetic" k2="-1" k3="1"/>
<feColorMatrix type="matrix" values="0 0 0 0 0.100314 0 0 0 0 0.199482 0 0 0 0 0.596154 0 0 0 0.4 0"/>
<feBlend mode="normal" in2="effect1_innerShadow_1579_16362" result="effect2_innerShadow_1579_16362"/>
</filter>
<filter id="filter1_ii_1579_16362" x="41.9005" y="52.9818" width="94.5328" height="82.9916" filterUnits="userSpaceOnUse" color-interpolation-filters="sRGB">
<feFlood flood-opacity="0" result="BackgroundImageFix"/>
<feBlend mode="normal" in="SourceGraphic" in2="BackgroundImageFix" result="shape"/>
<feColorMatrix in="SourceAlpha" type="matrix" values="0 0 0 0 0 0 0 0 0 0 0 0 0 0 0 0 0 0 127 0" result="hardAlpha"/>
<feOffset dx="7.68333" dy="0.768333"/>
<feGaussianBlur stdDeviation="7.68333"/>
<feComposite in2="hardAlpha" operator="arithmetic" k2="-1" k3="1"/>
<feColorMatrix type="matrix" values="0 0 0 0 0.564471 0 0 0 0 0.0326831 0 0 0 0 0.971154 0 0 0 0.25 0"/>
<feBlend mode="normal" in2="shape" result="effect1_innerShadow_1579_16362"/>
<feColorMatrix in="SourceAlpha" type="matrix" values="0 0 0 0 0 0 0 0 0 0 0 0 0 0 0 0 0 0 127 0" result="hardAlpha"/>
<feOffset dx="-3.84166" dy="-9.60416"/>
<feGaussianBlur stdDeviation="5.76249"/>
<feComposite in2="hardAlpha" operator="arithmetic" k2="-1" k3="1"/>
<feColorMatrix type="matrix" values="0 0 0 0 0.0289848 0 0 0 0 0.548077 0 0 0 0 0.184712 0 0 0 0.25 0"/>
<feBlend mode="normal" in2="effect1_innerShadow_1579_16362" result="effect2_innerShadow_1579_16362"/>
</filter>
<filter id="filter2_ii_1579_16362" x="89.5938" y="25.0255" width="13.5234" height="18.0963" filterUnits="userSpaceOnUse" color-interpolation-filters="sRGB">
<feFlood flood-opacity="0" result="BackgroundImageFix"/>
<feBlend mode="normal" in="SourceGraphic" in2="BackgroundImageFix" result="shape"/>
<feColorMatrix in="SourceAlpha" type="matrix" values="0 0 0 0 0 0 0 0 0 0 0 0 0 0 0 0 0 0 127 0" result="hardAlpha"/>
<feOffset dy="-3.84166"/>
<feGaussianBlur stdDeviation="1.92083"/>
<feComposite in2="hardAlpha" operator="arithmetic" k2="-1" k3="1"/>
<feColorMatrix type="matrix" values="0 0 0 0 0.0632396 0 0 0 0 0.474883 0 0 0 0 0.730769 0 0 0 0.4 0"/>
<feBlend mode="normal" in2="shape" result="effect1_innerShadow_1579_16362"/>
<feColorMatrix in="SourceAlpha" type="matrix" values="0 0 0 0 0 0 0 0 0 0 0 0 0 0 0 0 0 0 127 0" result="hardAlpha"/>
<feOffset dy="0.768333"/>
<feGaussianBlur stdDeviation="1.92083"/>
<feComposite in2="hardAlpha" operator="arithmetic" k2="-1" k3="1"/>
<feColorMatrix type="matrix" values="0 0 0 0 0.725962 0 0 0 0 0.725962 0 0 0 0 0.725962 0 0 0 0.4 0"/>
<feBlend mode="normal" in2="effect1_innerShadow_1579_16362" result="effect2_innerShadow_1579_16362"/>
</filter>
<linearGradient id="paint0_linear_1579_16362" x1="40" y1="10.5" x2="142.532" y2="176.564" gradientUnits="userSpaceOnUse">
<stop stop-color="#6B7BD6"/>
<stop offset="1" stop-color="#555EAC"/>
</linearGradient>
<radialGradient id="paint1_radial_1579_16362" cx="0" cy="0" r="1" gradientUnits="userSpaceOnUse" gradientTransform="translate(119.5 83) rotate(-3.72405) scale(84.6788 61.9549)">
<stop stop-color="#8BEAFF"/>
<stop offset="1" stop-color="#8BEAFF" stop-opacity="0"/>
</radialGradient>
<linearGradient id="paint2_linear_1579_16362" x1="89.5885" y1="48.8867" x2="89.5885" y2="190.081" gradientUnits="userSpaceOnUse">
<stop stop-color="white"/>
<stop offset="1" stop-color="#41D1FF"/>
</linearGradient>
<clipPath id="clip0_1579_16362">
<rect width="180" height="180" fill="white"/>
</clipPath>
<clipPath id="clip1_1579_16362">
<rect width="120" height="122.264" fill="white" transform="matrix(-1 0 0 1 150 28.8672)"/>
</clipPath>
</defs>
</svg>
