<svg width="104" height="104" viewBox="0 0 104 104" fill="none" xmlns="http://www.w3.org/2000/svg">
<rect width="104" height="104" rx="52" fill="#3B68FF"/>
<g clip-path="url(#clip0_8145_17479)">
<path d="M45.5 71.9996V55.9996H57.5V71.9996H73.5V47.9996C73.5002 47.7369 73.4487 47.4767 73.3483 47.2339C73.2479 46.9911 73.1007 46.7705 72.915 46.5846L52.915 26.5846C52.7293 26.3987 52.5087 26.2511 52.2659 26.1505C52.0231 26.0499 51.7628 25.998 51.5 25.998C51.2372 25.998 50.9769 26.0499 50.7341 26.1505C50.4913 26.2511 50.2707 26.3987 50.085 26.5846L30.085 46.5846C29.8993 46.7705 29.7521 46.9911 29.6517 47.2339C29.5514 47.4767 29.4998 47.7369 29.5 47.9996V71.9996H45.5Z" stroke="white" stroke-width="4" stroke-linecap="round" stroke-linejoin="round"/>
</g>
<defs>
<clipPath id="clip0_8145_17479">
<rect width="64" height="64" fill="white" transform="translate(19.5 20)"/>
</clipPath>
</defs>
</svg>
