<svg xmlns="http://www.w3.org/2000/svg" width="72" height="72" viewBox="0 0 72 72" fill="none">
    <g clip-path="url(#clip0_7418_3582)">
        <path d="M31 6.75C25.2149 6.75 19.5597 8.46548 14.7496 11.6795C9.93945 14.8935 6.1904 19.4618 3.97654 24.8065C1.76267 30.1512 1.18343 36.0324 2.31204 41.7064C3.44066 47.3803 6.22645 52.5922 10.3171 56.6829C14.4078 60.7736 19.6197 63.5594 25.2936 64.688C30.9676 65.8166 36.8488 65.2373 42.1935 63.0235C47.5382 60.8096 52.1065 57.0606 55.3205 52.2504C58.5345 47.4403 60.25 41.7851 60.25 36C60.2418 28.2449 57.1575 20.8098 51.6738 15.3262C46.1902 9.84251 38.7551 6.75819 31 6.75ZM28.75 22.5C28.75 21.9033 28.9871 21.331 29.409 20.909C29.831 20.4871 30.4033 20.25 31 20.25C31.5967 20.25 32.169 20.4871 32.591 20.909C33.013 21.331 33.25 21.9033 33.25 22.5V38.25C33.25 38.8467 33.013 39.419 32.591 39.841C32.169 40.2629 31.5967 40.5 31 40.5C30.4033 40.5 29.831 40.2629 29.409 39.841C28.9871 39.419 28.75 38.8467 28.75 38.25V22.5ZM31 51.75C30.3325 51.75 29.68 51.5521 29.125 51.1812C28.5699 50.8104 28.1374 50.2833 27.8819 49.6666C27.6265 49.0499 27.5596 48.3713 27.6899 47.7166C27.8201 47.0619 28.1415 46.4605 28.6135 45.9885C29.0855 45.5165 29.6869 45.1951 30.3416 45.0648C30.9963 44.9346 31.6749 45.0015 32.2916 45.2569C32.9083 45.5124 33.4354 45.9449 33.8062 46.5C34.1771 47.055 34.375 47.7075 34.375 48.375C34.375 49.2701 34.0194 50.1285 33.3865 50.7615C32.7536 51.3944 31.8951 51.75 31 51.75Z" fill="#191F28"/>
    </g>
    <defs>
        <clipPath id="clip0_7418_3582">
            <rect width="72" height="72" fill="white"/>
        </clipPath>
    </defs>
</svg>