<svg width="2160" height="3840" viewBox="0 0 2160 3840" fill="none" xmlns="http://www.w3.org/2000/svg">
<g clip-path="url(#clip0_5375_12453)">
<g filter="url(#filter0_b_5375_12453)">
<path d="M0 0H2160V3840H0V0Z" fill="url(#paint0_linear_5375_12453)"/>
</g>
<g filter="url(#filter1_d_5375_12453)">
<path d="M2160 1980L6.67572e-05 1980L6.67572e-05 3840L2160 3840L2160 1980Z" fill="#F5F0EE"/>
</g>
<path d="M182.319 147.375H196.819V150.781H186.381V156.969H195.819V160.375H186.381V170H182.319V147.375ZM202.344 170L210.312 147.375H215.312L223.312 170H218.969L217.078 164.406H208.562L206.687 170H202.344ZM215.984 161.125L212.906 152H212.719L209.656 161.125H215.984ZM246.587 155C246.431 154.115 246.098 153.349 245.587 152.703C245.087 152.057 244.457 151.568 243.697 151.234C242.936 150.891 242.098 150.719 241.181 150.719C239.942 150.719 238.843 151.031 237.884 151.656C236.936 152.271 236.197 153.177 235.666 154.375C235.134 155.573 234.869 157.01 234.869 158.688C234.869 160.385 235.134 161.833 235.666 163.031C236.197 164.219 236.936 165.12 237.884 165.734C238.843 166.349 239.942 166.656 241.181 166.656C242.077 166.656 242.9 166.495 243.65 166.172C244.41 165.839 245.046 165.359 245.556 164.734C246.067 164.109 246.41 163.365 246.587 162.5H250.681C250.473 163.958 249.947 165.281 249.103 166.469C248.259 167.656 247.15 168.594 245.775 169.281C244.41 169.969 242.858 170.312 241.119 170.312C239.119 170.312 237.332 169.849 235.759 168.922C234.197 167.984 232.973 166.641 232.087 164.891C231.212 163.13 230.775 161.062 230.775 158.688C230.775 156.302 231.218 154.234 232.103 152.484C232.999 150.734 234.228 149.396 235.791 148.469C237.364 147.531 239.14 147.062 241.119 147.062C242.785 147.062 244.301 147.38 245.666 148.016C247.03 148.641 248.15 149.552 249.025 150.75C249.9 151.938 250.452 153.354 250.681 155H246.587ZM264.644 170H260.581V147.375H264.644V170ZM275.262 147.375H279.325V166.562H289.325V170H275.262V147.375ZM303.037 170H298.975V147.375H303.037V170ZM312.656 147.375H330.688V150.781H323.719V170H319.656V150.781H312.656V147.375ZM343.306 147.375L348.869 157.375H349.087L354.65 147.375H359.244L351.025 161.531V170H346.962V161.531L338.712 147.375H343.306Z" fill="#ADB5BD"/>
<path d="M201.797 215.961C201.738 225.688 206.865 235.414 215.449 239.105L211.582 244.32C205.488 241.508 201.035 235.912 198.574 228.998C196.143 236.439 191.572 242.533 185.156 245.551L181.172 240.102C189.99 236.293 195.146 226.186 195.176 215.961V207.523H201.797V215.961ZM219.258 256.273V203.246H225.82V256.273H219.258ZM277.969 203.246V230.375H271.465V216.957H260.918V211.742H271.465V203.246H277.969ZM233.32 225.453C241.846 222.875 246.27 216.342 246.27 209.223V205.004H252.832V209.223C252.803 215.756 257.08 221.938 265.312 224.457L261.855 229.496C256.113 227.592 251.953 223.842 249.609 219.037C247.324 224.398 242.959 228.617 236.719 230.668L233.32 225.453ZM243.105 237.758V232.66H277.969V246.371H249.551V250.414H279.668V255.57H243.164V241.508H271.523V237.758H243.105ZM327.246 203.246V218.773H334.629V224.164H327.246V241.977H320.742V203.246H327.246ZM286.055 220.121C286.025 212.299 292.295 206.791 300.352 206.762C308.408 206.791 314.59 212.299 314.648 220.121C314.59 227.826 308.408 233.422 300.352 233.422C292.295 233.422 286.025 227.826 286.055 220.121ZM292.441 220.121C292.412 224.691 295.928 227.709 300.352 227.68C304.834 227.709 308.232 224.691 308.262 220.121C308.232 215.434 304.834 212.445 300.352 212.445C295.928 212.445 292.412 215.434 292.441 220.121ZM293.32 255.16V237.934H299.824V249.887H329.355V255.16H293.32ZM382.793 203.246V256.215H376.523V229.438H370.664V253.52H364.57V204.242H370.664V224.105H376.523V203.246H382.793ZM339.609 243.031V209.34H346.172V237.289C350.742 237.201 355.723 236.791 361.289 235.707L361.934 241.391C354.785 242.65 348.721 243.031 343.125 243.031H339.609Z" fill="white"/>
<path d="M491.647 3771.53C491.22 3770.17 490.501 3769.1 489.491 3768.34C488.48 3767.58 487.241 3767.21 485.772 3767.22C484.491 3767.21 483.34 3767.54 482.319 3768.2C481.298 3768.86 480.491 3769.83 479.897 3771.11C479.314 3772.38 479.022 3773.91 479.022 3775.69C479.022 3777.47 479.314 3779 479.897 3780.28C480.491 3781.55 481.308 3782.52 482.35 3783.19C483.392 3783.84 484.584 3784.17 485.928 3784.16C487.126 3784.16 488.178 3783.92 489.084 3783.44C489.991 3782.96 490.694 3782.28 491.194 3781.39C491.704 3780.49 491.97 3779.45 491.991 3778.25H486.428V3775.41H495.334V3777.97C495.334 3779.84 494.933 3781.49 494.131 3782.91C493.329 3784.31 492.215 3785.4 490.787 3786.17C489.36 3786.93 487.73 3787.31 485.897 3787.31C483.866 3787.31 482.074 3786.84 480.522 3785.91C478.97 3784.96 477.761 3783.61 476.897 3781.86C476.043 3780.1 475.616 3778.04 475.616 3775.69C475.616 3773.33 476.048 3771.28 476.912 3769.53C477.777 3767.77 478.975 3766.42 480.506 3765.48C482.048 3764.54 483.793 3764.06 485.741 3764.06C487.355 3764.06 488.829 3764.38 490.162 3765.02C491.506 3765.64 492.616 3766.52 493.491 3767.66C494.366 3768.78 494.928 3770.07 495.178 3771.53H491.647ZM503.878 3764.38L509.753 3774.62H510.003L515.909 3764.38H519.816L511.597 3778.12V3787H508.159V3778.12L499.972 3764.38H503.878ZM525.859 3764.38H540.047V3767.34H529.297V3774.19H539.297V3777.12H529.297V3784.03H540.172V3787H525.859V3764.38ZM567.122 3775.69C567.122 3778.05 566.684 3780.11 565.809 3781.88C564.934 3783.62 563.721 3784.97 562.169 3785.91C560.627 3786.84 558.882 3787.31 556.934 3787.31C554.966 3787.31 553.205 3786.84 551.653 3785.91C550.111 3784.96 548.903 3783.61 548.028 3781.86C547.153 3780.1 546.716 3778.04 546.716 3775.69C546.716 3773.32 547.153 3771.27 548.028 3769.52C548.903 3767.76 550.111 3766.41 551.653 3765.47C553.205 3764.53 554.966 3764.06 556.934 3764.06C558.882 3764.06 560.627 3764.53 562.169 3765.47C563.721 3766.41 564.934 3767.76 565.809 3769.52C566.684 3771.27 567.122 3773.32 567.122 3775.69ZM550.122 3775.69C550.122 3777.48 550.413 3779.02 550.997 3780.3C551.591 3781.57 552.398 3782.53 553.419 3783.19C554.45 3783.84 555.622 3784.17 556.934 3784.16C558.236 3784.17 559.398 3783.84 560.419 3783.19C561.45 3782.53 562.257 3781.57 562.841 3780.3C563.424 3779.02 563.716 3777.48 563.716 3775.69C563.716 3773.9 563.424 3772.36 562.841 3771.09C562.257 3769.81 561.45 3768.84 560.419 3768.19C559.398 3767.53 558.236 3767.21 556.934 3767.22C555.622 3767.21 554.45 3767.53 553.419 3768.19C552.398 3768.84 551.591 3769.81 550.997 3771.09C550.413 3772.36 550.122 3773.9 550.122 3775.69ZM592.447 3787H589.291L577.822 3770.47H577.634V3787H574.197V3764.38H577.384L588.853 3780.94H589.072V3764.38H592.447V3787ZM615.553 3771.53C615.126 3770.17 614.407 3769.1 613.397 3768.34C612.386 3767.58 611.147 3767.21 609.678 3767.22C608.397 3767.21 607.246 3767.54 606.225 3768.2C605.204 3768.86 604.397 3769.83 603.803 3771.11C603.22 3772.38 602.928 3773.91 602.928 3775.69C602.928 3777.47 603.22 3779 603.803 3780.28C604.397 3781.55 605.215 3782.52 606.256 3783.19C607.298 3783.84 608.491 3784.17 609.834 3784.16C611.032 3784.16 612.084 3783.92 612.991 3783.44C613.897 3782.96 614.6 3782.28 615.1 3781.39C615.61 3780.49 615.876 3779.45 615.897 3778.25H610.334V3775.41H619.241V3777.97C619.241 3779.84 618.84 3781.49 618.037 3782.91C617.235 3784.31 616.121 3785.4 614.694 3786.17C613.267 3786.93 611.636 3787.31 609.803 3787.31C607.772 3787.31 605.98 3786.84 604.428 3785.91C602.876 3784.96 601.668 3783.61 600.803 3781.86C599.949 3780.1 599.522 3778.04 599.522 3775.69C599.522 3773.33 599.954 3771.28 600.819 3769.53C601.683 3767.77 602.881 3766.42 604.412 3765.48C605.954 3764.54 607.699 3764.06 609.647 3764.06C611.261 3764.06 612.735 3764.38 614.069 3765.02C615.412 3765.64 616.522 3766.52 617.397 3767.66C618.272 3768.78 618.834 3770.07 619.084 3771.53H615.553ZM638.722 3770.34C638.618 3769.3 638.144 3768.49 637.3 3767.91C636.456 3767.32 635.378 3767.03 634.066 3767.03C633.159 3767.03 632.362 3767.18 631.675 3767.47C630.998 3767.75 630.472 3768.15 630.097 3768.66C629.722 3769.17 629.534 3769.74 629.534 3770.38C629.534 3771.33 629.93 3772.07 630.722 3772.59C631.514 3773.11 632.493 3773.51 633.659 3773.78L635.847 3774.38C640.191 3775.43 642.368 3777.55 642.378 3780.75C642.368 3782.03 642.029 3783.17 641.362 3784.17C640.706 3785.17 639.743 3785.96 638.472 3786.53C637.211 3787.09 635.711 3787.38 633.972 3787.38C632.295 3787.38 630.831 3787.11 629.581 3786.58C628.342 3786.04 627.368 3785.27 626.659 3784.27C625.961 3783.27 625.576 3782.08 625.503 3780.72H628.941C629.034 3781.91 629.545 3782.81 630.472 3783.44C631.409 3784.05 632.576 3784.36 633.972 3784.38C634.93 3784.38 635.784 3784.22 636.534 3783.92C637.295 3783.61 637.889 3783.18 638.316 3782.62C638.753 3782.06 638.972 3781.42 638.972 3780.69C638.972 3780.06 638.79 3779.54 638.425 3779.11C638.06 3778.68 637.571 3778.33 636.956 3778.06C636.352 3777.78 635.597 3777.52 634.691 3777.28L632.003 3776.56C630.107 3776.04 628.649 3775.29 627.628 3774.31C626.618 3773.33 626.107 3772.08 626.097 3770.56C626.097 3769.28 626.446 3768.15 627.144 3767.17C627.852 3766.18 628.816 3765.42 630.034 3764.88C631.264 3764.33 632.639 3764.06 634.159 3764.06C635.67 3764.06 637.019 3764.33 638.206 3764.88C639.394 3765.41 640.326 3766.15 641.003 3767.11C641.68 3768.06 642.034 3769.14 642.066 3770.34H638.722ZM647.359 3787L655.484 3764.38H659.453L667.609 3787H663.953L661.891 3781.03H653.078L651.016 3787H647.359ZM660.891 3778.16L657.547 3768.5H657.391L654.062 3778.16H660.891ZM691.934 3787H688.778L677.309 3770.47H677.122V3787H673.684V3764.38H676.872L688.341 3780.94H688.559V3764.38H691.934V3787ZM715.041 3771.53C714.614 3770.17 713.895 3769.1 712.884 3768.34C711.874 3767.58 710.634 3767.21 709.166 3767.22C707.884 3767.21 706.733 3767.54 705.712 3768.2C704.692 3768.86 703.884 3769.83 703.291 3771.11C702.707 3772.38 702.416 3773.91 702.416 3775.69C702.416 3777.47 702.707 3779 703.291 3780.28C703.884 3781.55 704.702 3782.52 705.744 3783.19C706.785 3783.84 707.978 3784.17 709.322 3784.16C710.52 3784.16 711.572 3783.92 712.478 3783.44C713.384 3782.96 714.087 3782.28 714.587 3781.39C715.098 3780.49 715.364 3779.45 715.384 3778.25H709.822V3775.41H718.728V3777.97C718.728 3779.84 718.327 3781.49 717.525 3782.91C716.723 3784.31 715.608 3785.4 714.181 3786.17C712.754 3786.93 711.124 3787.31 709.291 3787.31C707.259 3787.31 705.468 3786.84 703.916 3785.91C702.364 3784.96 701.155 3783.61 700.291 3781.86C699.436 3780.1 699.009 3778.04 699.009 3775.69C699.009 3773.33 699.442 3771.28 700.306 3769.53C701.171 3767.77 702.369 3766.42 703.9 3765.48C705.442 3764.54 707.186 3764.06 709.134 3764.06C710.749 3764.06 712.223 3764.38 713.556 3765.02C714.9 3765.64 716.009 3766.52 716.884 3767.66C717.759 3768.78 718.322 3770.07 718.572 3771.53H715.041ZM725.897 3764.38H734.178C735.741 3764.38 737.058 3764.63 738.131 3765.14C739.204 3765.65 740.006 3766.35 740.537 3767.25C741.069 3768.15 741.334 3769.17 741.334 3770.31C741.334 3771.64 740.98 3772.69 740.272 3773.48C739.574 3774.27 738.657 3774.8 737.522 3775.09V3775.31C738.303 3775.35 739.053 3775.6 739.772 3776.06C740.491 3776.52 741.074 3777.17 741.522 3778C741.98 3778.82 742.209 3779.79 742.209 3780.91C742.209 3782.09 741.933 3783.15 741.381 3784.06C740.829 3784.98 739.98 3785.7 738.834 3786.22C737.689 3786.74 736.261 3787 734.553 3787H725.897V3764.38ZM734.241 3784.06C735.793 3784.05 736.939 3783.75 737.678 3783.16C738.428 3782.55 738.803 3781.75 738.803 3780.75C738.803 3780.02 738.621 3779.36 738.256 3778.77C737.892 3778.17 737.371 3777.7 736.694 3777.36C736.027 3777.02 735.251 3776.84 734.366 3776.84H729.334V3784.06H734.241ZM733.897 3774.16C734.657 3774.15 735.345 3773.99 735.959 3773.7C736.584 3773.41 737.074 3773 737.428 3772.47C737.782 3771.93 737.959 3771.3 737.959 3770.59C737.959 3769.61 737.616 3768.82 736.928 3768.22C736.251 3767.61 735.261 3767.31 733.959 3767.31H729.334V3774.16H733.897ZM767.066 3764.38V3779.25C767.066 3780.82 766.691 3782.22 765.941 3783.45C765.201 3784.68 764.149 3785.65 762.784 3786.34C761.43 3787.03 759.868 3787.38 758.097 3787.38C756.305 3787.38 754.727 3787.03 753.362 3786.34C751.998 3785.65 750.946 3784.68 750.206 3783.45C749.467 3782.22 749.097 3780.82 749.097 3779.25V3764.38H752.534V3778.97C752.534 3779.99 752.758 3780.9 753.206 3781.7C753.654 3782.49 754.3 3783.12 755.144 3783.58C755.987 3784.03 756.972 3784.25 758.097 3784.25C759.222 3784.25 760.201 3784.03 761.034 3783.58C761.868 3783.12 762.508 3782.49 762.956 3781.7C763.404 3780.9 763.628 3779.99 763.628 3778.97V3764.38H767.066ZM774.891 3764.38H778.328V3775.16H778.609L788.078 3764.38H792.391L783.266 3774.56L792.422 3787H788.266L780.984 3776.91L778.328 3779.97V3787H774.891V3764.38ZM805.497 3777.12H795.466V3774.25H805.497V3777.12ZM813.009 3787V3764.38H820.572C822.78 3764.38 824.681 3764.83 826.275 3765.73C827.879 3766.63 829.103 3767.93 829.947 3769.62C830.801 3771.31 831.228 3773.32 831.228 3775.66C831.228 3778 830.796 3780.03 829.931 3781.73C829.077 3783.43 827.837 3784.73 826.212 3785.64C824.587 3786.55 822.634 3787 820.353 3787H813.009ZM820.166 3784C822.707 3783.99 824.619 3783.27 825.9 3781.84C827.181 3780.42 827.822 3778.35 827.822 3775.66C827.822 3772.97 827.186 3770.92 825.916 3769.5C824.655 3768.08 822.801 3767.38 820.353 3767.38H816.447V3784H820.166ZM857.959 3775.69C857.959 3778.05 857.522 3780.11 856.647 3781.88C855.772 3783.62 854.558 3784.97 853.006 3785.91C851.465 3786.84 849.72 3787.31 847.772 3787.31C845.803 3787.31 844.043 3786.84 842.491 3785.91C840.949 3784.96 839.741 3783.61 838.866 3781.86C837.991 3780.1 837.553 3778.04 837.553 3775.69C837.553 3773.32 837.991 3771.27 838.866 3769.52C839.741 3767.76 840.949 3766.41 842.491 3765.47C844.043 3764.53 845.803 3764.06 847.772 3764.06C849.72 3764.06 851.465 3764.53 853.006 3765.47C854.558 3766.41 855.772 3767.76 856.647 3769.52C857.522 3771.27 857.959 3773.32 857.959 3775.69ZM840.959 3775.69C840.959 3777.48 841.251 3779.02 841.834 3780.3C842.428 3781.57 843.235 3782.53 844.256 3783.19C845.287 3783.84 846.459 3784.17 847.772 3784.16C849.074 3784.17 850.235 3783.84 851.256 3783.19C852.287 3782.53 853.095 3781.57 853.678 3780.3C854.261 3779.02 854.553 3777.48 854.553 3775.69C854.553 3773.9 854.261 3772.36 853.678 3771.09C853.095 3769.81 852.287 3768.84 851.256 3768.19C850.235 3767.53 849.074 3767.21 847.772 3767.22C846.459 3767.21 845.287 3767.53 844.256 3768.19C843.235 3768.84 842.428 3769.81 841.834 3771.09C841.251 3772.36 840.959 3773.9 840.959 3775.69ZM895.703 3775.69C895.703 3778.05 895.266 3780.11 894.391 3781.88C893.516 3783.62 892.302 3784.97 890.75 3785.91C889.208 3786.84 887.464 3787.31 885.516 3787.31C883.547 3787.31 881.786 3786.84 880.234 3785.91C878.693 3784.96 877.484 3783.61 876.609 3781.86C875.734 3780.1 875.297 3778.04 875.297 3775.69C875.297 3773.32 875.734 3771.27 876.609 3769.52C877.484 3767.76 878.693 3766.41 880.234 3765.47C881.786 3764.53 883.547 3764.06 885.516 3764.06C887.464 3764.06 889.208 3764.53 890.75 3765.47C892.302 3766.41 893.516 3767.76 894.391 3769.52C895.266 3771.27 895.703 3773.32 895.703 3775.69ZM878.703 3775.69C878.703 3777.48 878.995 3779.02 879.578 3780.3C880.172 3781.57 880.979 3782.53 882 3783.19C883.031 3783.84 884.203 3784.17 885.516 3784.16C886.818 3784.17 887.979 3783.84 889 3783.19C890.031 3782.53 890.839 3781.57 891.422 3780.3C892.005 3779.02 892.297 3777.48 892.297 3775.69C892.297 3773.9 892.005 3772.36 891.422 3771.09C890.839 3769.81 890.031 3768.84 889 3768.19C887.979 3767.53 886.818 3767.21 885.516 3767.22C884.203 3767.21 883.031 3767.53 882 3768.19C880.979 3768.84 880.172 3769.81 879.578 3771.09C878.995 3772.36 878.703 3773.9 878.703 3775.69ZM902.778 3764.38H916.809V3767.34H906.216V3774.19H915.809V3777.12H906.216V3787H902.778V3764.38ZM923.853 3764.38H937.884V3767.34H927.291V3774.19H936.884V3777.12H927.291V3787H923.853V3764.38ZM948.366 3787H944.928V3764.38H948.366V3787ZM971.472 3771.75C971.295 3770.8 970.925 3769.98 970.362 3769.3C969.81 3768.61 969.123 3768.09 968.3 3767.73C967.487 3767.38 966.597 3767.21 965.628 3767.22C964.316 3767.21 963.144 3767.54 962.112 3768.2C961.092 3768.86 960.284 3769.83 959.691 3771.11C959.107 3772.38 958.816 3773.91 958.816 3775.69C958.816 3777.48 959.107 3779.02 959.691 3780.3C960.284 3781.57 961.092 3782.53 962.112 3783.19C963.144 3783.84 964.316 3784.17 965.628 3784.16C966.586 3784.17 967.472 3784 968.284 3783.66C969.097 3783.3 969.779 3782.79 970.331 3782.11C970.894 3781.43 971.274 3780.62 971.472 3779.69L974.941 3779.72C974.701 3781.2 974.154 3782.52 973.3 3783.67C972.456 3784.82 971.368 3785.71 970.034 3786.36C968.711 3786.99 967.232 3787.31 965.597 3787.31C963.628 3787.31 961.873 3786.84 960.331 3785.91C958.79 3784.97 957.581 3783.62 956.706 3781.88C955.842 3780.11 955.409 3778.05 955.409 3775.69C955.409 3773.32 955.847 3771.27 956.722 3769.52C957.597 3767.76 958.805 3766.41 960.347 3765.47C961.889 3764.53 963.639 3764.06 965.597 3764.06C967.191 3764.06 968.649 3764.37 969.972 3764.98C971.295 3765.59 972.389 3766.47 973.253 3767.62C974.128 3768.78 974.691 3770.16 974.941 3771.75H971.472ZM981.859 3764.38H996.047V3767.34H985.297V3774.19H995.297V3777.12H985.297V3784.03H996.172V3787H981.859V3764.38ZM1034.13 3775.69C1034.13 3778.05 1033.7 3780.11 1032.82 3781.88C1031.95 3783.62 1030.73 3784.97 1029.18 3785.91C1027.64 3786.84 1025.89 3787.31 1023.95 3787.31C1021.98 3787.31 1020.22 3786.84 1018.67 3785.91C1017.12 3784.96 1015.92 3783.61 1015.04 3781.86C1014.17 3780.1 1013.73 3778.04 1013.73 3775.69C1013.73 3773.32 1014.17 3771.27 1015.04 3769.52C1015.92 3767.76 1017.12 3766.41 1018.67 3765.47C1020.22 3764.53 1021.98 3764.06 1023.95 3764.06C1025.89 3764.06 1027.64 3764.53 1029.18 3765.47C1030.73 3766.41 1031.95 3767.76 1032.82 3769.52C1033.7 3771.27 1034.13 3773.32 1034.13 3775.69ZM1017.13 3775.69C1017.13 3777.48 1017.43 3779.02 1018.01 3780.3C1018.6 3781.57 1019.41 3782.53 1020.43 3783.19C1021.46 3783.84 1022.63 3784.17 1023.95 3784.16C1025.25 3784.17 1026.41 3783.84 1027.43 3783.19C1028.46 3782.53 1029.27 3781.57 1029.85 3780.3C1030.44 3779.02 1030.73 3777.48 1030.73 3775.69C1030.73 3773.9 1030.44 3772.36 1029.85 3771.09C1029.27 3769.81 1028.46 3768.84 1027.43 3768.19C1026.41 3767.53 1025.25 3767.21 1023.95 3767.22C1022.63 3767.21 1021.46 3767.53 1020.43 3768.19C1019.41 3768.84 1018.6 3769.81 1018.01 3771.09C1017.43 3772.36 1017.13 3773.9 1017.13 3775.69ZM1041.21 3764.38H1055.24V3767.34H1044.65V3774.19H1054.24V3777.12H1044.65V3787H1041.21V3764.38ZM1073.3 3764.38H1087.48V3767.34H1076.73V3774.19H1086.73V3777.12H1076.73V3784.03H1087.61V3787H1073.3V3764.38ZM1094.9 3787V3764.38H1102.47C1104.67 3764.38 1106.57 3764.83 1108.17 3765.73C1109.77 3766.63 1111 3767.93 1111.84 3769.62C1112.69 3771.31 1113.12 3773.32 1113.12 3775.66C1113.12 3778 1112.69 3780.03 1111.82 3781.73C1110.97 3783.43 1109.73 3784.73 1108.11 3785.64C1106.48 3786.55 1104.53 3787 1102.25 3787H1094.9ZM1102.06 3784C1104.6 3783.99 1106.51 3783.27 1107.79 3781.84C1109.07 3780.42 1109.72 3778.35 1109.72 3775.66C1109.72 3772.97 1109.08 3770.92 1107.81 3769.5C1106.55 3768.08 1104.69 3767.38 1102.25 3767.38H1098.34V3784H1102.06ZM1138.17 3764.38V3779.25C1138.17 3780.82 1137.79 3782.22 1137.04 3783.45C1136.3 3784.68 1135.25 3785.65 1133.88 3786.34C1132.53 3787.03 1130.97 3787.38 1129.2 3787.38C1127.41 3787.38 1125.83 3787.03 1124.46 3786.34C1123.1 3785.65 1122.05 3784.68 1121.31 3783.45C1120.57 3782.22 1120.2 3780.82 1120.2 3779.25V3764.38H1123.63V3778.97C1123.63 3779.99 1123.86 3780.9 1124.31 3781.7C1124.75 3782.49 1125.4 3783.12 1126.24 3783.58C1127.09 3784.03 1128.07 3784.25 1129.2 3784.25C1130.32 3784.25 1131.3 3784.03 1132.13 3783.58C1132.97 3783.12 1133.61 3782.49 1134.06 3781.7C1134.5 3780.9 1134.73 3779.99 1134.73 3778.97V3764.38H1138.17ZM1161.3 3771.75C1161.13 3770.8 1160.76 3769.98 1160.19 3769.3C1159.64 3768.61 1158.95 3768.09 1158.13 3767.73C1157.32 3767.38 1156.43 3767.21 1155.46 3767.22C1154.15 3767.21 1152.97 3767.54 1151.94 3768.2C1150.92 3768.86 1150.12 3769.83 1149.52 3771.11C1148.94 3772.38 1148.65 3773.91 1148.65 3775.69C1148.65 3777.48 1148.94 3779.02 1149.52 3780.3C1150.12 3781.57 1150.92 3782.53 1151.94 3783.19C1152.97 3783.84 1154.15 3784.17 1155.46 3784.16C1156.42 3784.17 1157.3 3784 1158.12 3783.66C1158.93 3783.3 1159.61 3782.79 1160.16 3782.11C1160.72 3781.43 1161.11 3780.62 1161.3 3779.69L1164.77 3779.72C1164.53 3781.2 1163.99 3782.52 1163.13 3783.67C1162.29 3784.82 1161.2 3785.71 1159.87 3786.36C1158.54 3786.99 1157.06 3787.31 1155.43 3787.31C1153.46 3787.31 1151.7 3786.84 1150.16 3785.91C1148.62 3784.97 1147.41 3783.62 1146.54 3781.88C1145.67 3780.11 1145.24 3778.05 1145.24 3775.69C1145.24 3773.32 1145.68 3771.27 1146.55 3769.52C1147.43 3767.76 1148.64 3766.41 1150.18 3765.47C1151.72 3764.53 1153.47 3764.06 1155.43 3764.06C1157.02 3764.06 1158.48 3764.37 1159.8 3764.98C1161.13 3765.59 1162.22 3766.47 1163.08 3767.62C1163.96 3768.78 1164.52 3770.16 1164.77 3771.75H1161.3ZM1169.82 3787L1177.94 3764.38H1181.91L1190.07 3787H1186.41L1184.35 3781.03H1175.53L1173.47 3787H1169.82ZM1183.35 3778.16L1180 3768.5H1179.85L1176.52 3778.16H1183.35ZM1192.3 3764.38H1209.83V3767.34H1202.8V3787H1199.36V3767.34H1192.3V3764.38ZM1219.97 3787H1216.53V3764.38H1219.97V3787ZM1247.42 3775.69C1247.42 3778.05 1246.98 3780.11 1246.1 3781.88C1245.23 3783.62 1244.01 3784.97 1242.46 3785.91C1240.92 3786.84 1239.18 3787.31 1237.23 3787.31C1235.26 3787.31 1233.5 3786.84 1231.95 3785.91C1230.41 3784.96 1229.2 3783.61 1228.32 3781.86C1227.45 3780.1 1227.01 3778.04 1227.01 3775.69C1227.01 3773.32 1227.45 3771.27 1228.32 3769.52C1229.2 3767.76 1230.41 3766.41 1231.95 3765.47C1233.5 3764.53 1235.26 3764.06 1237.23 3764.06C1239.18 3764.06 1240.92 3764.53 1242.46 3765.47C1244.01 3766.41 1245.23 3767.76 1246.1 3769.52C1246.98 3771.27 1247.42 3773.32 1247.42 3775.69ZM1230.42 3775.69C1230.42 3777.48 1230.71 3779.02 1231.29 3780.3C1231.88 3781.57 1232.69 3782.53 1233.71 3783.19C1234.74 3783.84 1235.92 3784.17 1237.23 3784.16C1238.53 3784.17 1239.69 3783.84 1240.71 3783.19C1241.74 3782.53 1242.55 3781.57 1243.13 3780.3C1243.72 3779.02 1244.01 3777.48 1244.01 3775.69C1244.01 3773.9 1243.72 3772.36 1243.13 3771.09C1242.55 3769.81 1241.74 3768.84 1240.71 3768.19C1239.69 3767.53 1238.53 3767.21 1237.23 3767.22C1235.92 3767.21 1234.74 3767.53 1233.71 3768.19C1232.69 3768.84 1231.88 3769.81 1231.29 3771.09C1230.71 3772.36 1230.42 3773.9 1230.42 3775.69ZM1272.74 3787H1269.58L1258.12 3770.47H1257.93V3787H1254.49V3764.38H1257.68L1269.15 3780.94H1269.37V3764.38H1272.74V3787ZM1295.02 3787H1291.58V3764.38H1295.02V3787ZM1321.06 3787H1317.9L1306.43 3770.47H1306.25V3787H1302.81V3764.38H1306L1317.47 3780.94H1317.68V3764.38H1321.06V3787ZM1328.88 3764.38H1342.92V3767.34H1332.32V3774.19H1341.92V3777.12H1332.32V3787H1328.88V3764.38ZM1369.62 3775.69C1369.62 3778.05 1369.18 3780.11 1368.3 3781.88C1367.43 3783.62 1366.21 3784.97 1364.66 3785.91C1363.12 3786.84 1361.38 3787.31 1359.43 3787.31C1357.46 3787.31 1355.7 3786.84 1354.15 3785.91C1352.61 3784.96 1351.4 3783.61 1350.52 3781.86C1349.65 3780.1 1349.21 3778.04 1349.21 3775.69C1349.21 3773.32 1349.65 3771.27 1350.52 3769.52C1351.4 3767.76 1352.61 3766.41 1354.15 3765.47C1355.7 3764.53 1357.46 3764.06 1359.43 3764.06C1361.38 3764.06 1363.12 3764.53 1364.66 3765.47C1366.21 3766.41 1367.43 3767.76 1368.3 3769.52C1369.18 3771.27 1369.62 3773.32 1369.62 3775.69ZM1352.62 3775.69C1352.62 3777.48 1352.91 3779.02 1353.49 3780.3C1354.08 3781.57 1354.89 3782.53 1355.91 3783.19C1356.94 3783.84 1358.12 3784.17 1359.43 3784.16C1360.73 3784.17 1361.89 3783.84 1362.91 3783.19C1363.94 3782.53 1364.75 3781.57 1365.33 3780.3C1365.92 3779.02 1366.21 3777.48 1366.21 3775.69C1366.21 3773.9 1365.92 3772.36 1365.33 3771.09C1364.75 3769.81 1363.94 3768.84 1362.91 3768.19C1361.89 3767.53 1360.73 3767.21 1359.43 3767.22C1358.12 3767.21 1356.94 3767.53 1355.91 3768.19C1354.89 3768.84 1354.08 3769.81 1353.49 3771.09C1352.91 3772.36 1352.62 3773.9 1352.62 3775.69ZM1376.69 3764.38H1384.75C1386.46 3764.38 1387.9 3764.67 1389.08 3765.27C1390.26 3765.86 1391.14 3766.69 1391.72 3767.75C1392.31 3768.81 1392.6 3770.05 1392.6 3771.47C1392.6 3773.01 1392.25 3774.33 1391.55 3775.44C1390.85 3776.53 1389.83 3777.34 1388.47 3777.86L1393.47 3787H1389.57L1384.97 3778.47H1384.75H1380.13V3787H1376.69V3764.38ZM1384.41 3775.5C1386.03 3775.49 1387.23 3775.15 1387.99 3774.47C1388.75 3773.78 1389.13 3772.78 1389.13 3771.47C1389.13 3770.15 1388.74 3769.12 1387.97 3768.41C1387.21 3767.69 1386.02 3767.32 1384.41 3767.31H1380.13V3775.5H1384.41ZM1403.8 3764.38L1410.95 3781.91H1411.23L1418.39 3764.38H1422.58V3787H1419.3V3770.66H1419.08L1412.45 3786.97H1409.73L1403.08 3770.62H1402.89V3787H1399.61V3764.38H1403.8ZM1428.68 3787L1436.81 3764.38H1440.78L1448.93 3787H1445.28L1443.22 3781.03H1434.4L1432.34 3787H1428.68ZM1442.22 3778.16L1438.87 3768.5H1438.72L1435.39 3778.16H1442.22ZM1451.17 3764.38H1468.7V3767.34H1461.67V3787H1458.23V3767.34H1451.17V3764.38ZM1478.83 3787H1475.4V3764.38H1478.83V3787ZM1506.28 3775.69C1506.28 3778.05 1505.85 3780.11 1504.97 3781.88C1504.1 3783.62 1502.88 3784.97 1501.33 3785.91C1499.79 3786.84 1498.04 3787.31 1496.1 3787.31C1494.13 3787.31 1492.37 3786.84 1490.82 3785.91C1489.27 3784.96 1488.07 3783.61 1487.19 3781.86C1486.32 3780.1 1485.88 3778.04 1485.88 3775.69C1485.88 3773.32 1486.32 3771.27 1487.19 3769.52C1488.07 3767.76 1489.27 3766.41 1490.82 3765.47C1492.37 3764.53 1494.13 3764.06 1496.1 3764.06C1498.04 3764.06 1499.79 3764.53 1501.33 3765.47C1502.88 3766.41 1504.1 3767.76 1504.97 3769.52C1505.85 3771.27 1506.28 3773.32 1506.28 3775.69ZM1489.28 3775.69C1489.28 3777.48 1489.58 3779.02 1490.16 3780.3C1490.75 3781.57 1491.56 3782.53 1492.58 3783.19C1493.61 3783.84 1494.78 3784.17 1496.1 3784.16C1497.4 3784.17 1498.56 3783.84 1499.58 3783.19C1500.61 3782.53 1501.42 3781.57 1502 3780.3C1502.59 3779.02 1502.88 3777.48 1502.88 3775.69C1502.88 3773.9 1502.59 3772.36 1502 3771.09C1501.42 3769.81 1500.61 3768.84 1499.58 3768.19C1498.56 3767.53 1497.4 3767.21 1496.1 3767.22C1494.78 3767.21 1493.61 3767.53 1492.58 3768.19C1491.56 3768.84 1490.75 3769.81 1490.16 3771.09C1489.58 3772.36 1489.28 3773.9 1489.28 3775.69ZM1531.61 3787H1528.45L1516.98 3770.47H1516.8V3787H1513.36V3764.38H1516.55L1528.02 3780.94H1528.23V3764.38H1531.61V3787ZM1565.76 3771.75C1565.58 3770.8 1565.21 3769.98 1564.65 3769.3C1564.1 3768.61 1563.41 3768.09 1562.59 3767.73C1561.78 3767.38 1560.88 3767.21 1559.92 3767.22C1558.6 3767.21 1557.43 3767.54 1556.4 3768.2C1555.38 3768.86 1554.57 3769.83 1553.98 3771.11C1553.39 3772.38 1553.1 3773.91 1553.1 3775.69C1553.1 3777.48 1553.39 3779.02 1553.98 3780.3C1554.57 3781.57 1555.38 3782.53 1556.4 3783.19C1557.43 3783.84 1558.6 3784.17 1559.92 3784.16C1560.87 3784.17 1561.76 3784 1562.57 3783.66C1563.38 3783.3 1564.07 3782.79 1564.62 3782.11C1565.18 3781.43 1565.56 3780.62 1565.76 3779.69L1569.23 3779.72C1568.99 3781.2 1568.44 3782.52 1567.59 3783.67C1566.74 3784.82 1565.66 3785.71 1564.32 3786.36C1563 3786.99 1561.52 3787.31 1559.88 3787.31C1557.92 3787.31 1556.16 3786.84 1554.62 3785.91C1553.08 3784.97 1551.87 3783.62 1550.99 3781.88C1550.13 3780.11 1549.7 3778.05 1549.7 3775.69C1549.7 3773.32 1550.13 3771.27 1551.01 3769.52C1551.88 3767.76 1553.09 3766.41 1554.63 3765.47C1556.18 3764.53 1557.93 3764.06 1559.88 3764.06C1561.48 3764.06 1562.94 3764.37 1564.26 3764.98C1565.58 3765.59 1566.68 3766.47 1567.54 3767.62C1568.42 3768.78 1568.98 3770.16 1569.23 3771.75H1565.76ZM1576.15 3764.38H1590.33V3767.34H1579.58V3774.19H1589.58V3777.12H1579.58V3784.03H1590.46V3787H1576.15V3764.38ZM1616 3787H1612.85L1601.38 3770.47H1601.19V3787H1597.75V3764.38H1600.94L1612.41 3780.94H1612.63V3764.38H1616V3787ZM1622.7 3764.38H1640.23V3767.34H1633.2V3787H1629.77V3767.34H1622.7V3764.38ZM1646.93 3764.38H1661.12V3767.34H1650.37V3774.19H1660.37V3777.12H1650.37V3784.03H1661.25V3787H1646.93V3764.38ZM1668.54 3764.38H1676.6C1678.31 3764.38 1679.75 3764.67 1680.93 3765.27C1682.11 3765.86 1682.99 3766.69 1683.57 3767.75C1684.16 3768.81 1684.45 3770.05 1684.45 3771.47C1684.45 3773.01 1684.1 3774.33 1683.4 3775.44C1682.7 3776.53 1681.68 3777.34 1680.32 3777.86L1685.32 3787H1681.42L1676.82 3778.47H1676.6H1671.98V3787H1668.54V3764.38ZM1676.26 3775.5C1677.88 3775.49 1679.08 3775.15 1679.84 3774.47C1680.6 3773.78 1680.98 3772.78 1680.98 3771.47C1680.98 3770.15 1680.59 3769.12 1679.82 3768.41C1679.06 3767.69 1677.87 3767.32 1676.26 3767.31H1671.98V3775.5H1676.26Z" fill="#ADB5BD"/>
</g>
<defs>
<filter id="filter0_b_5375_12453" x="-10" y="-10" width="2180" height="3860" filterUnits="userSpaceOnUse" color-interpolation-filters="sRGB">
<feFlood flood-opacity="0" result="BackgroundImageFix"/>
<feGaussianBlur in="BackgroundImageFix" stdDeviation="5"/>
<feComposite in2="SourceAlpha" operator="in" result="effect1_backgroundBlur_5375_12453"/>
<feBlend mode="normal" in="SourceGraphic" in2="effect1_backgroundBlur_5375_12453" result="shape"/>
</filter>
<filter id="filter1_d_5375_12453" x="-60" y="1930" width="2260" height="1960" filterUnits="userSpaceOnUse" color-interpolation-filters="sRGB">
<feFlood flood-opacity="0" result="BackgroundImageFix"/>
<feColorMatrix in="SourceAlpha" type="matrix" values="0 0 0 0 0 0 0 0 0 0 0 0 0 0 0 0 0 0 127 0" result="hardAlpha"/>
<feOffset dx="-10"/>
<feGaussianBlur stdDeviation="25"/>
<feComposite in2="hardAlpha" operator="out"/>
<feColorMatrix type="matrix" values="0 0 0 0 0 0 0 0 0 0 0 0 0 0 0 0 0 0 0.2 0"/>
<feBlend mode="multiply" in2="BackgroundImageFix" result="effect1_dropShadow_5375_12453"/>
<feBlend mode="normal" in="SourceGraphic" in2="effect1_dropShadow_5375_12453" result="shape"/>
</filter>
<linearGradient id="paint0_linear_5375_12453" x1="946" y1="-1.15293e-05" x2="1359" y2="1761.5" gradientUnits="userSpaceOnUse">
<stop stop-color="#1E87B4"/>
<stop offset="0.884091" stop-color="#175473"/>
</linearGradient>
<clipPath id="clip0_5375_12453">
<rect width="2160" height="3840" fill="white"/>
</clipPath>
</defs>
</svg>
