<svg width="1906" height="1089" viewBox="0 0 1906 1089" fill="none" xmlns="http://www.w3.org/2000/svg">
<g filter="url(#filter0_f_4338_10411)">
<path d="M738.714 154.327L53 546.182C53 546.182 203 566.081 376.469 624.757C549.939 683.433 715.245 784.458 843.306 883.952C957.263 972.488 1138.71 1036 1138.71 1036L1853 627.818L1367.29 350.254L1224.43 431.891L738.714 154.327Z" stroke="black" stroke-opacity="0.25" stroke-width="10" stroke-linejoin="round"/>
</g>
<mask id="mask0_4338_10411" style="mask-type:alpha" maskUnits="userSpaceOnUse" x="48" y="109" width="1810" height="892">
<path d="M738.714 114.327L53 506.182C53 506.182 203 526.081 376.469 584.757C549.939 643.433 715.245 744.458 843.306 843.952C957.263 932.488 1138.71 996 1138.71 996L1853 587.818L1367.29 310.254L1224.43 391.891L738.714 114.327Z" stroke="black" stroke-width="10" stroke-linejoin="round"/>
</mask>
<g mask="url(#mask0_4338_10411)">
<path d="M660.139 714.865L663.201 701.599L589.221 609.248L138.201 490.875L743.303 140.349L1208.61 420.464L1367.28 343.419L1796.87 579.654L1143.81 961.304L1043.3 930.691L999.425 928.65L982.588 937.834V947.018L1143.81 1023.04L1849.94 629.146L1875.45 582.716L1548.4 382.707L1367.28 288.315L1222.38 374.543L752.486 95.959H730.037L32.0781 482.711L41.2618 517.407L97.8944 540.367L269.323 579.654L491.772 660.27L630.037 730.682L660.139 714.865Z" fill="#191F28"/>
<path d="M735.139 752.621L716.262 763.846L737.18 785.786L810.65 842.932L902.996 902.118L924.935 889.362L735.139 752.621Z" fill="#191F28"/>
</g>
<path d="M1324.43 449.036L1374.43 477.609L1517.29 395.973L1467.29 367.4L1324.43 449.036Z" stroke="#191F28" stroke-width="4" stroke-linejoin="round"/>
<path d="M1424.43 391.891L1449.46 406.159M1449.46 406.159L1475.45 420.974M1449.46 406.159L1435.14 414.341M1449.46 406.159L1463.72 398.014M1410.14 400.055L1435.14 414.341M1435.14 414.341L1460.14 428.627M1435.14 414.341L1420.86 422.505M1395.86 408.218L1420.86 422.505M1420.86 422.505L1445.86 436.791M1420.86 422.505L1406.57 430.668M1381.57 416.382L1406.57 430.668M1406.57 430.668L1431.57 444.955M1406.57 430.668L1392.29 438.832M1367.29 424.545L1392.29 438.832M1392.29 438.832L1417.29 453.118M1392.29 438.832L1378 446.995M1403 461.282L1378 446.995M1378 446.995L1349.43 463.323M1385.14 442.914L1410.14 457.2M1374.43 420.464L1424.43 449.036M1388.72 412.3L1438.72 440.873M1403 404.136L1453 432.709M1417.29 395.973L1467.29 424.545M1431.57 387.809L1481.57 416.382" stroke="#191F28" stroke-width="2" stroke-linecap="round"/>
<path d="M1124.43 563.327L1253 636.8L1410.14 547L1281.57 473.527L1124.43 563.327Z" stroke="#191F28" stroke-width="4" stroke-linejoin="round"/>
<path d="M1124.43 857.218L1253 930.691L1481.57 800.072L1353 726.6L1124.43 857.218Z" stroke="#191F28" stroke-width="4" stroke-linejoin="round"/>
<mask id="mask1_4338_10411" style="mask-type:alpha" maskUnits="userSpaceOnUse" x="865" y="553" width="176" height="103">
<path d="M867.289 595.982L967.289 653.127L1038.72 612.309L938.718 555.164L867.289 595.982Z" stroke="black" stroke-width="4" stroke-linejoin="round"/>
</mask>
<g mask="url(#mask1_4338_10411)">
<path d="M967.5 578C970.833 576.167 977.8 572.5 979 572.5L940.5 549L871 576.5L856 595.5L942.5 653.5L972.5 660.5L1027.5 628.5C1032.67 626 1043.1 620.9 1043.5 620.5C1043.9 620.1 1045 614.333 1045.5 611.5L1040.5 609L1030 615L1021 616.5L965 646L942.5 630L883 595.5L888.5 590L940.5 563L967.5 578Z" fill="#191F28"/>
</g>
<mask id="mask2_4338_10411" style="mask-type:alpha" maskUnits="userSpaceOnUse" x="679" y="447" width="176" height="102">
<path d="M681.57 489.854L781.57 547L852.999 506.182L752.999 449.036L681.57 489.854Z" stroke="black" stroke-width="4" stroke-linejoin="round"/>
</mask>
<g mask="url(#mask2_4338_10411)">
<path d="M778 472L790 465L758 436.5L673.5 478L687 502L792 561C812.333 550.333 853.3 528.7 854.5 527.5C855.7 526.3 864.333 514.333 868.5 508.5L856 502L845 508.5H839.5L781 534.5L758 527.5L695 489.5L713 478L754.5 458.5L778 472Z" fill="#191F28"/>
</g>
<path d="M767 653.135L809.857 677.621L895.571 628.648L852.714 604.162L767 653.135Z" stroke="#191F28" stroke-width="4" stroke-linejoin="round"/>
<path d="M852.711 604.162L952.711 661.297L966.997 653.135L866.997 596L852.711 604.162Z" stroke="#191F28" stroke-width="4" stroke-linejoin="round"/>
<path d="M809.859 677.622L867.002 710.27L952.502 661.5L895.359 628.852L809.859 677.622Z" stroke="#191F28" stroke-width="4" stroke-linejoin="round"/>
<path d="M814.323 650.946V628.321H828.511V631.29H817.761V638.133H827.761V641.071H817.761V647.977H828.636V650.946H814.323ZM840.273 627.258L832.992 654.352H830.023L837.305 627.258H840.273ZM844.317 628.321L850.598 646.727H850.848L857.13 628.321H860.848L852.692 650.946H848.723L840.598 628.321H844.317Z" fill="#4E5968"/>
<path d="M655.039 548.021L717.284 583.737L745.855 567.409L683.61 531.693L669.325 539.857L655.039 548.021Z" stroke="#191F28" stroke-width="4" stroke-linejoin="round"/>
<path d="M638.711 726.6L710.14 767.418L781.568 726.6L710.14 685.782L638.711 726.6Z" stroke="#191F28" stroke-width="4" stroke-linejoin="round"/>
<path d="M895.859 906.2L967.288 947.018L1038.72 906.2L967.288 865.382L895.859 906.2Z" stroke="#191F28" stroke-width="4" stroke-linejoin="round"/>
<path d="M638.711 171.473L752.997 236.782L852.997 179.636L738.711 114.327L638.711 171.473Z" stroke="#191F28" stroke-width="4" stroke-linejoin="round"/>
<path d="M781.57 253.109L938.713 342.909L1038.71 285.764L881.57 195.964L781.57 253.109Z" stroke="#191F28" stroke-width="4" stroke-linejoin="round"/>
<path d="M738.711 114.327L1038.71 285.764L1067.28 269.436L767.282 98L738.711 114.327Z" stroke="#191F28" stroke-width="4" stroke-linejoin="round"/>
<mask id="mask3_4338_10411" style="mask-type:alpha" maskUnits="userSpaceOnUse" x="708" y="283" width="233" height="136">
<path d="M710.141 359.236L810.141 416.382L938.712 342.909L838.712 285.764L710.141 359.236Z" stroke="black" stroke-width="4" stroke-linejoin="round"/>
</mask>
<g mask="url(#mask3_4338_10411)">
<path d="M722 356H735.5H759.5L847 303L920 344L805.5 403.5L764 382.5L752 391L810 436.5L960 344L843.5 273.5L808 292L825.5 307L759.5 348L740 335.5L726 340.5L722 356Z" fill="#191F28"/>
</g>
<path d="M810.141 416.382L824.426 424.546L888.712 387.809L874.426 379.646L810.141 416.382Z" stroke="#191F28" stroke-width="4" stroke-linejoin="round"/>
<path d="M874.43 379.646L888.715 387.809L953.001 351.073L938.715 342.909L874.43 379.646Z" stroke="#191F28" stroke-width="4" stroke-linejoin="round"/>
<path d="M1188.71 510.263L1203 518.427L1281.57 473.527L1267.28 465.363L1188.71 510.263Z" stroke="#191F28" stroke-width="4" stroke-linejoin="round"/>
<path d="M1110.14 555.164L1124.43 563.327L1203 518.427L1188.71 510.264L1110.14 555.164Z" stroke="#191F28" stroke-width="4" stroke-linejoin="round"/>
<path d="M574.43 208.209L688.715 273.518L753.001 236.782L638.715 171.473L574.43 208.209Z" stroke="#191F28" stroke-width="4" stroke-linejoin="round"/>
<mask id="mask4_4338_10411" style="mask-type:alpha" maskUnits="userSpaceOnUse" x="715" y="251" width="126" height="74">
<path d="M717.289 289.846L774.432 322.5L838.718 285.764L781.575 253.109L717.289 289.846Z" stroke="black" stroke-width="4" stroke-linejoin="round"/>
</mask>
<g mask="url(#mask4_4338_10411)">
<path d="M819 303L807.5 295.5L814.5 280.5L770.5 270.5L742 289L753 300L737.5 309.5L742 315L704.5 289L742 263L779 242.5L818.5 256.5L850 287L819 303Z" fill="#191F28"/>
</g>
<path d="M510.141 244.945L624.426 310.254L688.712 273.518L574.426 208.209L510.141 244.945Z" stroke="#191F28" stroke-width="4" stroke-linejoin="round"/>
<mask id="mask5_4338_10411" style="mask-type:alpha" maskUnits="userSpaceOnUse" x="651" y="287" width="126" height="75">
<path d="M653 326.582L710.143 359.237L774.429 322.5L717.286 289.846L653 326.582Z" stroke="black" stroke-width="4" stroke-linejoin="round"/>
</mask>
<g mask="url(#mask5_4338_10411)">
<path d="M754 342L741 335L713 352L668.5 325.5L721.5 300L740 308.5L749.5 302.5L717.5 282.5L705.5 291.5L654.5 319.5L644 329L710.5 364.5L754 342Z" fill="#191F28"/>
</g>
<path d="M1524.43 481.691L1581.57 514.346L1653 473.528L1595.86 440.873L1524.43 481.691Z" stroke="#191F28" stroke-width="4" stroke-linejoin="round"/>
<path d="M1445.86 436.791L1495.86 465.364L1567.29 424.545L1517.29 395.973L1445.86 436.791Z" stroke="#191F28" stroke-width="4" stroke-linejoin="round"/>
<path d="M1381.57 473.527L1431.57 502.1L1495.86 465.364L1445.86 436.791L1381.57 473.527Z" stroke="#191F28" stroke-width="4" stroke-linejoin="round"/>
<path d="M1124.43 563.327L1095.86 579.655L995.857 522.509L1024.43 506.182M853 408.218L995.857 489.855" stroke="#191F28" stroke-width="4" stroke-linecap="round" stroke-linejoin="round"/>
<path d="M752.999 644.963L581.57 547L752.999 449.036M852.999 506.182L924.427 547" stroke="#191F28" stroke-width="4" stroke-linecap="round" stroke-linejoin="round"/>
<path d="M698.419 594.809C698.899 595.083 699.509 594.917 699.783 594.437C700.057 593.958 699.891 593.347 699.411 593.073L698.419 594.809ZM620.344 549.041L619.848 548.173L618.328 549.041L619.848 549.909L620.344 549.041ZM684.629 512.305L685.126 511.436C684.818 511.261 684.441 511.261 684.133 511.436L684.629 512.305ZM748.419 549.909C748.899 550.183 749.509 550.017 749.783 549.537C750.057 549.058 749.891 548.447 749.411 548.173L748.419 549.909ZM699.411 593.073L620.84 548.173L619.848 549.909L698.419 594.809L699.411 593.073ZM620.84 549.909L685.126 513.173L684.133 511.436L619.848 548.173L620.84 549.909ZM684.133 513.173L748.419 549.909L749.411 548.173L685.126 511.436L684.133 513.173Z" fill="#191F28"/>
<path d="M681.575 604.145L717.289 583.736M667.289 595.982L703.003 575.573M653.003 587.818L688.718 567.409M638.718 579.655L674.432 559.245M624.432 571.491L660.146 551.082M655.044 548.02L617.289 526.591M631.575 518.427L668.82 539.857M645.86 510.264L683.616 531.693M724.432 514.345L688.718 534.755M738.718 522.509L703.003 542.918M753.003 530.673L717.289 551.082M767.289 538.836L731.575 559.245M667.289 555.164L631.575 575.573M681.575 563.327L645.86 583.736M695.86 571.491L660.146 591.9M710.146 579.655L674.432 600.064M695.86 538.836L731.575 518.427M710.146 547L745.86 526.591M724.432 555.164L760.146 534.755M624.432 522.509L662.187 543.939M638.718 514.345L676.473 535.775" stroke="#191F28" stroke-width="2" stroke-linecap="round"/>
<path d="M601.512 33.5859V37.2188H569.246V33.5859H601.512ZM571.902 12.9219V9.44531H598.699V12.9219H593.543V24.1719H598.582V27.6094H572.02V24.1719H576.98V12.9219H571.902ZM581.316 24.1719H589.246V12.9219H581.316V24.1719ZM635.082 33.7812V37.375H602.816V33.7812H616.723V28.0391H606.645V16.4766H626.957V12.1016H606.566V8.58594H631.254V19.9141H610.98V24.4844H632.074V28.0391H621.02V33.7812H635.082ZM664.473 9.60156V13.5859C664.473 18.3125 664.473 23.1758 663.184 30.6172L658.77 30.2266C660.137 23.293 660.137 18.1758 660.137 13.5859V13.1172H639.785V9.60156H664.473ZM636.387 36.6328V33.0781H668.574V36.6328H636.387ZM700.152 6.20312V27.1016H696.012V18.2344H692.34V26.75H688.277V6.86719H692.34V14.7188H696.012V6.20312H700.152ZM671.402 11.7891V8.35156H684.84V18.5469H675.66V22.375C679.781 22.3359 682.887 22.1406 686.48 21.4375L686.871 24.875C682.613 25.6562 679.039 25.7539 673.863 25.7344H671.441V15.3047H680.66V11.7891H671.402ZM676.324 41.0469V28.5859H700.152V41.0469H676.324ZM680.66 37.5312H695.855V32.0625H680.66V37.5312ZM732.863 6.16406V24.1719H728.566V6.16406H732.863ZM703.488 20.7344C709.211 18.918 712.219 14.3867 712.199 9.75781V7.02344H716.691V9.75781C716.672 14.25 719.66 18.4492 725.246 20.1484L723.137 23.5078C719.035 22.2383 716.105 19.6211 714.504 16.2617C712.902 19.9141 709.895 22.7852 705.676 24.1328L703.488 20.7344ZM709.504 29.1719V25.8125H732.941V34.9922H713.84V37.7266H733.996V41.1641H709.582V31.75H728.605V29.1719H709.504ZM616.555 57.7188V86H611.438V62.6797H611.281L604.68 66.8984V62.25L611.672 57.7188H616.555ZM626.57 83.2266L623.289 94.1641H619.578L621.609 83.2266H626.57ZM638.555 86V82.3281L648.555 72.6797C651.406 69.8281 652.891 68.1484 652.891 65.7656C652.891 63.1289 650.801 61.4688 648.047 61.4688C645.137 61.4688 643.262 63.2852 643.281 66.1562H638.438C638.418 60.8047 642.441 57.3281 648.086 57.3281C653.867 57.3281 657.754 60.7852 657.773 65.5312C657.754 68.7148 656.23 71.293 650.664 76.5469L645.625 81.5469V81.7422H658.203V86H638.555ZM667.359 83.2266L664.078 94.1641H660.367L662.398 83.2266H667.359ZM689.617 86.3906C683.582 86.3906 679.266 83.1094 679.148 78.3438H684.266C684.402 80.6094 686.668 82.1133 689.617 82.0938C692.723 82.1133 694.969 80.3945 694.969 77.875C694.969 75.3359 692.781 73.5195 689.109 73.5H686.57V69.5938H689.109C692.117 69.5938 694.207 67.9141 694.188 65.4531C694.207 63.0703 692.41 61.4688 689.656 61.4688C687 61.4688 684.715 62.9531 684.617 65.3359H679.734C679.852 60.5898 684.168 57.3281 689.695 57.3281C695.438 57.3281 699.148 60.8438 699.109 65.1797C699.148 68.3438 697.039 70.6289 693.953 71.2734V71.5078C697.938 72.0352 700.203 74.5938 700.164 78.1484C700.203 82.9336 695.73 86.3906 689.617 86.3906Z" fill="#191F28"/>
<path d="M897.156 54.8672C904.969 54.8672 909.871 57.4258 909.891 61.7422C909.871 65.9609 904.969 68.4805 897.156 68.4609C889.422 68.4805 884.422 65.9609 884.422 61.7422C884.422 57.4258 889.422 54.8672 897.156 54.8672ZM881.102 74.3594V70.8438H913.289V74.3594H881.102ZM884.891 89.0469V77.1719H909.383V89.0469H884.891ZM888.953 61.7422C888.914 63.8711 892 65.082 897.156 65.1016C902.312 65.082 905.398 63.8711 905.398 61.7422C905.398 59.4961 902.312 58.2656 897.156 58.2656C892 58.2656 888.914 59.4961 888.953 61.7422ZM889.188 85.5312H905.164V80.6094H889.188V85.5312ZM924.594 56.1953C930.023 56.1562 934.086 59.7109 934.125 64.6719C934.086 69.7109 930.023 73.207 924.594 73.2266C919.145 73.207 915.043 69.7109 915.062 64.6719C915.043 59.7109 919.145 56.1562 924.594 56.1953ZM919.008 79.9844V76.4688H942.523V89.5156H938.188V79.9844H919.008ZM919.32 64.6719C919.301 67.6797 921.547 69.5352 924.594 69.5156C927.602 69.5352 929.848 67.6797 929.867 64.6719C929.848 61.7227 927.602 59.8867 924.594 59.8672C921.547 59.8867 919.301 61.7227 919.32 64.6719ZM938.188 74.8672V54.1641H942.523V62.7578H947.445V66.3125H942.523V74.8672H938.188ZM892.168 102.164V110.211H897.09V113.766H892.168V122.008H887.832V102.164H892.168ZM864.043 119.195C872.227 117.105 876.875 112.926 877.637 107.828H865.723V104.312H882.363C882.344 113.492 876.328 119.84 865.762 122.672L864.043 119.195ZM869.316 137.008V123.414H892.168V137.008H869.316ZM873.652 133.57H887.871V126.969H873.652V133.57ZM910.387 107.789C910.387 112.223 913.258 116.422 918.707 118.141L916.363 121.539C912.555 120.25 909.82 117.672 908.277 114.391C906.754 118.141 903.902 121.09 899.84 122.516L897.496 119.117C903.18 117.145 906.031 112.438 906.051 107.398V104.039H910.387V107.789ZM902.301 130.719C902.301 126.539 906.891 124.059 914.254 124.078C921.559 124.059 926.07 126.539 926.09 130.719C926.07 134.996 921.559 137.438 914.254 137.438C906.891 137.438 902.301 134.996 902.301 130.719ZM906.637 130.719C906.637 132.906 909.41 134 914.254 134C919.078 134 921.793 132.906 921.793 130.719C921.793 128.648 919.078 127.477 914.254 127.477C909.41 127.477 906.637 128.648 906.637 130.719ZM921.402 123.297V102.164H925.738V110.758H930.66V114.352H925.738V123.297H921.402ZM960.793 102.164V120.172H956.496V102.164H960.793ZM931.418 116.734C937.141 114.918 940.148 110.387 940.129 105.758V103.023H944.621V105.758C944.602 110.25 947.59 114.449 953.176 116.148L951.066 119.508C946.965 118.238 944.035 115.621 942.434 112.262C940.832 115.914 937.824 118.785 933.605 120.133L931.418 116.734ZM937.434 125.172V121.812H960.871V130.992H941.77V133.727H961.926V137.164H937.512V127.75H956.535V125.172H937.434Z" fill="#191F28"/>
<path d="M664.973 373.297C664.973 377.652 667.766 381.93 673.332 383.766L671.145 387.125C667.18 385.797 664.387 383.16 662.844 379.859C661.281 383.473 658.352 386.344 654.23 387.75L651.926 384.391C657.609 382.496 660.598 377.926 660.598 373.297V372.867H653.137V369.391H672.316V372.867H664.973V373.297ZM656.652 393.57V390.094H680.168V402.477H675.832V393.57H656.652ZM675.832 388.453V367.164H680.168V375.992H685.09V379.625H680.168V388.453H675.832ZM717.996 383.57V387.047H685.965V383.57H698.387V376.773H702.684V383.57H717.996ZM689.285 393.922V390.445H713.895V402.477H709.52V393.922H689.285ZM689.637 372.438V369H714.09V371.539C714.09 374.195 714.09 377.398 713.23 381.539L708.895 381.148C709.656 377.516 709.734 374.84 709.754 372.438H689.637ZM748.793 367.164V385.172H744.496V367.164H748.793ZM719.418 381.734C725.141 379.918 728.148 375.387 728.129 370.758V368.023H732.621V370.758C732.602 375.25 735.59 379.449 741.176 381.148L739.066 384.508C734.965 383.238 732.035 380.621 730.434 377.262C728.832 380.914 725.824 383.785 721.605 385.133L719.418 381.734ZM725.434 390.172V386.812H748.871V395.992H729.77V398.727H749.926V402.164H725.512V392.75H744.535V390.172H725.434Z" fill="#191F28"/>
<path d="M1035.21 381.281C1035.21 386.984 1041.28 392.375 1048.02 393.586L1046.3 396.672C1040.7 395.461 1035.56 391.789 1033.29 386.867C1030.99 391.77 1025.85 395.422 1020.25 396.672L1018.61 393.586C1025.25 392.336 1031.28 386.984 1031.3 381.281V378.625H1035.21V381.281ZM1017.43 406.711V403.625H1049.46V406.711H1017.43ZM1068.7 379.797V402.531H1052.33V379.797H1068.7ZM1055.96 399.523H1065.03V382.727H1055.96V399.523ZM1074.56 411.32V376.32H1078.27V390.031H1083.89V393.156H1078.27V411.32H1074.56ZM1112.97 394.953V397.922H1088.6V379.211H1112.62V382.219H1092.35V386.945H1111.88V389.875H1092.35V394.953H1112.97ZM1084.57 406.906V403.859H1116.61V406.906H1084.57ZM1044.7 424.32V437.992H1050.32V441.117H1044.7V459.398H1041.03V424.32H1044.7ZM1018.8 430.492V427.484H1034.82V440.336H1022.55V447.914C1028.55 447.895 1033.02 447.68 1038.14 446.742L1038.49 449.75C1033.02 450.766 1028.29 451 1021.73 451.039H1018.88V437.328H1031.14V430.492H1018.8ZM1083 441.859V444.867H1069.13V451.664H1065.38V444.867H1050.96V441.859H1083ZM1054.48 432.25C1054.46 427.875 1059.42 425.16 1066.94 425.141C1074.46 425.16 1079.38 427.875 1079.36 432.25C1079.38 436.605 1074.46 439.32 1066.94 439.32C1059.42 439.32 1054.46 436.605 1054.48 432.25ZM1054.99 458.578V448.305H1058.7V455.531H1079.44V458.578H1054.99ZM1058.46 432.25C1058.43 434.77 1061.82 436.312 1066.94 436.312C1072.08 436.312 1075.44 434.77 1075.46 432.25C1075.44 429.652 1072.08 428.129 1066.94 428.109C1061.82 428.129 1058.43 429.652 1058.46 432.25ZM1097.46 434.633C1097.45 440.492 1101.29 446.547 1106.68 448.852L1104.65 451.742C1100.53 449.926 1097.25 446.059 1095.63 441.391C1094.01 446.391 1090.73 450.648 1086.64 452.641L1084.5 449.711C1089.77 447.23 1093.68 440.668 1093.71 434.633V430.922H1085.71V427.836H1105.43V430.922H1097.46V434.633ZM1109.85 459.32V424.32H1113.56V459.32H1109.85Z" fill="#191F28"/>
<path d="M1436.3 544.867C1444.11 544.867 1449.02 547.426 1449.04 551.742C1449.02 555.961 1444.11 558.48 1436.3 558.461C1428.57 558.48 1423.57 555.961 1423.57 551.742C1423.57 547.426 1428.57 544.867 1436.3 544.867ZM1420.25 564.359V560.844H1452.43V564.359H1420.25ZM1424.04 579.047V567.172H1448.53V579.047H1424.04ZM1428.1 551.742C1428.06 553.871 1431.14 555.082 1436.3 555.102C1441.46 555.082 1444.54 553.871 1444.54 551.742C1444.54 549.496 1441.46 548.266 1436.3 548.266C1431.14 548.266 1428.06 549.496 1428.1 551.742ZM1428.33 575.531H1444.31V570.609H1428.33V575.531ZM1463.74 546.195C1469.17 546.156 1473.23 549.711 1473.27 554.672C1473.23 559.711 1469.17 563.207 1463.74 563.227C1458.29 563.207 1454.19 559.711 1454.21 554.672C1454.19 549.711 1458.29 546.156 1463.74 546.195ZM1458.15 569.984V566.469H1481.67V579.516H1477.33V569.984H1458.15ZM1458.46 554.672C1458.45 557.68 1460.69 559.535 1463.74 559.516C1466.75 559.535 1468.99 557.68 1469.01 554.672C1468.99 551.723 1466.75 549.887 1463.74 549.867C1460.69 549.887 1458.45 551.723 1458.46 554.672ZM1477.33 564.867V544.164H1481.67V552.758H1486.59V556.312H1481.67V564.867H1477.33ZM1500.04 554.203C1500.02 559.652 1503.3 565.863 1508.87 568.461L1506.45 571.898C1502.46 570.023 1499.52 566.234 1497.93 561.82C1496.33 566.664 1493.25 570.805 1489.18 572.758L1486.64 569.359C1492.27 566.684 1495.69 560.082 1495.71 554.203V551.234H1488.01V547.641H1507.43V551.234H1500.04V554.203ZM1510.71 579.477V544.164H1515.04V557.914H1520.47V561.547H1515.04V579.477H1510.71ZM1553.22 571.781V575.375H1520.96V571.781H1529.51V565.961H1524.79V554.438H1545.1V550.102H1524.71V546.586H1549.39V557.914H1529.12V562.445H1550.21V565.961H1545.06V571.781H1553.22ZM1533.73 571.781H1540.8V565.961H1533.73V571.781ZM1583.86 544.164V562.172H1579.57V544.164H1583.86ZM1554.49 558.734C1560.21 556.918 1563.22 552.387 1563.2 547.758V545.023H1567.69V547.758C1567.67 552.25 1570.66 556.449 1576.25 558.148L1574.14 561.508C1570.04 560.238 1567.11 557.621 1565.5 554.262C1563.9 557.914 1560.89 560.785 1556.68 562.133L1554.49 558.734ZM1560.5 567.172V563.812H1583.94V572.992H1564.84V575.727H1585V579.164H1560.58V569.75H1579.61V567.172H1560.5Z" fill="#191F28"/>
<path d="M1416.61 482V459.375H1430.8V462.344H1420.05V469.188H1430.05V472.125H1420.05V479.031H1430.92V482H1416.61ZM1442.56 458.312L1435.28 485.406H1432.31L1439.59 458.312H1442.56ZM1446.61 459.375L1452.89 477.781H1453.14L1459.42 459.375H1463.14L1454.98 482H1451.01L1442.89 459.375H1446.61Z" fill="#4E5968"/>
<path d="M1055.03 629.164V650.141H1050.7V641.508H1044.68V637.953H1050.7V629.164H1055.03ZM1025.34 646.625C1031.03 644.672 1034.02 639.926 1034.02 635.258V634.984H1026.67V631.469H1045.73V634.984H1038.43V635.219C1038.43 639.516 1041.28 643.852 1046.75 645.688L1044.56 649.125C1040.64 647.797 1037.86 645.102 1036.3 641.781C1034.76 645.531 1031.81 648.578 1027.61 650.062L1025.34 646.625ZM1031.09 657.758C1031.05 653.52 1035.64 651.039 1043.08 651.039C1050.56 651.039 1055.13 653.52 1055.15 657.758C1055.13 661.996 1050.56 664.457 1043.08 664.477C1035.64 664.457 1031.05 661.996 1031.09 657.758ZM1035.38 657.758C1035.36 659.945 1038.18 661.137 1043.08 661.117C1048.02 661.137 1050.81 659.945 1050.81 657.758C1050.81 655.551 1048.02 654.359 1043.08 654.359C1038.18 654.359 1035.36 655.551 1035.38 657.758ZM1088.52 629.164V664.477H1084.15V629.164H1088.52ZM1059.27 654.75C1068.52 650.355 1072.78 644.379 1073.56 636.352H1061.06V632.914H1077.98C1077.98 643.422 1073.89 652.348 1061.53 658.227L1059.27 654.75ZM1120.45 629.164V639.32H1125.38V642.953H1120.45V654.633H1116.04V629.164H1120.45ZM1092.48 647.523C1100.57 645.18 1105.36 640.785 1106.1 635.414H1093.97V631.859H1110.84C1110.86 641.234 1104.73 647.934 1094.28 650.961L1092.48 647.523ZM1097.76 663.773V652.016H1102.17V660.258H1121.78V663.773H1097.76ZM1156.37 629.164V651.352H1152.23V641.742H1148.79V650.18H1144.73V629.867H1148.79V638.227H1152.23V629.164H1156.37ZM1125.98 636.391V632.992H1132.66V629.477H1136.95V632.992H1143.55V636.391H1125.98ZM1127.23 643.93C1127.19 640.258 1130.39 637.816 1134.8 637.836C1139.3 637.816 1142.46 640.258 1142.5 643.93C1142.46 647.602 1139.3 650.023 1134.8 650.023C1130.39 650.023 1127.19 647.602 1127.23 643.93ZM1131.09 643.93C1131.09 645.746 1132.6 646.898 1134.8 646.898C1137.03 646.898 1138.55 645.746 1138.55 643.93C1138.55 642.113 1137.03 640.961 1134.8 640.961C1132.6 640.961 1131.09 642.113 1131.09 643.93ZM1132.34 658.148C1132.32 654.086 1136.89 651.801 1144.45 651.781C1151.99 651.801 1156.54 654.086 1156.56 658.148C1156.54 662.133 1151.99 664.438 1144.45 664.438C1136.89 664.438 1132.32 662.133 1132.34 658.148ZM1136.68 658.148C1136.66 660.082 1139.41 661.137 1144.45 661.117C1149.47 661.137 1152.17 660.082 1152.19 658.148C1152.17 656.098 1149.47 655.062 1144.45 655.102C1139.41 655.062 1136.66 656.098 1136.68 658.148ZM1191.93 643.5V646.938H1177.95V649.594H1187.91V658.266H1167.83V660.844H1188.88V664.164H1163.57V655.141H1183.65V652.875H1163.53V649.594H1173.61V646.938H1159.74V643.5H1191.93ZM1163.8 641.273V630.258H1187.79V641.273H1163.8ZM1168.06 637.875H1183.45V633.656H1168.06V637.875ZM1222.65 629.164V647.172H1218.35V629.164H1222.65ZM1193.27 643.734C1199 641.918 1202 637.387 1201.98 632.758V630.023H1206.48V632.758C1206.46 637.25 1209.45 641.449 1215.03 643.148L1212.92 646.508C1208.82 645.238 1205.89 642.621 1204.29 639.262C1202.69 642.914 1199.68 645.785 1195.46 647.133L1193.27 643.734ZM1199.29 652.172V648.812H1222.73V657.992H1203.62V660.727H1223.78V664.164H1199.37V654.75H1218.39V652.172H1199.29Z" fill="#191F28"/>
<path d="M775.928 913.781V916.312H750.303V913.781H761.553V907.812H752.553V905.469H756.741V896.656H752.491V894.25H773.584V896.656H769.303V905.469H773.491V907.812H764.491V913.781H775.928ZM759.678 905.469H766.397V896.656H759.678V905.469ZM801.128 891.688V910.594H798.316V891.688H801.128ZM777.284 907.688C781.175 906.062 783.691 903.953 785.144 901.438L777.784 902.219L777.347 899.781L786.112 899.281C786.425 898.344 786.612 897.375 786.706 896.344H778.628V893.938H789.597C789.597 896 789.347 897.938 788.784 899.719H792.691V892.156H795.503V908.094H792.691V902.125H787.784C786.112 905.297 783.222 907.906 778.722 909.844L777.284 907.688ZM780.628 917.219C785.925 916.438 790.144 913.312 790.128 909.781V908.969H793.066V909.781C793.066 913.312 797.284 916.438 802.566 917.219L801.409 919.531C797.066 918.812 793.362 916.672 791.612 913.688C789.847 916.672 786.144 918.812 781.816 919.531L780.628 917.219ZM827.141 910.031V919.312H808.453V910.031H811.984V906.438C809.266 906.547 806.688 906.562 804.422 906.562L804.047 904.094C809.328 904.109 816.297 904.109 822.391 903.344L822.578 905.438C820.094 905.859 817.516 906.125 814.984 906.281V910.031H827.141ZM805.203 900.25C809.438 899.281 811.969 896.688 811.984 893.75V892.406H815.016V893.75C815.016 896.547 817.594 898.922 821.703 899.844L820.422 902.062C817.172 901.328 814.766 899.656 813.547 897.391C812.328 899.828 809.906 901.688 806.578 902.531L805.203 900.25ZM811.359 916.906H824.203V912.406H811.359V916.906ZM824.172 908.594V891.688H827.141V908.594H824.172ZM854.216 891.656V919.719H851.278V904.438H845.716V902H851.278V891.656H854.216ZM832.153 913.094V894.156H845.247V896.562H835.153V902H844.059V904.375H835.153V910.625C839.841 910.625 843.091 910.484 846.809 909.844L847.122 912.25C843.044 912.906 839.528 913.078 834.341 913.094H832.153ZM858.697 917V914.5L866.541 906.594C869.025 904.016 870.259 902.578 870.259 900.594C870.259 898.359 868.447 896.938 866.072 896.938C863.556 896.938 861.963 898.531 861.947 900.938H858.697C858.666 896.797 861.822 894.062 866.134 894.062C870.494 894.062 873.509 896.828 873.541 900.5C873.509 903.031 872.322 905.047 868.072 909.219L863.478 913.875V914.062H873.916V917H858.697Z" fill="#4E5968"/>
<path d="M524.772 735.781V738.312H499.147V735.781H510.397V729.812H501.397V727.469H505.584V718.656H501.334V716.25H522.428V718.656H518.147V727.469H522.334V729.812H513.334V735.781H524.772ZM508.522 727.469H515.241V718.656H508.522V727.469ZM549.972 713.688V732.594H547.159V713.688H549.972ZM526.128 729.688C530.019 728.062 532.534 725.953 533.987 723.438L526.628 724.219L526.191 721.781L534.956 721.281C535.269 720.344 535.456 719.375 535.55 718.344H527.472V715.938H538.441C538.441 718 538.191 719.938 537.628 721.719H541.534V714.156H544.347V730.094H541.534V724.125H536.628C534.956 727.297 532.066 729.906 527.566 731.844L526.128 729.688ZM529.472 739.219C534.769 738.438 538.987 735.312 538.972 731.781V730.969H541.909V731.781C541.909 735.312 546.128 738.438 551.409 739.219L550.253 741.531C545.909 740.812 542.206 738.672 540.456 735.688C538.691 738.672 534.987 740.812 530.659 741.531L529.472 739.219ZM575.984 732.031V741.312H557.297V732.031H560.828V728.438C558.109 728.547 555.531 728.562 553.266 728.562L552.891 726.094C558.172 726.109 565.141 726.109 571.234 725.344L571.422 727.438C568.938 727.859 566.359 728.125 563.828 728.281V732.031H575.984ZM554.047 722.25C558.281 721.281 560.812 718.688 560.828 715.75V714.406H563.859V715.75C563.859 718.547 566.438 720.922 570.547 721.844L569.266 724.062C566.016 723.328 563.609 721.656 562.391 719.391C561.172 721.828 558.75 723.688 555.422 724.531L554.047 722.25ZM560.203 738.906H573.047V734.406H560.203V738.906ZM573.016 730.594V713.688H575.984V730.594H573.016ZM603.059 713.656V741.719H600.122V726.438H594.559V724H600.122V713.656H603.059ZM580.997 735.094V716.156H594.091V718.562H583.997V724H592.903V726.375H583.997V732.625C588.684 732.625 591.934 732.484 595.653 731.844L595.966 734.25C591.887 734.906 588.372 735.078 583.184 735.094H580.997ZM616.134 716.375V739H612.666V719.812H612.541L607.134 723.344V720.062L612.759 716.375H616.134Z" fill="#4E5968"/>
<path d="M739.219 474.656V486.375H743.438V488.875H739.219V502.656H736.25V474.656H739.219ZM716.938 495.031C719.141 495.031 721.703 495.031 724.375 494.953V492.109C721.219 491.641 719.156 489.734 719.188 487.031C719.156 483.875 721.891 481.797 725.875 481.781C729.844 481.797 732.609 483.875 732.625 487.031C732.609 489.734 730.516 491.656 727.344 492.109V494.844C729.828 494.719 732.328 494.516 734.656 494.188L734.844 496.375C728.781 497.453 722.234 497.516 717.406 497.5L716.938 495.031ZM717.469 480.344V477.969H724.375V474.719H727.344V477.969H734.25V480.344H717.469ZM721.969 487.031C721.969 488.812 723.531 489.922 725.875 489.906C728.219 489.922 729.766 488.812 729.781 487.031C729.766 485.234 728.219 484.094 725.875 484.094C723.531 484.094 721.969 485.234 721.969 487.031ZM753.919 479.812C753.903 483.375 756.388 486.625 760.638 487.969L759.231 490.281C756.044 489.266 753.716 487.156 752.481 484.5C751.263 487.562 748.809 489.984 745.45 491.156L743.919 488.781C748.294 487.344 750.934 483.734 750.95 479.844V479.062H744.794V476.656H759.95V479.062H753.919V479.812ZM747.7 497.344C747.7 494.062 751.278 492.141 757.106 492.156C762.872 492.141 766.388 494.062 766.388 497.344C766.388 500.672 762.872 502.609 757.106 502.594C751.278 502.609 747.7 500.672 747.7 497.344ZM750.669 497.344C750.653 499.219 753.059 500.266 757.106 500.25C761.122 500.266 763.497 499.219 763.481 497.344C763.497 495.516 761.122 494.484 757.106 494.5C753.059 494.484 750.653 495.516 750.669 497.344ZM763.169 491.469V474.656H766.138V481.594H770.2V484.031H766.138V491.469H763.169ZM794.181 474.656V489.062H791.244V474.656H794.181ZM771.088 486.562C775.463 485.109 778.134 481.438 778.15 477.562V475.406H781.181V477.562C781.166 481.312 783.853 484.719 788.15 486.062L786.681 488.375C783.416 487.312 780.963 485.109 779.697 482.266C778.431 485.328 775.931 487.766 772.588 488.906L771.088 486.562ZM775.806 492.75V490.406H794.213V497.406H778.775V500H795.15V502.375H775.9V495.156H791.275V492.75H775.806ZM799.537 491.375C799.569 485.484 801.241 480.594 804.162 476.406H807.225C805.069 479.5 803.006 485.797 803.006 491.375C803.006 496.969 805.069 503.266 807.225 506.375H804.162C801.241 502.172 799.569 497.281 799.537 491.375ZM830.488 474.688V480.906H834.581V483.375H830.488V490.469H827.519V474.688H830.488ZM809.769 488.562V476.062H812.738V486.094C816.534 486.062 820.488 485.734 824.8 484.875L825.175 487.312C820.456 488.266 816.175 488.547 812.05 488.562H809.769ZM812.55 502.281V491.938H830.488V502.281H812.55ZM815.456 499.906H827.613V494.25H815.456V499.906ZM843.031 491.375C843 497.281 841.328 502.172 838.406 506.375H835.344C837.5 503.266 839.562 496.969 839.562 491.375C839.562 485.797 837.5 479.5 835.344 476.406H838.406C841.328 480.594 843 485.484 843.031 491.375Z" fill="#4E5968"/>
<path d="M1572.22 371.656V383.375H1576.44V385.875H1572.22V399.656H1569.25V371.656H1572.22ZM1549.94 392.031C1552.14 392.031 1554.7 392.031 1557.38 391.953V389.109C1554.22 388.641 1552.16 386.734 1552.19 384.031C1552.16 380.875 1554.89 378.797 1558.88 378.781C1562.84 378.797 1565.61 380.875 1565.62 384.031C1565.61 386.734 1563.52 388.656 1560.34 389.109V391.844C1562.83 391.719 1565.33 391.516 1567.66 391.188L1567.84 393.375C1561.78 394.453 1555.23 394.516 1550.41 394.5L1549.94 392.031ZM1550.47 377.344V374.969H1557.38V371.719H1560.34V374.969H1567.25V377.344H1550.47ZM1554.97 384.031C1554.97 385.812 1556.53 386.922 1558.88 386.906C1561.22 386.922 1562.77 385.812 1562.78 384.031C1562.77 382.234 1561.22 381.094 1558.88 381.094C1556.53 381.094 1554.97 382.234 1554.97 384.031ZM1586.92 376.812C1586.9 380.375 1589.39 383.625 1593.64 384.969L1592.23 387.281C1589.04 386.266 1586.72 384.156 1585.48 381.5C1584.26 384.562 1581.81 386.984 1578.45 388.156L1576.92 385.781C1581.29 384.344 1583.93 380.734 1583.95 376.844V376.062H1577.79V373.656H1592.95V376.062H1586.92V376.812ZM1580.7 394.344C1580.7 391.062 1584.28 389.141 1590.11 389.156C1595.87 389.141 1599.39 391.062 1599.39 394.344C1599.39 397.672 1595.87 399.609 1590.11 399.594C1584.28 399.609 1580.7 397.672 1580.7 394.344ZM1583.67 394.344C1583.65 396.219 1586.06 397.266 1590.11 397.25C1594.12 397.266 1596.5 396.219 1596.48 394.344C1596.5 392.516 1594.12 391.484 1590.11 391.5C1586.06 391.484 1583.65 392.516 1583.67 394.344ZM1596.17 388.469V371.656H1599.14V378.594H1603.2V381.031H1599.14V388.469H1596.17ZM1627.18 371.656V386.062H1624.24V371.656H1627.18ZM1604.09 383.562C1608.46 382.109 1611.13 378.438 1611.15 374.562V372.406H1614.18V374.562C1614.17 378.312 1616.85 381.719 1621.15 383.062L1619.68 385.375C1616.42 384.312 1613.96 382.109 1612.7 379.266C1611.43 382.328 1608.93 384.766 1605.59 385.906L1604.09 383.562ZM1608.81 389.75V387.406H1627.21V394.406H1611.78V397H1628.15V399.375H1608.9V392.156H1624.28V389.75H1608.81ZM1632.54 388.375C1632.57 382.484 1634.24 377.594 1637.16 373.406H1640.22C1638.07 376.5 1636.01 382.797 1636.01 388.375C1636.01 393.969 1638.07 400.266 1640.22 403.375H1637.16C1634.24 399.172 1632.57 394.281 1632.54 388.375ZM1663.49 371.688V377.906H1667.58V380.375H1663.49V387.469H1660.52V371.688H1663.49ZM1642.77 385.562V373.062H1645.74V383.094C1649.53 383.062 1653.49 382.734 1657.8 381.875L1658.18 384.312C1653.46 385.266 1649.18 385.547 1645.05 385.562H1642.77ZM1645.55 399.281V388.938H1663.49V399.281H1645.55ZM1648.46 396.906H1660.61V391.25H1648.46V396.906ZM1676.03 388.375C1676 394.281 1674.33 399.172 1671.41 403.375H1668.34C1670.5 400.266 1672.56 393.969 1672.56 388.375C1672.56 382.797 1670.5 376.5 1668.34 373.406H1671.41C1674.33 377.594 1676 382.484 1676.03 388.375Z" fill="#4E5968"/>
<path d="M924.219 582.656V594.375H928.438V596.875H924.219V610.656H921.25V582.656H924.219ZM901.938 603.031C904.141 603.031 906.703 603.031 909.375 602.953V600.109C906.219 599.641 904.156 597.734 904.188 595.031C904.156 591.875 906.891 589.797 910.875 589.781C914.844 589.797 917.609 591.875 917.625 595.031C917.609 597.734 915.516 599.656 912.344 600.109V602.844C914.828 602.719 917.328 602.516 919.656 602.188L919.844 604.375C913.781 605.453 907.234 605.516 902.406 605.5L901.938 603.031ZM902.469 588.344V585.969H909.375V582.719H912.344V585.969H919.25V588.344H902.469ZM906.969 595.031C906.969 596.812 908.531 597.922 910.875 597.906C913.219 597.922 914.766 596.812 914.781 595.031C914.766 593.234 913.219 592.094 910.875 592.094C908.531 592.094 906.969 593.234 906.969 595.031ZM938.919 587.812C938.903 591.375 941.388 594.625 945.638 595.969L944.231 598.281C941.044 597.266 938.716 595.156 937.481 592.5C936.263 595.562 933.809 597.984 930.45 599.156L928.919 596.781C933.294 595.344 935.934 591.734 935.95 587.844V587.062H929.794V584.656H944.95V587.062H938.919V587.812ZM932.7 605.344C932.7 602.062 936.278 600.141 942.106 600.156C947.872 600.141 951.388 602.062 951.388 605.344C951.388 608.672 947.872 610.609 942.106 610.594C936.278 610.609 932.7 608.672 932.7 605.344ZM935.669 605.344C935.653 607.219 938.059 608.266 942.106 608.25C946.122 608.266 948.497 607.219 948.481 605.344C948.497 603.516 946.122 602.484 942.106 602.5C938.059 602.484 935.653 603.516 935.669 605.344ZM948.169 599.469V582.656H951.138V589.594H955.2V592.031H951.138V599.469H948.169ZM979.181 582.656V597.062H976.244V582.656H979.181ZM956.088 594.562C960.463 593.109 963.134 589.438 963.15 585.562V583.406H966.181V585.562C966.166 589.312 968.853 592.719 973.15 594.062L971.681 596.375C968.416 595.312 965.963 593.109 964.697 590.266C963.431 593.328 960.931 595.766 957.588 596.906L956.088 594.562ZM960.806 600.75V598.406H979.213V605.406H963.775V608H980.15V610.375H960.9V603.156H976.275V600.75H960.806ZM984.537 599.375C984.569 593.484 986.241 588.594 989.162 584.406H992.225C990.069 587.5 988.006 593.797 988.006 599.375C988.006 604.969 990.069 611.266 992.225 614.375H989.162C986.241 610.172 984.569 605.281 984.537 599.375ZM1001.08 584.75C1003.64 584.766 1005.74 586.219 1006.97 588.75H1013.89V582.656H1016.83V610.719H1013.89V599.969H1007.18C1005.97 602.781 1003.78 604.422 1001.08 604.406C996.909 604.422 993.956 600.609 993.988 594.562C993.956 588.578 996.909 584.766 1001.08 584.75ZM996.8 594.562C996.816 599.016 998.55 601.75 1001.08 601.75C1003.61 601.75 1005.35 599.016 1005.36 594.562C1005.35 590.172 1003.61 587.422 1001.08 587.406C998.55 587.422 996.816 590.172 996.8 594.562ZM1007.82 591.188C1008.03 592.219 1008.18 593.344 1008.18 594.562C1008.18 595.625 1008.08 596.609 1007.89 597.531H1013.89V591.188H1007.82ZM1028.03 599.375C1028 605.281 1026.33 610.172 1023.41 614.375H1020.34C1022.5 611.266 1024.56 604.969 1024.56 599.375C1024.56 593.797 1022.5 587.5 1020.34 584.406H1023.41C1026.33 588.594 1028 593.484 1028.03 599.375Z" fill="#4E5968"/>
<path d="M1663.22 424.656V436.375H1667.44V438.875H1663.22V452.656H1660.25V424.656H1663.22ZM1640.94 445.031C1643.14 445.031 1645.7 445.031 1648.38 444.953V442.109C1645.22 441.641 1643.16 439.734 1643.19 437.031C1643.16 433.875 1645.89 431.797 1649.88 431.781C1653.84 431.797 1656.61 433.875 1656.62 437.031C1656.61 439.734 1654.52 441.656 1651.34 442.109V444.844C1653.83 444.719 1656.33 444.516 1658.66 444.188L1658.84 446.375C1652.78 447.453 1646.23 447.516 1641.41 447.5L1640.94 445.031ZM1641.47 430.344V427.969H1648.38V424.719H1651.34V427.969H1658.25V430.344H1641.47ZM1645.97 437.031C1645.97 438.812 1647.53 439.922 1649.88 439.906C1652.22 439.922 1653.77 438.812 1653.78 437.031C1653.77 435.234 1652.22 434.094 1649.88 434.094C1647.53 434.094 1645.97 435.234 1645.97 437.031ZM1677.92 429.812C1677.9 433.375 1680.39 436.625 1684.64 437.969L1683.23 440.281C1680.04 439.266 1677.72 437.156 1676.48 434.5C1675.26 437.562 1672.81 439.984 1669.45 441.156L1667.92 438.781C1672.29 437.344 1674.93 433.734 1674.95 429.844V429.062H1668.79V426.656H1683.95V429.062H1677.92V429.812ZM1671.7 447.344C1671.7 444.062 1675.28 442.141 1681.11 442.156C1686.87 442.141 1690.39 444.062 1690.39 447.344C1690.39 450.672 1686.87 452.609 1681.11 452.594C1675.28 452.609 1671.7 450.672 1671.7 447.344ZM1674.67 447.344C1674.65 449.219 1677.06 450.266 1681.11 450.25C1685.12 450.266 1687.5 449.219 1687.48 447.344C1687.5 445.516 1685.12 444.484 1681.11 444.5C1677.06 444.484 1674.65 445.516 1674.67 447.344ZM1687.17 441.469V424.656H1690.14V431.594H1694.2V434.031H1690.14V441.469H1687.17ZM1718.18 424.656V439.062H1715.24V424.656H1718.18ZM1695.09 436.562C1699.46 435.109 1702.13 431.438 1702.15 427.562V425.406H1705.18V427.562C1705.17 431.312 1707.85 434.719 1712.15 436.062L1710.68 438.375C1707.42 437.312 1704.96 435.109 1703.7 432.266C1702.43 435.328 1699.93 437.766 1696.59 438.906L1695.09 436.562ZM1699.81 442.75V440.406H1718.21V447.406H1702.78V450H1719.15V452.375H1699.9V445.156H1715.28V442.75H1699.81ZM1723.54 441.375C1723.57 435.484 1725.24 430.594 1728.16 426.406H1731.22C1729.07 429.5 1727.01 435.797 1727.01 441.375C1727.01 446.969 1729.07 453.266 1731.22 456.375H1728.16C1725.24 452.172 1723.57 447.281 1723.54 441.375ZM1740.08 426.75C1742.64 426.766 1744.74 428.219 1745.97 430.75H1752.89V424.656H1755.83V452.719H1752.89V441.969H1746.18C1744.97 444.781 1742.78 446.422 1740.08 446.406C1735.91 446.422 1732.96 442.609 1732.99 436.562C1732.96 430.578 1735.91 426.766 1740.08 426.75ZM1735.8 436.562C1735.82 441.016 1737.55 443.75 1740.08 443.75C1742.61 443.75 1744.35 441.016 1744.36 436.562C1744.35 432.172 1742.61 429.422 1740.08 429.406C1737.55 429.422 1735.82 432.172 1735.8 436.562ZM1746.82 433.188C1747.03 434.219 1747.18 435.344 1747.18 436.562C1747.18 437.625 1747.08 438.609 1746.89 439.531H1752.89V433.188H1746.82ZM1767.03 441.375C1767 447.281 1765.33 452.172 1762.41 456.375H1759.34C1761.5 453.266 1763.56 446.969 1763.56 441.375C1763.56 435.797 1761.5 429.5 1759.34 426.406H1762.41C1765.33 430.594 1767 435.484 1767.03 441.375Z" fill="#4E5968"/>
<path d="M467.844 291.883V297.43H474.836V290.164H479.172V308.016H474.836V300.867H467.844V306.648H451.125V291.883H467.844ZM455.422 303.211H463.547V295.32H455.422V303.211ZM455.891 312.977V309.617H479.172V318.758H460.266V321.609H480.305V325.047H455.93V315.555H474.836V312.977H455.891ZM502.898 293.211V296.766H489.5V303.055H501.492V306.492H489.5V313.758C495.281 313.738 499.695 313.523 504.773 312.703L505.203 316.219C499.637 317.098 494.676 317.273 488.172 317.273H485.203V293.211H502.898ZM508.289 325.477V290.164H512.664V325.477H508.289ZM415.301 338.867C423.113 338.867 428.016 341.426 428.035 345.742C428.016 349.961 423.113 352.48 415.301 352.461C407.566 352.48 402.566 349.961 402.566 345.742C402.566 341.426 407.566 338.867 415.301 338.867ZM399.246 358.359V354.844H431.434V358.359H399.246ZM403.035 373.047V361.172H427.527V373.047H403.035ZM407.098 345.742C407.059 347.871 410.145 349.082 415.301 349.102C420.457 349.082 423.543 347.871 423.543 345.742C423.543 343.496 420.457 342.266 415.301 342.266C410.145 342.266 407.059 343.496 407.098 345.742ZM407.332 369.531H423.309V364.609H407.332V369.531ZM442.738 340.195C448.168 340.156 452.23 343.711 452.27 348.672C452.23 353.711 448.168 357.207 442.738 357.227C437.289 357.207 433.188 353.711 433.207 348.672C433.188 343.711 437.289 340.156 442.738 340.195ZM437.152 363.984V360.469H460.668V373.516H456.332V363.984H437.152ZM437.465 348.672C437.445 351.68 439.691 353.535 442.738 353.516C445.746 353.535 447.992 351.68 448.012 348.672C447.992 345.723 445.746 343.887 442.738 343.867C439.691 343.887 437.445 345.723 437.465 348.672ZM456.332 358.867V338.164H460.668V346.758H465.59V350.312H460.668V358.867H456.332ZM479.043 348.203C479.023 353.652 482.305 359.863 487.871 362.461L485.449 365.898C481.465 364.023 478.516 360.234 476.934 355.82C475.332 360.664 472.246 364.805 468.184 366.758L465.645 363.359C471.27 360.684 474.688 354.082 474.707 348.203V345.234H467.012V341.641H486.426V345.234H479.043V348.203ZM489.707 373.477V338.164H494.043V351.914H499.473V355.547H494.043V373.477H489.707ZM532.223 365.781V369.375H499.957V365.781H508.512V359.961H503.785V348.438H524.098V344.102H503.707V340.586H528.395V351.914H508.121V356.445H529.215V359.961H524.059V365.781H532.223ZM512.73 365.781H519.801V359.961H512.73V365.781ZM562.863 338.164V356.172H558.566V338.164H562.863ZM533.488 352.734C539.211 350.918 542.219 346.387 542.199 341.758V339.023H546.691V341.758C546.672 346.25 549.66 350.449 555.246 352.148L553.137 355.508C549.035 354.238 546.105 351.621 544.504 348.262C542.902 351.914 539.895 354.785 535.676 356.133L533.488 352.734ZM539.504 361.172V357.812H562.941V366.992H543.84V369.727H563.996V373.164H539.582V363.75H558.605V361.172H539.504Z" fill="#191F28"/>
<path d="M776.887 303.203V329.102H772.551V320.352H764.133C762.453 322.246 759.953 323.379 757.121 323.398C751.789 323.379 747.785 319.59 747.785 314.375C747.785 309.102 751.789 305.332 757.121 305.312C759.934 305.332 762.434 306.445 764.113 308.32H772.551V303.203H776.887ZM751.926 314.375C751.926 317.52 754.094 319.531 757.121 319.531C760.012 319.531 762.219 317.52 762.238 314.375C762.219 311.211 760.012 309.18 757.121 309.18C754.094 309.18 751.926 311.211 751.926 314.375ZM753.723 337.773V326.445H758.059V334.258H777.785V337.773H753.723ZM766.027 311.836C766.242 312.637 766.379 313.477 766.379 314.375C766.379 315.234 766.262 316.055 766.047 316.836H772.551V311.836H766.027ZM813.074 322.852V326.367H799.051V338.438H794.754V326.367H780.887V322.852H813.074ZM782.566 317.07C789.5 316.191 794.148 312.461 794.461 308.594H783.855V305.156H810.105V308.594H799.5C799.793 312.461 804.402 316.191 811.395 317.07L809.832 320.469C803.816 319.609 799.129 316.855 796.98 313.047C794.812 316.855 790.164 319.609 784.207 320.469L782.566 317.07ZM843.793 303.164V321.172H839.496V303.164H843.793ZM814.418 317.734C820.141 315.918 823.148 311.387 823.129 306.758V304.023H827.621V306.758C827.602 311.25 830.59 315.449 836.176 317.148L834.066 320.508C829.965 319.238 827.035 316.621 825.434 313.262C823.832 316.914 820.824 319.785 816.605 321.133L814.418 317.734ZM820.434 326.172V322.812H843.871V331.992H824.77V334.727H844.926V338.164H820.512V328.75H839.535V326.172H820.434Z" fill="#191F28"/>
<g filter="url(#filter1_f_4338_10411)">
<ellipse cx="758" cy="177.025" rx="28" ry="7.97468" fill="black" fill-opacity="0.25"/>
</g>
<path d="M802 103.084C802 127.43 793.902 132.786 758 177.025C722.27 133.163 714 127.43 714 103.084C714 78.737 733.699 59 758 59C782.301 59 802 78.737 802 103.084Z" fill="url(#paint0_linear_4338_10411)"/>
<rect x="727.656" y="72.9277" width="60.6897" height="60.5258" rx="30.2629" fill="white"/>
<path d="M758.297 117.062C752.749 117.043 747.442 113.722 747.461 103.888C747.479 94.8145 751.803 89.4521 758.52 89.4521C763.919 89.4521 767.63 92.8662 768.168 97.2822H762.676C762.23 95.4082 760.69 94.2393 758.52 94.2393C754.864 94.2393 752.953 97.5234 752.916 102.812H753.176C754.419 100.418 757.072 99.0264 760.041 99.0264C764.884 99.0264 768.483 102.645 768.465 107.71C768.483 113.165 764.364 117.08 758.297 117.062ZM753.473 107.858C753.51 110.493 755.514 112.664 758.26 112.646C761.024 112.664 763.047 110.567 763.047 107.858C763.047 105.168 761.062 103.09 758.334 103.071C755.588 103.09 753.51 105.242 753.473 107.858Z" fill="#191F28"/>
<g filter="url(#filter2_f_4338_10411)">
<ellipse cx="666" cy="226.025" rx="28" ry="7.97468" fill="black" fill-opacity="0.25"/>
</g>
<path d="M710 152.084C710 176.43 701.902 181.786 666 226.025C630.27 182.163 622 176.43 622 152.084C622 127.737 641.699 108 666 108C690.301 108 710 127.737 710 152.084Z" fill="url(#paint1_linear_4338_10411)"/>
<rect x="635.656" y="121.928" width="60.6897" height="60.5258" rx="30.2629" fill="white"/>
<path d="M666.074 166.062C660.471 166.062 656.37 162.759 656.277 158.12H661.695C661.825 160.217 663.736 161.664 666.074 161.646C668.857 161.664 670.843 159.697 670.824 156.896C670.843 154.038 668.82 152.053 666 152.034C663.978 152.034 662.567 152.795 661.77 154.298H656.723L658.17 138.823H674.721V143.388H662.771L662.029 150.179H662.252C663.235 148.861 665.276 147.896 667.633 147.915C672.568 147.896 676.242 151.589 676.242 156.747C676.242 162.184 672.123 166.062 666.074 166.062Z" fill="#191F28"/>
<g filter="url(#filter3_f_4338_10411)">
<ellipse cx="598" cy="259.025" rx="28" ry="7.97468" fill="black" fill-opacity="0.25"/>
</g>
<path d="M642 185.084C642 209.43 633.902 214.786 598 259.025C562.27 215.163 554 209.43 554 185.084C554 160.737 573.699 141 598 141C622.301 141 642 160.737 642 185.084Z" fill="url(#paint2_linear_4338_10411)"/>
<rect x="567.656" y="154.928" width="60.6897" height="60.5258" rx="30.2629" fill="white"/>
<path d="M587.183 193.94V189.524L598.538 171.823H605.552V189.45H608.966V193.94H605.552V198.69H600.245V193.94H587.183ZM592.823 189.45H600.319V177.946H600.06L592.823 189.228V189.45Z" fill="#191F28"/>
<g filter="url(#filter4_f_4338_10411)">
<ellipse cx="914" cy="273.025" rx="28" ry="7.97468" fill="black" fill-opacity="0.25"/>
</g>
<path d="M958 199.084C958 223.43 949.902 228.786 914 273.025C878.27 229.163 870 223.43 870 199.084C870 174.737 889.699 155 914 155C938.301 155 958 174.737 958 199.084Z" fill="url(#paint3_linear_4338_10411)"/>
<rect x="883.656" y="168.928" width="60.6897" height="60.5258" rx="30.2629" fill="white"/>
<path d="M906.226 212.69L917.544 190.573V190.388H904.37V185.823H923.333V190.462L912.015 212.69H906.226Z" fill="#191F28"/>
<g filter="url(#filter5_f_4338_10411)">
<ellipse cx="797" cy="287.025" rx="28" ry="7.97468" fill="black" fill-opacity="0.25"/>
</g>
<path d="M841 213.084C841 237.43 832.902 242.786 797 287.025C761.27 243.163 753 237.43 753 213.084C753 188.737 772.699 169 797 169C821.301 169 841 188.737 841 213.084Z" fill="url(#paint4_linear_4338_10411)"/>
<rect x="766.656" y="182.928" width="60.6897" height="60.5258" rx="30.2629" fill="white"/>
<path d="M796.981 227.062C790.84 227.062 786.442 223.833 786.442 219.454C786.442 216.077 789.04 213.331 792.38 212.812V212.626C789.467 212.069 787.463 209.639 787.481 206.688C787.463 202.514 791.489 199.452 796.981 199.452C802.474 199.452 806.5 202.514 806.519 206.688C806.5 209.639 804.44 212.069 801.62 212.626V212.812C804.886 213.331 807.521 216.077 807.521 219.454C807.521 223.833 803.104 227.062 796.981 227.062ZM792.269 218.897C792.25 221.198 794.143 222.812 796.981 222.794C799.82 222.812 801.713 221.198 801.694 218.897C801.713 216.578 799.709 214.871 796.981 214.853C794.254 214.871 792.25 216.56 792.269 218.897ZM792.937 207.245C792.918 209.397 794.606 210.9 796.981 210.919C799.338 210.9 801.045 209.397 801.063 207.245C801.045 205.148 799.375 203.683 796.981 203.683C794.569 203.683 792.918 205.148 792.937 207.245Z" fill="#191F28"/>
<g filter="url(#filter6_f_4338_10411)">
<ellipse cx="709" cy="340.025" rx="28" ry="7.97468" fill="black" fill-opacity="0.25"/>
</g>
<path d="M753 266.084C753 290.43 744.902 295.786 709 340.025C673.27 296.163 665 290.43 665 266.084C665 241.737 684.699 222 709 222C733.301 222 753 241.737 753 266.084Z" fill="url(#paint5_linear_4338_10411)"/>
<rect x="678.656" y="235.928" width="60.6897" height="60.5258" rx="30.2629" fill="white"/>
<path d="M708.703 252.452C714.27 252.471 719.539 255.792 719.539 265.552C719.558 274.681 715.234 280.062 708.48 280.062C703.081 280.062 699.37 276.666 698.832 272.12H704.324C704.788 274.105 706.328 275.274 708.48 275.274C712.136 275.274 714.065 271.99 714.084 266.628H713.861C712.6 269.003 709.946 270.413 706.959 270.413C702.135 270.413 698.572 266.776 698.535 261.767C698.535 256.367 702.636 252.434 708.703 252.452ZM703.99 261.618C703.99 264.271 705.938 266.331 708.703 266.331C711.431 266.331 713.527 264.16 713.527 261.581C713.49 259.021 711.486 256.85 708.74 256.831C705.994 256.85 703.953 258.946 703.99 261.618Z" fill="#191F28"/>
<g filter="url(#filter7_f_4338_10411)">
<ellipse cx="483" cy="510.025" rx="28" ry="7.97468" fill="black" fill-opacity="0.25"/>
</g>
<path d="M527 436.084C527 460.43 518.902 465.786 483 510.025C447.27 466.163 439 460.43 439 436.084C439 411.737 458.699 392 483 392C507.301 392 527 411.737 527 436.084Z" fill="url(#paint6_linear_4338_10411)"/>
<rect x="452.656" y="405.928" width="60.6897" height="60.5258" rx="30.2629" fill="white"/>
<path d="M487.787 422.823V449.69H482.184V428.13H482.035L475.875 431.989V427.054L482.518 422.823H487.787Z" fill="#191F28"/>
<g filter="url(#filter8_f_4338_10411)">
<ellipse cx="1126" cy="799.025" rx="28" ry="7.97468" fill="black" fill-opacity="0.25"/>
</g>
<path d="M1170 725.084C1170 749.43 1161.9 754.786 1126 799.025C1090.27 755.163 1082 749.43 1082 725.084C1082 700.737 1101.7 681 1126 681C1150.3 681 1170 700.737 1170 725.084Z" fill="url(#paint7_linear_4338_10411)"/>
<rect x="1095.66" y="694.928" width="60.6897" height="60.5258" rx="30.2629" fill="white"/>
<path d="M1125.93 739.062C1120.03 739.062 1115.79 735.814 1115.68 731.12H1121.32C1121.42 733.124 1123.37 734.441 1125.96 734.46C1128.63 734.441 1130.55 732.957 1130.53 730.786C1130.55 728.597 1128.6 727.057 1125.44 727.038H1122.96V722.919H1125.44C1128.1 722.919 1129.95 721.472 1129.93 719.356C1129.95 717.297 1128.38 715.887 1126 715.905C1123.62 715.887 1121.68 717.223 1121.58 719.282H1116.24C1116.33 714.662 1120.49 711.452 1126 711.452C1131.6 711.452 1135.33 714.773 1135.31 719.022C1135.33 722.028 1133.24 724.162 1130.23 724.7V724.923C1134.18 725.405 1136.35 727.799 1136.32 731.157C1136.35 735.759 1131.99 739.062 1125.93 739.062Z" fill="#191F28"/>
<g filter="url(#filter9_f_4338_10411)">
<ellipse cx="1516" cy="714.025" rx="28" ry="7.97468" fill="black" fill-opacity="0.25"/>
</g>
<path d="M1560 640.084C1560 664.43 1551.9 669.786 1516 714.025C1480.27 670.163 1472 664.43 1472 640.084C1472 615.737 1491.7 596 1516 596C1540.3 596 1560 615.737 1560 640.084Z" fill="url(#paint8_linear_4338_10411)"/>
<rect x="1485.66" y="609.928" width="60.6897" height="60.5258" rx="30.2629" fill="white"/>
<path d="M1506.52 653.69L1506.48 649.646L1516.13 640.776C1518.63 638.383 1519.99 636.898 1519.99 634.765C1519.99 632.371 1518.19 630.887 1515.72 630.905C1513.2 630.887 1511.55 632.482 1511.57 635.062H1506.26C1506.24 629.811 1510.14 626.452 1515.8 626.452C1521.55 626.452 1525.37 629.736 1525.37 634.394C1525.37 637.455 1523.89 639.96 1518.36 644.97L1514.27 648.94V649.089H1525.74V653.69H1506.52Z" fill="#191F28"/>
<defs>
<filter id="filter0_f_4338_10411" x="0" y="101.327" width="1906" height="987.673" filterUnits="userSpaceOnUse" color-interpolation-filters="sRGB">
<feFlood flood-opacity="0" result="BackgroundImageFix"/>
<feBlend mode="normal" in="SourceGraphic" in2="BackgroundImageFix" result="shape"/>
<feGaussianBlur stdDeviation="24" result="effect1_foregroundBlur_4338_10411"/>
</filter>
<filter id="filter1_f_4338_10411" x="726" y="165.051" width="64" height="23.9492" filterUnits="userSpaceOnUse" color-interpolation-filters="sRGB">
<feFlood flood-opacity="0" result="BackgroundImageFix"/>
<feBlend mode="normal" in="SourceGraphic" in2="BackgroundImageFix" result="shape"/>
<feGaussianBlur stdDeviation="2" result="effect1_foregroundBlur_4338_10411"/>
</filter>
<filter id="filter2_f_4338_10411" x="634" y="214.051" width="64" height="23.9492" filterUnits="userSpaceOnUse" color-interpolation-filters="sRGB">
<feFlood flood-opacity="0" result="BackgroundImageFix"/>
<feBlend mode="normal" in="SourceGraphic" in2="BackgroundImageFix" result="shape"/>
<feGaussianBlur stdDeviation="2" result="effect1_foregroundBlur_4338_10411"/>
</filter>
<filter id="filter3_f_4338_10411" x="566" y="247.051" width="64" height="23.9492" filterUnits="userSpaceOnUse" color-interpolation-filters="sRGB">
<feFlood flood-opacity="0" result="BackgroundImageFix"/>
<feBlend mode="normal" in="SourceGraphic" in2="BackgroundImageFix" result="shape"/>
<feGaussianBlur stdDeviation="2" result="effect1_foregroundBlur_4338_10411"/>
</filter>
<filter id="filter4_f_4338_10411" x="882" y="261.051" width="64" height="23.9492" filterUnits="userSpaceOnUse" color-interpolation-filters="sRGB">
<feFlood flood-opacity="0" result="BackgroundImageFix"/>
<feBlend mode="normal" in="SourceGraphic" in2="BackgroundImageFix" result="shape"/>
<feGaussianBlur stdDeviation="2" result="effect1_foregroundBlur_4338_10411"/>
</filter>
<filter id="filter5_f_4338_10411" x="765" y="275.051" width="64" height="23.9492" filterUnits="userSpaceOnUse" color-interpolation-filters="sRGB">
<feFlood flood-opacity="0" result="BackgroundImageFix"/>
<feBlend mode="normal" in="SourceGraphic" in2="BackgroundImageFix" result="shape"/>
<feGaussianBlur stdDeviation="2" result="effect1_foregroundBlur_4338_10411"/>
</filter>
<filter id="filter6_f_4338_10411" x="677" y="328.051" width="64" height="23.9492" filterUnits="userSpaceOnUse" color-interpolation-filters="sRGB">
<feFlood flood-opacity="0" result="BackgroundImageFix"/>
<feBlend mode="normal" in="SourceGraphic" in2="BackgroundImageFix" result="shape"/>
<feGaussianBlur stdDeviation="2" result="effect1_foregroundBlur_4338_10411"/>
</filter>
<filter id="filter7_f_4338_10411" x="451" y="498.051" width="64" height="23.9492" filterUnits="userSpaceOnUse" color-interpolation-filters="sRGB">
<feFlood flood-opacity="0" result="BackgroundImageFix"/>
<feBlend mode="normal" in="SourceGraphic" in2="BackgroundImageFix" result="shape"/>
<feGaussianBlur stdDeviation="2" result="effect1_foregroundBlur_4338_10411"/>
</filter>
<filter id="filter8_f_4338_10411" x="1094" y="787.051" width="64" height="23.9492" filterUnits="userSpaceOnUse" color-interpolation-filters="sRGB">
<feFlood flood-opacity="0" result="BackgroundImageFix"/>
<feBlend mode="normal" in="SourceGraphic" in2="BackgroundImageFix" result="shape"/>
<feGaussianBlur stdDeviation="2" result="effect1_foregroundBlur_4338_10411"/>
</filter>
<filter id="filter9_f_4338_10411" x="1484" y="702.051" width="64" height="23.9492" filterUnits="userSpaceOnUse" color-interpolation-filters="sRGB">
<feFlood flood-opacity="0" result="BackgroundImageFix"/>
<feBlend mode="normal" in="SourceGraphic" in2="BackgroundImageFix" result="shape"/>
<feGaussianBlur stdDeviation="2" result="effect1_foregroundBlur_4338_10411"/>
</filter>
<linearGradient id="paint0_linear_4338_10411" x1="783.362" y1="71.0864" x2="733.637" y2="156.956" gradientUnits="userSpaceOnUse">
<stop offset="0.144416" stop-color="#C41818"/>
<stop offset="1" stop-color="#072B24"/>
</linearGradient>
<linearGradient id="paint1_linear_4338_10411" x1="691.362" y1="120.086" x2="641.637" y2="205.956" gradientUnits="userSpaceOnUse">
<stop offset="0.144416" stop-color="#C41818"/>
<stop offset="1" stop-color="#072B24"/>
</linearGradient>
<linearGradient id="paint2_linear_4338_10411" x1="623.362" y1="153.086" x2="573.637" y2="238.956" gradientUnits="userSpaceOnUse">
<stop offset="0.144416" stop-color="#C41818"/>
<stop offset="1" stop-color="#072B24"/>
</linearGradient>
<linearGradient id="paint3_linear_4338_10411" x1="939.362" y1="167.086" x2="889.637" y2="252.956" gradientUnits="userSpaceOnUse">
<stop offset="0.144416" stop-color="#C41818"/>
<stop offset="1" stop-color="#072B24"/>
</linearGradient>
<linearGradient id="paint4_linear_4338_10411" x1="822.362" y1="181.086" x2="772.637" y2="266.956" gradientUnits="userSpaceOnUse">
<stop offset="0.144416" stop-color="#C41818"/>
<stop offset="1" stop-color="#072B24"/>
</linearGradient>
<linearGradient id="paint5_linear_4338_10411" x1="734.362" y1="234.086" x2="684.637" y2="319.956" gradientUnits="userSpaceOnUse">
<stop offset="0.144416" stop-color="#C41818"/>
<stop offset="1" stop-color="#072B24"/>
</linearGradient>
<linearGradient id="paint6_linear_4338_10411" x1="508.362" y1="404.086" x2="458.637" y2="489.956" gradientUnits="userSpaceOnUse">
<stop offset="0.144416" stop-color="#C41818"/>
<stop offset="1" stop-color="#072B24"/>
</linearGradient>
<linearGradient id="paint7_linear_4338_10411" x1="1151.36" y1="693.086" x2="1101.64" y2="778.956" gradientUnits="userSpaceOnUse">
<stop offset="0.144416" stop-color="#C41818"/>
<stop offset="1" stop-color="#072B24"/>
</linearGradient>
<linearGradient id="paint8_linear_4338_10411" x1="1541.36" y1="608.086" x2="1491.64" y2="693.956" gradientUnits="userSpaceOnUse">
<stop offset="0.144416" stop-color="#C41818"/>
<stop offset="1" stop-color="#072B24"/>
</linearGradient>
</defs>
</svg>
