<svg width="72" height="72" viewBox="0 0 72 72" fill="none" xmlns="http://www.w3.org/2000/svg">
<g id="Frame 131">
<path id="Vector" d="M31.8 41.4L25.275 34.875C24.725 34.325 24.05 34.05 23.25 34.05C22.45 34.05 21.75 34.35 21.15 34.95C20.6 35.5 20.325 36.2 20.325 37.05C20.325 37.9 20.6 38.6 21.15 39.15L29.7 47.7C30.25 48.25 30.95 48.525 31.8 48.525C32.65 48.525 33.35 48.25 33.9 47.7L50.925 30.675C51.475 30.125 51.75 29.45 51.75 28.65C51.75 27.85 51.45 27.15 50.85 26.55C50.3 26 49.6 25.725 48.75 25.725C47.9 25.725 47.2 26 46.65 26.55L31.8 41.4ZM36 66C31.85 66 27.95 65.212 24.3 63.636C20.65 62.062 17.475 59.925 14.775 57.225C12.075 54.525 9.938 51.35 8.364 47.7C6.788 44.05 6 40.15 6 36C6 31.85 6.788 27.95 8.364 24.3C9.938 20.65 12.075 17.475 14.775 14.775C17.475 12.075 20.65 9.937 24.3 8.361C27.95 6.787 31.85 6 36 6C40.15 6 44.05 6.787 47.7 8.361C51.35 9.937 54.525 12.075 57.225 14.775C59.925 17.475 62.062 20.65 63.636 24.3C65.212 27.95 66 31.85 66 36C66 40.15 65.212 44.05 63.636 47.7C62.062 51.35 59.925 54.525 57.225 57.225C54.525 59.925 51.35 62.062 47.7 63.636C44.05 65.212 40.15 66 36 66Z" fill="#191F28"/>
</g>
</svg>
