<svg width="2160" height="3840" viewBox="0 0 2160 3840" fill="none" xmlns="http://www.w3.org/2000/svg">
<g clip-path="url(#clip0_5460_5936)">
<rect width="2160" height="3840" fill="#FEF8EF"/>
<g filter="url(#filter0_d_5460_5936)">
<path d="M0 0L2160 0L2160 3840L0 3840L0 0Z" fill="url(#paint0_linear_5460_5936)"/>
</g>
<path d="M492.241 3771.53C491.397 3768.86 489.35 3767.2 486.366 3767.22C482.553 3767.2 479.631 3770.2 479.616 3775.69C479.631 3781.16 482.522 3784.17 486.522 3784.16C490.131 3784.17 492.522 3781.88 492.584 3778.25H487.022V3775.41H495.928V3777.97C495.928 3783.7 491.991 3787.31 486.491 3787.31C480.366 3787.31 476.209 3782.86 476.209 3775.69C476.209 3768.47 480.491 3764.06 486.334 3764.06C491.225 3764.06 495.006 3767.11 495.772 3771.53H492.241ZM501.034 3767.34V3764.38H518.566V3767.34H511.534V3787H508.097V3767.34H501.034ZM525.266 3787V3764.38H539.453V3767.34H528.703V3774.19H538.703V3777.12H528.703V3784.03H539.578V3787H525.266ZM566.528 3775.69C566.528 3782.92 562.184 3787.31 556.341 3787.31C550.45 3787.31 546.122 3782.91 546.122 3775.69C546.122 3768.45 550.45 3764.06 556.341 3764.06C562.184 3764.06 566.528 3768.45 566.528 3775.69ZM549.528 3775.69C549.544 3781.19 552.434 3784.17 556.341 3784.16C560.216 3784.17 563.106 3781.19 563.122 3775.69C563.106 3770.19 560.216 3767.2 556.341 3767.22C552.434 3767.2 549.544 3770.19 549.528 3775.69ZM591.853 3764.38V3787H588.697L577.228 3770.47H577.041V3787H573.603V3764.38H576.791L588.259 3780.94H588.478V3764.38H591.853ZM614.959 3771.53C614.116 3768.86 612.069 3767.2 609.084 3767.22C605.272 3767.2 602.35 3770.2 602.334 3775.69C602.35 3781.16 605.241 3784.17 609.241 3784.16C612.85 3784.17 615.241 3781.88 615.303 3778.25H609.741V3775.41H618.647V3777.97C618.647 3783.7 614.709 3787.31 609.209 3787.31C603.084 3787.31 598.928 3782.86 598.928 3775.69C598.928 3768.47 603.209 3764.06 609.053 3764.06C613.944 3764.06 617.725 3767.11 618.491 3771.53H614.959ZM638.128 3770.34C637.909 3768.23 636.066 3767.03 633.472 3767.03C630.706 3767.03 628.956 3768.45 628.941 3770.38C628.941 3772.52 631.269 3773.36 633.066 3773.78L635.253 3774.38C638.144 3775.08 641.769 3776.66 641.784 3780.75C641.769 3784.58 638.722 3787.38 633.378 3787.38C628.316 3787.38 625.128 3784.84 624.909 3780.72H628.347C628.55 3783.19 630.737 3784.36 633.378 3784.38C636.269 3784.36 638.362 3782.91 638.378 3780.69C638.362 3778.72 636.487 3777.92 634.097 3777.28L631.409 3776.56C627.769 3775.56 625.519 3773.72 625.503 3770.56C625.519 3766.66 628.987 3764.06 633.566 3764.06C638.159 3764.06 641.362 3766.69 641.472 3770.34H638.128ZM650.422 3787H646.766L654.891 3764.38H658.859L667.016 3787H663.359L661.297 3781.03H652.484L650.422 3787ZM653.469 3778.16H660.297L656.953 3768.5H656.797L653.469 3778.16ZM691.341 3764.38V3787H688.184L676.716 3770.47H676.528V3787H673.091V3764.38H676.278L687.747 3780.94H687.966V3764.38H691.341ZM714.447 3771.53C713.603 3768.86 711.556 3767.2 708.572 3767.22C704.759 3767.2 701.837 3770.2 701.822 3775.69C701.837 3781.16 704.728 3784.17 708.728 3784.16C712.337 3784.17 714.728 3781.88 714.791 3778.25H709.228V3775.41H718.134V3777.97C718.134 3783.7 714.197 3787.31 708.697 3787.31C702.572 3787.31 698.416 3782.86 698.416 3775.69C698.416 3768.47 702.697 3764.06 708.541 3764.06C713.431 3764.06 717.212 3767.11 717.978 3771.53H714.447ZM725.303 3787V3764.38H733.584C738.412 3764.38 740.741 3766.95 740.741 3770.31C740.741 3773.14 739.006 3774.56 736.928 3775.09V3775.31C739.178 3775.44 741.616 3777.41 741.616 3780.91C741.616 3784.38 739.241 3787 733.959 3787H725.303ZM728.741 3784.06H733.647C736.897 3784.05 738.209 3782.62 738.209 3780.75C738.209 3778.58 736.491 3776.84 733.772 3776.84H728.741V3784.06ZM728.741 3774.16H733.303C735.584 3774.14 737.366 3772.77 737.366 3770.59C737.366 3768.72 736.069 3767.31 733.366 3767.31H728.741V3774.16ZM763.034 3764.38H766.472V3779.25C766.487 3784 762.909 3787.38 757.503 3787.38C752.05 3787.38 748.487 3784 748.503 3779.25V3764.38H751.941V3778.97C751.925 3782.03 754.066 3784.23 757.503 3784.25C760.925 3784.23 763.034 3782.03 763.034 3778.97V3764.38ZM774.297 3787V3764.38H777.734V3775.16H778.016L787.484 3764.38H791.797L782.672 3774.56L791.828 3787H787.672L780.391 3776.91L777.734 3779.97V3787H774.297ZM804.903 3774.25V3777.12H794.872V3774.25H804.903ZM819.759 3787H812.416V3764.38H819.978C826.65 3764.38 830.619 3768.61 830.634 3775.66C830.619 3782.72 826.65 3787 819.759 3787ZM815.853 3784H819.572C824.697 3783.98 827.228 3781 827.228 3775.66C827.228 3770.33 824.697 3767.38 819.759 3767.38H815.853V3784ZM857.366 3775.69C857.366 3782.92 853.022 3787.31 847.178 3787.31C841.287 3787.31 836.959 3782.91 836.959 3775.69C836.959 3768.45 841.287 3764.06 847.178 3764.06C853.022 3764.06 857.366 3768.45 857.366 3775.69ZM840.366 3775.69C840.381 3781.19 843.272 3784.17 847.178 3784.16C851.053 3784.17 853.944 3781.19 853.959 3775.69C853.944 3770.19 851.053 3767.2 847.178 3767.22C843.272 3767.2 840.381 3770.19 840.366 3775.69ZM895.109 3775.69C895.109 3782.92 890.766 3787.31 884.922 3787.31C879.031 3787.31 874.703 3782.91 874.703 3775.69C874.703 3768.45 879.031 3764.06 884.922 3764.06C890.766 3764.06 895.109 3768.45 895.109 3775.69ZM878.109 3775.69C878.125 3781.19 881.016 3784.17 884.922 3784.16C888.797 3784.17 891.688 3781.19 891.703 3775.69C891.688 3770.19 888.797 3767.2 884.922 3767.22C881.016 3767.2 878.125 3770.19 878.109 3775.69ZM902.184 3787V3764.38H916.216V3767.34H905.622V3774.19H915.216V3777.12H905.622V3787H902.184ZM923.259 3787V3764.38H937.291V3767.34H926.697V3774.19H936.291V3777.12H926.697V3787H923.259ZM947.772 3764.38V3787H944.334V3764.38H947.772ZM970.878 3771.75C970.331 3768.83 967.909 3767.2 965.034 3767.22C961.128 3767.2 958.237 3770.2 958.222 3775.69C958.237 3781.2 961.144 3784.17 965.034 3784.16C967.878 3784.17 970.284 3782.58 970.878 3779.69L974.347 3779.72C973.628 3784.19 969.987 3787.31 965.003 3787.31C959.112 3787.31 954.816 3782.92 954.816 3775.69C954.816 3768.45 959.144 3764.06 965.003 3764.06C969.784 3764.06 973.581 3766.89 974.347 3771.75H970.878ZM981.266 3787V3764.38H995.453V3767.34H984.703V3774.19H994.703V3777.12H984.703V3784.03H995.578V3787H981.266ZM1033.54 3775.69C1033.54 3782.92 1029.2 3787.31 1023.35 3787.31C1017.46 3787.31 1013.13 3782.91 1013.13 3775.69C1013.13 3768.45 1017.46 3764.06 1023.35 3764.06C1029.2 3764.06 1033.54 3768.45 1033.54 3775.69ZM1016.54 3775.69C1016.56 3781.19 1019.45 3784.17 1023.35 3784.16C1027.23 3784.17 1030.12 3781.19 1030.13 3775.69C1030.12 3770.19 1027.23 3767.2 1023.35 3767.22C1019.45 3767.2 1016.56 3770.19 1016.54 3775.69ZM1040.62 3787V3764.38H1054.65V3767.34H1044.05V3774.19H1053.65V3777.12H1044.05V3787H1040.62ZM1072.7 3787V3764.38H1086.89V3767.34H1076.14V3774.19H1086.14V3777.12H1076.14V3784.03H1087.02V3787H1072.7ZM1101.65 3787H1094.31V3764.38H1101.87C1108.54 3764.38 1112.51 3768.61 1112.53 3775.66C1112.51 3782.72 1108.54 3787 1101.65 3787ZM1097.75 3784H1101.47C1106.59 3783.98 1109.12 3781 1109.12 3775.66C1109.12 3770.33 1106.59 3767.38 1101.65 3767.38H1097.75V3784ZM1134.13 3764.38H1137.57V3779.25C1137.59 3784 1134.01 3787.38 1128.6 3787.38C1123.15 3787.38 1119.59 3784 1119.6 3779.25V3764.38H1123.04V3778.97C1123.02 3782.03 1125.17 3784.23 1128.6 3784.25C1132.02 3784.23 1134.13 3782.03 1134.13 3778.97V3764.38ZM1160.71 3771.75C1160.16 3768.83 1157.74 3767.2 1154.87 3767.22C1150.96 3767.2 1148.07 3770.2 1148.05 3775.69C1148.07 3781.2 1150.97 3784.17 1154.87 3784.16C1157.71 3784.17 1160.12 3782.58 1160.71 3779.69L1164.18 3779.72C1163.46 3784.19 1159.82 3787.31 1154.83 3787.31C1148.94 3787.31 1144.65 3782.92 1144.65 3775.69C1144.65 3768.45 1148.97 3764.06 1154.83 3764.06C1159.62 3764.06 1163.41 3766.89 1164.18 3771.75H1160.71ZM1172.88 3787H1169.22L1177.35 3764.38H1181.32L1189.47 3787H1185.82L1183.75 3781.03H1174.94L1172.88 3787ZM1175.93 3778.16H1182.75L1179.41 3768.5H1179.25L1175.93 3778.16ZM1191.7 3767.34V3764.38H1209.23V3767.34H1202.2V3787H1198.77V3767.34H1191.7ZM1219.37 3764.38V3787H1215.93V3764.38H1219.37ZM1246.82 3775.69C1246.82 3782.92 1242.48 3787.31 1236.63 3787.31C1230.74 3787.31 1226.42 3782.91 1226.42 3775.69C1226.42 3768.45 1230.74 3764.06 1236.63 3764.06C1242.48 3764.06 1246.82 3768.45 1246.82 3775.69ZM1229.82 3775.69C1229.84 3781.19 1232.73 3784.17 1236.63 3784.16C1240.51 3784.17 1243.4 3781.19 1243.42 3775.69C1243.4 3770.19 1240.51 3767.2 1236.63 3767.22C1232.73 3767.2 1229.84 3770.19 1229.82 3775.69ZM1272.15 3764.38V3787H1268.99L1257.52 3770.47H1257.33V3787H1253.9V3764.38H1257.08L1268.55 3780.94H1268.77V3764.38H1272.15ZM1294.42 3764.38V3787H1290.98V3764.38H1294.42ZM1320.47 3764.38V3787H1317.31L1305.84 3770.47H1305.65V3787H1302.22V3764.38H1305.4L1316.87 3780.94H1317.09V3764.38H1320.47ZM1328.29 3787V3764.38H1342.32V3767.34H1331.73V3774.19H1341.32V3777.12H1331.73V3787H1328.29ZM1369.02 3775.69C1369.02 3782.92 1364.68 3787.31 1358.83 3787.31C1352.94 3787.31 1348.62 3782.91 1348.62 3775.69C1348.62 3768.45 1352.94 3764.06 1358.83 3764.06C1364.68 3764.06 1369.02 3768.45 1369.02 3775.69ZM1352.02 3775.69C1352.04 3781.19 1354.93 3784.17 1358.83 3784.16C1362.71 3784.17 1365.6 3781.19 1365.62 3775.69C1365.6 3770.19 1362.71 3767.2 1358.83 3767.22C1354.93 3767.2 1352.04 3770.19 1352.02 3775.69ZM1376.1 3787V3764.38H1384.16C1389.43 3764.38 1392 3767.3 1392 3771.47C1392 3774.52 1390.63 3776.81 1387.88 3777.86L1392.88 3787H1388.97L1384.38 3778.47H1384.16H1379.53V3787H1376.1ZM1379.53 3775.5H1383.82C1387.14 3775.48 1388.53 3774.02 1388.53 3771.47C1388.53 3768.92 1387.14 3767.33 1383.82 3767.31H1379.53V3775.5ZM1399.02 3764.38H1403.2L1410.36 3781.91H1410.64L1417.8 3764.38H1421.98V3787H1418.7V3770.66H1418.48L1411.86 3786.97H1409.14L1402.48 3770.62H1402.3V3787H1399.02V3764.38ZM1431.75 3787H1428.09L1436.22 3764.38H1440.18L1448.34 3787H1444.68L1442.62 3781.03H1433.81L1431.75 3787ZM1434.79 3778.16H1441.62L1438.28 3768.5H1438.12L1434.79 3778.16ZM1450.57 3767.34V3764.38H1468.1V3767.34H1461.07V3787H1457.63V3767.34H1450.57ZM1478.24 3764.38V3787H1474.8V3764.38H1478.24ZM1505.69 3775.69C1505.69 3782.92 1501.35 3787.31 1495.5 3787.31C1489.61 3787.31 1485.28 3782.91 1485.28 3775.69C1485.28 3768.45 1489.61 3764.06 1495.5 3764.06C1501.35 3764.06 1505.69 3768.45 1505.69 3775.69ZM1488.69 3775.69C1488.71 3781.19 1491.6 3784.17 1495.5 3784.16C1499.38 3784.17 1502.27 3781.19 1502.28 3775.69C1502.27 3770.19 1499.38 3767.2 1495.5 3767.22C1491.6 3767.2 1488.71 3770.19 1488.69 3775.69ZM1531.02 3764.38V3787H1527.86L1516.39 3770.47H1516.2V3787H1512.77V3764.38H1515.95L1527.42 3780.94H1527.64V3764.38H1531.02ZM1565.17 3771.75C1564.62 3768.83 1562.2 3767.2 1559.32 3767.22C1555.42 3767.2 1552.53 3770.2 1552.51 3775.69C1552.53 3781.2 1555.43 3784.17 1559.32 3784.16C1562.17 3784.17 1564.57 3782.58 1565.17 3779.69L1568.63 3779.72C1567.92 3784.19 1564.28 3787.31 1559.29 3787.31C1553.4 3787.31 1549.1 3782.92 1549.1 3775.69C1549.1 3768.45 1553.43 3764.06 1559.29 3764.06C1564.07 3764.06 1567.87 3766.89 1568.63 3771.75H1565.17ZM1575.55 3787V3764.38H1589.74V3767.34H1578.99V3774.19H1588.99V3777.12H1578.99V3784.03H1589.87V3787H1575.55ZM1615.41 3764.38V3787H1612.25L1600.78 3770.47H1600.6V3787H1597.16V3764.38H1600.35L1611.82 3780.94H1612.03V3764.38H1615.41ZM1622.11 3767.34V3764.38H1639.64V3767.34H1632.61V3787H1629.17V3767.34H1622.11ZM1646.34 3787V3764.38H1660.53V3767.34H1649.78V3774.19H1659.78V3777.12H1649.78V3784.03H1660.65V3787H1646.34ZM1667.95 3787V3764.38H1676.01C1681.28 3764.38 1683.85 3767.3 1683.85 3771.47C1683.85 3774.52 1682.48 3776.81 1679.73 3777.86L1684.73 3787H1680.82L1676.23 3778.47H1676.01H1671.38V3787H1667.95ZM1671.38 3775.5H1675.67C1678.99 3775.48 1680.38 3774.02 1680.38 3771.47C1680.38 3768.92 1678.99 3767.33 1675.67 3767.31H1671.38V3775.5Z" fill="#ADB5BD"/>
</g>
<defs>
<filter id="filter0_d_5460_5936" x="-40" y="-50" width="2260" height="3940" filterUnits="userSpaceOnUse" color-interpolation-filters="sRGB">
<feFlood flood-opacity="0" result="BackgroundImageFix"/>
<feColorMatrix in="SourceAlpha" type="matrix" values="0 0 0 0 0 0 0 0 0 0 0 0 0 0 0 0 0 0 127 0" result="hardAlpha"/>
<feOffset dx="10"/>
<feGaussianBlur stdDeviation="25"/>
<feComposite in2="hardAlpha" operator="out"/>
<feColorMatrix type="matrix" values="0 0 0 0 0 0 0 0 0 0 0 0 0 0 0 0 0 0 0.3 0"/>
<feBlend mode="multiply" in2="BackgroundImageFix" result="effect1_dropShadow_5460_5936"/>
<feBlend mode="normal" in="SourceGraphic" in2="effect1_dropShadow_5460_5936" result="shape"/>
</filter>
<linearGradient id="paint0_linear_5460_5936" x1="1080" y1="3840" x2="1080" y2="0" gradientUnits="userSpaceOnUse">
<stop stop-color="#E9E0D7"/>
<stop offset="1" stop-color="#C3D8EC"/>
</linearGradient>
<clipPath id="clip0_5460_5936">
<rect width="2160" height="3840" fill="white"/>
</clipPath>
</defs>
</svg>
