<svg width="1860" height="1313" viewBox="0 0 1860 1313" fill="none" xmlns="http://www.w3.org/2000/svg">
<path d="M1569.15 218.93C1525.21 218.93 1494 195.346 1492.69 160.629H1525.5C1526.67 179.232 1545.13 191.098 1568.86 191.098C1594.49 191.098 1613.1 177.182 1613.1 156.527C1613.1 135.58 1595.66 120.639 1565.34 120.492H1547.18V94.125H1565.34C1589.51 94.2715 1606.36 80.7949 1606.36 60.4336C1606.36 41.0977 1591.86 27.9141 1569.44 27.9141C1548.2 27.9141 1529.16 39.7793 1528.43 58.9688H1497.37C1498.25 24.3984 1530.19 0.960938 1569.74 0.960938C1611.48 0.960938 1637.71 27.3281 1637.41 58.6758C1637.71 82.8457 1622.76 100.131 1599.91 105.844V107.309C1628.92 111.41 1645.76 130.893 1645.62 157.699C1645.76 193.002 1613.1 218.93 1569.15 218.93ZM1683.99 216V3.89062H1815.54V31.7227H1716.22V95.8828H1806.16V123.422H1716.22V216H1683.99Z" fill="white"/>
<path d="M1725.2 905.257L1625.8 961.957M1580.19 988.261L1625.8 961.957M1658.54 887.137L1756.77 943.252M1642.17 896.489L1740.4 952.604M1625.8 905.842L1724.03 961.957M1609.42 915.194L1707.65 971.309M1593.05 924.547L1691.28 980.662M1625.8 961.957L1674.91 990.014" stroke="white" stroke-width="3" stroke-linecap="round" stroke-linejoin="round"/>
<path d="M512.522 8L5 297.928L758.097 728.144L332.434 971.309L921.814 1308L1855 774.906L512.522 8Z" stroke="white" stroke-width="10" stroke-linejoin="round"/>
<path d="M1805.89 915.194L1707.66 859.079L1511.2 971.309L1609.43 1027.42L1805.89 915.194Z" stroke="white" stroke-width="4" stroke-linejoin="round"/>
<path d="M1134.65 325.985L954.559 428.863M1232.88 382.1L1052.79 484.978" stroke="white" stroke-width="4" stroke-linecap="round" stroke-linejoin="round"/>
<path d="M1152.19 372.163L1052.79 428.863M1007.18 455.167L1052.79 428.863M1085.53 354.043L1183.76 410.158M1069.16 363.395L1167.39 419.511M1052.79 372.748L1151.02 428.863M1036.41 382.101L1134.64 438.216M1020.04 391.453L1118.27 447.568M1052.79 428.863L1101.9 456.921" stroke="white" stroke-width="3" stroke-linecap="round" stroke-linejoin="round"/>
<path d="M1069.16 475.626L970.93 419.511L954.559 428.863L1052.79 484.978L1069.16 475.626Z" fill="#D1D1D1"/>
<path d="M889.072 653.324L643.497 513.036L627.125 522.389L872.7 662.676L889.072 653.324Z" fill="#D1D1D1"/>
<path d="M1052.79 484.978L1183.76 559.798L1331.11 475.626L1200.13 400.806L1052.79 484.978Z" stroke="white" stroke-width="4" stroke-linejoin="round"/>
<path d="M823.584 354.043L954.557 428.863L1101.9 344.69L970.929 269.87L823.584 354.043Z" stroke="white" stroke-width="4" stroke-linejoin="round"/>
<path d="M512.522 8L5 297.928L512.522 587.856L872.699 382.101L823.584 354.043L970.929 269.87L512.522 8Z" stroke="white" stroke-width="4" stroke-linejoin="round"/>
<path d="M921.814 634.619L987.301 672.029L1069.16 625.267L1003.67 587.856L921.814 634.619Z" stroke="white" stroke-width="4" stroke-linejoin="round"/>
<path d="M921.814 1308L332.434 971.309L1003.67 587.856L1036.42 606.561L1151.02 541.094L1183.76 559.799L1331.11 475.626L1855 774.907L921.814 1308Z" stroke="white" stroke-width="4" stroke-linejoin="round"/>
<g filter="url(#filter0_f_4107_10135)">
<ellipse cx="1125" cy="929" rx="35" ry="10" fill="black" fill-opacity="0.25"/>
</g>
<path d="M1180 836.28C1180 866.81 1169.88 873.526 1125 929C1080.34 873.998 1070 866.81 1070 836.28C1070 805.75 1094.62 781 1125 781C1155.38 781 1180 805.75 1180 836.28Z" fill="url(#paint0_linear_4107_10135)"/>
<rect x="1087.07" y="798.465" width="75.8621" height="75.8974" rx="37.931" fill="white"/>
<path d="M1114.02 851.913L1113.98 847.229L1125.15 836.96C1128.05 834.188 1129.62 832.47 1129.62 829.999C1129.62 827.228 1127.54 825.509 1124.68 825.53C1121.76 825.509 1119.84 827.356 1119.87 830.343H1113.72C1113.7 824.263 1118.21 820.374 1124.76 820.374C1131.42 820.374 1135.85 824.177 1135.85 829.569C1135.85 833.114 1134.13 836.015 1127.73 841.815L1123 846.413V846.585H1136.28V851.913H1114.02Z" fill="#191F28"/>
<g filter="url(#filter1_f_4107_10135)">
<ellipse cx="509" cy="348" rx="35" ry="10" fill="black" fill-opacity="0.25"/>
</g>
<path d="M564 255.28C564 285.81 553.878 292.526 509 348C464.338 292.998 454 285.81 454 255.28C454 224.75 478.624 200 509 200C539.376 200 564 224.75 564 255.28Z" fill="url(#paint1_linear_4107_10135)"/>
<rect x="471.068" y="217.465" width="75.8621" height="75.8974" rx="37.931" fill="white"/>
<path d="M514.543 270.913H508.055V245.948H507.883L500.75 250.417V244.702L508.441 239.804H514.543V270.913Z" fill="#191F28"/>
<path d="M432.285 135.852V159.055H426.828V149.816H420.727V145.391H426.828V135.852H432.285ZM399.07 154.758C405.473 152.609 408.395 147.496 408.523 142.598H400.66V138.215H421.887V142.598H414.109C414.217 147.152 417.01 151.75 423.09 153.77L420.383 158.066C416.086 156.67 413.1 153.834 411.402 150.332C409.684 154.307 406.547 157.508 401.906 159.098L399.07 154.758ZM405.473 167.477C405.473 162.729 410.586 159.936 418.922 159.914C427.279 159.936 432.393 162.729 432.414 167.477C432.393 172.225 427.279 174.996 418.922 174.996C410.586 174.996 405.473 172.225 405.473 167.477ZM410.93 167.477C410.93 169.711 413.744 170.828 418.922 170.828C424.121 170.828 426.936 169.711 426.957 167.477C426.936 165.221 424.121 164.104 418.922 164.125C413.744 164.104 410.93 165.221 410.93 167.477ZM472.048 165.93V170.398H436.255V165.93H451.338V158.711H440.037V138.344H445.537V144.402H462.595V138.344H468.052V158.711H456.795V165.93H472.048ZM445.537 154.328H462.595V148.785H445.537V154.328ZM488.394 144.703C488.372 151.879 491.638 159.076 498.277 161.891L495.054 166.273C490.585 164.254 487.491 160.344 485.708 155.51C483.946 160.795 480.745 165.049 475.976 167.219L472.667 162.664C479.499 159.785 482.829 152.287 482.851 144.703V138.859H488.394V144.703ZM500.382 175.039V135.852H505.925V175.039H500.382ZM530.692 141.008C530.671 146.744 535.762 152.867 544.614 154.371L542.208 158.926C535.376 157.572 530.327 153.727 527.792 148.721C525.214 153.684 520.143 157.551 513.376 158.926L511.012 154.371C519.714 152.824 524.805 146.68 524.848 141.008V138.172H530.692V141.008ZM510.11 170.141V165.629H545.903V170.141H510.11ZM563.495 138.172V142.598H553.827V145.691H562.034V149.902H553.827V153.318C558.08 153.254 561.196 153.061 564.827 152.48L565.385 156.734C560.895 157.508 557.157 157.658 551.248 157.637H548.584V138.172H563.495ZM553.955 174.523V160.73H580.639V174.523H553.955ZM559.413 170.141H575.225V165.027H559.413V170.141ZM563.709 149.645V145.262H567.663V136.453H572.862V158.926H567.663V149.645H563.709ZM575.44 159.184V135.852H580.639V159.184H575.44ZM616.664 135.852V155.66H611.207V135.852H616.664ZM583.793 151.449C590.324 149.494 593.246 144.574 593.246 139.719V136.711H598.961V139.719C598.918 144.467 601.754 149 608.156 150.848L605.492 155.059C601.002 153.77 597.908 151.041 596.125 147.561C594.363 151.363 591.162 154.35 586.5 155.746L583.793 151.449ZM590.453 161.59V157.336H616.707V167.949H595.91V170.355H617.781V174.695H590.539V163.867H611.25V161.59H590.453Z" fill="white"/>
<path d="M921.219 346.375H925.438V348.875H921.219V362.656H918.25V334.656H921.219V346.375ZM898.938 355.031C902.115 355.031 904.594 355.005 906.375 354.953V352.109C905.323 351.953 904.401 351.646 903.609 351.188C902.828 350.729 902.224 350.146 901.797 349.438C901.38 348.719 901.177 347.917 901.188 347.031C901.177 345.99 901.448 345.073 902 344.281C902.562 343.49 903.349 342.875 904.359 342.438C905.38 342 906.552 341.781 907.875 341.781C909.188 341.781 910.354 342 911.375 342.438C912.396 342.875 913.193 343.49 913.766 344.281C914.339 345.073 914.625 345.99 914.625 347.031C914.625 347.917 914.406 348.719 913.969 349.438C913.531 350.146 912.911 350.734 912.109 351.203C911.318 351.661 910.396 351.964 909.344 352.109V354.844C912.094 354.708 914.531 354.49 916.656 354.188L916.844 356.375C914.312 356.823 911.693 357.125 908.984 357.281C906.286 357.427 903.443 357.5 900.453 357.5H899.406L898.938 355.031ZM899.469 337.969H906.375V334.719H909.344V337.969H916.25V340.344H899.469V337.969ZM903.969 347.031C903.969 347.615 904.13 348.125 904.453 348.562C904.776 348.99 905.224 349.323 905.797 349.562C906.38 349.792 907.057 349.906 907.828 349.906C909.026 349.906 909.979 349.651 910.688 349.141C911.406 348.63 911.771 347.927 911.781 347.031C911.781 346.438 911.615 345.922 911.281 345.484C910.958 345.036 910.5 344.693 909.906 344.453C909.323 344.214 908.646 344.094 907.875 344.094C907.094 344.094 906.406 344.214 905.812 344.453C905.229 344.693 904.776 345.036 904.453 345.484C904.13 345.922 903.969 346.438 903.969 347.031ZM935.919 339.812C935.908 341 936.169 342.135 936.7 343.219C937.242 344.292 938.018 345.245 939.028 346.078C940.039 346.901 941.242 347.531 942.638 347.969L941.231 350.281C939.658 349.781 938.294 349.031 937.138 348.031C935.992 347.031 935.106 345.854 934.481 344.5C933.867 346.052 932.955 347.406 931.747 348.562C930.539 349.708 929.106 350.573 927.45 351.156L925.919 348.781C927.346 348.312 928.591 347.625 929.653 346.719C930.716 345.812 931.528 344.766 932.091 343.578C932.653 342.391 932.94 341.146 932.95 339.844V339.062H926.794V336.656H941.95V339.062H935.919V339.812ZM929.7 357.344C929.7 356.26 930.075 355.328 930.825 354.547C931.585 353.766 932.669 353.172 934.075 352.766C935.492 352.359 937.169 352.156 939.106 352.156C941.023 352.156 942.674 352.359 944.059 352.766C945.455 353.172 946.523 353.766 947.263 354.547C948.013 355.328 948.388 356.26 948.388 357.344C948.388 358.448 948.013 359.391 947.263 360.172C946.523 360.964 945.455 361.562 944.059 361.969C942.674 362.385 941.023 362.594 939.106 362.594C937.169 362.594 935.492 362.385 934.075 361.969C932.669 361.562 931.585 360.964 930.825 360.172C930.075 359.391 929.7 358.448 929.7 357.344ZM932.669 357.344C932.658 358.271 933.21 358.99 934.325 359.5C935.45 360 937.013 360.25 939.013 360.25C941.065 360.25 942.658 360 943.794 359.5C944.929 359 945.492 358.281 945.481 357.344C945.492 356.438 944.945 355.74 943.841 355.25C942.736 354.75 941.19 354.5 939.2 354.5C937.127 354.5 935.518 354.745 934.372 355.234C933.226 355.724 932.658 356.427 932.669 357.344ZM945.169 334.656H948.138V341.594H952.2V344.031H948.138V351.469H945.169V334.656ZM976.181 349.062H973.244V334.656H976.181V349.062ZM953.088 346.562C954.515 346.083 955.759 345.385 956.822 344.469C957.895 343.552 958.713 342.495 959.275 341.297C959.848 340.099 960.14 338.854 960.15 337.562V335.406H963.181V337.562C963.181 338.802 963.463 339.99 964.025 341.125C964.588 342.26 965.395 343.26 966.447 344.125C967.499 344.979 968.733 345.625 970.15 346.062L968.681 348.375C967.056 347.844 965.645 347.052 964.447 346C963.249 344.948 962.332 343.703 961.697 342.266C961.051 343.818 960.114 345.172 958.884 346.328C957.666 347.484 956.233 348.344 954.588 348.906L953.088 346.562ZM957.806 350.406H976.213V357.406H960.775V360H977.15V362.375H957.9V355.156H973.275V352.75H957.806V350.406ZM981.537 351.375C981.548 348.49 981.944 345.812 982.725 343.344C983.517 340.865 984.662 338.552 986.162 336.406H989.225C988.496 337.458 987.808 338.812 987.162 340.469C986.517 342.115 985.996 343.896 985.6 345.812C985.204 347.729 985.006 349.583 985.006 351.375C985.006 353.167 985.204 355.026 985.6 356.953C985.996 358.87 986.517 360.656 987.162 362.312C987.808 363.969 988.496 365.323 989.225 366.375H986.162C984.662 364.219 983.517 361.901 982.725 359.422C981.944 356.943 981.548 354.26 981.537 351.375ZM998.081 336.75C999.352 336.76 1000.49 337.115 1001.5 337.812C1002.52 338.5 1003.35 339.479 1003.97 340.75H1010.89V334.656H1013.83V362.719H1010.89V351.969H1004.18C1003.57 353.385 1002.74 354.484 1001.68 355.266C1000.62 356.036 999.425 356.417 998.081 356.406C996.696 356.406 995.461 356.005 994.378 355.203C993.305 354.401 992.467 353.255 991.863 351.766C991.269 350.276 990.977 348.542 990.988 346.562C990.977 344.604 991.269 342.885 991.863 341.406C992.467 339.917 993.305 338.771 994.378 337.969C995.461 337.156 996.696 336.75 998.081 336.75ZM993.8 346.562C993.8 348.021 993.977 349.292 994.331 350.375C994.696 351.458 995.201 352.292 995.847 352.875C996.493 353.458 997.238 353.75 998.081 353.75C998.925 353.75 999.67 353.458 1000.32 352.875C1000.96 352.292 1001.46 351.458 1001.82 350.375C1002.18 349.292 1002.36 348.021 1002.36 346.562C1002.36 345.125 1002.18 343.87 1001.82 342.797C1001.45 341.714 1000.95 340.88 1000.3 340.297C999.665 339.703 998.925 339.406 998.081 339.406C997.238 339.406 996.493 339.703 995.847 340.297C995.211 340.88 994.711 341.714 994.347 342.797C993.982 343.87 993.8 345.125 993.8 346.562ZM1004.82 343.188C1005.06 344.312 1005.18 345.438 1005.18 346.562C1005.18 347.615 1005.08 348.604 1004.89 349.531H1010.89V343.188H1004.82ZM1025.03 351.375C1025.02 354.26 1024.62 356.943 1023.83 359.422C1023.05 361.901 1021.91 364.219 1020.41 366.375H1017.34C1018.07 365.323 1018.76 363.969 1019.41 362.312C1020.05 360.656 1020.57 358.87 1020.97 356.953C1021.36 355.026 1021.56 353.167 1021.56 351.375C1021.56 349.583 1021.36 347.729 1020.97 345.812C1020.57 343.896 1020.05 342.115 1019.41 340.469C1018.76 338.812 1018.07 337.458 1017.34 336.406H1020.41C1021.91 338.552 1023.05 340.865 1023.83 343.344C1024.62 345.812 1025.02 348.49 1025.03 351.375Z" fill="#EFF1F3"/>
<path d="M1150.22 477.375H1154.44V479.875H1150.22V493.656H1147.25V465.656H1150.22V477.375ZM1127.94 486.031C1131.11 486.031 1133.59 486.005 1135.38 485.953V483.109C1134.32 482.953 1133.4 482.646 1132.61 482.188C1131.83 481.729 1131.22 481.146 1130.8 480.438C1130.38 479.719 1130.18 478.917 1130.19 478.031C1130.18 476.99 1130.45 476.073 1131 475.281C1131.56 474.49 1132.35 473.875 1133.36 473.438C1134.38 473 1135.55 472.781 1136.88 472.781C1138.19 472.781 1139.35 473 1140.38 473.438C1141.4 473.875 1142.19 474.49 1142.77 475.281C1143.34 476.073 1143.62 476.99 1143.62 478.031C1143.62 478.917 1143.41 479.719 1142.97 480.438C1142.53 481.146 1141.91 481.734 1141.11 482.203C1140.32 482.661 1139.4 482.964 1138.34 483.109V485.844C1141.09 485.708 1143.53 485.49 1145.66 485.188L1145.84 487.375C1143.31 487.823 1140.69 488.125 1137.98 488.281C1135.29 488.427 1132.44 488.5 1129.45 488.5H1128.41L1127.94 486.031ZM1128.47 468.969H1135.38V465.719H1138.34V468.969H1145.25V471.344H1128.47V468.969ZM1132.97 478.031C1132.97 478.615 1133.13 479.125 1133.45 479.562C1133.78 479.99 1134.22 480.323 1134.8 480.562C1135.38 480.792 1136.06 480.906 1136.83 480.906C1138.03 480.906 1138.98 480.651 1139.69 480.141C1140.41 479.63 1140.77 478.927 1140.78 478.031C1140.78 477.438 1140.61 476.922 1140.28 476.484C1139.96 476.036 1139.5 475.693 1138.91 475.453C1138.32 475.214 1137.65 475.094 1136.88 475.094C1136.09 475.094 1135.41 475.214 1134.81 475.453C1134.23 475.693 1133.78 476.036 1133.45 476.484C1133.13 476.922 1132.97 477.438 1132.97 478.031ZM1164.92 470.812C1164.91 472 1165.17 473.135 1165.7 474.219C1166.24 475.292 1167.02 476.245 1168.03 477.078C1169.04 477.901 1170.24 478.531 1171.64 478.969L1170.23 481.281C1168.66 480.781 1167.29 480.031 1166.14 479.031C1164.99 478.031 1164.11 476.854 1163.48 475.5C1162.87 477.052 1161.96 478.406 1160.75 479.562C1159.54 480.708 1158.11 481.573 1156.45 482.156L1154.92 479.781C1156.35 479.312 1157.59 478.625 1158.65 477.719C1159.72 476.812 1160.53 475.766 1161.09 474.578C1161.65 473.391 1161.94 472.146 1161.95 470.844V470.062H1155.79V467.656H1170.95V470.062H1164.92V470.812ZM1158.7 488.344C1158.7 487.26 1159.08 486.328 1159.83 485.547C1160.59 484.766 1161.67 484.172 1163.08 483.766C1164.49 483.359 1166.17 483.156 1168.11 483.156C1170.02 483.156 1171.67 483.359 1173.06 483.766C1174.46 484.172 1175.52 484.766 1176.26 485.547C1177.01 486.328 1177.39 487.26 1177.39 488.344C1177.39 489.448 1177.01 490.391 1176.26 491.172C1175.52 491.964 1174.46 492.562 1173.06 492.969C1171.67 493.385 1170.02 493.594 1168.11 493.594C1166.17 493.594 1164.49 493.385 1163.08 492.969C1161.67 492.562 1160.59 491.964 1159.83 491.172C1159.08 490.391 1158.7 489.448 1158.7 488.344ZM1161.67 488.344C1161.66 489.271 1162.21 489.99 1163.33 490.5C1164.45 491 1166.01 491.25 1168.01 491.25C1170.06 491.25 1171.66 491 1172.79 490.5C1173.93 490 1174.49 489.281 1174.48 488.344C1174.49 487.438 1173.94 486.74 1172.84 486.25C1171.74 485.75 1170.19 485.5 1168.2 485.5C1166.13 485.5 1164.52 485.745 1163.37 486.234C1162.23 486.724 1161.66 487.427 1161.67 488.344ZM1174.17 465.656H1177.14V472.594H1181.2V475.031H1177.14V482.469H1174.17V465.656ZM1205.18 480.062H1202.24V465.656H1205.18V480.062ZM1182.09 477.562C1183.51 477.083 1184.76 476.385 1185.82 475.469C1186.89 474.552 1187.71 473.495 1188.28 472.297C1188.85 471.099 1189.14 469.854 1189.15 468.562V466.406H1192.18V468.562C1192.18 469.802 1192.46 470.99 1193.03 472.125C1193.59 473.26 1194.39 474.26 1195.45 475.125C1196.5 475.979 1197.73 476.625 1199.15 477.062L1197.68 479.375C1196.06 478.844 1194.64 478.052 1193.45 477C1192.25 475.948 1191.33 474.703 1190.7 473.266C1190.05 474.818 1189.11 476.172 1187.88 477.328C1186.67 478.484 1185.23 479.344 1183.59 479.906L1182.09 477.562ZM1186.81 481.406H1205.21V488.406H1189.78V491H1206.15V493.375H1186.9V486.156H1202.28V483.75H1186.81V481.406ZM1210.54 482.375C1210.55 479.49 1210.94 476.812 1211.72 474.344C1212.52 471.865 1213.66 469.552 1215.16 467.406H1218.22C1217.5 468.458 1216.81 469.812 1216.16 471.469C1215.52 473.115 1215 474.896 1214.6 476.812C1214.2 478.729 1214.01 480.583 1214.01 482.375C1214.01 484.167 1214.2 486.026 1214.6 487.953C1215 489.87 1215.52 491.656 1216.16 493.312C1216.81 494.969 1217.5 496.323 1218.22 497.375H1215.16C1213.66 495.219 1212.52 492.901 1211.72 490.422C1210.94 487.943 1210.55 485.26 1210.54 482.375ZM1241.49 471.906H1245.58V474.375H1241.49V481.469H1238.52V465.688H1241.49V471.906ZM1220.77 467.062H1223.74V477.094C1227.87 477.062 1231.89 476.656 1235.8 475.875L1236.18 478.312C1233.96 478.76 1231.77 479.078 1229.63 479.266C1227.49 479.453 1225.3 479.552 1223.05 479.562H1220.77V467.062ZM1223.55 482.938H1241.49V493.281H1223.55V482.938ZM1238.61 490.906V485.25H1226.46V490.906H1238.61ZM1254.03 482.375C1254.02 485.26 1253.62 487.943 1252.83 490.422C1252.05 492.901 1250.91 495.219 1249.41 497.375H1246.34C1247.07 496.323 1247.76 494.969 1248.41 493.312C1249.05 491.656 1249.57 489.87 1249.97 487.953C1250.36 486.026 1250.56 484.167 1250.56 482.375C1250.56 480.583 1250.36 478.729 1249.97 476.812C1249.57 474.896 1249.05 473.115 1248.41 471.469C1247.76 469.812 1247.07 468.458 1246.34 467.406H1249.41C1250.91 469.552 1252.05 471.865 1252.83 474.344C1253.62 476.812 1254.02 479.49 1254.03 482.375Z" fill="#EFF1F3"/>
<path d="M1052.79 730.859V735.543H1067.96V739.969H1032.29V735.543H1047.37V730.859H1052.79ZM1033.84 728.797C1041.12 728.109 1045.12 725.531 1046.11 722.824H1035.56V718.527H1064.73V722.824H1054.1C1055.07 725.51 1059.06 728.109 1066.41 728.797L1064.48 733.094C1057.11 732.363 1052.16 729.635 1050.08 725.854C1048.02 729.613 1043.12 732.363 1035.77 733.094L1033.84 728.797ZM1036.37 749.035C1036.37 744.588 1041.51 742.117 1050.08 742.117C1058.59 742.117 1063.66 744.588 1063.7 749.035C1063.66 753.482 1058.59 755.975 1050.08 755.953C1041.51 755.975 1036.37 753.482 1036.37 749.035ZM1041.96 749.035C1041.94 750.947 1044.6 751.871 1050.08 751.871C1055.43 751.871 1058.18 750.947 1058.2 749.035C1058.18 747.166 1055.43 746.285 1050.08 746.285C1044.6 746.285 1041.94 747.166 1041.96 749.035ZM1100.24 716.852V726.262H1105.53V730.816H1100.24V739.754H1094.74V716.852H1100.24ZM1069.22 724.586V720.289H1078.11V716.594H1083.57V720.289H1092.42V724.586H1069.22ZM1071.11 732.621C1071.11 728.453 1075.06 725.703 1080.82 725.703C1086.51 725.703 1090.45 728.453 1090.45 732.621C1090.45 736.789 1086.51 739.539 1080.82 739.539C1075.06 739.539 1071.11 736.789 1071.11 732.621ZM1074.63 755.523V741.258H1080.09V744.223H1094.74V741.258H1100.24V755.523H1074.63ZM1076.48 732.621C1076.46 734.512 1078.2 735.521 1080.82 735.543C1083.46 735.521 1085.25 734.512 1085.25 732.621C1085.25 730.795 1083.46 729.699 1080.82 729.742C1078.2 729.699 1076.46 730.795 1076.48 732.621ZM1080.09 751.227H1094.74V748.434H1080.09V751.227ZM1120.58 727.508C1120.56 733.459 1123.74 740.334 1130.17 743.32L1127.12 747.617C1122.75 745.619 1119.66 741.623 1117.9 736.939C1116.16 742.096 1112.94 746.479 1108.42 748.605L1105.24 744.266C1111.75 741.236 1115.04 733.975 1115.08 727.508V725.102H1106.79V720.633H1128.45V725.102H1120.58V727.508ZM1131.5 755.953V716.852H1137V731.762H1142.76V736.359H1137V755.953H1131.5ZM1178.87 747.102V751.613H1143.07V747.102H1152.23V741.129H1147.2V727.98H1169.33V723.77H1147.16V719.387H1174.74V732.363H1152.7V736.703H1175.64V741.129H1170.1V747.102H1178.87ZM1157.55 747.102H1164.73V741.129H1157.55V747.102ZM1212.7 716.852V736.66H1207.24V716.852H1212.7ZM1179.83 732.449C1186.36 730.494 1189.28 725.574 1189.28 720.719V717.711H1195V720.719C1194.95 725.467 1197.79 730 1204.19 731.848L1201.53 736.059C1197.04 734.77 1193.94 732.041 1192.16 728.561C1190.4 732.363 1187.2 735.35 1182.54 736.746L1179.83 732.449ZM1186.49 742.59V738.336H1212.74V748.949H1191.95V751.355H1213.82V755.695H1186.58V744.867H1207.29V742.59H1186.49Z" fill="white"/>
<path d="M972.612 618.375H986.8V621.344H976.05V628.188H986.05V631.125H976.05V638.031H986.925V641H972.612V618.375ZM991.281 644.406H988.312L995.594 617.312H998.562L991.281 644.406ZM1008.89 636.781H1009.14L1015.42 618.375H1019.14L1010.98 641H1007.01L998.887 618.375H1002.61L1008.89 636.781Z" fill="#EFF1F3"/>
<defs>
<filter id="filter0_f_4107_10135" x="1085" y="914" width="80" height="30" filterUnits="userSpaceOnUse" color-interpolation-filters="sRGB">
<feFlood flood-opacity="0" result="BackgroundImageFix"/>
<feBlend mode="normal" in="SourceGraphic" in2="BackgroundImageFix" result="shape"/>
<feGaussianBlur stdDeviation="2.5" result="effect1_foregroundBlur_4107_10135"/>
</filter>
<filter id="filter1_f_4107_10135" x="469" y="333" width="80" height="30" filterUnits="userSpaceOnUse" color-interpolation-filters="sRGB">
<feFlood flood-opacity="0" result="BackgroundImageFix"/>
<feBlend mode="normal" in="SourceGraphic" in2="BackgroundImageFix" result="shape"/>
<feGaussianBlur stdDeviation="2.5" result="effect1_foregroundBlur_4107_10135"/>
</filter>
<linearGradient id="paint0_linear_4107_10135" x1="1156.7" y1="796.156" x2="1094.25" y2="903.663" gradientUnits="userSpaceOnUse">
<stop offset="0.144416" stop-color="#C41818"/>
<stop offset="1" stop-color="#072B24"/>
</linearGradient>
<linearGradient id="paint1_linear_4107_10135" x1="540.703" y1="215.156" x2="478.25" y2="322.663" gradientUnits="userSpaceOnUse">
<stop offset="0.144416" stop-color="#C41818"/>
<stop offset="1" stop-color="#072B24"/>
</linearGradient>
</defs>
</svg>
