<svg width="1860" height="1310" viewBox="0 0 1860 1310" fill="none" xmlns="http://www.w3.org/2000/svg">
<path d="M1725.2 902.257L1625.8 958.957M1658.54 884.137L1756.77 940.252M1642.17 893.489L1740.4 949.604M1625.8 902.842L1724.03 958.957M1609.42 912.194L1707.65 968.309M1593.05 921.547L1691.28 977.662M1625.8 958.957L1674.91 987.014M1625.8 958.957L1593.05 977.842" stroke="white" stroke-width="3" stroke-linecap="round" stroke-linejoin="round"/>
<path d="M512.522 5L5 294.928L758.097 725.144L332.434 968.309L921.814 1305L1855 771.906L512.522 5Z" stroke="white" stroke-width="10" stroke-linejoin="round"/>
<path d="M1805.89 912.194L1707.66 856.079L1511.2 968.309L1609.43 1024.42L1805.89 912.194Z" stroke="white" stroke-width="4" stroke-linejoin="round"/>
<path d="M1134.65 322.985L954.557 425.863M1232.88 379.1L1052.79 481.978" stroke="white" stroke-width="4" stroke-linecap="round" stroke-linejoin="round"/>
<path d="M1152.19 369.163L1052.79 425.863M1085.53 351.043L1183.76 407.158M1069.16 360.395L1167.39 416.511M1052.79 369.748L1151.02 425.863M1036.42 379.101L1134.65 435.216M1020.04 388.453L1118.28 444.568M1052.79 425.863L1101.9 453.921M1052.79 425.863L1020.36 444.568" stroke="white" stroke-width="3" stroke-linecap="round" stroke-linejoin="round"/>
<path d="M1069.16 472.626L970.928 416.511L954.557 425.863L1052.79 481.978L1069.16 472.626Z" fill="white" fill-opacity="0.5"/>
<path d="M889.071 650.324L643.496 510.036L627.124 519.389L872.699 659.676L889.071 650.324Z" fill="white" fill-opacity="0.5"/>
<path d="M921.814 631.619L758.097 725.144L659.867 781.259L790.841 856.08L1052.79 706.439L921.814 631.619Z" stroke="white" stroke-width="4" stroke-linejoin="round"/>
<path d="M1151.02 949.604L1347.48 1061.83L1642.17 893.489L1445.71 781.259L1151.02 949.604Z" stroke="white" stroke-width="4" stroke-linejoin="round"/>
<path d="M1511.2 743.848L1707.66 856.079L1855 771.906L1658.54 659.676L1511.2 743.848Z" stroke="white" stroke-width="4" stroke-linejoin="round"/>
<path d="M1052.79 481.978L1183.76 556.798L1331.11 472.626L1200.13 397.806L1052.79 481.978Z" stroke="white" stroke-width="4" stroke-linejoin="round"/>
<path d="M823.584 351.043L954.557 425.863L1101.9 341.69L970.929 266.87L823.584 351.043Z" stroke="white" stroke-width="4" stroke-linejoin="round"/>
<path d="M1183.76 556.799L1511.2 743.849L1658.54 659.676L1331.11 472.626L1183.76 556.799Z" stroke="white" stroke-width="4" stroke-linejoin="round"/>
<path d="M365.177 89.1727L823.584 351.043L970.929 266.871L512.522 5L365.177 89.1727Z" stroke="white" stroke-width="4" stroke-linejoin="round"/>
<path d="M365.177 89.1729L5 294.928L512.522 584.856L790.841 425.863L594.381 313.633L676.239 266.871L365.177 89.1729Z" stroke="white" stroke-width="4" stroke-linejoin="round"/>
<mask id="mask0_2710_3987" style="mask-type:alpha" maskUnits="userSpaceOnUse" x="952" y="667" width="496" height="285">
<path d="M954.559 837.375L1151.02 949.605L1445.71 781.26L1249.25 669.029L954.559 837.375Z" stroke="white" stroke-width="4" stroke-linejoin="round"/>
</mask>
<g mask="url(#mask0_2710_3987)">
<path d="M1290.5 706.5L1314 689L1327 696.5L1299.5 652L1235.5 660.5L914.5 835.5L1142.5 998L1472 799L1453.5 761.5L1439 766.5L1423.5 776.5L1419 786.5L1390.5 799L1148.5 925.5L1039 835.5L1254.5 708.5L1290.5 706.5Z" fill="white"/>
</g>
<path d="M921.814 631.618L987.301 669.028L1069.16 622.266L1003.67 584.855L921.814 631.618Z" stroke="white" stroke-width="4" stroke-linejoin="round"/>
<path d="M332.434 968.309L659.867 781.259L1052.79 1005.72L725.354 1192.77L332.434 968.309Z" stroke="white" stroke-width="4" stroke-linejoin="round"/>
<path d="M921.815 1305L725.354 1192.77L1052.79 1005.72L1249.25 1117.95L921.815 1305Z" stroke="white" stroke-width="4" stroke-linejoin="round"/>
<g filter="url(#filter0_f_2710_3987)">
<ellipse cx="404" cy="407" rx="35" ry="10" fill="black" fill-opacity="0.25"/>
</g>
<path d="M459 314.28C459 344.81 448.878 351.526 404 407C359.338 351.998 349 344.81 349 314.28C349 283.75 373.624 259 404 259C434.376 259 459 283.75 459 314.28Z" fill="url(#paint0_linear_2710_3987)"/>
<rect x="366.068" y="276.465" width="75.8621" height="75.8974" rx="37.931" fill="white"/>
<path d="M392.978 325.229L404.149 314.96C405.252 313.9 406.104 313.026 406.706 312.339C407.322 311.637 407.795 310.942 408.124 310.255C408.453 309.553 408.618 308.801 408.618 307.999C408.618 307.097 408.403 306.309 407.974 305.636C407.558 304.948 406.971 304.425 406.212 304.067C405.467 303.709 404.622 303.53 403.677 303.53C402.201 303.516 401.027 303.946 400.153 304.819C399.28 305.679 398.85 306.853 398.864 308.343H392.72C392.72 306.352 393.178 304.604 394.095 303.101C395.026 301.582 396.322 300.415 397.983 299.599C399.659 298.782 401.586 298.374 403.763 298.374C405.954 298.374 407.888 298.768 409.563 299.556C411.239 300.329 412.535 301.41 413.452 302.8C414.383 304.189 414.849 305.779 414.849 307.569C414.849 308.801 414.612 309.983 414.14 311.114C413.667 312.231 412.843 313.478 411.669 314.853C410.509 316.228 408.862 317.882 406.728 319.815L402.001 324.413V324.585H415.278V329.913H393.021L392.978 325.229Z" fill="#191F28"/>
<g filter="url(#filter1_f_2710_3987)">
<ellipse cx="863" cy="746" rx="35" ry="10" fill="black" fill-opacity="0.25"/>
</g>
<path d="M918 653.28C918 683.81 907.878 690.526 863 746C818.338 690.998 808 683.81 808 653.28C808 622.75 832.624 598 863 598C893.376 598 918 622.75 918 653.28Z" fill="url(#paint1_linear_2710_3987)"/>
<rect x="825.068" y="615.465" width="75.8621" height="75.8974" rx="37.931" fill="white"/>
<path d="M863.086 669.343C860.952 669.343 859.025 668.949 857.307 668.161C855.602 667.373 854.256 666.285 853.268 664.896C852.279 663.492 851.771 661.909 851.742 660.147H858.016C858.059 660.935 858.309 661.644 858.768 662.274C859.24 662.89 859.849 663.37 860.594 663.714C861.353 664.058 862.184 664.229 863.086 664.229C864.146 664.229 865.091 664 865.922 663.542C866.767 663.069 867.419 662.418 867.877 661.587C868.35 660.756 868.586 659.804 868.586 658.729C868.586 657.641 868.35 656.674 867.877 655.829C867.404 654.97 866.738 654.304 865.879 653.831C865.034 653.344 864.074 653.101 863 653.101C860.665 653.101 859.033 653.974 858.102 655.722H852.258L853.934 637.804H873.098V643.089H859.262L858.402 650.952H858.66C859.233 650.164 860.085 649.534 861.217 649.062C862.348 648.575 863.587 648.331 864.934 648.331C866.81 648.331 868.5 648.768 870.004 649.642C871.522 650.515 872.711 651.733 873.57 653.294C874.43 654.855 874.859 656.61 874.859 658.558C874.859 660.634 874.365 662.496 873.377 664.144C872.389 665.776 870.999 667.051 869.209 667.968C867.433 668.884 865.392 669.343 863.086 669.343Z" fill="#191F28"/>
<g filter="url(#filter2_f_2710_3987)">
<ellipse cx="1163" cy="845" rx="35" ry="10" fill="black" fill-opacity="0.25"/>
</g>
<path d="M1218 752.28C1218 782.81 1207.88 789.526 1163 845C1118.34 789.998 1108 782.81 1108 752.28C1108 721.75 1132.62 697 1163 697C1193.38 697 1218 721.75 1218 752.28Z" fill="url(#paint2_linear_2710_3987)"/>
<rect x="1125.07" y="714.465" width="75.8621" height="75.8974" rx="37.931" fill="white"/>
<path d="M1163.39 768.343C1161.1 768.343 1159 767.849 1157.11 766.86C1155.24 765.858 1153.71 764.225 1152.54 761.962C1151.38 759.699 1150.8 756.763 1150.8 753.153C1150.8 749.701 1151.31 746.715 1152.34 744.194C1153.39 741.659 1154.87 739.726 1156.79 738.394C1158.72 737.047 1160.99 736.374 1163.6 736.374C1165.64 736.374 1167.46 736.768 1169.08 737.556C1170.7 738.343 1171.99 739.432 1172.97 740.821C1173.96 742.196 1174.56 743.736 1174.77 745.44H1168.41C1168.16 744.352 1167.6 743.493 1166.74 742.862C1165.89 742.232 1164.85 741.917 1163.6 741.917C1161.52 741.917 1159.93 742.798 1158.81 744.56C1157.71 746.307 1157.14 748.735 1157.11 751.843H1157.41C1158.13 750.468 1159.2 749.394 1160.62 748.62C1162.05 747.847 1163.63 747.46 1165.36 747.46C1167.21 747.46 1168.88 747.89 1170.37 748.749C1171.86 749.608 1173.02 750.804 1173.85 752.337C1174.69 753.869 1175.12 755.595 1175.12 757.515C1175.12 759.591 1174.62 761.453 1173.63 763.101C1172.66 764.748 1171.29 766.037 1169.51 766.968C1167.73 767.884 1165.69 768.343 1163.39 768.343ZM1157.76 757.687C1157.77 758.703 1158.02 759.634 1158.49 760.479C1158.98 761.325 1159.64 761.998 1160.49 762.499C1161.33 762.986 1162.27 763.229 1163.3 763.229C1164.35 763.229 1165.29 762.993 1166.14 762.521C1166.98 762.034 1167.64 761.368 1168.11 760.522C1168.6 759.663 1168.84 758.718 1168.84 757.687C1168.84 756.655 1168.61 755.724 1168.13 754.894C1167.66 754.049 1167.01 753.382 1166.18 752.896C1165.35 752.394 1164.42 752.144 1163.39 752.144C1162.34 752.144 1161.39 752.394 1160.53 752.896C1159.68 753.397 1159.01 754.07 1158.51 754.915C1158.02 755.76 1157.77 756.684 1157.76 757.687Z" fill="#191F28"/>
<g filter="url(#filter3_f_2710_3987)">
<ellipse cx="1347" cy="955" rx="35" ry="10" fill="black" fill-opacity="0.25"/>
</g>
<path d="M1402 862.28C1402 892.81 1391.88 899.526 1347 955C1302.34 899.998 1292 892.81 1292 862.28C1292 831.75 1316.62 807 1347 807C1377.38 807 1402 831.75 1402 862.28Z" fill="url(#paint3_linear_2710_3987)"/>
<rect x="1309.07" y="824.465" width="75.8621" height="75.8974" rx="37.931" fill="white"/>
<path d="M1338 877.913L1351.1 852.304V852.089H1335.85V846.804H1357.81V852.175L1344.7 877.913H1338Z" fill="#191F28"/>
<g filter="url(#filter4_f_2710_3987)">
<ellipse cx="665" cy="1089" rx="35" ry="10" fill="black" fill-opacity="0.25"/>
</g>
<path d="M720 996.28C720 1026.81 709.878 1033.53 665 1089C620.338 1034 610 1026.81 610 996.28C610 965.75 634.624 941 665 941C695.376 941 720 965.75 720 996.28Z" fill="url(#paint4_linear_2710_3987)"/>
<rect x="627.068" y="958.465" width="75.8621" height="75.8974" rx="37.931" fill="white"/>
<path d="M664.978 1012.34C657.866 1012.34 652.774 1008.6 652.774 1003.53C652.774 999.624 655.782 996.444 659.649 995.843V995.628C656.276 994.983 653.956 992.169 653.978 988.753C653.956 983.919 658.618 980.374 664.978 980.374C671.337 980.374 675.999 983.919 676.021 988.753C675.999 992.169 673.614 994.983 670.349 995.628V995.843C674.13 996.444 677.181 999.624 677.181 1003.53C677.181 1008.6 672.067 1012.34 664.978 1012.34ZM659.521 1002.89C659.499 1005.55 661.69 1007.42 664.978 1007.4C668.265 1007.42 670.456 1005.55 670.435 1002.89C670.456 1000.2 668.136 998.228 664.978 998.206C661.819 998.228 659.499 1000.18 659.521 1002.89ZM660.294 989.397C660.272 991.89 662.228 993.63 664.978 993.651C667.706 993.63 669.683 991.89 669.704 989.397C669.683 986.97 667.749 985.272 664.978 985.272C662.185 985.272 660.272 986.97 660.294 989.397Z" fill="#191F28"/>
<g filter="url(#filter5_f_2710_3987)">
<ellipse cx="884" cy="1222" rx="35" ry="10" fill="black" fill-opacity="0.25"/>
</g>
<path d="M939 1129.28C939 1159.81 928.878 1166.53 884 1222C839.338 1167 829 1159.81 829 1129.28C829 1098.75 853.624 1074 884 1074C914.376 1074 939 1098.75 939 1129.28Z" fill="url(#paint5_linear_2710_3987)"/>
<rect x="846.068" y="1091.46" width="75.8621" height="75.8974" rx="37.931" fill="white"/>
<path d="M883.656 1113.37C890.102 1113.4 896.203 1117.24 896.203 1128.54C896.225 1139.11 891.219 1145.34 883.398 1145.34C877.146 1145.34 872.85 1141.41 872.227 1136.15H878.586C879.123 1138.45 880.906 1139.8 883.398 1139.8C887.631 1139.8 889.865 1136 889.887 1129.79H889.629C888.168 1132.54 885.096 1134.17 881.637 1134.17C876.051 1134.17 871.926 1129.96 871.883 1124.16C871.883 1117.91 876.631 1113.35 883.656 1113.37ZM878.199 1123.99C878.199 1127.06 880.455 1129.44 883.656 1129.44C886.814 1129.44 889.242 1126.93 889.242 1123.94C889.199 1120.98 886.879 1118.47 883.699 1118.44C880.52 1118.47 878.156 1120.89 878.199 1123.99Z" fill="#191F28"/>
<g filter="url(#filter6_f_2710_3987)">
<ellipse cx="745" cy="219" rx="35" ry="10" fill="black" fill-opacity="0.25"/>
</g>
<path d="M800 126.28C800 156.81 789.878 163.526 745 219C700.338 163.998 690 156.81 690 126.28C690 95.7495 714.624 71 745 71C775.376 71 800 95.7495 800 126.28Z" fill="url(#paint6_linear_2710_3987)"/>
<rect x="707.068" y="88.4648" width="75.8621" height="75.8974" rx="37.931" fill="white"/>
<path d="M750.542 141.913H744.054V116.948H743.882L736.749 121.417V115.702L744.44 110.804H750.542V141.913Z" fill="#191F28"/>
<g filter="url(#filter7_f_2710_3987)">
<ellipse cx="1428" cy="608" rx="35" ry="10" fill="black" fill-opacity="0.25"/>
</g>
<path d="M1483 515.28C1483 545.81 1472.88 552.526 1428 608C1383.34 552.998 1373 545.81 1373 515.28C1373 484.75 1397.62 460 1428 460C1458.38 460 1483 484.75 1483 515.28Z" fill="url(#paint7_linear_2710_3987)"/>
<rect x="1390.07" y="477.465" width="75.8621" height="75.8974" rx="37.931" fill="white"/>
<path d="M1427.91 531.343C1425.67 531.343 1423.65 530.956 1421.86 530.183C1420.08 529.409 1418.68 528.328 1417.64 526.938C1416.63 525.535 1416.1 523.938 1416.05 522.147H1422.59C1422.61 522.907 1422.87 523.58 1423.34 524.167C1423.81 524.74 1424.45 525.191 1425.25 525.521C1426.05 525.85 1426.95 526.015 1427.96 526.015C1428.97 526.015 1429.88 525.836 1430.69 525.478C1431.5 525.105 1432.13 524.604 1432.58 523.974C1433.02 523.329 1433.24 522.591 1433.24 521.761C1433.24 520.916 1433.01 520.171 1432.53 519.526C1432.06 518.868 1431.38 518.352 1430.49 517.979C1429.6 517.607 1428.56 517.421 1427.36 517.421H1424.48V512.651H1427.36C1428.37 512.651 1429.27 512.479 1430.06 512.136C1430.85 511.792 1431.46 511.305 1431.89 510.675C1432.33 510.045 1432.55 509.328 1432.55 508.526C1432.55 507.739 1432.37 507.044 1432 506.442C1431.62 505.841 1431.09 505.375 1430.41 505.046C1429.73 504.702 1428.95 504.53 1428.04 504.53C1427.13 504.53 1426.28 504.695 1425.51 505.024C1424.73 505.34 1424.11 505.791 1423.64 506.378C1423.17 506.965 1422.92 507.653 1422.89 508.44H1416.7C1416.73 506.693 1417.24 505.132 1418.22 503.757C1419.23 502.368 1420.58 501.293 1422.29 500.534C1423.99 499.761 1425.89 499.374 1428 499.374C1430.12 499.374 1432 499.761 1433.63 500.534C1435.28 501.308 1436.54 502.36 1437.43 503.692C1438.33 505.024 1438.79 506.507 1438.79 508.14C1438.79 509.271 1438.54 510.302 1438.05 511.233C1437.57 512.15 1436.87 512.909 1435.97 513.511C1435.08 514.098 1434.06 514.499 1432.9 514.714V514.972C1435.16 515.244 1436.91 516.024 1438.14 517.313C1439.37 518.603 1439.97 520.228 1439.95 522.19C1439.96 523.938 1439.45 525.513 1438.42 526.917C1437.4 528.306 1435.98 529.395 1434.14 530.183C1432.31 530.956 1430.23 531.343 1427.91 531.343Z" fill="#191F28"/>
<g filter="url(#filter8_f_2710_3987)">
<ellipse cx="1693" cy="762" rx="35" ry="10" fill="black" fill-opacity="0.25"/>
</g>
<path d="M1748 669.28C1748 699.81 1737.88 706.526 1693 762C1648.34 706.998 1638 699.81 1638 669.28C1638 638.75 1662.62 614 1693 614C1723.38 614 1748 638.75 1748 669.28Z" fill="url(#paint8_linear_2710_3987)"/>
<rect x="1655.07" y="631.465" width="75.8621" height="75.8974" rx="37.931" fill="white"/>
<path d="M1680.47 674.3L1693.62 653.804H1701.74V674.214H1705.7V679.413H1701.74V684.913H1695.6V679.413H1680.47V674.3ZM1695.69 674.214V660.894H1695.38L1687.01 673.956V674.214H1695.69Z" fill="#191F28"/>
<path d="M652.029 25.8008V30.1406H616.364V25.8008H631.446V22.3203H620.704V8.39844H647.818V12.7383H626.161V17.8945H648.204V22.3203H636.946V25.8008H652.029ZM620.318 37.1875V32.8477H647.775V46.082H642.404V37.1875H620.318ZM685.175 24.3398V28.6797H673.831V37.0156H689.085V41.4844H653.292V37.0156H668.374V28.6797H657.503V9.60156H684.874V13.9844H663.003V24.3398H685.175ZM722.661 10.2461V14.0703C722.639 18.8398 722.639 24.1895 721.2 32.0742L715.829 31.6016C717.096 24.4258 717.139 19.1191 717.161 14.5859H693.743V10.2461H722.661ZM690.219 41.1836V36.7148H697.825V24.4258H703.282V36.7148H707.579V24.4258H712.993V36.7148H725.883V41.1836H690.219ZM762.811 25.1133V29.4531H754.217V33.1055H758.471V45.9531H753.014V37.4023H731.1V33.1055H735.568V29.4531H727.146V25.1133H762.811ZM730.713 15.3164C730.713 10.5469 736.32 7.60352 744.979 7.625C753.572 7.60352 759.18 10.5469 759.201 15.3164C759.18 20.1074 753.572 23.0508 744.979 23.0508C736.32 23.0508 730.713 20.1074 730.713 15.3164ZM736.428 15.3164C736.385 17.6367 739.5 18.7969 744.979 18.7969C750.371 18.7969 753.529 17.6367 753.529 15.3164C753.529 13.0605 750.371 11.8574 744.979 11.8789C739.5 11.8574 736.385 13.0605 736.428 15.3164ZM741.111 33.1055H748.803V29.4531H741.111V33.1055ZM776.277 18.7539C776.277 24.6836 778.404 30.6348 783.968 33.6211L780.961 37.6172C777.437 35.8125 775.095 32.6543 773.72 28.8516C772.367 32.998 770.025 36.5 766.48 38.5625L763.343 34.4375C768.994 31.1719 771.078 24.791 771.121 18.7539V17.8516H764.804V13.4688H771.121V8.18359H776.234V13.4688H782.421V17.8516H776.277V18.7539ZM780.144 26.1445V21.6758H784.742V7.49609H789.898V44.1484H784.742V26.1445H780.144ZM792.691 45.9531V6.85156H797.89V45.9531H792.691ZM833.958 6.85156V30.4844H828.501V22.793H823.431V18.3242H828.501V6.85156H833.958ZM801.087 14.6289V10.2461H809.939V6.50781H815.353V10.2461H824.118V14.6289H801.087ZM803.236 22.9219C803.236 18.8398 807.167 15.918 812.646 15.918C818.146 15.918 822.013 18.8398 822.013 22.9219C822.013 27.1973 818.124 29.9902 812.646 30.0117C807.167 29.9902 803.236 27.1973 803.236 22.9219ZM807.661 45.5234V32.1602H833.958V45.5234H807.661ZM808.521 22.9219C808.478 24.8984 810.089 25.9512 812.646 25.9727C815.138 25.9512 816.771 24.8984 816.771 22.9219C816.771 21.0742 815.138 20.0215 812.646 20.043C810.089 20.0215 808.478 21.0742 808.521 22.9219ZM813.161 41.1406H828.587V36.457H813.161V41.1406ZM859.843 9.6875V12.1367C859.843 14.8438 859.843 18.7539 858.94 23.6094L853.569 23.0938C854.278 19.3555 854.45 16.498 854.493 14.1562H839.733V9.6875H859.843ZM837.413 26.4453C839.604 26.4453 842.075 26.4453 844.675 26.3809V18.7109H850.132V26.209C854.042 26.0371 858.016 25.7363 861.69 25.1992L861.991 29.1523C853.848 30.6562 844.696 30.8066 837.886 30.8281L837.413 26.4453ZM843.171 45.2656V33.4922H848.671V40.8828H870.628V45.2656H843.171ZM863.796 36.1133V6.85156H869.425V18.7539H874.151V23.3516H869.425V36.1133H863.796Z" fill="white"/>
<path d="M360.133 195.969C363.291 195.947 366.041 197.021 367.911 198.848H376.719V194.852H382.176V214.445H376.719V211.051H367.954C366.084 212.898 363.313 213.994 360.133 214.016C354.161 213.994 349.692 210.299 349.735 204.949C349.692 199.643 354.161 195.947 360.133 195.969ZM354.934 204.949C354.912 207.871 357.082 209.59 360.133 209.59C363.077 209.59 365.225 207.871 365.246 204.949C365.225 202.092 363.077 200.373 360.133 200.395C357.082 200.373 354.912 202.092 354.934 204.949ZM356.137 220.332V216.121H382.176V226.691H361.68V229.227H383.336V233.523H356.18V222.652H376.719V220.332H356.137ZM370.252 203.102C370.381 203.682 370.446 204.305 370.446 204.949C370.446 205.594 370.381 206.217 370.252 206.797H376.719V203.102H370.252ZM417.17 194.895V204.133H422.455V208.688H417.17V218.098H411.67V194.895H417.17ZM387.521 201.168V196.785H405.482V208.688H393.021V212.211C399.467 212.168 403.85 211.975 408.834 211.094L409.436 215.391C403.828 216.486 398.801 216.68 390.873 216.68H387.564V204.562H400.154V201.168H387.521ZM391.561 233.523V219.73H417.17V233.523H391.561ZM396.932 229.141H411.799V224.027H396.932V229.141ZM455.773 194.852V214.66H450.316V194.852H455.773ZM422.902 210.449C429.433 208.494 432.355 203.574 432.355 198.719V195.711H438.07V198.719C438.027 203.467 440.863 208 447.265 209.848L444.601 214.059C440.111 212.77 437.017 210.041 435.234 206.561C433.472 210.363 430.271 213.35 425.609 214.746L422.902 210.449ZM429.562 220.59V216.336H455.816V226.949H435.019V229.355H456.89V233.695H429.648V222.867H450.359V220.59H429.562Z" fill="white"/>
<path d="M1358.12 362.43V366.812H1354.9V377.232C1356.21 377.146 1357.5 377.018 1358.72 376.867L1358.94 380.906C1351.59 382.131 1343.06 382.281 1336.85 382.281L1336.29 377.855C1337.58 377.855 1339 377.834 1340.46 377.812V366.812H1337.28V362.43H1358.12ZM1342.44 391.691C1342.44 387.008 1347.51 384.365 1355.89 384.344C1364.29 384.365 1369.36 387.008 1369.38 391.691C1369.36 396.246 1364.29 398.975 1355.89 398.953C1347.51 398.975 1342.44 396.246 1342.44 391.691ZM1345.74 377.705C1347.03 377.684 1348.34 377.619 1349.66 377.576V366.812H1345.74V377.705ZM1347.89 391.691C1347.89 393.754 1350.66 394.785 1355.89 394.785C1361.11 394.785 1363.9 393.754 1363.92 391.691C1363.9 389.564 1361.11 388.533 1355.89 388.555C1350.66 388.533 1347.89 389.564 1347.89 391.691ZM1358.98 377.898V373.516H1363.79V370.508H1358.98V366.211H1363.79V359.852H1369.25V383.742H1363.79V377.898H1358.98ZM1385.72 366.812C1385.72 371.045 1387.91 375.213 1393.11 377.211L1390.19 381.379C1386.84 380.111 1384.54 377.791 1383.14 374.912C1381.73 378.285 1379.28 381.1 1375.63 382.625L1372.66 378.414C1378.18 375.986 1380.39 371.174 1380.39 366.812V362.215H1385.72V366.812ZM1379.92 391.648C1379.9 387.072 1385.16 384.322 1393.46 384.344C1401.71 384.322 1406.99 387.072 1407.04 391.648C1406.99 396.182 1401.71 398.975 1393.46 398.953C1385.16 398.975 1379.9 396.182 1379.92 391.648ZM1385.42 391.648C1385.38 393.754 1388.32 394.828 1393.46 394.828C1398.55 394.828 1401.49 393.754 1401.49 391.648C1401.49 389.521 1398.55 388.426 1393.46 388.426C1388.32 388.426 1385.38 389.521 1385.42 391.648ZM1393.24 382.582V360.582H1398.36V369.434H1401.62V359.895H1406.82V383.785H1401.62V373.859H1398.36V382.582H1393.24ZM1433.35 363.332V367.672H1410.15V363.332H1419.04V359.637H1424.5V363.332H1433.35ZM1412.04 376.137C1412.04 371.84 1416.08 368.939 1421.75 368.918C1427.44 368.939 1431.37 371.84 1431.37 376.137C1431.37 380.434 1427.44 383.334 1421.75 383.355C1416.08 383.334 1412.04 380.434 1412.04 376.137ZM1414.83 390.402V386.02H1441.17V398.953H1435.67V390.402H1414.83ZM1417.41 376.137C1417.39 378.135 1419.13 379.166 1421.75 379.145C1424.39 379.166 1426.17 378.135 1426.17 376.137C1426.17 374.117 1424.39 373.043 1421.75 373.043C1419.13 373.043 1417.39 374.117 1417.41 376.137ZM1435.67 384.387V359.852H1441.17V369.992H1446.46V374.461H1441.17V384.387H1435.67ZM1456.66 383.312V386.621H1472.77V383.312H1478.23V398.523H1451.24V383.312H1456.66ZM1447.07 381.336V376.91H1482.74V381.336H1447.07ZM1448.84 370.895C1457.56 369.842 1462.07 365.588 1462.11 361.57V360.238H1467.74V361.57C1467.74 365.48 1472.23 369.906 1480.98 370.895L1479.04 375.191C1472.32 374.332 1467.42 371.539 1464.91 367.758C1462.37 371.539 1457.47 374.332 1450.81 375.191L1448.84 370.895ZM1456.66 394.227H1472.77V390.789H1456.66V394.227ZM1516.7 359.852V379.66H1511.24V359.852H1516.7ZM1483.83 375.449C1490.36 373.494 1493.28 368.574 1493.28 363.719V360.711H1499V363.719C1498.95 368.467 1501.79 373 1508.19 374.848L1505.53 379.059C1501.04 377.77 1497.94 375.041 1496.16 371.561C1494.4 375.363 1491.2 378.35 1486.54 379.746L1483.83 375.449ZM1490.49 385.59V381.336H1516.74V391.949H1495.95V394.355H1517.82V398.695H1490.58V387.867H1511.29V385.59H1490.49ZM1363.93 428.297C1363.95 421.688 1365.98 416.186 1369.34 411.457H1374.3C1371.87 414.955 1369.34 422.004 1369.34 428.297C1369.34 434.607 1371.87 441.639 1374.3 445.172H1369.34C1365.98 440.426 1363.95 434.924 1363.93 428.297ZM1380.32 412.09V419.297H1384.68V412.09H1388.83V433.641H1376.11V412.09H1380.32ZM1380.32 430.055H1384.68V422.812H1380.32V430.055ZM1391.5 439.758V409.699H1395.76V421.441H1398.64V409.242H1402.93V441.234H1398.64V425.098H1395.76V439.758H1391.5ZM1419.99 409.664C1427.11 409.682 1431.61 412.002 1431.63 415.887C1431.61 419.701 1427.11 421.986 1419.99 421.969C1412.91 421.986 1408.32 419.701 1408.32 415.887C1408.32 412.002 1412.91 409.682 1419.99 409.664ZM1405.41 427.207V423.621H1434.58V427.207H1422.21V429.984H1431.1V440.883H1408.78V429.984H1417.74V427.207H1405.41ZM1413 415.887C1412.96 417.645 1415.51 418.559 1419.99 418.559C1424.41 418.559 1426.99 417.645 1426.99 415.887C1426.99 414.041 1424.41 413.092 1419.99 413.109C1415.51 413.092 1412.96 414.041 1413 415.887ZM1413.21 437.297H1426.71V433.535H1413.21V437.297ZM1447.64 412.547V438H1442.33V417.574H1442.19L1436.36 421.23V416.555L1442.65 412.547H1447.64ZM1478.35 409.242V425.449H1473.88V409.242H1478.35ZM1451.45 422.004C1456.8 420.404 1459.19 416.379 1459.19 412.406V409.945H1463.86V412.406C1463.83 416.291 1466.15 420 1471.39 421.512L1469.21 424.957C1465.53 423.902 1463 421.67 1461.54 418.822C1460.1 421.934 1457.48 424.377 1453.67 425.52L1451.45 422.004ZM1456.9 430.301V426.82H1478.38V435.504H1461.37V437.473H1479.26V441.023H1456.97V432.164H1473.92V430.301H1456.9ZM1492.07 428.297C1492.05 434.924 1490.02 440.426 1486.66 445.172H1481.7C1484.13 441.639 1486.66 434.607 1486.66 428.297C1486.66 422.004 1484.13 414.955 1481.7 411.457H1486.66C1490.02 416.186 1492.05 421.688 1492.07 428.297Z" fill="white"/>
<path d="M921.219 343.375H925.438V345.875H921.219V359.656H918.25V331.656H921.219V343.375ZM898.938 352.031C902.115 352.031 904.594 352.005 906.375 351.953V349.109C905.323 348.953 904.401 348.646 903.609 348.188C902.828 347.729 902.224 347.146 901.797 346.438C901.38 345.719 901.177 344.917 901.188 344.031C901.177 342.99 901.448 342.073 902 341.281C902.562 340.49 903.349 339.875 904.359 339.438C905.38 339 906.552 338.781 907.875 338.781C909.188 338.781 910.354 339 911.375 339.438C912.396 339.875 913.193 340.49 913.766 341.281C914.339 342.073 914.625 342.99 914.625 344.031C914.625 344.917 914.406 345.719 913.969 346.438C913.531 347.146 912.911 347.734 912.109 348.203C911.318 348.661 910.396 348.964 909.344 349.109V351.844C912.094 351.708 914.531 351.49 916.656 351.188L916.844 353.375C914.312 353.823 911.693 354.125 908.984 354.281C906.286 354.427 903.443 354.5 900.453 354.5H899.406L898.938 352.031ZM899.469 334.969H906.375V331.719H909.344V334.969H916.25V337.344H899.469V334.969ZM903.969 344.031C903.969 344.615 904.13 345.125 904.453 345.562C904.776 345.99 905.224 346.323 905.797 346.562C906.38 346.792 907.057 346.906 907.828 346.906C909.026 346.906 909.979 346.651 910.688 346.141C911.406 345.63 911.771 344.927 911.781 344.031C911.781 343.438 911.615 342.922 911.281 342.484C910.958 342.036 910.5 341.693 909.906 341.453C909.323 341.214 908.646 341.094 907.875 341.094C907.094 341.094 906.406 341.214 905.812 341.453C905.229 341.693 904.776 342.036 904.453 342.484C904.13 342.922 903.969 343.438 903.969 344.031ZM935.919 336.812C935.908 338 936.169 339.135 936.7 340.219C937.242 341.292 938.018 342.245 939.028 343.078C940.039 343.901 941.242 344.531 942.638 344.969L941.231 347.281C939.658 346.781 938.294 346.031 937.138 345.031C935.992 344.031 935.106 342.854 934.481 341.5C933.867 343.052 932.955 344.406 931.747 345.562C930.539 346.708 929.106 347.573 927.45 348.156L925.919 345.781C927.346 345.312 928.591 344.625 929.653 343.719C930.716 342.812 931.528 341.766 932.091 340.578C932.653 339.391 932.94 338.146 932.95 336.844V336.062H926.794V333.656H941.95V336.062H935.919V336.812ZM929.7 354.344C929.7 353.26 930.075 352.328 930.825 351.547C931.585 350.766 932.669 350.172 934.075 349.766C935.492 349.359 937.169 349.156 939.106 349.156C941.023 349.156 942.674 349.359 944.059 349.766C945.455 350.172 946.523 350.766 947.263 351.547C948.013 352.328 948.388 353.26 948.388 354.344C948.388 355.448 948.013 356.391 947.263 357.172C946.523 357.964 945.455 358.562 944.059 358.969C942.674 359.385 941.023 359.594 939.106 359.594C937.169 359.594 935.492 359.385 934.075 358.969C932.669 358.562 931.585 357.964 930.825 357.172C930.075 356.391 929.7 355.448 929.7 354.344ZM932.669 354.344C932.658 355.271 933.21 355.99 934.325 356.5C935.45 357 937.013 357.25 939.013 357.25C941.065 357.25 942.658 357 943.794 356.5C944.929 356 945.492 355.281 945.481 354.344C945.492 353.438 944.945 352.74 943.841 352.25C942.736 351.75 941.19 351.5 939.2 351.5C937.127 351.5 935.518 351.745 934.372 352.234C933.226 352.724 932.658 353.427 932.669 354.344ZM945.169 331.656H948.138V338.594H952.2V341.031H948.138V348.469H945.169V331.656ZM976.181 346.062H973.244V331.656H976.181V346.062ZM953.088 343.562C954.515 343.083 955.759 342.385 956.822 341.469C957.895 340.552 958.713 339.495 959.275 338.297C959.848 337.099 960.14 335.854 960.15 334.562V332.406H963.181V334.562C963.181 335.802 963.463 336.99 964.025 338.125C964.588 339.26 965.395 340.26 966.447 341.125C967.499 341.979 968.733 342.625 970.15 343.062L968.681 345.375C967.056 344.844 965.645 344.052 964.447 343C963.249 341.948 962.332 340.703 961.697 339.266C961.051 340.818 960.114 342.172 958.884 343.328C957.666 344.484 956.233 345.344 954.588 345.906L953.088 343.562ZM957.806 347.406H976.213V354.406H960.775V357H977.15V359.375H957.9V352.156H973.275V349.75H957.806V347.406ZM981.537 348.375C981.548 345.49 981.944 342.812 982.725 340.344C983.517 337.865 984.662 335.552 986.162 333.406H989.225C988.496 334.458 987.808 335.812 987.162 337.469C986.517 339.115 985.996 340.896 985.6 342.812C985.204 344.729 985.006 346.583 985.006 348.375C985.006 350.167 985.204 352.026 985.6 353.953C985.996 355.87 986.517 357.656 987.162 359.312C987.808 360.969 988.496 362.323 989.225 363.375H986.162C984.662 361.219 983.517 358.901 982.725 356.422C981.944 353.943 981.548 351.26 981.537 348.375ZM998.081 333.75C999.352 333.76 1000.49 334.115 1001.5 334.812C1002.52 335.5 1003.35 336.479 1003.97 337.75H1010.89V331.656H1013.83V359.719H1010.89V348.969H1004.18C1003.57 350.385 1002.74 351.484 1001.68 352.266C1000.62 353.036 999.425 353.417 998.081 353.406C996.696 353.406 995.461 353.005 994.378 352.203C993.305 351.401 992.467 350.255 991.863 348.766C991.269 347.276 990.977 345.542 990.988 343.562C990.977 341.604 991.269 339.885 991.863 338.406C992.467 336.917 993.305 335.771 994.378 334.969C995.461 334.156 996.696 333.75 998.081 333.75ZM993.8 343.562C993.8 345.021 993.977 346.292 994.331 347.375C994.696 348.458 995.201 349.292 995.847 349.875C996.493 350.458 997.238 350.75 998.081 350.75C998.925 350.75 999.67 350.458 1000.32 349.875C1000.96 349.292 1001.46 348.458 1001.82 347.375C1002.18 346.292 1002.36 345.021 1002.36 343.562C1002.36 342.125 1002.18 340.87 1001.82 339.797C1001.45 338.714 1000.95 337.88 1000.3 337.297C999.665 336.703 998.925 336.406 998.081 336.406C997.238 336.406 996.493 336.703 995.847 337.297C995.211 337.88 994.711 338.714 994.347 339.797C993.982 340.87 993.8 342.125 993.8 343.562ZM1004.82 340.188C1005.06 341.312 1005.18 342.438 1005.18 343.562C1005.18 344.615 1005.08 345.604 1004.89 346.531H1010.89V340.188H1004.82ZM1025.03 348.375C1025.02 351.26 1024.62 353.943 1023.83 356.422C1023.05 358.901 1021.91 361.219 1020.41 363.375H1017.34C1018.07 362.323 1018.76 360.969 1019.41 359.312C1020.05 357.656 1020.57 355.87 1020.97 353.953C1021.36 352.026 1021.56 350.167 1021.56 348.375C1021.56 346.583 1021.36 344.729 1020.97 342.812C1020.57 340.896 1020.05 339.115 1019.41 337.469C1018.76 335.812 1018.07 334.458 1017.34 333.406H1020.41C1021.91 335.552 1023.05 337.865 1023.83 340.344C1024.62 342.812 1025.02 345.49 1025.03 348.375Z" fill="#EFF1F3"/>
<path d="M1150.22 474.375H1154.44V476.875H1150.22V490.656H1147.25V462.656H1150.22V474.375ZM1127.94 483.031C1131.11 483.031 1133.59 483.005 1135.38 482.953V480.109C1134.32 479.953 1133.4 479.646 1132.61 479.188C1131.83 478.729 1131.22 478.146 1130.8 477.438C1130.38 476.719 1130.18 475.917 1130.19 475.031C1130.18 473.99 1130.45 473.073 1131 472.281C1131.56 471.49 1132.35 470.875 1133.36 470.438C1134.38 470 1135.55 469.781 1136.88 469.781C1138.19 469.781 1139.35 470 1140.38 470.438C1141.4 470.875 1142.19 471.49 1142.77 472.281C1143.34 473.073 1143.62 473.99 1143.62 475.031C1143.62 475.917 1143.41 476.719 1142.97 477.438C1142.53 478.146 1141.91 478.734 1141.11 479.203C1140.32 479.661 1139.4 479.964 1138.34 480.109V482.844C1141.09 482.708 1143.53 482.49 1145.66 482.188L1145.84 484.375C1143.31 484.823 1140.69 485.125 1137.98 485.281C1135.29 485.427 1132.44 485.5 1129.45 485.5H1128.41L1127.94 483.031ZM1128.47 465.969H1135.38V462.719H1138.34V465.969H1145.25V468.344H1128.47V465.969ZM1132.97 475.031C1132.97 475.615 1133.13 476.125 1133.45 476.562C1133.78 476.99 1134.22 477.323 1134.8 477.562C1135.38 477.792 1136.06 477.906 1136.83 477.906C1138.03 477.906 1138.98 477.651 1139.69 477.141C1140.41 476.63 1140.77 475.927 1140.78 475.031C1140.78 474.438 1140.61 473.922 1140.28 473.484C1139.96 473.036 1139.5 472.693 1138.91 472.453C1138.32 472.214 1137.65 472.094 1136.88 472.094C1136.09 472.094 1135.41 472.214 1134.81 472.453C1134.23 472.693 1133.78 473.036 1133.45 473.484C1133.13 473.922 1132.97 474.438 1132.97 475.031ZM1164.92 467.812C1164.91 469 1165.17 470.135 1165.7 471.219C1166.24 472.292 1167.02 473.245 1168.03 474.078C1169.04 474.901 1170.24 475.531 1171.64 475.969L1170.23 478.281C1168.66 477.781 1167.29 477.031 1166.14 476.031C1164.99 475.031 1164.11 473.854 1163.48 472.5C1162.87 474.052 1161.96 475.406 1160.75 476.562C1159.54 477.708 1158.11 478.573 1156.45 479.156L1154.92 476.781C1156.35 476.312 1157.59 475.625 1158.65 474.719C1159.72 473.812 1160.53 472.766 1161.09 471.578C1161.65 470.391 1161.94 469.146 1161.95 467.844V467.062H1155.79V464.656H1170.95V467.062H1164.92V467.812ZM1158.7 485.344C1158.7 484.26 1159.08 483.328 1159.83 482.547C1160.59 481.766 1161.67 481.172 1163.08 480.766C1164.49 480.359 1166.17 480.156 1168.11 480.156C1170.02 480.156 1171.67 480.359 1173.06 480.766C1174.46 481.172 1175.52 481.766 1176.26 482.547C1177.01 483.328 1177.39 484.26 1177.39 485.344C1177.39 486.448 1177.01 487.391 1176.26 488.172C1175.52 488.964 1174.46 489.562 1173.06 489.969C1171.67 490.385 1170.02 490.594 1168.11 490.594C1166.17 490.594 1164.49 490.385 1163.08 489.969C1161.67 489.562 1160.59 488.964 1159.83 488.172C1159.08 487.391 1158.7 486.448 1158.7 485.344ZM1161.67 485.344C1161.66 486.271 1162.21 486.99 1163.33 487.5C1164.45 488 1166.01 488.25 1168.01 488.25C1170.06 488.25 1171.66 488 1172.79 487.5C1173.93 487 1174.49 486.281 1174.48 485.344C1174.49 484.438 1173.94 483.74 1172.84 483.25C1171.74 482.75 1170.19 482.5 1168.2 482.5C1166.13 482.5 1164.52 482.745 1163.37 483.234C1162.23 483.724 1161.66 484.427 1161.67 485.344ZM1174.17 462.656H1177.14V469.594H1181.2V472.031H1177.14V479.469H1174.17V462.656ZM1205.18 477.062H1202.24V462.656H1205.18V477.062ZM1182.09 474.562C1183.51 474.083 1184.76 473.385 1185.82 472.469C1186.89 471.552 1187.71 470.495 1188.28 469.297C1188.85 468.099 1189.14 466.854 1189.15 465.562V463.406H1192.18V465.562C1192.18 466.802 1192.46 467.99 1193.03 469.125C1193.59 470.26 1194.39 471.26 1195.45 472.125C1196.5 472.979 1197.73 473.625 1199.15 474.062L1197.68 476.375C1196.06 475.844 1194.64 475.052 1193.45 474C1192.25 472.948 1191.33 471.703 1190.7 470.266C1190.05 471.818 1189.11 473.172 1187.88 474.328C1186.67 475.484 1185.23 476.344 1183.59 476.906L1182.09 474.562ZM1186.81 478.406H1205.21V485.406H1189.78V488H1206.15V490.375H1186.9V483.156H1202.28V480.75H1186.81V478.406ZM1210.54 479.375C1210.55 476.49 1210.94 473.812 1211.72 471.344C1212.52 468.865 1213.66 466.552 1215.16 464.406H1218.22C1217.5 465.458 1216.81 466.812 1216.16 468.469C1215.52 470.115 1215 471.896 1214.6 473.812C1214.2 475.729 1214.01 477.583 1214.01 479.375C1214.01 481.167 1214.2 483.026 1214.6 484.953C1215 486.87 1215.52 488.656 1216.16 490.312C1216.81 491.969 1217.5 493.323 1218.22 494.375H1215.16C1213.66 492.219 1212.52 489.901 1211.72 487.422C1210.94 484.943 1210.55 482.26 1210.54 479.375ZM1241.49 468.906H1245.58V471.375H1241.49V478.469H1238.52V462.688H1241.49V468.906ZM1220.77 464.062H1223.74V474.094C1227.87 474.062 1231.89 473.656 1235.8 472.875L1236.18 475.312C1233.96 475.76 1231.77 476.078 1229.63 476.266C1227.49 476.453 1225.3 476.552 1223.05 476.562H1220.77V464.062ZM1223.55 479.938H1241.49V490.281H1223.55V479.938ZM1238.61 487.906V482.25H1226.46V487.906H1238.61ZM1254.03 479.375C1254.02 482.26 1253.62 484.943 1252.83 487.422C1252.05 489.901 1250.91 492.219 1249.41 494.375H1246.34C1247.07 493.323 1247.76 491.969 1248.41 490.312C1249.05 488.656 1249.57 486.87 1249.97 484.953C1250.36 483.026 1250.56 481.167 1250.56 479.375C1250.56 477.583 1250.36 475.729 1249.97 473.812C1249.57 471.896 1249.05 470.115 1248.41 468.469C1247.76 466.812 1247.07 465.458 1246.34 464.406H1249.41C1250.91 466.552 1252.05 468.865 1252.83 471.344C1253.62 473.812 1254.02 476.49 1254.03 479.375Z" fill="#EFF1F3"/>
<path d="M793.12 500.43V504.812H789.897V515.232C791.208 515.146 792.497 515.018 793.721 514.867L793.936 518.906C786.589 520.131 778.059 520.281 771.85 520.281L771.292 515.855C772.581 515.855 773.999 515.834 775.46 515.812V504.812H772.28V500.43H793.12ZM777.436 529.691C777.436 525.008 782.507 522.365 790.886 522.344C799.286 522.365 804.356 525.008 804.378 529.691C804.356 534.246 799.286 536.975 790.886 536.953C782.507 536.975 777.436 534.246 777.436 529.691ZM780.745 515.705C782.034 515.684 783.345 515.619 784.655 515.576V504.812H780.745V515.705ZM782.893 529.691C782.893 531.754 785.665 532.785 790.886 532.785C796.106 532.785 798.899 531.754 798.921 529.691C798.899 527.564 796.106 526.533 790.886 526.555C785.665 526.533 782.893 527.564 782.893 529.691ZM793.979 515.898V511.516H798.792V508.508H793.979V504.211H798.792V497.852H804.249V521.742H798.792V515.898H793.979ZM820.723 504.812C820.723 509.045 822.914 513.213 828.114 515.211L825.192 519.379C821.84 518.111 819.541 515.791 818.145 512.912C816.727 516.285 814.278 519.1 810.625 520.625L807.661 516.414C813.182 513.986 815.395 509.174 815.395 504.812V500.215H820.723V504.812ZM814.922 529.648C814.901 525.072 820.164 522.322 828.457 522.344C836.707 522.322 841.993 525.072 842.036 529.648C841.993 534.182 836.707 536.975 828.457 536.953C820.164 536.975 814.901 534.182 814.922 529.648ZM820.422 529.648C820.379 531.754 823.323 532.828 828.457 532.828C833.549 532.828 836.493 531.754 836.493 529.648C836.493 527.521 833.549 526.426 828.457 526.426C823.323 526.426 820.379 527.521 820.422 529.648ZM828.243 520.582V498.582H833.356V507.434H836.621V497.895H841.821V521.785H836.621V511.859H833.356V520.582H828.243ZM868.35 501.332V505.672H845.146V501.332H854.041V497.637H859.498V501.332H868.35ZM847.037 514.137C847.037 509.84 851.076 506.939 856.748 506.918C862.441 506.939 866.373 509.84 866.373 514.137C866.373 518.434 862.441 521.334 856.748 521.355C851.076 521.334 847.037 518.434 847.037 514.137ZM849.83 528.402V524.02H876.17V536.953H870.67V528.402H849.83ZM852.408 514.137C852.387 516.135 854.127 517.166 856.748 517.145C859.391 517.166 861.174 516.135 861.174 514.137C861.174 512.117 859.391 511.043 856.748 511.043C854.127 511.043 852.387 512.117 852.408 514.137ZM870.67 522.387V497.852H876.17V507.992H881.455V512.461H876.17V522.387H870.67ZM891.656 521.312V524.621H907.769V521.312H913.226V536.523H886.242V521.312H891.656ZM882.074 519.336V514.91H917.738V519.336H882.074ZM883.836 508.895C892.558 507.842 897.07 503.588 897.113 499.57V498.238H902.742V499.57C902.742 503.48 907.232 507.906 915.976 508.895L914.043 513.191C907.318 512.332 902.42 509.539 899.906 505.758C897.371 509.539 892.472 512.332 885.812 513.191L883.836 508.895ZM891.656 532.227H907.769V528.789H891.656V532.227ZM951.7 497.852V517.66H946.243V497.852H951.7ZM918.829 513.449C925.361 511.494 928.282 506.574 928.282 501.719V498.711H933.997V501.719C933.954 506.467 936.79 511 943.193 512.848L940.529 517.059C936.038 515.77 932.945 513.041 931.161 509.561C929.4 513.363 926.198 516.35 921.536 517.746L918.829 513.449ZM925.489 523.59V519.336H951.743V529.949H930.946V532.355H952.818V536.695H925.575V525.867H946.286V523.59H925.489ZM798.928 566.297C798.945 559.688 800.984 554.186 804.342 549.457H809.299C806.873 552.955 804.342 560.004 804.342 566.297C804.342 572.607 806.873 579.639 809.299 583.172H804.342C800.984 578.426 798.945 572.924 798.928 566.297ZM839.969 559.371V563.027H835.434V579.164H830.934V547.242H835.434V559.371H839.969ZM811.211 571.359V550.301H815.676V567.65C819.772 567.58 824.166 567.193 828.789 566.262L829.246 569.988C823.885 571.078 818.7 571.359 813.989 571.359H811.211ZM866.35 555.082V558.668H844.096V547.699H848.561V555.082H866.35ZM840.405 564.715V561.129H869.655V564.715H857.139V567.598H866.034V578.848H844.026V567.598H852.675V564.715H840.405ZM848.421 575.332H861.675V571.078H848.421V575.332ZM882.642 550.547V576H877.333V555.574H877.193L871.357 559.23V554.555L877.65 550.547H882.642ZM913.347 547.242V563.449H908.882V547.242H913.347ZM886.453 560.004C891.796 558.404 894.187 554.379 894.187 550.406V547.945H898.863V550.406C898.828 554.291 901.148 558 906.386 559.512L904.207 562.957C900.533 561.902 898.002 559.67 896.543 556.822C895.101 559.934 892.482 562.377 888.668 563.52L886.453 560.004ZM891.902 568.301V564.82H913.382V573.504H896.367V575.473H914.261V579.023H891.972V570.164H908.918V568.301H891.902ZM927.072 566.297C927.055 572.924 925.016 578.426 921.658 583.172H916.701C919.127 579.639 921.658 572.607 921.658 566.297C921.658 560.004 919.127 552.955 916.701 549.457H921.658C925.016 554.186 927.055 559.688 927.072 566.297Z" fill="white"/>
<path d="M1092.12 599.43V603.812H1088.9V614.232C1090.21 614.146 1091.5 614.018 1092.72 613.867L1092.94 617.906C1085.59 619.131 1077.06 619.281 1070.85 619.281L1070.29 614.855C1071.58 614.855 1073 614.834 1074.46 614.812V603.812H1071.28V599.43H1092.12ZM1076.44 628.691C1076.44 624.008 1081.51 621.365 1089.89 621.344C1098.29 621.365 1103.36 624.008 1103.38 628.691C1103.36 633.246 1098.29 635.975 1089.89 635.953C1081.51 635.975 1076.44 633.246 1076.44 628.691ZM1079.74 614.705C1081.03 614.684 1082.34 614.619 1083.66 614.576V603.812H1079.74V614.705ZM1081.89 628.691C1081.89 630.754 1084.66 631.785 1089.89 631.785C1095.11 631.785 1097.9 630.754 1097.92 628.691C1097.9 626.564 1095.11 625.533 1089.89 625.555C1084.66 625.533 1081.89 626.564 1081.89 628.691ZM1092.98 614.898V610.516H1097.79V607.508H1092.98V603.211H1097.79V596.852H1103.25V620.742H1097.79V614.898H1092.98ZM1119.72 603.812C1119.72 608.045 1121.91 612.213 1127.11 614.211L1124.19 618.379C1120.84 617.111 1118.54 614.791 1117.14 611.912C1115.73 615.285 1113.28 618.1 1109.63 619.625L1106.66 615.414C1112.18 612.986 1114.39 608.174 1114.39 603.812V599.215H1119.72V603.812ZM1113.92 628.648C1113.9 624.072 1119.16 621.322 1127.46 621.344C1135.71 621.322 1140.99 624.072 1141.04 628.648C1140.99 633.182 1135.71 635.975 1127.46 635.953C1119.16 635.975 1113.9 633.182 1113.92 628.648ZM1119.42 628.648C1119.38 630.754 1122.32 631.828 1127.46 631.828C1132.55 631.828 1135.49 630.754 1135.49 628.648C1135.49 626.521 1132.55 625.426 1127.46 625.426C1122.32 625.426 1119.38 626.521 1119.42 628.648ZM1127.24 619.582V597.582H1132.36V606.434H1135.62V596.895H1140.82V620.785H1135.62V610.859H1132.36V619.582H1127.24ZM1167.35 600.332V604.672H1144.15V600.332H1153.04V596.637H1158.5V600.332H1167.35ZM1146.04 613.137C1146.04 608.84 1150.08 605.939 1155.75 605.918C1161.44 605.939 1165.37 608.84 1165.37 613.137C1165.37 617.434 1161.44 620.334 1155.75 620.355C1150.08 620.334 1146.04 617.434 1146.04 613.137ZM1148.83 627.402V623.02H1175.17V635.953H1169.67V627.402H1148.83ZM1151.41 613.137C1151.39 615.135 1153.13 616.166 1155.75 616.145C1158.39 616.166 1160.17 615.135 1160.17 613.137C1160.17 611.117 1158.39 610.043 1155.75 610.043C1153.13 610.043 1151.39 611.117 1151.41 613.137ZM1169.67 621.387V596.852H1175.17V606.992H1180.46V611.461H1175.17V621.387H1169.67ZM1190.66 620.312V623.621H1206.77V620.312H1212.23V635.523H1185.24V620.312H1190.66ZM1181.07 618.336V613.91H1216.74V618.336H1181.07ZM1182.84 607.895C1191.56 606.842 1196.07 602.588 1196.11 598.57V597.238H1201.74V598.57C1201.74 602.48 1206.23 606.906 1214.98 607.895L1213.04 612.191C1206.32 611.332 1201.42 608.539 1198.91 604.758C1196.37 608.539 1191.47 611.332 1184.81 612.191L1182.84 607.895ZM1190.66 631.227H1206.77V627.789H1190.66V631.227ZM1250.7 596.852V616.66H1245.24V596.852H1250.7ZM1217.83 612.449C1224.36 610.494 1227.28 605.574 1227.28 600.719V597.711H1233V600.719C1232.95 605.467 1235.79 610 1242.19 611.848L1239.53 616.059C1235.04 614.77 1231.94 612.041 1230.16 608.561C1228.4 612.363 1225.2 615.35 1220.54 616.746L1217.83 612.449ZM1224.49 622.59V618.336H1250.74V628.949H1229.95V631.355H1251.82V635.695H1224.58V624.867H1245.29V622.59H1224.49ZM1095.38 665.297C1095.4 658.688 1097.44 653.186 1100.79 648.457H1105.75C1103.32 651.955 1100.79 659.004 1100.79 665.297C1100.79 671.607 1103.32 678.639 1105.75 682.172H1100.79C1097.44 677.426 1095.4 671.924 1095.38 665.297ZM1136.42 658.371V662.027H1131.89V678.164H1127.39V646.242H1131.89V658.371H1136.42ZM1107.66 670.359V649.301H1112.13V666.65C1116.22 666.58 1120.62 666.193 1125.24 665.262L1125.7 668.988C1120.34 670.078 1115.15 670.359 1110.44 670.359H1107.66ZM1162.8 654.082V657.668H1140.55V646.699H1145.01V654.082H1162.8ZM1136.86 663.715V660.129H1166.11V663.715H1153.59V666.598H1162.49V677.848H1140.48V666.598H1149.13V663.715H1136.86ZM1144.87 674.332H1158.13V670.078H1144.87V674.332ZM1168.12 675L1168.09 671.168L1177.23 662.766C1179.6 660.498 1180.89 659.092 1180.89 657.07C1180.89 654.803 1179.18 653.396 1176.84 653.414C1174.45 653.396 1172.89 654.908 1172.91 657.352H1167.88C1167.86 652.377 1171.55 649.195 1176.91 649.195C1182.36 649.195 1185.98 652.307 1185.98 656.719C1185.98 659.619 1184.58 661.992 1179.34 666.738L1175.47 670.5V670.641H1186.34V675H1168.12ZM1214.9 646.242V662.449H1210.43V646.242H1214.9ZM1188 659.004C1193.35 657.404 1195.74 653.379 1195.74 649.406V646.945H1200.41V649.406C1200.38 653.291 1202.7 657 1207.94 658.512L1205.76 661.957C1202.08 660.902 1199.55 658.67 1198.09 655.822C1196.65 658.934 1194.03 661.377 1190.22 662.52L1188 659.004ZM1193.45 667.301V663.82H1214.93V672.504H1197.92V674.473H1215.81V678.023H1193.52V669.164H1210.47V667.301H1193.45ZM1228.62 665.297C1228.6 671.924 1226.56 677.426 1223.21 682.172H1218.25C1220.68 678.639 1223.21 671.607 1223.21 665.297C1223.21 659.004 1220.68 651.955 1218.25 648.457H1223.21C1226.56 653.186 1228.6 658.688 1228.62 665.297Z" fill="white"/>
<path d="M594.12 843.43V847.812H590.897V858.232C592.208 858.146 593.497 858.018 594.721 857.867L594.936 861.906C587.589 863.131 579.059 863.281 572.85 863.281L572.292 858.855C573.581 858.855 574.999 858.834 576.46 858.812V847.812H573.28V843.43H594.12ZM578.436 872.691C578.436 868.008 583.507 865.365 591.886 865.344C600.286 865.365 605.356 868.008 605.378 872.691C605.356 877.246 600.286 879.975 591.886 879.953C583.507 879.975 578.436 877.246 578.436 872.691ZM581.745 858.705C583.034 858.684 584.345 858.619 585.655 858.576V847.812H581.745V858.705ZM583.893 872.691C583.893 874.754 586.665 875.785 591.886 875.785C597.106 875.785 599.899 874.754 599.921 872.691C599.899 870.564 597.106 869.533 591.886 869.555C586.665 869.533 583.893 870.564 583.893 872.691ZM594.979 858.898V854.516H599.792V851.508H594.979V847.211H599.792V840.852H605.249V864.742H599.792V858.898H594.979ZM621.723 847.812C621.723 852.045 623.914 856.213 629.114 858.211L626.192 862.379C622.84 861.111 620.541 858.791 619.145 855.912C617.727 859.285 615.278 862.1 611.625 863.625L608.661 859.414C614.182 856.986 616.395 852.174 616.395 847.812V843.215H621.723V847.812ZM615.922 872.648C615.901 868.072 621.164 865.322 629.457 865.344C637.707 865.322 642.993 868.072 643.036 872.648C642.993 877.182 637.707 879.975 629.457 879.953C621.164 879.975 615.901 877.182 615.922 872.648ZM621.422 872.648C621.379 874.754 624.323 875.828 629.457 875.828C634.549 875.828 637.493 874.754 637.493 872.648C637.493 870.521 634.549 869.426 629.457 869.426C624.323 869.426 621.379 870.521 621.422 872.648ZM629.243 863.582V841.582H634.356V850.434H637.621V840.895H642.821V864.785H637.621V854.859H634.356V863.582H629.243ZM669.35 844.332V848.672H646.146V844.332H655.041V840.637H660.498V844.332H669.35ZM648.037 857.137C648.037 852.84 652.076 849.939 657.748 849.918C663.441 849.939 667.373 852.84 667.373 857.137C667.373 861.434 663.441 864.334 657.748 864.355C652.076 864.334 648.037 861.434 648.037 857.137ZM650.83 871.402V867.02H677.17V879.953H671.67V871.402H650.83ZM653.408 857.137C653.387 859.135 655.127 860.166 657.748 860.145C660.391 860.166 662.174 859.135 662.174 857.137C662.174 855.117 660.391 854.043 657.748 854.043C655.127 854.043 653.387 855.117 653.408 857.137ZM671.67 865.387V840.852H677.17V850.992H682.455V855.461H677.17V865.387H671.67ZM692.656 864.312V867.621H708.769V864.312H714.226V879.523H687.242V864.312H692.656ZM683.074 862.336V857.91H718.738V862.336H683.074ZM684.836 851.895C693.558 850.842 698.07 846.588 698.113 842.57V841.238H703.742V842.57C703.742 846.48 708.232 850.906 716.976 851.895L715.043 856.191C708.318 855.332 703.42 852.539 700.906 848.758C698.371 852.539 693.472 855.332 686.812 856.191L684.836 851.895ZM692.656 875.227H708.769V871.789H692.656V875.227ZM752.7 840.852V860.66H747.243V840.852H752.7ZM719.829 856.449C726.361 854.494 729.282 849.574 729.282 844.719V841.711H734.997V844.719C734.954 849.467 737.79 854 744.193 855.848L741.529 860.059C737.038 858.77 733.945 856.041 732.161 852.561C730.4 856.363 727.198 859.35 722.536 860.746L719.829 856.449ZM726.489 866.59V862.336H752.743V872.949H731.946V875.355H753.818V879.695H726.575V868.867H747.286V866.59H726.489ZM599.928 909.297C599.945 902.688 601.984 897.186 605.342 892.457H610.299C607.873 895.955 605.342 903.004 605.342 909.297C605.342 915.607 607.873 922.639 610.299 926.172H605.342C601.984 921.426 599.945 915.924 599.928 909.297ZM621.176 899.91C621.176 904.727 622.881 909.631 627.504 912.039L625.008 915.344C622.125 913.867 620.209 911.283 619.084 908.172C617.977 911.547 616.061 914.43 613.161 916.082L610.629 912.707C615.182 910.105 616.922 904.885 616.957 899.91V899.312H611.649V895.656H616.957V891.332H621.141V895.656H626.414V899.312H621.176V899.91ZM627.856 920.758V890.699H632.11V902.547H634.817V890.242H639.106V922.234H634.817V906.203H632.11V920.758H627.856ZM655.995 890.664C663.114 890.682 667.614 893.002 667.632 896.887C667.614 900.701 663.114 902.986 655.995 902.969C648.911 902.986 644.323 900.701 644.323 896.887C644.323 893.002 648.911 890.682 655.995 890.664ZM641.405 908.207V904.621H670.585V908.207H658.21V910.984H667.104V921.883H644.78V910.984H653.745V908.207H641.405ZM648.999 896.887C648.964 898.645 651.512 899.559 655.995 899.559C660.407 899.559 662.991 898.645 662.991 896.887C662.991 895.041 660.407 894.092 655.995 894.109C651.512 894.092 648.964 895.041 648.999 896.887ZM649.21 918.297H662.71V914.535H649.21V918.297ZM683.642 893.547V919H678.333V898.574H678.193L672.357 902.23V897.555L678.65 893.547H683.642ZM714.347 890.242V906.449H709.882V890.242H714.347ZM687.453 903.004C692.796 901.404 695.187 897.379 695.187 893.406V890.945H699.863V893.406C699.828 897.291 702.148 901 707.386 902.512L705.207 905.957C701.533 904.902 699.002 902.67 697.543 899.822C696.101 902.934 693.482 905.377 689.668 906.52L687.453 903.004ZM692.902 911.301V907.82H714.382V916.504H697.367V918.473H715.261V922.023H692.972V913.164H709.918V911.301H692.902ZM728.072 909.297C728.055 915.924 726.016 921.426 722.658 926.172H717.701C720.127 922.639 722.658 915.607 722.658 909.297C722.658 903.004 720.127 895.955 717.701 892.457H722.658C726.016 897.186 728.055 902.688 728.072 909.297Z" fill="white"/>
<path d="M813.12 976.43V980.812H809.897V991.232C811.208 991.146 812.497 991.018 813.721 990.867L813.936 994.906C806.589 996.131 798.059 996.281 791.85 996.281L791.292 991.855C792.581 991.855 793.999 991.834 795.46 991.812V980.812H792.28V976.43H813.12ZM797.436 1005.69C797.436 1001.01 802.507 998.365 810.886 998.344C819.286 998.365 824.356 1001.01 824.378 1005.69C824.356 1010.25 819.286 1012.97 810.886 1012.95C802.507 1012.97 797.436 1010.25 797.436 1005.69ZM800.745 991.705C802.034 991.684 803.345 991.619 804.655 991.576V980.812H800.745V991.705ZM802.893 1005.69C802.893 1007.75 805.665 1008.79 810.886 1008.79C816.106 1008.79 818.899 1007.75 818.921 1005.69C818.899 1003.56 816.106 1002.53 810.886 1002.55C805.665 1002.53 802.893 1003.56 802.893 1005.69ZM813.979 991.898V987.516H818.792V984.508H813.979V980.211H818.792V973.852H824.249V997.742H818.792V991.898H813.979ZM840.723 980.812C840.723 985.045 842.914 989.213 848.114 991.211L845.192 995.379C841.84 994.111 839.541 991.791 838.145 988.912C836.727 992.285 834.278 995.1 830.625 996.625L827.661 992.414C833.182 989.986 835.395 985.174 835.395 980.812V976.215H840.723V980.812ZM834.922 1005.65C834.901 1001.07 840.164 998.322 848.457 998.344C856.707 998.322 861.993 1001.07 862.036 1005.65C861.993 1010.18 856.707 1012.97 848.457 1012.95C840.164 1012.97 834.901 1010.18 834.922 1005.65ZM840.422 1005.65C840.379 1007.75 843.323 1008.83 848.457 1008.83C853.549 1008.83 856.493 1007.75 856.493 1005.65C856.493 1003.52 853.549 1002.43 848.457 1002.43C843.323 1002.43 840.379 1003.52 840.422 1005.65ZM848.243 996.582V974.582H853.356V983.434H856.621V973.895H861.821V997.785H856.621V987.859H853.356V996.582H848.243ZM888.35 977.332V981.672H865.146V977.332H874.041V973.637H879.498V977.332H888.35ZM867.037 990.137C867.037 985.84 871.076 982.939 876.748 982.918C882.441 982.939 886.373 985.84 886.373 990.137C886.373 994.434 882.441 997.334 876.748 997.355C871.076 997.334 867.037 994.434 867.037 990.137ZM869.83 1004.4V1000.02H896.17V1012.95H890.67V1004.4H869.83ZM872.408 990.137C872.387 992.135 874.127 993.166 876.748 993.145C879.391 993.166 881.174 992.135 881.174 990.137C881.174 988.117 879.391 987.043 876.748 987.043C874.127 987.043 872.387 988.117 872.408 990.137ZM890.67 998.387V973.852H896.17V983.992H901.455V988.461H896.17V998.387H890.67ZM911.656 997.312V1000.62H927.769V997.312H933.226V1012.52H906.242V997.312H911.656ZM902.074 995.336V990.91H937.738V995.336H902.074ZM903.836 984.895C912.558 983.842 917.07 979.588 917.113 975.57V974.238H922.742V975.57C922.742 979.48 927.232 983.906 935.976 984.895L934.043 989.191C927.318 988.332 922.42 985.539 919.906 981.758C917.371 985.539 912.472 988.332 905.812 989.191L903.836 984.895ZM911.656 1008.23H927.769V1004.79H911.656V1008.23ZM971.7 973.852V993.66H966.243V973.852H971.7ZM938.829 989.449C945.361 987.494 948.282 982.574 948.282 977.719V974.711H953.997V977.719C953.954 982.467 956.79 987 963.193 988.848L960.529 993.059C956.038 991.77 952.945 989.041 951.161 985.561C949.4 989.363 946.198 992.35 941.536 993.746L938.829 989.449ZM945.489 999.59V995.336H971.743V1005.95H950.946V1008.36H972.818V1012.7H945.575V1001.87H966.286V999.59H945.489ZM816.379 1042.3C816.396 1035.69 818.436 1030.19 821.793 1025.46H826.75C824.324 1028.96 821.793 1036 821.793 1042.3C821.793 1048.61 824.324 1055.64 826.75 1059.17H821.793C818.436 1054.43 816.396 1048.92 816.379 1042.3ZM837.627 1032.91C837.627 1037.73 839.332 1042.63 843.955 1045.04L841.459 1048.34C838.577 1046.87 836.661 1044.28 835.536 1041.17C834.428 1044.55 832.512 1047.43 829.612 1049.08L827.08 1045.71C831.633 1043.11 833.373 1037.88 833.409 1032.91V1032.31H828.1V1028.66H833.409V1024.33H837.592V1028.66H842.866V1032.31H837.627V1032.91ZM844.307 1053.76V1023.7H848.561V1035.55H851.268V1023.24H855.557V1055.23H851.268V1039.2H848.561V1053.76H844.307ZM872.446 1023.66C879.565 1023.68 884.065 1026 884.083 1029.89C884.065 1033.7 879.565 1035.99 872.446 1035.97C865.362 1035.99 860.774 1033.7 860.774 1029.89C860.774 1026 865.362 1023.68 872.446 1023.66ZM857.856 1041.21V1037.62H887.036V1041.21H874.661V1043.98H883.555V1054.88H861.231V1043.98H870.196V1041.21H857.856ZM865.45 1029.89C865.415 1031.64 867.964 1032.56 872.446 1032.56C876.858 1032.56 879.442 1031.64 879.442 1029.89C879.442 1028.04 876.858 1027.09 872.446 1027.11C867.964 1027.09 865.415 1028.04 865.45 1029.89ZM865.661 1051.3H879.161V1047.54H865.661V1051.3ZM889.124 1052L889.089 1048.17L898.23 1039.77C900.603 1037.5 901.886 1036.09 901.886 1034.07C901.886 1031.8 900.181 1030.4 897.843 1030.41C895.452 1030.4 893.888 1031.91 893.905 1034.35H888.878C888.861 1029.38 892.552 1026.2 897.913 1026.2C903.363 1026.2 906.984 1029.31 906.984 1033.72C906.984 1036.62 905.577 1038.99 900.339 1043.74L896.472 1047.5V1047.64H907.335V1052H889.124ZM935.896 1023.24V1039.45H931.431V1023.24H935.896ZM909.002 1036C914.345 1034.4 916.736 1030.38 916.736 1026.41V1023.95H921.412V1026.41C921.377 1030.29 923.697 1034 928.935 1035.51L926.755 1038.96C923.082 1037.9 920.55 1035.67 919.091 1032.82C917.65 1035.93 915.031 1038.38 911.216 1039.52L909.002 1036ZM914.451 1044.3V1040.82H935.931V1049.5H918.916V1051.47H936.81V1055.02H914.521V1046.16H931.466V1044.3H914.451ZM949.621 1042.3C949.604 1048.92 947.564 1054.43 944.207 1059.17H939.25C941.676 1055.64 944.207 1048.61 944.207 1042.3C944.207 1036 941.676 1028.96 939.25 1025.46H944.207C947.564 1030.19 949.604 1035.69 949.621 1042.3Z" fill="white"/>
<path d="M1277.12 709.43V713.812H1273.9V724.232C1275.21 724.146 1276.5 724.018 1277.72 723.867L1277.94 727.906C1270.59 729.131 1262.06 729.281 1255.85 729.281L1255.29 724.855C1256.58 724.855 1258 724.834 1259.46 724.812V713.812H1256.28V709.43H1277.12ZM1261.44 738.691C1261.44 734.008 1266.51 731.365 1274.89 731.344C1283.29 731.365 1288.36 734.008 1288.38 738.691C1288.36 743.246 1283.29 745.975 1274.89 745.953C1266.51 745.975 1261.44 743.246 1261.44 738.691ZM1264.74 724.705C1266.03 724.684 1267.34 724.619 1268.66 724.576V713.812H1264.74V724.705ZM1266.89 738.691C1266.89 740.754 1269.66 741.785 1274.89 741.785C1280.11 741.785 1282.9 740.754 1282.92 738.691C1282.9 736.564 1280.11 735.533 1274.89 735.555C1269.66 735.533 1266.89 736.564 1266.89 738.691ZM1277.98 724.898V720.516H1282.79V717.508H1277.98V713.211H1282.79V706.852H1288.25V730.742H1282.79V724.898H1277.98ZM1304.72 713.812C1304.72 718.045 1306.91 722.213 1312.11 724.211L1309.19 728.379C1305.84 727.111 1303.54 724.791 1302.14 721.912C1300.73 725.285 1298.28 728.1 1294.63 729.625L1291.66 725.414C1297.18 722.986 1299.39 718.174 1299.39 713.812V709.215H1304.72V713.812ZM1298.92 738.648C1298.9 734.072 1304.16 731.322 1312.46 731.344C1320.71 731.322 1325.99 734.072 1326.04 738.648C1325.99 743.182 1320.71 745.975 1312.46 745.953C1304.16 745.975 1298.9 743.182 1298.92 738.648ZM1304.42 738.648C1304.38 740.754 1307.32 741.828 1312.46 741.828C1317.55 741.828 1320.49 740.754 1320.49 738.648C1320.49 736.521 1317.55 735.426 1312.46 735.426C1307.32 735.426 1304.38 736.521 1304.42 738.648ZM1312.24 729.582V707.582H1317.36V716.434H1320.62V706.895H1325.82V730.785H1320.62V720.859H1317.36V729.582H1312.24ZM1352.35 710.332V714.672H1329.15V710.332H1338.04V706.637H1343.5V710.332H1352.35ZM1331.04 723.137C1331.04 718.84 1335.08 715.939 1340.75 715.918C1346.44 715.939 1350.37 718.84 1350.37 723.137C1350.37 727.434 1346.44 730.334 1340.75 730.355C1335.08 730.334 1331.04 727.434 1331.04 723.137ZM1333.83 737.402V733.02H1360.17V745.953H1354.67V737.402H1333.83ZM1336.41 723.137C1336.39 725.135 1338.13 726.166 1340.75 726.145C1343.39 726.166 1345.17 725.135 1345.17 723.137C1345.17 721.117 1343.39 720.043 1340.75 720.043C1338.13 720.043 1336.39 721.117 1336.41 723.137ZM1354.67 731.387V706.852H1360.17V716.992H1365.46V721.461H1360.17V731.387H1354.67ZM1375.66 730.312V733.621H1391.77V730.312H1397.23V745.523H1370.24V730.312H1375.66ZM1366.07 728.336V723.91H1401.74V728.336H1366.07ZM1367.84 717.895C1376.56 716.842 1381.07 712.588 1381.11 708.57V707.238H1386.74V708.57C1386.74 712.48 1391.23 716.906 1399.98 717.895L1398.04 722.191C1391.32 721.332 1386.42 718.539 1383.91 714.758C1381.37 718.539 1376.47 721.332 1369.81 722.191L1367.84 717.895ZM1375.66 741.227H1391.77V737.789H1375.66V741.227ZM1435.7 706.852V726.66H1430.24V706.852H1435.7ZM1402.83 722.449C1409.36 720.494 1412.28 715.574 1412.28 710.719V707.711H1418V710.719C1417.95 715.467 1420.79 720 1427.19 721.848L1424.53 726.059C1420.04 724.77 1416.94 722.041 1415.16 718.561C1413.4 722.363 1410.2 725.35 1405.54 726.746L1402.83 722.449ZM1409.49 732.59V728.336H1435.74V738.949H1414.95V741.355H1436.82V745.695H1409.58V734.867H1430.29V732.59H1409.49ZM1279.87 775.297C1279.89 768.688 1281.93 763.186 1285.28 758.457H1290.24C1287.81 761.955 1285.28 769.004 1285.28 775.297C1285.28 781.607 1287.81 788.639 1290.24 792.172H1285.28C1281.93 787.426 1279.89 781.924 1279.87 775.297ZM1320.91 768.371V772.027H1316.38V788.164H1311.88V756.242H1316.38V768.371H1320.91ZM1292.15 780.359V759.301H1296.62V776.65C1300.71 776.58 1305.11 776.193 1309.73 775.262L1310.19 778.988C1304.83 780.078 1299.64 780.359 1294.93 780.359H1292.15ZM1347.29 764.082V767.668H1325.04V756.699H1329.5V764.082H1347.29ZM1321.35 773.715V770.129H1350.6V773.715H1338.08V776.598H1346.98V787.848H1324.97V776.598H1333.62V773.715H1321.35ZM1329.36 784.332H1342.62V780.078H1329.36V784.332ZM1362.04 785.352C1356.45 785.352 1352.44 782.275 1352.33 777.828H1357.68C1357.76 779.727 1359.61 780.975 1362.07 780.992C1364.6 780.975 1366.41 779.568 1366.4 777.512C1366.41 775.438 1364.57 773.979 1361.58 773.961H1359.22V770.059H1361.58C1364.09 770.059 1365.85 768.688 1365.83 766.684C1365.85 764.732 1364.36 763.396 1362.11 763.414C1359.86 763.396 1358.01 764.662 1357.92 766.613H1352.86C1352.95 762.236 1356.89 759.195 1362.11 759.195C1367.42 759.195 1370.95 762.342 1370.93 766.367C1370.95 769.215 1368.96 771.236 1366.11 771.746V771.957C1369.86 772.414 1371.92 774.682 1371.88 777.863C1371.92 782.223 1367.78 785.352 1362.04 785.352ZM1400.41 756.242V772.449H1395.94V756.242H1400.41ZM1373.51 769.004C1378.86 767.404 1381.25 763.379 1381.25 759.406V756.945H1385.92V759.406C1385.89 763.291 1388.21 767 1393.44 768.512L1391.27 771.957C1387.59 770.902 1385.06 768.67 1383.6 765.822C1382.16 768.934 1379.54 771.377 1375.73 772.52L1373.51 769.004ZM1378.96 777.301V773.82H1400.44V782.504H1383.43V784.473H1401.32V788.023H1379.03V779.164H1395.98V777.301H1378.96ZM1414.13 775.297C1414.11 781.924 1412.07 787.426 1408.72 792.172H1403.76C1406.19 788.639 1408.72 781.607 1408.72 775.297C1408.72 769.004 1406.19 761.955 1403.76 758.457H1408.72C1412.07 763.186 1414.11 768.688 1414.13 775.297Z" fill="white"/>
<path d="M972.612 615.375H986.8V618.344H976.05V625.188H986.05V628.125H976.05V635.031H986.925V638H972.612V615.375ZM991.281 641.406H988.312L995.594 614.312H998.562L991.281 641.406ZM1008.89 633.781H1009.14L1015.42 615.375H1019.14L1010.98 638H1007.01L998.887 615.375H1002.61L1008.89 633.781Z" fill="#EFF1F3"/>
<path d="M1623.12 516.43V520.812H1619.9V531.232C1621.21 531.146 1622.5 531.018 1623.72 530.867L1623.94 534.906C1616.59 536.131 1608.06 536.281 1601.85 536.281L1601.29 531.855C1602.58 531.855 1604 531.834 1605.46 531.812V520.812H1602.28V516.43H1623.12ZM1607.44 545.691C1607.44 541.008 1612.51 538.365 1620.89 538.344C1629.29 538.365 1634.36 541.008 1634.38 545.691C1634.36 550.246 1629.29 552.975 1620.89 552.953C1612.51 552.975 1607.44 550.246 1607.44 545.691ZM1610.74 531.705C1612.03 531.684 1613.34 531.619 1614.66 531.576V520.812H1610.74V531.705ZM1612.89 545.691C1612.89 547.754 1615.66 548.785 1620.89 548.785C1626.11 548.785 1628.9 547.754 1628.92 545.691C1628.9 543.564 1626.11 542.533 1620.89 542.555C1615.66 542.533 1612.89 543.564 1612.89 545.691ZM1623.98 531.898V527.516H1628.79V524.508H1623.98V520.211H1628.79V513.852H1634.25V537.742H1628.79V531.898H1623.98ZM1650.72 520.812C1650.72 525.045 1652.91 529.213 1658.11 531.211L1655.19 535.379C1651.84 534.111 1649.54 531.791 1648.14 528.912C1646.73 532.285 1644.28 535.1 1640.63 536.625L1637.66 532.414C1643.18 529.986 1645.39 525.174 1645.39 520.812V516.215H1650.72V520.812ZM1644.92 545.648C1644.9 541.072 1650.16 538.322 1658.46 538.344C1666.71 538.322 1671.99 541.072 1672.04 545.648C1671.99 550.182 1666.71 552.975 1658.46 552.953C1650.16 552.975 1644.9 550.182 1644.92 545.648ZM1650.42 545.648C1650.38 547.754 1653.32 548.828 1658.46 548.828C1663.55 548.828 1666.49 547.754 1666.49 545.648C1666.49 543.521 1663.55 542.426 1658.46 542.426C1653.32 542.426 1650.38 543.521 1650.42 545.648ZM1658.24 536.582V514.582H1663.36V523.434H1666.62V513.895H1671.82V537.785H1666.62V527.859H1663.36V536.582H1658.24ZM1698.35 517.332V521.672H1675.15V517.332H1684.04V513.637H1689.5V517.332H1698.35ZM1677.04 530.137C1677.04 525.84 1681.08 522.939 1686.75 522.918C1692.44 522.939 1696.37 525.84 1696.37 530.137C1696.37 534.434 1692.44 537.334 1686.75 537.355C1681.08 537.334 1677.04 534.434 1677.04 530.137ZM1679.83 544.402V540.02H1706.17V552.953H1700.67V544.402H1679.83ZM1682.41 530.137C1682.39 532.135 1684.13 533.166 1686.75 533.145C1689.39 533.166 1691.17 532.135 1691.17 530.137C1691.17 528.117 1689.39 527.043 1686.75 527.043C1684.13 527.043 1682.39 528.117 1682.41 530.137ZM1700.67 538.387V513.852H1706.17V523.992H1711.46V528.461H1706.17V538.387H1700.67ZM1721.66 537.312V540.621H1737.77V537.312H1743.23V552.523H1716.24V537.312H1721.66ZM1712.07 535.336V530.91H1747.74V535.336H1712.07ZM1713.84 524.895C1722.56 523.842 1727.07 519.588 1727.11 515.57V514.238H1732.74V515.57C1732.74 519.48 1737.23 523.906 1745.98 524.895L1744.04 529.191C1737.32 528.332 1732.42 525.539 1729.91 521.758C1727.37 525.539 1722.47 528.332 1715.81 529.191L1713.84 524.895ZM1721.66 548.227H1737.77V544.789H1721.66V548.227ZM1781.7 513.852V533.66H1776.24V513.852H1781.7ZM1748.83 529.449C1755.36 527.494 1758.28 522.574 1758.28 517.719V514.711H1764V517.719C1763.95 522.467 1766.79 527 1773.19 528.848L1770.53 533.059C1766.04 531.77 1762.94 529.041 1761.16 525.561C1759.4 529.363 1756.2 532.35 1751.54 533.746L1748.83 529.449ZM1755.49 539.59V535.336H1781.74V545.949H1760.95V548.355H1782.82V552.695H1755.58V541.867H1776.29V539.59H1755.49ZM1626.38 582.297C1626.4 575.688 1628.44 570.186 1631.79 565.457H1636.75C1634.32 568.955 1631.79 576.004 1631.79 582.297C1631.79 588.607 1634.32 595.639 1636.75 599.172H1631.79C1628.44 594.426 1626.4 588.924 1626.38 582.297ZM1642.78 566.09V573.297H1647.14V566.09H1651.28V587.641H1638.56V566.09H1642.78ZM1642.78 584.055H1647.14V576.812H1642.78V584.055ZM1653.96 593.758V563.699H1658.21V575.441H1661.09V563.242H1665.38V595.234H1661.09V579.098H1658.21V593.758H1653.96ZM1682.45 563.664C1689.57 563.682 1694.07 566.002 1694.08 569.887C1694.07 573.701 1689.57 575.986 1682.45 575.969C1675.36 575.986 1670.77 573.701 1670.77 569.887C1670.77 566.002 1675.36 563.682 1682.45 563.664ZM1667.86 581.207V577.621H1697.04V581.207H1684.66V583.984H1693.56V594.883H1671.23V583.984H1680.2V581.207H1667.86ZM1675.45 569.887C1675.41 571.645 1677.96 572.559 1682.45 572.559C1686.86 572.559 1689.44 571.645 1689.44 569.887C1689.44 568.041 1686.86 567.092 1682.45 567.109C1677.96 567.092 1675.41 568.041 1675.45 569.887ZM1675.66 591.297H1689.16V587.535H1675.66V591.297ZM1699.12 592L1699.09 588.168L1708.23 579.766C1710.6 577.498 1711.89 576.092 1711.89 574.07C1711.89 571.803 1710.18 570.396 1707.84 570.414C1705.45 570.396 1703.89 571.908 1703.91 574.352H1698.88C1698.86 569.377 1702.55 566.195 1707.91 566.195C1713.36 566.195 1716.98 569.307 1716.98 573.719C1716.98 576.619 1715.58 578.992 1710.34 583.738L1706.47 587.5V587.641H1717.34V592H1699.12ZM1745.9 563.242V579.449H1741.43V563.242H1745.9ZM1719 576.004C1724.35 574.404 1726.74 570.379 1726.74 566.406V563.945H1731.41V566.406C1731.38 570.291 1733.7 574 1738.94 575.512L1736.76 578.957C1733.08 577.902 1730.55 575.67 1729.09 572.822C1727.65 575.934 1725.03 578.377 1721.22 579.52L1719 576.004ZM1724.45 584.301V580.82H1745.93V589.504H1728.92V591.473H1746.81V595.023H1724.52V586.164H1741.47V584.301H1724.45ZM1759.62 582.297C1759.6 588.924 1757.56 594.426 1754.21 599.172H1749.25C1751.68 595.639 1754.21 588.607 1754.21 582.297C1754.21 576.004 1751.68 568.955 1749.25 565.457H1754.21C1757.56 570.186 1759.6 575.688 1759.62 582.297Z" fill="white"/>
<defs>
<filter id="filter0_f_2710_3987" x="364" y="392" width="80" height="30" filterUnits="userSpaceOnUse" color-interpolation-filters="sRGB">
<feFlood flood-opacity="0" result="BackgroundImageFix"/>
<feBlend mode="normal" in="SourceGraphic" in2="BackgroundImageFix" result="shape"/>
<feGaussianBlur stdDeviation="2.5" result="effect1_foregroundBlur_2710_3987"/>
</filter>
<filter id="filter1_f_2710_3987" x="823" y="731" width="80" height="30" filterUnits="userSpaceOnUse" color-interpolation-filters="sRGB">
<feFlood flood-opacity="0" result="BackgroundImageFix"/>
<feBlend mode="normal" in="SourceGraphic" in2="BackgroundImageFix" result="shape"/>
<feGaussianBlur stdDeviation="2.5" result="effect1_foregroundBlur_2710_3987"/>
</filter>
<filter id="filter2_f_2710_3987" x="1123" y="830" width="80" height="30" filterUnits="userSpaceOnUse" color-interpolation-filters="sRGB">
<feFlood flood-opacity="0" result="BackgroundImageFix"/>
<feBlend mode="normal" in="SourceGraphic" in2="BackgroundImageFix" result="shape"/>
<feGaussianBlur stdDeviation="2.5" result="effect1_foregroundBlur_2710_3987"/>
</filter>
<filter id="filter3_f_2710_3987" x="1307" y="940" width="80" height="30" filterUnits="userSpaceOnUse" color-interpolation-filters="sRGB">
<feFlood flood-opacity="0" result="BackgroundImageFix"/>
<feBlend mode="normal" in="SourceGraphic" in2="BackgroundImageFix" result="shape"/>
<feGaussianBlur stdDeviation="2.5" result="effect1_foregroundBlur_2710_3987"/>
</filter>
<filter id="filter4_f_2710_3987" x="625" y="1074" width="80" height="30" filterUnits="userSpaceOnUse" color-interpolation-filters="sRGB">
<feFlood flood-opacity="0" result="BackgroundImageFix"/>
<feBlend mode="normal" in="SourceGraphic" in2="BackgroundImageFix" result="shape"/>
<feGaussianBlur stdDeviation="2.5" result="effect1_foregroundBlur_2710_3987"/>
</filter>
<filter id="filter5_f_2710_3987" x="844" y="1207" width="80" height="30" filterUnits="userSpaceOnUse" color-interpolation-filters="sRGB">
<feFlood flood-opacity="0" result="BackgroundImageFix"/>
<feBlend mode="normal" in="SourceGraphic" in2="BackgroundImageFix" result="shape"/>
<feGaussianBlur stdDeviation="2.5" result="effect1_foregroundBlur_2710_3987"/>
</filter>
<filter id="filter6_f_2710_3987" x="705" y="204" width="80" height="30" filterUnits="userSpaceOnUse" color-interpolation-filters="sRGB">
<feFlood flood-opacity="0" result="BackgroundImageFix"/>
<feBlend mode="normal" in="SourceGraphic" in2="BackgroundImageFix" result="shape"/>
<feGaussianBlur stdDeviation="2.5" result="effect1_foregroundBlur_2710_3987"/>
</filter>
<filter id="filter7_f_2710_3987" x="1388" y="593" width="80" height="30" filterUnits="userSpaceOnUse" color-interpolation-filters="sRGB">
<feFlood flood-opacity="0" result="BackgroundImageFix"/>
<feBlend mode="normal" in="SourceGraphic" in2="BackgroundImageFix" result="shape"/>
<feGaussianBlur stdDeviation="2.5" result="effect1_foregroundBlur_2710_3987"/>
</filter>
<filter id="filter8_f_2710_3987" x="1653" y="747" width="80" height="30" filterUnits="userSpaceOnUse" color-interpolation-filters="sRGB">
<feFlood flood-opacity="0" result="BackgroundImageFix"/>
<feBlend mode="normal" in="SourceGraphic" in2="BackgroundImageFix" result="shape"/>
<feGaussianBlur stdDeviation="2.5" result="effect1_foregroundBlur_2710_3987"/>
</filter>
<linearGradient id="paint0_linear_2710_3987" x1="435.703" y1="274.156" x2="373.25" y2="381.663" gradientUnits="userSpaceOnUse">
<stop offset="0.144416" stop-color="#C41818"/>
<stop offset="1" stop-color="#072B24"/>
</linearGradient>
<linearGradient id="paint1_linear_2710_3987" x1="894.703" y1="613.156" x2="832.25" y2="720.663" gradientUnits="userSpaceOnUse">
<stop offset="0.144416" stop-color="#C41818"/>
<stop offset="1" stop-color="#072B24"/>
</linearGradient>
<linearGradient id="paint2_linear_2710_3987" x1="1194.7" y1="712.156" x2="1132.25" y2="819.663" gradientUnits="userSpaceOnUse">
<stop offset="0.144416" stop-color="#C41818"/>
<stop offset="1" stop-color="#072B24"/>
</linearGradient>
<linearGradient id="paint3_linear_2710_3987" x1="1378.7" y1="822.156" x2="1316.25" y2="929.663" gradientUnits="userSpaceOnUse">
<stop offset="0.144416" stop-color="#C41818"/>
<stop offset="1" stop-color="#072B24"/>
</linearGradient>
<linearGradient id="paint4_linear_2710_3987" x1="696.703" y1="956.156" x2="634.25" y2="1063.66" gradientUnits="userSpaceOnUse">
<stop offset="0.144416" stop-color="#C41818"/>
<stop offset="1" stop-color="#072B24"/>
</linearGradient>
<linearGradient id="paint5_linear_2710_3987" x1="915.703" y1="1089.16" x2="853.25" y2="1196.66" gradientUnits="userSpaceOnUse">
<stop offset="0.144416" stop-color="#C41818"/>
<stop offset="1" stop-color="#072B24"/>
</linearGradient>
<linearGradient id="paint6_linear_2710_3987" x1="776.703" y1="86.1559" x2="714.25" y2="193.663" gradientUnits="userSpaceOnUse">
<stop offset="0.144416" stop-color="#C41818"/>
<stop offset="1" stop-color="#072B24"/>
</linearGradient>
<linearGradient id="paint7_linear_2710_3987" x1="1459.7" y1="475.156" x2="1397.25" y2="582.663" gradientUnits="userSpaceOnUse">
<stop offset="0.144416" stop-color="#C41818"/>
<stop offset="1" stop-color="#072B24"/>
</linearGradient>
<linearGradient id="paint8_linear_2710_3987" x1="1724.7" y1="629.156" x2="1662.25" y2="736.663" gradientUnits="userSpaceOnUse">
<stop offset="0.144416" stop-color="#C41818"/>
<stop offset="1" stop-color="#072B24"/>
</linearGradient>
</defs>
</svg>
