<svg width="740" height="1300" viewBox="0 0 740 1300" fill="none" xmlns="http://www.w3.org/2000/svg">
<g filter="url(#filter0_f_1386_4135)">
<ellipse cx="373.194" cy="1154.89" rx="199.11" ry="36.0886" fill="#2C0C4B" fill-opacity="0.3" style="mix-blend-mode:multiply"/>
</g>
<g opacity="0.3" clip-path="url(#clip0_1386_4135)" filter="url(#filter1_f_1386_4135)">
<path d="M302.084 330.295C302.942 294.99 305.302 261.735 331.406 237.92L377.557 195.797L403.756 203.735C438.871 214.391 466.166 241.925 476.941 276.992C498.992 348.722 513.271 426.961 522.449 509.348L305.588 498.31L302.06 330.247L302.084 330.295Z" fill="#1B8C72"/>
<path d="M333.288 338.248L320.32 509.387H519.922L498.753 412.959L442.923 388.858L431.266 286.352L333.288 338.248Z" fill="#007958"/>
<path d="M376.557 197.779C374.411 201.498 392.219 215.825 416.367 229.77C440.516 243.716 461.828 251.988 463.973 248.245C466.119 244.527 448.311 230.2 424.163 216.254C400.014 202.308 378.702 194.036 376.557 197.779Z" fill="#D9876F"/>
<path d="M325.974 1018.7L305.377 1076.51L351.195 1132.63L364.902 1142.95C373.031 1149.08 375.964 1159.95 372.03 1169.34C367.286 1180.66 354.318 1185.98 343.042 1181.24L211.619 1125.86C200.081 1121 195.171 1107.29 200.94 1096.16L227.21 1045.62L247.139 985.496L325.974 1018.7Z" fill="#F39B7A"/>
<path d="M217.531 1064.26L283.183 1093.58C283.183 1093.58 294.578 1084.86 313.243 1086.15L351.219 1132.66L364.926 1142.98C373.055 1149.1 375.987 1159.97 372.054 1169.37C367.31 1180.69 354.341 1186.01 343.066 1181.26L211.643 1125.88C200.105 1121.02 195.194 1107.31 200.963 1096.18L217.531 1064.26Z" fill="#86563E"/>
<path d="M216.459 1041.28C216.459 1041.28 231.143 917.083 277.176 830.072L299.656 661.246C280.299 594.95 294.864 553.28 305.616 498.332L522.477 509.369C503.167 625.655 419.469 785.327 419.469 785.327L308.476 1071.84L216.483 1041.26L216.459 1041.28Z" fill="#292726"/>
<path d="M511.461 1015.66L514.775 1076.68L578.615 1110.46L595.207 1114.64C605.052 1117.11 611.941 1125.96 611.941 1136.09C611.941 1148.32 602.024 1158.21 589.819 1158.21H447.383C434.891 1158.21 425.07 1147.53 426.119 1135.09L430.839 1078.54L426.047 1015.63H511.485L511.461 1015.66Z" fill="#F39B7A"/>
<path d="M589.796 1158.23H447.359C434.868 1158.23 425.046 1147.55 426.095 1135.11L428.789 1102.74H510.413C510.413 1102.74 515.323 1091.46 522.904 1081L578.591 1110.46L595.183 1114.63C605.029 1117.11 611.918 1125.96 611.918 1136.09C611.918 1148.32 602.001 1158.21 589.796 1158.21V1158.23Z" fill="#86563E"/>
<path d="M519.925 509.387C539.568 685.508 535.873 880.651 534.824 1071.86H418.133C408.288 1002.44 408.288 808.42 408.288 808.42C408.288 808.42 500.615 625.649 519.925 509.363V509.387Z" fill="#040000"/>
<path d="M376.559 197.778L448.647 236.492L480.877 174.035L415.201 140.16L376.559 197.778Z" fill="#F39B7A"/>
<path d="M456.584 79.0824H458.157C507.885 79.0824 517.158 100.8 517.158 133.339V146.26L525.883 156.511C527.361 158.251 527.099 160.897 525.263 162.28C522.88 164.091 519.399 165.855 516.872 166.547C514.727 195.368 499.255 215.845 469.099 215.845H467.526C434.938 215.845 397.583 191.935 397.583 159.419V133.316C397.583 100.8 423.997 79.0586 456.584 79.0586V79.0824Z" fill="#F39B7A"/>
<path d="M494.294 140.159C494.294 140.159 530.648 95.5329 524.236 77.0818C517.823 58.6306 431.908 59.5841 399.702 72.5763C366.042 86.1405 397.199 167.049 397.199 167.049L427.355 180.47C447.785 179.779 466.26 170.005 482.947 151.864L494.318 140.159H494.294Z" fill="#55372B"/>
<path d="M490.459 165.093C482.652 165.093 476.323 157.206 476.323 147.476C476.323 137.747 482.652 129.859 490.459 129.859C498.267 129.859 504.596 137.747 504.596 147.476C504.596 157.206 498.267 165.093 490.459 165.093Z" fill="#F39B7A"/>
<path d="M369.451 200.704L392.694 173.742C408.427 182.229 438.035 204.256 465.33 228.166C467.643 230.192 468.644 233.339 467.976 236.343L463.137 257.941C463.137 257.941 388.594 219.036 369.451 200.704Z" fill="white"/>
<path d="M615.468 331.055L492.416 306.823C491.62 306.667 490.864 307.174 490.708 307.969L455.372 487.414C455.215 488.209 455.723 488.965 456.518 489.122L579.57 513.353L615.473 331.031L615.468 331.055Z" fill="#F6B737"/>
<path d="M609.104 334.332L494.701 311.828L477.8 323.509L601.213 348.707L609.104 334.332Z" fill="white"/>
<path d="M598.536 339.801L475.484 315.57C474.689 315.413 473.933 315.92 473.776 316.715L438.44 496.16C438.284 496.955 438.791 497.711 439.586 497.868L562.639 522.099L598.541 339.777L598.536 339.801Z" fill="#F6B737"/>
<path d="M615.469 331.07L598.519 339.795L562.618 522.114L579.568 513.389L615.469 331.07Z" fill="#E5B14C"/>
<path d="M554.037 441.786L574.086 422.334L568.674 423.669L583.168 425.814C592.751 427.006 594.849 412.989 585.314 411.32L570.82 409.175C568.817 408.841 567.029 409.532 565.408 410.534L540.878 423.883C526.527 432.799 541.26 452.823 554.037 441.762V441.786Z" fill="#F39B7A"/>
<path d="M486.401 486.77L584.283 488.271L594.176 431.821L537.034 427.84L483.23 416.445L486.401 486.77Z" fill="#F39B7A"/>
<path d="M581.64 481.785L589.889 482.906" stroke="#F39B7A" stroke-width="12.4438" stroke-linecap="round" stroke-linejoin="round"/>
<path d="M584.5 466.906L592.748 468.027" stroke="#F39B7A" stroke-width="14.6608" stroke-linecap="round" stroke-linejoin="round"/>
<path d="M587.625 452.488L595.873 453.609" stroke="#F39B7A" stroke-width="14.6608" stroke-linecap="round" stroke-linejoin="round"/>
<path d="M587.981 438.728L596.992 438.633" stroke="#F39B7A" stroke-width="14.6608" stroke-linecap="round" stroke-linejoin="round"/>
<path d="M328.614 444.528L328.805 440.38L335.742 282.139C336.91 255.749 359.223 235.32 385.589 236.464C411.978 237.632 432.408 259.945 431.264 286.311L426.305 399.139L535.248 419.855L514.365 490.465L376.554 490.275C350.307 492.826 327.231 470.894 328.614 444.504V444.528Z" fill="#1B8C72"/>
</g>
<g clip-path="url(#clip1_1386_4135)">
<path d="M341.904 330.295C342.763 294.99 345.123 261.735 371.226 237.92L417.378 195.797L443.577 203.735C478.691 214.391 505.986 241.925 516.761 276.992C538.812 348.722 553.092 426.961 562.27 509.348L345.409 498.31L341.881 330.247L341.904 330.295Z" fill="#1B8C72"/>
<path d="M373.109 338.248L360.141 509.387H559.742L538.573 412.959L482.743 388.858L471.086 286.352L373.109 338.248Z" fill="#007958"/>
<path d="M416.377 197.779C414.231 201.498 432.039 215.825 456.188 229.77C480.336 243.716 501.648 251.988 503.794 248.245C505.939 244.527 488.132 230.2 463.983 216.254C439.834 202.308 418.522 194.036 416.377 197.779Z" fill="#D9876F"/>
<path d="M365.794 1018.7L345.197 1076.51L391.015 1132.63L404.723 1142.95C412.852 1149.08 415.784 1159.95 411.85 1169.34C407.107 1180.66 394.138 1185.98 382.863 1181.24L251.44 1125.86C239.902 1121 234.991 1107.29 240.76 1096.16L267.03 1045.62L286.959 985.496L365.794 1018.7Z" fill="#F39B7A"/>
<path d="M257.353 1064.26L323.005 1093.58C323.005 1093.58 334.4 1084.86 353.066 1086.15L391.041 1132.66L404.748 1142.98C412.877 1149.1 415.809 1159.97 411.876 1169.37C407.132 1180.69 394.164 1186.01 382.888 1181.26L251.465 1125.88C239.927 1121.02 235.016 1107.31 240.785 1096.18L257.353 1064.26Z" fill="#86563E"/>
<path d="M256.279 1041.28C256.279 1041.28 270.964 917.083 316.996 830.072L339.476 661.246C320.119 594.95 334.685 553.28 345.436 498.332L562.297 509.369C542.988 625.655 459.29 785.327 459.29 785.327L348.297 1071.84L256.303 1041.26L256.279 1041.28Z" fill="#292726"/>
<path d="M551.283 1015.66L554.597 1076.68L618.437 1110.46L635.029 1114.64C644.874 1117.11 651.764 1125.96 651.764 1136.09C651.764 1148.32 641.847 1158.21 629.641 1158.21H487.205C474.713 1158.21 464.892 1147.53 465.941 1135.09L470.661 1078.54L465.869 1015.63H551.307L551.283 1015.66Z" fill="#F39B7A"/>
<path d="M629.62 1158.23H487.183C474.692 1158.23 464.87 1147.55 465.919 1135.11L468.613 1102.74H550.237C550.237 1102.74 555.148 1091.46 562.728 1081L618.416 1110.46L635.007 1114.63C644.853 1117.11 651.742 1125.96 651.742 1136.09C651.742 1148.32 641.825 1158.21 629.62 1158.21V1158.23Z" fill="#86563E"/>
<path d="M559.747 509.387C579.39 685.508 575.695 880.651 574.646 1071.86H457.955C448.11 1002.44 448.11 808.42 448.11 808.42C448.11 808.42 540.437 625.649 559.747 509.363V509.387Z" fill="#040000"/>
<path d="M416.377 197.778L488.465 236.492L520.695 174.035L455.02 140.16L416.377 197.778Z" fill="#F39B7A"/>
<path d="M496.404 79.0824H497.978C547.705 79.0824 556.979 100.8 556.979 133.339V146.26L565.704 156.511C567.182 158.251 566.919 160.897 565.084 162.28C562.7 164.091 559.219 165.855 556.693 166.547C554.547 195.368 539.076 215.845 508.92 215.845H507.346C474.759 215.845 437.404 191.935 437.404 159.419V133.316C437.404 100.8 463.817 79.0586 496.404 79.0586V79.0824Z" fill="#F39B7A"/>
<path d="M534.114 140.159C534.114 140.159 570.469 95.5329 564.056 77.0818C557.643 58.6306 471.729 59.5841 439.522 72.5763C405.862 86.1405 437.019 167.049 437.019 167.049L467.175 180.47C487.605 179.779 506.08 170.005 522.767 151.864L534.138 140.159H534.114Z" fill="#55372B"/>
<path d="M530.28 165.093C522.472 165.093 516.143 157.206 516.143 147.476C516.143 137.747 522.472 129.859 530.28 129.859C538.087 129.859 544.416 137.747 544.416 147.476C544.416 157.206 538.087 165.093 530.28 165.093Z" fill="#F39B7A"/>
<path d="M409.273 200.704L432.516 173.742C448.25 182.229 477.857 204.256 505.153 228.166C507.465 230.192 508.466 233.339 507.799 236.343L502.959 257.941C502.959 257.941 428.416 219.036 409.273 200.704Z" fill="white"/>
<path d="M655.29 331.059L532.238 306.827C531.443 306.671 530.687 307.178 530.53 307.973L495.194 487.418C495.038 488.213 495.545 488.969 496.34 489.126L619.393 513.357L655.295 331.035L655.29 331.059Z" fill="#F6B737"/>
<path d="M648.924 334.34L534.522 311.836L517.62 323.517L641.033 348.714L648.924 334.34Z" fill="white"/>
<path d="M638.357 339.805L515.304 315.573C514.509 315.417 513.753 315.924 513.597 316.719L478.261 496.164C478.104 496.959 478.611 497.715 479.407 497.872L602.459 522.103L638.361 339.781L638.357 339.805Z" fill="#F6B737"/>
<path d="M655.289 331.074L638.34 339.799L602.439 522.118L619.388 513.393L655.289 331.074Z" fill="#E5B14C"/>
<path d="M593.858 441.786L613.906 422.334L608.495 423.669L622.989 425.814C632.572 427.006 634.67 412.989 625.134 411.32L610.64 409.175C608.638 408.841 606.85 409.532 605.229 410.534L580.699 423.883C566.348 432.799 581.08 452.823 593.858 441.762V441.786Z" fill="#F39B7A"/>
<path d="M526.223 486.77L624.105 488.271L633.998 431.821L576.857 427.84L523.053 416.445L526.223 486.77Z" fill="#F39B7A"/>
<path d="M621.461 481.785L629.709 482.906" stroke="#F39B7A" stroke-width="12.4438" stroke-linecap="round" stroke-linejoin="round"/>
<path d="M624.32 466.906L632.568 468.027" stroke="#F39B7A" stroke-width="14.6608" stroke-linecap="round" stroke-linejoin="round"/>
<path d="M627.443 452.488L635.691 453.609" stroke="#F39B7A" stroke-width="14.6608" stroke-linecap="round" stroke-linejoin="round"/>
<path d="M627.801 438.728L636.812 438.633" stroke="#F39B7A" stroke-width="14.6608" stroke-linecap="round" stroke-linejoin="round"/>
<path d="M368.436 444.528L368.627 440.38L375.564 282.139C376.732 255.749 399.045 235.32 425.411 236.464C451.8 237.632 472.23 259.945 471.086 286.311L466.127 399.139L575.07 419.855L554.188 490.465L416.376 490.275C390.129 492.826 367.054 470.894 368.436 444.504V444.528Z" fill="#1B8C72"/>
</g>
<defs>
<filter id="filter0_f_1386_4135" x="74.5292" y="1019.25" width="597.328" height="271.285" filterUnits="userSpaceOnUse" color-interpolation-filters="sRGB">
<feFlood flood-opacity="0" result="BackgroundImageFix"/>
<feBlend mode="normal" in="SourceGraphic" in2="BackgroundImageFix" result="shape"/>
<feGaussianBlur stdDeviation="49.7774" result="effect1_foregroundBlur_1386_4135"/>
</filter>
<filter id="filter1_f_1386_4135" x="136.29" y="0.778267" width="541.404" height="1244.44" filterUnits="userSpaceOnUse" color-interpolation-filters="sRGB">
<feFlood flood-opacity="0" result="BackgroundImageFix"/>
<feBlend mode="normal" in="SourceGraphic" in2="BackgroundImageFix" result="shape"/>
<feGaussianBlur stdDeviation="31.1109" result="effect1_foregroundBlur_1386_4135"/>
</filter>
<clipPath id="clip0_1386_4135">
<rect width="416.961" height="1120" fill="white" transform="matrix(-1 0 0 1 615.473 63)"/>
</clipPath>
<clipPath id="clip1_1386_4135">
<rect width="416.961" height="1120" fill="white" transform="matrix(-1 0 0 1 655.295 63)"/>
</clipPath>
</defs>
</svg>
