<svg width="740" height="1300" viewBox="0 0 740 1300" fill="none" xmlns="http://www.w3.org/2000/svg">
<g clip-path="url(#clip0_1200_2724)">
<g filter="url(#filter0_f_1200_2724)">
<ellipse cx="332" cy="1155.54" rx="264" ry="44.4583" fill="#2C0C4B" fill-opacity="0.3" style="mix-blend-mode:multiply"/>
</g>
<g opacity="0.3" clip-path="url(#clip1_1200_2724)" filter="url(#filter1_f_1200_2724)">
<path d="M410.419 1031.42L413.232 1088.41L467.513 1119.96L481.631 1123.84C489.992 1126.16 495.852 1134.4 495.852 1143.89C495.852 1155.31 487.413 1164.56 477.02 1164.56H355.902C345.275 1164.56 336.914 1154.61 337.8 1142.98L341.811 1090.18L337.722 1031.44H410.419V1031.42Z" fill="#F39B7A"/>
<path d="M495.878 1143.89C495.878 1155.31 487.439 1164.57 477.046 1164.57H355.928C345.301 1164.57 336.94 1154.61 337.826 1142.98L339.571 1119.96C383.33 1141.31 426.047 1142.48 467.513 1119.96L481.631 1123.84C490.018 1126.16 495.878 1134.43 495.878 1143.89Z" fill="white"/>
<path d="M460.324 502.797C456.469 676.224 439.799 891.052 417.738 1075.25L329.986 1071.13L307.091 502.823L460.324 502.797Z" fill="#E2E2E2"/>
<path d="M206.419 1030.38L181.883 1080.67L213.374 1138.57L223.584 1149.94C229.653 1156.69 230.747 1167.1 226.267 1175.18C220.876 1184.93 209.285 1188.03 200.403 1182.11L96.8924 1113.1C87.802 1107.05 85.3797 1093.76 91.6309 1084.35L120.022 1041.51L144.298 988.977L206.419 1030.38Z" fill="#FDB397"/>
<path d="M226.267 1175.21C220.876 1184.96 209.285 1188.06 200.403 1182.14L96.8924 1113.1C87.802 1107.05 85.3797 1093.76 91.6309 1084.35L104.003 1065.68C131.326 1108.88 167.245 1134.22 213.348 1138.6L223.558 1149.97C229.653 1156.72 230.747 1167.12 226.267 1175.21Z" fill="white"/>
<path d="M459.257 502.798L387.367 613.131C352.334 786.532 275.835 910.866 202.122 1045.34C162.739 1045.6 126.221 1028.03 131.118 995.025C133.384 973.255 168.209 877.521 182.014 847.748C218.557 768.934 217.151 752.952 217.151 752.952C217.151 752.952 226.971 640.324 235.28 592.483C243.588 544.642 277.475 498.809 277.475 498.809L459.257 502.798Z" fill="white"/>
<path d="M464.336 294.668L552.166 430.187C579.801 476.646 515.961 519.377 483.61 476.099L392.003 343.083C378.355 323.269 383.356 296.154 403.125 282.519C423.234 268.597 451.052 274.124 464.336 294.668Z" fill="#B41844"/>
<path d="M547.712 323.371L596.836 344.411L558 468.119C550.499 490.593 525.415 501.856 503.666 492.548C482.204 483.345 472.931 457.951 483.402 437.094L547.712 323.371Z" fill="#FDB397"/>
<path d="M645.622 335.104L596.81 344.438L567.09 352.807L547.686 323.372L552.817 314.534C557.349 306.713 566.387 302.672 575.269 304.497L629.212 315.759L645.622 335.104Z" fill="#FDB397"/>
<path d="M562.115 305.773L591.496 293.284C599.857 289.947 605.249 301.888 597.279 306.007L568.575 319.955C558.964 324.257 552.556 310.153 562.115 305.773Z" fill="#FDB397"/>
<path d="M595.195 320.322C592.512 320.322 590.064 318.497 589.386 315.785C588.579 312.578 590.533 309.32 593.736 308.511L621.372 301.602L631.739 289.818C633.927 287.341 637.703 287.081 640.178 289.271C642.652 291.461 642.913 295.241 640.725 297.718L629.134 310.91C628.327 311.822 627.259 312.474 626.087 312.761L596.628 320.113C596.159 320.269 595.664 320.322 595.195 320.322Z" fill="#FDB397"/>
<path d="M615.72 337.008C613.037 337.008 610.589 335.183 609.911 332.472C609.104 329.265 611.057 326.006 614.261 325.198L642.236 318.211L651.274 309.894C653.722 307.652 657.499 307.834 659.739 310.259C661.979 312.71 661.823 316.49 659.374 318.732L649.19 328.066C648.461 328.743 647.549 329.213 646.585 329.473L617.126 336.826C616.684 336.956 616.215 337.008 615.72 337.008Z" fill="#FDB397"/>
<path d="M604.259 328.482C601.577 328.482 599.128 326.657 598.451 323.945C597.643 320.739 599.597 317.48 602.801 316.672L633.953 308.902L645.101 296.049C647.263 293.546 651.04 293.286 653.54 295.449C656.041 297.613 656.301 301.394 654.139 303.897L641.767 318.184C640.959 319.122 639.892 319.774 638.693 320.061L605.692 328.299C605.223 328.43 604.728 328.482 604.259 328.482Z" fill="#FDB397"/>
<path d="M616.423 339.221C613.454 339.221 610.901 337.031 610.484 334.007C610.042 330.722 612.36 327.724 615.642 327.281L642.522 323.735L651.3 315.679C653.748 313.437 657.525 313.619 659.765 316.044C662.005 318.495 661.849 322.275 659.4 324.517L649.216 333.851C648.304 334.685 647.184 335.206 645.96 335.363L617.231 339.169C616.97 339.195 616.684 339.221 616.423 339.221Z" fill="#FDB397"/>
<path d="M577.171 325.69C577.171 325.69 596.419 306.345 627.754 325.69L642.548 323.735L651.326 315.679C653.775 313.437 657.551 313.619 659.791 316.044" stroke="#F39B7A" stroke-width="0.7465" stroke-miterlimit="10"/>
<path d="M445.816 321.471L439.435 276.836C382.184 263.801 320.114 261.246 275.131 283.067C243.771 298.293 244.005 305.411 246.714 338.912C249.553 374.109 281.33 432.821 296.464 474.431L276.355 502.823H460.324V393.897C460.324 393.871 480.224 354.529 445.816 321.471Z" fill="#EE456D"/>
<path d="M410.575 271.312L413.753 373.903L300.371 273.371C334.648 265.68 371.479 265.237 410.575 271.312Z" fill="white"/>
<path d="M423.598 500.063L420.082 438.065C420.082 438.065 424.067 395.856 413.779 373.93" fill="#EE456D"/>
<path d="M309.826 301.162C292.478 284.529 265.52 283.173 248.902 300.537C208.295 342.981 140.417 415.303 140.417 415.303C139.844 415.902 136.379 419.526 135.937 420.048C121.897 435.847 123.33 460.041 139.114 474.094L240.645 564.431L280.549 529.495L227.283 450.447L311.18 362.743C327.798 345.353 327.199 317.796 309.826 301.162Z" fill="#EE456D"/>
<path d="M262.915 602.128L172.22 511.348C170.449 509.575 170.449 506.707 172.22 504.934L305.293 371.736C307.065 369.963 309.93 369.963 311.701 371.736L402.396 462.516C404.793 464.915 404.793 468.773 402.396 471.172L271.563 602.128C269.166 604.501 265.312 604.501 262.915 602.128Z" fill="#4D52DD"/>
<path d="M240.619 564.429L272.057 596.288L316.519 554.704L270.625 514.789L240.619 564.429Z" fill="#FDB397"/>
<path d="M139.088 474.093L240.619 564.43L280.523 529.495L227.257 450.446L173.392 380.836C154.378 400.728 140.391 415.328 140.391 415.328C139.818 415.928 136.353 419.552 135.911 420.073C121.897 435.846 123.304 460.041 139.088 474.093Z" fill="#FDB397"/>
<path d="M276.381 513.903L305.71 518.257C307.716 518.44 309.825 519.118 311.18 520.578L322.094 531.658C325.115 534.734 325.063 539.662 322.015 542.66C318.942 545.684 314.019 545.632 311.024 542.582L300.11 531.502L305.554 533.822L276.147 537.524C258.227 538.697 258.487 512.287 276.381 513.903Z" fill="#FDB397"/>
<path d="M280.236 601.947C278.543 601.947 276.876 601.321 275.574 600.017L269.297 593.786C266.692 591.205 266.692 587.034 269.244 584.427C271.823 581.82 275.991 581.82 278.595 584.375L284.873 590.606C287.477 593.187 287.477 597.358 284.925 599.965C283.622 601.295 281.929 601.947 280.236 601.947Z" fill="#FDB397"/>
<path d="M292.192 592.302C290.212 592.302 288.233 591.546 286.722 590.033L280.445 583.802C277.397 580.778 277.371 575.851 280.392 572.8C283.414 569.75 288.337 569.724 291.384 572.748L297.662 578.979C300.709 582.003 300.735 586.931 297.714 589.981C296.177 591.546 294.171 592.302 292.192 592.302Z" fill="#FDB397"/>
<path d="M304.017 582.056C302.037 582.056 300.058 581.299 298.547 579.787L292.27 573.556C289.222 570.532 289.196 565.605 292.218 562.554C295.239 559.504 300.162 559.478 303.209 562.502L309.487 568.733C312.534 571.757 312.56 576.685 309.539 579.735C308.028 581.299 306.023 582.056 304.017 582.056Z" fill="#FDB397"/>
<path d="M314.54 570.088C312.925 570.088 311.31 569.593 309.93 568.576L302.246 562.893C298.782 560.338 298.052 555.462 300.605 551.995C303.157 548.527 308.028 547.797 311.492 550.352L319.176 556.036C322.641 558.591 323.37 563.466 320.817 566.934C319.28 568.993 316.91 570.088 314.54 570.088Z" fill="#FDB397"/>
<path d="M401.302 289.066L406.121 263.256L371.036 244.406L370.098 267.975L401.302 289.066Z" fill="white"/>
<path d="M406.121 263.254L418.676 287.787L401.302 289.065L406.121 263.254Z" fill="#C1D5FF"/>
<path d="M418.493 201.465L419.509 226.024C420.082 239.998 407.892 251.079 394.061 249.149L368.926 245.63L385.518 209.469L418.493 201.465Z" fill="#38251C"/>
<path d="M355.309 241.828C393.855 236.182 420.79 202.107 415.47 165.718C410.15 129.33 374.59 104.408 336.043 110.054C297.497 115.7 270.562 149.776 275.882 186.164C281.202 222.553 316.762 247.474 355.309 241.828Z" fill="#66493A"/>
<path d="M375.438 159.751C377.886 176.463 391.3 188.299 405.444 186.24C419.587 184.18 429.042 168.954 426.62 152.243C423.39 130.212 375.594 108.651 361.45 110.711C347.307 112.797 372.989 143.039 375.438 159.751Z" fill="#66493A"/>
<path d="M373.041 158.11C374.839 170.468 393.306 181.339 403.751 179.801C414.195 178.263 421.228 167 419.405 154.642C417.034 138.348 381.637 122.392 371.192 123.904C360.773 125.443 371.244 145.752 373.041 158.11Z" fill="#38251C"/>
<path d="M392.993 237.003L386.299 274.076L401.485 289.276L393.905 321.474L314.67 274.076L328.632 215.129L392.993 237.003Z" fill="#F39B7A"/>
<path d="M373.718 249.725C402.917 245.449 423.129 218.283 418.858 189.057L416.513 173.049C412.242 143.823 385.101 123.591 355.902 127.867C326.73 132.143 306.518 159.309 310.789 188.535L313.133 204.543C317.405 233.769 344.52 254 373.718 249.725Z" fill="#FDB397"/>
<path d="M373.718 249.725C381.22 248.63 388.148 245.997 394.191 242.217C348.245 218.596 347.463 151.801 365.201 127.32C362.154 127.242 359.028 127.398 355.902 127.842C349.26 128.806 343.113 130.97 337.591 134.073L329.856 139.339C315.816 150.863 307.976 169.243 310.789 188.536L313.133 204.543C317.405 233.769 344.52 254.001 373.718 249.725Z" fill="#F39B7A"/>
<path d="M319.307 245.086L362.31 270.714L360.773 303.016L307.846 271.627L319.307 245.086Z" fill="white"/>
<path d="M362.44 120.882C362.44 120.882 324.438 170.835 329.309 201.964C334.179 233.093 329.543 252.621 304.538 249.779C279.533 246.937 268.177 242.844 268.177 242.844L275.47 171.382C275.47 171.356 325.48 114.182 362.44 120.882Z" fill="#66493A"/>
<path d="M367.129 125.496C374.969 156.26 341.733 190.153 330.246 181.654C328.527 180.376 324.151 120.777 324.151 120.777L367.129 125.496Z" fill="#66493A"/>
<path d="M339.389 198.728C337.331 207.645 328.423 213.224 319.515 211.138C310.607 209.078 305.033 200.162 307.117 191.246C309.174 182.329 318.083 176.75 326.991 178.836C335.899 180.895 341.447 189.812 339.389 198.728Z" fill="#F39B7A"/>
<path d="M364.811 170.444C364.811 170.444 367.832 166.481 373.38 167.55" stroke="#381646" stroke-width="1.0534" stroke-miterlimit="10" stroke-linecap="round" stroke-linejoin="round"/>
<path d="M410.757 166.141C409.325 165.384 407.319 164.811 404.766 165.306" stroke="#381646" stroke-width="1.0534" stroke-miterlimit="10" stroke-linecap="round" stroke-linejoin="round"/>
<path d="M367.363 182.072C367.546 185.513 369.681 188.225 372.156 188.094C374.63 187.964 376.48 185.07 376.297 181.629C376.115 178.187 373.979 175.476 371.505 175.606C369.056 175.71 367.207 178.604 367.363 182.072Z" fill="#262030"/>
<path d="M404.246 180.064C404.428 183.505 406.303 186.216 408.465 186.112C410.627 186.008 412.216 183.114 412.034 179.673C411.851 176.231 409.976 173.52 407.814 173.624C405.652 173.728 404.063 176.596 404.246 180.064Z" fill="#262030"/>
<path d="M403.152 194.82C400.521 197.297 397.864 198.627 395.129 198.783" stroke="#B76D56" stroke-width="1.0322" stroke-miterlimit="10" stroke-linecap="round" stroke-linejoin="round"/>
<path d="M378.928 206.889C378.928 206.889 397.578 207.567 406.121 204.465C404.219 225.4 383.356 225.4 378.928 206.889Z" fill="#262030"/>
<path d="M401.667 216.303C396.536 213.018 388.07 211.193 380.595 211.558C385.336 221.413 395.65 223.264 401.667 216.303Z" fill="#B84B66"/>
</g>
<g clip-path="url(#clip2_1200_2724)">
<path d="M460.309 1022.14L463.122 1079.13L517.403 1110.68L531.521 1114.56C539.882 1116.88 545.742 1125.12 545.742 1134.61C545.742 1146.03 537.303 1155.29 526.91 1155.29H405.793C395.165 1155.29 386.804 1145.33 387.69 1133.7L391.701 1080.91L387.612 1022.17H460.309V1022.14Z" fill="#F39B7A"/>
<path d="M545.768 1134.61C545.768 1146.03 537.329 1155.29 526.937 1155.29H405.819C395.191 1155.29 386.83 1145.33 387.716 1133.7L389.461 1110.68C433.22 1132.03 475.937 1133.21 517.403 1110.68L531.521 1114.56C539.908 1116.88 545.768 1125.15 545.768 1134.61Z" fill="white"/>
<path d="M510.214 493.52C506.36 666.946 489.69 881.774 467.628 1065.97L379.876 1061.85L356.981 493.546L510.214 493.52Z" fill="#E2E2E2"/>
<path d="M256.31 1021.1L231.773 1071.39L263.264 1129.3L273.475 1140.66C279.543 1147.42 280.637 1157.82 276.157 1165.9C270.766 1175.65 259.175 1178.75 250.293 1172.84L146.783 1103.82C137.692 1097.78 135.27 1084.48 141.521 1075.07L169.912 1032.23L194.188 979.699L256.31 1021.1Z" fill="#FDB397"/>
<path d="M276.157 1165.93C270.766 1175.68 259.175 1178.78 250.293 1172.86L146.783 1103.83C137.692 1097.78 135.27 1084.48 141.521 1075.07L153.893 1056.4C181.216 1099.6 217.135 1124.94 263.238 1129.32L273.448 1140.69C279.543 1147.44 280.637 1157.85 276.157 1165.93Z" fill="white"/>
<path d="M509.147 493.52L437.257 603.854C402.224 777.255 325.725 901.589 252.012 1036.07C212.629 1036.33 176.111 1018.75 181.008 985.747C183.274 963.978 218.099 868.244 231.904 838.47C268.448 759.657 267.041 743.675 267.041 743.675C267.041 743.675 276.861 631.047 285.17 583.206C293.479 535.365 327.366 489.531 327.366 489.531L509.147 493.52Z" fill="white"/>
<path d="M514.226 285.391L602.056 420.91C629.692 467.369 565.851 510.1 533.5 466.822L441.894 333.806C428.245 313.991 433.246 286.877 453.016 273.242C473.124 259.32 500.942 264.847 514.226 285.391Z" fill="#B41844"/>
<path d="M597.602 314.094L646.726 335.133L607.89 458.842C600.389 481.315 575.306 492.578 553.556 483.271C532.094 474.068 522.821 448.674 533.292 427.817L597.602 314.094Z" fill="#FDB397"/>
<path d="M695.512 325.827L646.7 335.161L616.981 343.529L597.576 314.095L602.707 305.257C607.239 297.435 616.277 293.394 625.159 295.219L679.102 306.482L695.512 325.827Z" fill="#FDB397"/>
<path d="M612.006 296.495L641.386 284.007C649.748 280.67 655.139 292.611 647.169 296.73L618.465 310.678C608.854 314.98 602.446 300.875 612.006 296.495Z" fill="#FDB397"/>
<path d="M645.085 311.044C642.402 311.044 639.954 309.219 639.277 306.508C638.469 303.301 640.423 300.042 643.626 299.234L671.262 292.325L681.629 280.541C683.817 278.064 687.594 277.803 690.068 279.993C692.542 282.183 692.803 285.964 690.615 288.44L679.024 301.633C678.217 302.545 677.149 303.197 675.977 303.484L646.518 310.836C646.049 310.992 645.554 311.044 645.085 311.044Z" fill="#FDB397"/>
<path d="M665.61 327.731C662.927 327.731 660.479 325.906 659.802 323.194C658.994 319.988 660.948 316.729 664.151 315.92L692.126 308.933L701.164 300.617C703.612 298.374 707.389 298.557 709.629 300.982C711.869 303.432 711.713 307.213 709.265 309.455L699.08 318.788C698.351 319.466 697.439 319.935 696.476 320.196L667.017 327.548C666.574 327.679 666.105 327.731 665.61 327.731Z" fill="#FDB397"/>
<path d="M654.15 319.205C651.467 319.205 649.018 317.38 648.341 314.668C647.534 311.461 649.487 308.202 652.691 307.394L683.843 299.625L694.991 286.772C697.153 284.269 700.93 284.008 703.43 286.172C705.931 288.336 706.191 292.116 704.029 294.619L691.657 308.906C690.85 309.845 689.782 310.497 688.583 310.783L655.582 319.022C655.113 319.152 654.618 319.205 654.15 319.205Z" fill="#FDB397"/>
<path d="M666.313 329.944C663.344 329.944 660.791 327.754 660.375 324.73C659.932 321.445 662.25 318.447 665.532 318.003L692.412 314.458L701.19 306.402C703.638 304.16 707.415 304.342 709.655 306.767C711.895 309.217 711.739 312.998 709.291 315.24L699.106 324.573C698.195 325.408 697.075 325.929 695.85 326.086L667.121 329.892C666.86 329.918 666.574 329.944 666.313 329.944Z" fill="#FDB397"/>
<path d="M627.061 316.413C627.061 316.413 646.309 297.068 677.644 316.413L692.438 314.458L701.216 306.402C703.665 304.16 707.441 304.342 709.681 306.767" stroke="#F39B7A" stroke-width="0.7465" stroke-miterlimit="10"/>
<path d="M495.706 312.193L489.325 267.559C432.074 254.523 370.004 251.968 325.021 273.79C293.661 289.016 293.895 296.133 296.604 329.635C299.443 364.831 331.22 423.544 346.354 465.154L326.245 493.546H510.215V384.619C510.215 384.593 530.114 345.252 495.706 312.193Z" fill="#EE456D"/>
<path d="M460.465 262.034L463.643 364.625L350.261 264.094C384.538 256.403 421.369 255.96 460.465 262.034Z" fill="white"/>
<path d="M473.489 490.786L469.972 428.788C469.972 428.788 473.957 386.578 463.669 364.652" fill="#EE456D"/>
<path d="M359.716 291.885C342.368 275.252 315.41 273.896 298.792 291.259C258.185 333.704 190.307 406.025 190.307 406.025C189.734 406.625 186.27 410.249 185.827 410.77C171.788 426.57 173.22 450.764 189.005 464.816L290.535 555.154L330.439 520.218L277.173 441.17L361.07 353.466C377.688 336.076 377.089 308.519 359.716 291.885Z" fill="#EE456D"/>
<path d="M312.805 592.851L222.11 502.071C220.339 500.298 220.339 497.43 222.11 495.657L355.184 362.459C356.955 360.686 359.82 360.686 361.591 362.459L452.286 453.239C454.683 455.638 454.683 459.496 452.286 461.895L321.453 592.851C319.057 595.224 315.202 595.224 312.805 592.851Z" fill="#4D52DD"/>
<path d="M290.509 555.152L321.948 587.011L366.41 545.427L320.515 505.512L290.509 555.152Z" fill="#FDB397"/>
<path d="M188.978 464.816L290.509 555.153L330.413 520.217L277.147 441.169L223.282 371.559C204.268 391.451 190.281 406.051 190.281 406.051C189.708 406.651 186.244 410.275 185.801 410.796C171.788 426.569 173.194 450.763 188.978 464.816Z" fill="#FDB397"/>
<path d="M326.271 504.626L355.6 508.98C357.606 509.162 359.716 509.84 361.07 511.3L371.984 522.381C375.005 525.457 374.953 530.384 371.906 533.383C368.832 536.407 363.909 536.355 360.914 533.304L350 522.224L355.444 524.545L326.037 528.247C308.117 529.42 308.377 503.01 326.271 504.626Z" fill="#FDB397"/>
<path d="M330.126 592.669C328.433 592.669 326.766 592.044 325.464 590.74L319.187 584.509C316.582 581.928 316.582 577.757 319.135 575.149C321.713 572.542 325.881 572.542 328.485 575.097L334.763 581.328C337.367 583.909 337.367 588.081 334.815 590.688C333.512 592.018 331.819 592.669 330.126 592.669Z" fill="#FDB397"/>
<path d="M342.082 583.024C340.102 583.024 338.123 582.268 336.612 580.756L330.335 574.525C327.287 571.501 327.261 566.573 330.283 563.523C333.304 560.473 338.227 560.446 341.274 563.471L347.552 569.702C350.599 572.726 350.625 577.654 347.604 580.704C346.067 582.268 344.061 583.024 342.082 583.024Z" fill="#FDB397"/>
<path d="M353.907 572.778C351.927 572.778 349.948 572.022 348.437 570.51L342.16 564.279C339.112 561.255 339.086 556.327 342.108 553.277C345.129 550.226 350.052 550.2 353.1 553.225L359.377 559.456C362.424 562.48 362.45 567.407 359.429 570.458C357.918 572.022 355.913 572.778 353.907 572.778Z" fill="#FDB397"/>
<path d="M364.43 560.811C362.815 560.811 361.2 560.316 359.82 559.299L352.136 553.615C348.672 551.06 347.942 546.185 350.495 542.718C353.048 539.25 357.918 538.52 361.383 541.075L369.066 546.759C372.531 549.314 373.26 554.189 370.707 557.656C369.171 559.716 366.8 560.811 364.43 560.811Z" fill="#FDB397"/>
<path d="M451.192 279.789L456.011 253.978L420.926 235.129L419.988 258.697L451.192 279.789Z" fill="white"/>
<path d="M456.011 253.977L468.566 278.51L451.192 279.787L456.011 253.977Z" fill="#C1D5FF"/>
<path d="M468.383 192.188L469.399 216.747C469.972 230.721 457.782 241.801 443.951 239.872L418.816 236.352L435.408 200.191L468.383 192.188Z" fill="#38251C"/>
<path d="M405.199 232.551C443.745 226.905 470.68 192.829 465.36 156.441C460.04 120.053 424.48 95.1309 385.933 100.777C347.387 106.423 320.452 140.499 325.772 176.887C331.092 213.276 366.652 238.197 405.199 232.551Z" fill="#66493A"/>
<path d="M425.328 150.474C427.776 167.186 441.19 179.022 455.334 176.962C469.477 174.903 478.932 159.677 476.51 142.965C473.28 120.935 425.484 99.3739 411.341 101.434C397.197 103.519 422.879 133.762 425.328 150.474Z" fill="#66493A"/>
<path d="M422.931 148.833C424.729 161.19 443.196 172.062 453.641 170.524C464.086 168.986 471.118 157.723 469.295 145.365C466.925 129.07 431.527 113.115 421.082 114.627C410.663 116.165 421.134 136.475 422.931 148.833Z" fill="#38251C"/>
<path d="M442.883 227.725L436.189 264.799L451.375 279.998L443.795 312.197L364.561 264.799L378.522 205.852L442.883 227.725Z" fill="#F39B7A"/>
<path d="M423.609 240.447C452.807 236.172 473.019 209.005 468.748 179.779L466.404 163.771C462.132 134.545 434.991 114.314 405.793 118.59C376.62 122.865 356.408 150.032 360.679 179.258L363.024 195.266C367.295 224.492 394.41 244.723 423.609 240.447Z" fill="#FDB397"/>
<path d="M423.609 240.448C431.11 239.353 438.039 236.72 444.081 232.939C398.135 209.319 397.353 142.524 415.091 118.043C412.044 117.965 408.918 118.121 405.793 118.564C399.151 119.529 393.004 121.693 387.482 124.795L379.746 130.062C365.706 141.585 357.866 159.965 360.679 179.258L363.024 195.266C367.295 224.492 394.41 244.723 423.609 240.448Z" fill="#F39B7A"/>
<path d="M369.197 235.809L412.2 261.437L410.663 293.739L357.736 262.349L369.197 235.809Z" fill="white"/>
<path d="M412.33 111.605C412.33 111.605 374.328 161.557 379.199 192.687C384.069 223.816 379.433 243.343 354.428 240.501C329.423 237.66 318.067 233.566 318.067 233.566L325.36 162.105C325.36 162.079 375.37 104.904 412.33 111.605Z" fill="#66493A"/>
<path d="M417.019 116.219C424.859 146.983 391.623 180.876 380.136 172.377C378.417 171.099 374.042 111.5 374.042 111.5L417.019 116.219Z" fill="#66493A"/>
<path d="M389.279 189.451C387.221 198.367 378.313 203.946 369.405 201.861C360.497 199.801 354.923 190.885 357.007 181.968C359.065 173.052 367.973 167.473 376.881 169.558C385.789 171.618 391.337 180.534 389.279 189.451Z" fill="#F39B7A"/>
<path d="M414.701 161.167C414.701 161.167 417.722 157.204 423.27 158.273" stroke="#381646" stroke-width="1.0534" stroke-miterlimit="10" stroke-linecap="round" stroke-linejoin="round"/>
<path d="M460.647 156.863C459.215 156.107 457.209 155.534 454.656 156.029" stroke="#381646" stroke-width="1.0534" stroke-miterlimit="10" stroke-linecap="round" stroke-linejoin="round"/>
<path d="M417.253 172.794C417.436 176.236 419.572 178.947 422.046 178.817C424.52 178.687 426.37 175.793 426.187 172.351C426.005 168.91 423.869 166.198 421.395 166.329C418.946 166.433 417.097 169.327 417.253 172.794Z" fill="#262030"/>
<path d="M454.136 170.786C454.318 174.228 456.194 176.939 458.355 176.835C460.517 176.731 462.106 173.837 461.924 170.395C461.742 166.954 459.866 164.242 457.704 164.347C455.542 164.451 453.953 167.319 454.136 170.786Z" fill="#262030"/>
<path d="M453.042 185.543C450.411 188.02 447.754 189.349 445.019 189.506" stroke="#B76D56" stroke-width="1.0322" stroke-miterlimit="10" stroke-linecap="round" stroke-linejoin="round"/>
<path d="M428.818 197.612C428.818 197.612 447.468 198.29 456.011 195.188C454.11 216.123 433.246 216.123 428.818 197.612Z" fill="#262030"/>
<path d="M451.557 207.025C446.426 203.74 437.961 201.915 430.485 202.28C435.226 212.135 445.54 213.986 451.557 207.025Z" fill="#B84B66"/>
</g>
</g>
<defs>
<filter id="filter0_f_1200_2724" x="-12" y="1031.08" width="688" height="248.918" filterUnits="userSpaceOnUse" color-interpolation-filters="sRGB">
<feFlood flood-opacity="0" result="BackgroundImageFix"/>
<feBlend mode="normal" in="SourceGraphic" in2="BackgroundImageFix" result="shape"/>
<feGaussianBlur stdDeviation="40" result="effect1_foregroundBlur_1200_2724"/>
</filter>
<filter id="filter1_f_1200_2724" x="38.1667" y="59.2773" width="673.188" height="1175.89" filterUnits="userSpaceOnUse" color-interpolation-filters="sRGB">
<feFlood flood-opacity="0" result="BackgroundImageFix"/>
<feBlend mode="normal" in="SourceGraphic" in2="BackgroundImageFix" result="shape"/>
<feGaussianBlur stdDeviation="25" result="effect1_foregroundBlur_1200_2724"/>
</filter>
<clipPath id="clip0_1200_2724">
<rect width="740" height="1300" fill="white"/>
</clipPath>
<clipPath id="clip1_1200_2724">
<rect width="573.187" height="1075.89" fill="white" transform="translate(88.1667 109.277)"/>
</clipPath>
<clipPath id="clip2_1200_2724">
<rect width="573.187" height="1075.89" fill="white" transform="translate(138.057 100)"/>
</clipPath>
</defs>
</svg>
