<svg width="1906" height="1023" viewBox="0 0 1906 1023" fill="none" xmlns="http://www.w3.org/2000/svg">
<g filter="url(#filter0_f_4338_10528)">
<path d="M738.714 88L53 480C53 480 203 499.906 376.469 558.604C549.939 617.302 715.245 718.365 843.306 817.896C957.263 906.465 1138.71 970 1138.71 970L1853 561.667L1367.29 284L1224.43 365.667L738.714 88Z" stroke="black" stroke-opacity="0.25" stroke-width="10" stroke-linejoin="round"/>
</g>
<mask id="mask0_4338_10528" style="mask-type:alpha" maskUnits="userSpaceOnUse" x="48" y="43" width="1810" height="892">
<path d="M738.714 48L53 440C53 440 203 459.906 376.469 518.604C549.939 577.302 715.245 678.365 843.306 777.896C957.263 866.465 1138.71 930 1138.71 930L1853 521.667L1367.29 244L1224.43 325.667L738.714 48Z" stroke="black" stroke-width="10" stroke-linejoin="round"/>
</mask>
<g mask="url(#mask0_4338_10528)">
<path d="M271.874 493.083L286.67 484.406L287.18 460.417L138.201 424.688L702.997 97.3885L716.997 90.5L675.997 68.5V59.5811L32.0781 416.521L41.2618 451.229L97.8944 474.198H149.425L212.69 491.552L231.568 497.167L271.874 493.083Z" fill="#191F28"/>
<path d="M1367.28 222.052L1222.38 308.312L842.497 90.5L833.997 88.8634L801.497 104.5L1208.61 354.25L1367.28 277.177L1796.87 513.5L1137.69 912.646L991.772 855.99L875.956 786.062L848.915 800.865L982.588 881L1143.81 957.052L1849.94 563.01L1875.45 516.562L1548.4 316.479L1367.28 222.052Z" fill="#191F28"/>
<path d="M392.792 507.885L360.139 525.24L705.037 691.125L778.507 748.292L793.303 751.354L811.16 739.615L666.262 634.469L392.792 507.885Z" fill="#191F28"/>
</g>
<path d="M1524.43 415.5L1453 456.333" stroke="#191F28" stroke-width="4" stroke-linecap="round"/>
<path d="M1324.43 382.834L1374.43 411.417L1517.29 329.75L1467.29 301.167L1324.43 382.834Z" stroke="#191F28" stroke-width="4" stroke-linejoin="round"/>
<path d="M1424.43 325.667L1449.46 339.941M1449.46 339.941L1475.45 354.761M1449.46 339.941L1435.14 348.125M1449.46 339.941L1463.72 331.792M1410.14 333.833L1435.14 348.125M1435.14 348.125L1460.14 362.417M1435.14 348.125L1420.86 356.292M1395.86 342L1420.86 356.292M1420.86 356.292L1445.86 370.583M1420.86 356.292L1406.57 364.458M1381.57 350.167L1406.57 364.458M1406.57 364.458L1431.57 378.75M1406.57 364.458L1392.29 372.625M1367.29 358.333L1392.29 372.625M1392.29 372.625L1417.29 386.917M1392.29 372.625L1378 380.792M1403 395.083L1378 380.792M1378 380.792L1349.43 397.125M1385.14 376.708L1410.14 391M1374.43 354.25L1424.43 382.833M1388.72 346.083L1438.72 374.667M1403 337.917L1453 366.5M1417.29 329.75L1467.29 358.333M1431.57 321.583L1481.57 350.167" stroke="#191F28" stroke-width="2" stroke-linecap="round"/>
<path d="M1124.43 497.166L1253 570.666L1410.14 480.833L1281.57 407.333L1124.43 497.166Z" stroke="#191F28" stroke-width="4" stroke-linejoin="round"/>
<path d="M1124.43 791.167L1253 864.667L1481.57 734L1353 660.5L1124.43 791.167Z" stroke="#191F28" stroke-width="4" stroke-linejoin="round"/>
<path d="M267.289 497.167L338.718 538L410.146 497.167L338.718 456.333L267.289 497.167Z" stroke="#191F28" stroke-width="4" stroke-linejoin="round"/>
<path d="M767.289 766.667L838.718 807.5L910.146 766.667L838.718 725.833L767.289 766.667Z" stroke="#191F28" stroke-width="4" stroke-linejoin="round"/>
<mask id="mask1_4338_10528" style="mask-type:alpha" maskUnits="userSpaceOnUse" x="708" y="217" width="233" height="136">
<path d="M710.141 293L810.141 350.167L938.712 276.667L838.712 219.5L710.141 293Z" stroke="black" stroke-width="4" stroke-linejoin="round"/>
</mask>
<g mask="url(#mask1_4338_10528)">
<path d="M721 284.5H734.5H758.5L846 231.5L919 272.5L804.5 332L776 323.5L764 332L809 365L959 272.5L842.5 202L807 220.5L824.5 235.5L758.5 276.5L739 264L725 269L721 284.5Z" fill="#191F28"/>
</g>
<path d="M810.141 350.167L824.426 358.333L888.712 321.583L874.426 313.417L810.141 350.167Z" stroke="#191F28" stroke-width="4" stroke-linejoin="round"/>
<path d="M874.43 313.417L888.715 321.584L953.001 284.834L938.715 276.667L874.43 313.417Z" stroke="#191F28" stroke-width="4" stroke-linejoin="round"/>
<path d="M1188.71 444.084L1203 452.25L1281.57 407.334L1267.28 399.167L1188.71 444.084Z" stroke="#191F28" stroke-width="4" stroke-linejoin="round"/>
<path d="M1110.14 489L1124.43 497.167L1203 452.25L1188.71 444.083L1110.14 489Z" stroke="#191F28" stroke-width="4" stroke-linejoin="round"/>
<path d="M717.289 223.583L774.432 256.25L838.718 219.5L781.575 186.833L717.289 223.583Z" stroke="#191F28" stroke-width="4" stroke-linejoin="round"/>
<path d="M510.141 178.667L624.426 244L752.998 170.5L638.712 105.167L510.141 178.667Z" stroke="#191F28" stroke-width="4" stroke-linejoin="round"/>
<path d="M653 260.333L710.143 293L774.429 256.25L717.286 223.583L653 260.333Z" stroke="#191F28" stroke-width="4" stroke-linejoin="round"/>
<path d="M1524.43 415.5L1581.57 448.167L1653 407.333L1595.86 374.667L1524.43 415.5Z" stroke="#191F28" stroke-width="4" stroke-linejoin="round"/>
<path d="M1445.86 370.583L1495.86 399.167L1567.29 358.333L1517.29 329.75L1445.86 370.583Z" stroke="#191F28" stroke-width="4" stroke-linejoin="round"/>
<path d="M1381.57 407.333L1431.57 435.917L1495.86 399.167L1445.86 370.583L1381.57 407.333Z" stroke="#191F28" stroke-width="4" stroke-linejoin="round"/>
<path d="M1124.43 497.167L1095.86 513.5L995.858 456.333L824.43 358.333" stroke="#191F28" stroke-width="4" stroke-linecap="round" stroke-linejoin="round"/>
<mask id="mask2_4338_10528" style="mask-type:alpha" maskUnits="userSpaceOnUse" x="865" y="487" width="176" height="102">
<path d="M867.281 529.833L967.281 587L1038.71 546.167L938.71 489L867.281 529.833Z" stroke="black" stroke-width="4" stroke-linejoin="round"/>
</mask>
<g mask="url(#mask2_4338_10528)">
<path d="M967.492 511.845C970.826 510.011 977.792 506.343 978.992 506.343L940.492 482.834L870.992 510.344L855.992 529.351L942.492 587.373L972.492 594.375L1027.49 562.363C1032.66 559.863 1043.09 554.761 1043.49 554.361C1043.89 553.96 1044.99 548.192 1045.49 545.357L1040.49 542.856L1029.99 548.858L1020.99 550.359L964.992 579.87L942.492 563.864L882.992 529.351L888.492 523.849L940.492 496.839L967.492 511.845Z" fill="#191F28"/>
</g>
<mask id="mask3_4338_10528" style="mask-type:alpha" maskUnits="userSpaceOnUse" x="679" y="380" width="176" height="103">
<path d="M681.57 423.666L781.57 480.833L852.999 440L752.999 382.833L681.57 423.666Z" stroke="black" stroke-width="4" stroke-linejoin="round"/>
</mask>
<g mask="url(#mask3_4338_10528)">
<path d="M778 405.805L790 398.803L758 370.292L673.5 411.807L687 435.816L792 494.838C812.333 484.168 853.3 462.526 854.5 461.326C855.7 460.125 864.333 448.154 868.5 442.319L856 435.816L845 442.319H839.5L781 468.328L758 461.326L695 423.312L713 411.807L754.5 392.3L778 405.805Z" fill="#191F28"/>
</g>
<path d="M767 587.135L809.857 611.621L895.571 562.648L852.714 538.162L767 587.135Z" stroke="#191F28" stroke-width="4" stroke-linejoin="round"/>
<path d="M852.711 538.162L952.711 595.297L966.997 587.135L866.997 530L852.711 538.162Z" stroke="#191F28" stroke-width="4" stroke-linejoin="round"/>
<path d="M809.859 611.621L867.002 644.27L952.502 595.5L895.359 562.851L809.859 611.621Z" stroke="#191F28" stroke-width="4" stroke-linejoin="round"/>
<path d="M814.323 584.946V562.321H828.511V565.29H817.761V572.133H827.761V575.071H817.761V581.977H828.636V584.946H814.323ZM840.273 561.258L832.992 588.352H830.023L837.305 561.258H840.273ZM844.317 562.321L850.598 580.727H850.848L857.13 562.321H860.848L852.692 584.946H848.723L840.598 562.321H844.317Z" fill="#4E5968"/>
<path d="M655.039 481.854L717.284 517.583L745.855 501.25L683.61 465.521L669.325 473.687L655.039 481.854Z" stroke="#191F28" stroke-width="4" stroke-linejoin="round"/>
<path d="M752.999 578.833L581.57 480.833L752.999 382.833M852.999 440L924.427 480.833" stroke="#191F28" stroke-width="4" stroke-linecap="round" stroke-linejoin="round"/>
<path d="M698.419 528.66C698.898 528.934 699.509 528.767 699.783 528.288C700.057 527.809 699.891 527.198 699.411 526.924L698.419 528.66ZM620.344 482.875L619.847 482.007L618.329 482.875L619.847 483.743L620.344 482.875ZM684.629 446.125L685.126 445.257C684.818 445.081 684.441 445.081 684.133 445.257L684.629 446.125ZM748.419 483.743C748.898 484.017 749.509 483.851 749.783 483.371C750.057 482.892 749.891 482.281 749.411 482.007L748.419 483.743ZM699.411 526.924L620.84 482.007L619.847 483.743L698.419 528.66L699.411 526.924ZM620.84 483.743L685.126 446.993L684.133 445.257L619.847 482.007L620.84 483.743ZM684.133 446.993L748.419 483.743L749.411 482.007L685.126 445.257L684.133 446.993Z" fill="#191F28"/>
<path d="M681.567 538L717.281 517.583M667.281 529.833L702.996 509.416M652.996 521.666L688.71 501.25M638.71 513.5L674.424 493.083M624.424 505.333L660.138 484.916M655.036 481.854L617.281 460.416M631.567 452.25L668.812 473.687M645.853 444.083L683.608 465.521M724.424 448.166L688.71 468.583M738.71 456.333L702.996 476.75M752.996 464.5L717.281 484.916M767.281 472.666L731.567 493.083M667.281 489L631.567 509.416M681.567 497.166L645.853 517.583M695.853 505.333L660.138 525.75M710.138 513.5L674.424 533.916M695.853 472.666L731.567 452.25M710.138 480.833L745.853 460.416M724.424 489L760.138 468.583M624.424 456.333L662.179 477.771M638.71 448.166L676.465 469.604" stroke="#191F28" stroke-width="2" stroke-linecap="round"/>
<path d="M611.746 9.83594V13.2734H582.918V9.83594H595.223V6.08594H599.52V9.83594H611.746ZM581.316 32.2578V28.7422H613.582V32.2578H605.77V41.5156H601.395V32.2578H593.465V41.5156H589.129V32.2578H581.316ZM585.418 20.8516C585.418 17.0039 589.91 14.8945 597.371 14.875C604.832 14.8945 609.324 17.0039 609.324 20.8516C609.324 24.6797 604.832 26.8281 597.371 26.8281C589.91 26.8281 585.418 24.6797 585.418 20.8516ZM589.949 20.8516C589.93 22.6094 592.488 23.5273 597.371 23.5078C602.234 23.5273 604.812 22.6094 604.832 20.8516C604.812 19.0547 602.234 18.1758 597.371 18.1562C592.488 18.1758 589.93 19.0547 589.949 20.8516ZM645.355 6.16406V41.4766H641.215V6.16406H645.355ZM614.613 30.9297C621.918 26.6133 625.277 21.0859 625.941 13.9766H616.41V10.4609H630.238C630.238 13.8789 629.809 17.082 628.852 20.0703H633.754V7.02344H637.855V39.7969H633.754V23.5469H627.426C625.375 27.5898 622.055 31.125 617.074 34.0156L614.613 30.9297ZM677.793 6.16406V24.1719H673.496V6.16406H677.793ZM648.418 20.7344C654.141 18.918 657.148 14.3867 657.129 9.75781V7.02344H661.621V9.75781C661.602 14.25 664.59 18.4492 670.176 20.1484L668.066 23.5078C663.965 22.2383 661.035 19.6211 659.434 16.2617C657.832 19.9141 654.824 22.7852 650.605 24.1328L648.418 20.7344ZM654.434 29.1719V25.8125H677.871V34.9922H658.77V37.7266H678.926V41.1641H654.512V31.75H673.535V29.1719H654.434Z" fill="#191F28"/>
<path d="M672.973 308.297C672.973 312.652 675.766 316.93 681.332 318.766L679.145 322.125C675.18 320.797 672.387 318.16 670.844 314.859C669.281 318.473 666.352 321.344 662.23 322.75L659.926 319.391C665.609 317.496 668.598 312.926 668.598 308.297V307.867H661.137V304.391H680.316V307.867H672.973V308.297ZM664.652 328.57V325.094H688.168V337.477H683.832V328.57H664.652ZM683.832 323.453V302.164H688.168V310.992H693.09V314.625H688.168V323.453H683.832ZM721.543 302.164V315.953H726.777V319.586H721.543V337.398H717.207V302.164H721.543ZM693.691 327.75C702.285 323.453 706.934 317.477 707.793 309.43H695.605V305.836H712.207C712.188 316.207 707.891 325.328 696.152 331.109L693.691 327.75ZM756.793 302.164V320.172H752.496V302.164H756.793ZM727.418 316.734C733.141 314.918 736.148 310.387 736.129 305.758V303.023H740.621V305.758C740.602 310.25 743.59 314.449 749.176 316.148L747.066 319.508C742.965 318.238 740.035 315.621 738.434 312.262C736.832 315.914 733.824 318.785 729.605 320.133L727.418 316.734ZM733.434 325.172V321.812H756.871V330.992H737.77V333.727H757.926V337.164H733.512V327.75H752.535V325.172H733.434Z" fill="#191F28"/>
<path d="M1045.16 327.102C1052.79 327.082 1057.64 329.66 1057.66 333.977C1057.64 337.902 1053.55 340.363 1046.99 340.754V343.938H1061.13V346.906H1029.22V343.938H1043.32V340.754C1036.74 340.363 1032.64 337.902 1032.66 333.977C1032.64 329.66 1037.5 327.082 1045.16 327.102ZM1032.77 352.922V349.953H1057.23V361.32H1053.48V352.922H1032.77ZM1036.48 333.977C1036.46 336.418 1039.77 337.863 1045.16 337.883C1050.51 337.863 1053.85 336.418 1053.83 333.977C1053.85 331.477 1050.51 330.051 1045.16 330.07C1039.77 330.051 1036.46 331.477 1036.48 333.977ZM1074.2 328.547C1079.72 328.547 1083.71 331.945 1083.73 336.867C1083.71 341.223 1080.58 344.387 1076.03 345.051V350.578C1079.33 350.422 1082.69 350.129 1085.84 349.68L1086.11 352.375C1078.2 353.84 1069.7 353.879 1063.45 353.898L1062.98 350.852C1065.74 350.852 1068.94 350.832 1072.32 350.734V345.051C1067.79 344.367 1064.64 341.203 1064.66 336.867C1064.64 331.945 1068.69 328.547 1074.2 328.547ZM1068.34 336.867C1068.3 339.934 1070.8 342.023 1074.2 341.984C1077.59 342.023 1080.09 339.934 1080.09 336.867C1080.09 333.742 1077.59 331.75 1074.2 331.75C1070.8 331.75 1068.3 333.742 1068.34 336.867ZM1088.02 361.398V326.32H1091.73V361.398H1088.02ZM1026.77 378.461V381.43H1017.24V387.875H1025.21V390.766H1017.24V398.109C1021.81 398.051 1024.8 397.875 1028.41 397.211L1028.72 400.219C1024.7 401.039 1021.38 401.098 1015.95 401.117H1013.68V378.461H1026.77ZM1027.04 390.453V387.445H1031.77V375.062H1035.29V407.562H1031.77V390.453H1027.04ZM1038.92 409.32V374.32H1042.51V409.32H1038.92ZM1073.27 374.32V387.992H1078.89V391.117H1073.27V409.398H1069.6V374.32H1073.27ZM1047.37 380.492V377.484H1063.39V390.336H1051.12V397.914C1057.12 397.895 1061.59 397.68 1066.71 396.742L1067.06 399.75C1061.59 400.766 1056.86 401 1050.3 401.039H1047.45V387.328H1059.71V380.492H1047.37ZM1097.35 379.281C1097.35 384.984 1103.42 390.375 1110.16 391.586L1108.44 394.672C1102.84 393.461 1097.7 389.789 1095.43 384.867C1093.13 389.77 1087.99 393.422 1082.39 394.672L1080.75 391.586C1087.39 390.336 1093.42 384.984 1093.44 379.281V376.625H1097.35V379.281ZM1079.57 404.711V401.625H1111.61V404.711H1079.57Z" fill="#191F28"/>
<path d="M1033.25 572.297C1038.6 572.316 1042.58 575.617 1042.62 580.266C1042.58 584.934 1038.6 588.215 1033.25 588.234C1027.86 588.215 1023.87 584.934 1023.87 580.266C1023.87 575.617 1027.86 572.316 1033.25 572.297ZM1028.09 580.266C1028.09 583 1030.28 584.719 1033.25 584.719C1036.21 584.719 1038.38 583 1038.4 580.266C1038.38 577.59 1036.21 575.871 1033.25 575.891C1030.28 575.871 1028.09 577.59 1028.09 580.266ZM1029.22 593.938V590.539H1052.66V599.758H1033.56V602.609H1053.71V606.047H1029.3V596.555H1048.32V593.938H1029.22ZM1048.29 589.016V571.164H1052.66V589.016H1048.29ZM1084.67 571.203V581.398H1089.59V584.992H1084.67V597.18H1080.33V571.203H1084.67ZM1058.03 591.438V573.703H1062.32V579.094H1070.57V573.703H1074.86V591.438H1058.03ZM1062.05 605.773V594.562H1066.39V602.258H1086.07V605.773H1062.05ZM1062.32 588H1070.57V582.453H1062.32V588ZM1103.04 581.203C1103.02 586.652 1106.3 592.863 1111.87 595.461L1109.45 598.898C1105.46 597.023 1102.52 593.234 1100.93 588.82C1099.33 593.664 1096.25 597.805 1092.18 599.758L1089.64 596.359C1095.27 593.684 1098.69 587.082 1098.71 581.203V578.234H1091.01V574.641H1110.43V578.234H1103.04V581.203ZM1113.71 606.477V571.164H1118.04V584.914H1123.47V588.547H1118.04V606.477H1113.71ZM1156.22 598.781V602.375H1123.96V598.781H1132.51V592.961H1127.79V581.438H1148.1V577.102H1127.71V573.586H1152.39V584.914H1132.12V589.445H1153.21V592.961H1148.06V598.781H1156.22ZM1136.73 598.781H1143.8V592.961H1136.73V598.781ZM1186.86 571.164V589.172H1182.57V571.164H1186.86ZM1157.49 585.734C1163.21 583.918 1166.22 579.387 1166.2 574.758V572.023H1170.69V574.758C1170.67 579.25 1173.66 583.449 1179.25 585.148L1177.14 588.508C1173.04 587.238 1170.11 584.621 1168.5 581.262C1166.9 584.914 1163.89 587.785 1159.68 589.133L1157.49 585.734ZM1163.5 594.172V590.812H1186.94V599.992H1167.84V602.727H1188V606.164H1163.58V596.75H1182.61V594.172H1163.5Z" fill="#191F28"/>
<path d="M1416.61 416V393.375H1430.8V396.344H1420.05V403.188H1430.05V406.125H1420.05V413.031H1430.92V416H1416.61ZM1442.56 392.312L1435.28 419.406H1432.31L1439.59 392.312H1442.56ZM1446.61 393.375L1452.89 411.781H1453.14L1459.42 393.375H1463.14L1454.98 416H1451.01L1442.89 393.375H1446.61Z" fill="#4E5968"/>
<path d="M1309.9 577.164V591.227H1315.33V594.82H1309.9V612.477H1305.61V577.164H1309.9ZM1282.05 586.07V582.594H1290.41V577.672H1294.75V582.594H1302.87V586.07H1282.05ZM1283.69 596.695C1283.65 591.812 1287.44 588.355 1292.6 588.375C1297.68 588.355 1301.45 591.812 1301.46 596.695C1301.45 601.559 1297.68 604.977 1292.6 604.977C1287.44 604.977 1283.65 601.559 1283.69 596.695ZM1287.83 596.695C1287.81 599.566 1289.82 601.402 1292.6 601.383C1295.31 601.402 1297.29 599.566 1297.32 596.695C1297.29 593.824 1295.31 591.93 1292.6 591.93C1289.82 591.93 1287.81 593.824 1287.83 596.695ZM1348.08 604.625V608.18H1315.82V604.625H1329.72V596.93H1319.37V579.898H1344.37V596.93H1334.02V604.625H1348.08ZM1323.63 593.531H1340.07V583.375H1323.63V593.531ZM1378.84 577.164V612.477H1374.54V577.164H1378.84ZM1351.42 603.609V580.602H1355.71V599.898C1360.66 599.82 1365.93 599.391 1371.38 598.297L1371.93 601.93C1365.71 603.219 1359.95 603.629 1354.46 603.609H1351.42ZM1401.2 582.008C1401.2 587.457 1406.53 592.945 1413.93 594.234L1411.98 597.867C1406.06 596.637 1401.22 593.043 1398.91 588.297C1396.59 593.004 1391.75 596.617 1385.85 597.867L1383.93 594.234C1391.22 592.906 1396.57 587.438 1396.59 582.008V579.391H1401.2V582.008ZM1382.96 607.984V604.391H1415.22V607.984H1382.96ZM1446.72 577.164V597.086H1442.58V577.164H1446.72ZM1418.01 595.992V579.156H1431.45V582.633H1422.19V585.719H1430.12V589.117H1422.19V592.516C1426.41 592.496 1429.34 592.301 1432.78 591.695L1433.25 595.133C1429.16 595.895 1425.8 595.992 1420.36 595.992H1418.01ZM1422.89 612.047V598.531H1427.19V601.773H1442.43V598.531H1446.72V612.047H1422.89ZM1427.19 608.531H1442.43V605.172H1427.19V608.531ZM1431.64 588.844V585.328H1435.71V577.789H1439.81V596.773H1435.71V588.844H1431.64Z" fill="#191F28"/>
<path d="M645.787 774.781V777.312H620.162V774.781H631.412V768.812H622.412V766.469H626.6V757.656H622.35V755.25H643.444V757.656H639.162V766.469H643.35V768.812H634.35V774.781H645.787ZM629.537 766.469H636.256V757.656H629.537V766.469ZM670.987 752.688V771.594H668.175V752.688H670.987ZM647.144 768.688C651.034 767.062 653.55 764.953 655.003 762.438L647.644 763.219L647.206 760.781L655.972 760.281C656.284 759.344 656.472 758.375 656.566 757.344H648.487V754.938H659.456C659.456 757 659.206 758.938 658.644 760.719H662.55V753.156H665.362V769.094H662.55V763.125H657.644C655.972 766.297 653.081 768.906 648.581 770.844L647.144 768.688ZM650.487 778.219C655.784 777.438 660.003 774.312 659.987 770.781V769.969H662.925V770.781C662.925 774.312 667.144 777.438 672.425 778.219L671.269 780.531C666.925 779.812 663.222 777.672 661.472 774.688C659.706 777.672 656.003 779.812 651.675 780.531L650.487 778.219ZM697 771.031V780.312H678.312V771.031H681.844V767.438C679.125 767.547 676.547 767.562 674.281 767.562L673.906 765.094C679.188 765.109 686.156 765.109 692.25 764.344L692.438 766.438C689.953 766.859 687.375 767.125 684.844 767.281V771.031H697ZM675.062 761.25C679.297 760.281 681.828 757.688 681.844 754.75V753.406H684.875V754.75C684.875 757.547 687.453 759.922 691.562 760.844L690.281 763.062C687.031 762.328 684.625 760.656 683.406 758.391C682.188 760.828 679.766 762.688 676.438 763.531L675.062 761.25ZM681.219 777.906H694.062V773.406H681.219V777.906ZM694.031 769.594V752.688H697V769.594H694.031ZM724.075 752.656V780.719H721.137V765.438H715.575V763H721.137V752.656H724.075ZM702.012 774.094V755.156H715.106V757.562H705.012V763H713.919V765.375H705.012V771.625C709.7 771.625 712.95 771.484 716.669 770.844L716.981 773.25C712.903 773.906 709.387 774.078 704.2 774.094H702.012ZM728.056 773.594V770.812L738.056 755.375H742.306V770.688H745.4V773.594H742.306V778H739.056V773.594H728.056ZM731.681 770.688H739.056V759.469H738.806L731.681 770.5V770.688Z" fill="#4E5968"/>
<path d="M190.959 543.781V546.312H165.334V543.781H176.584V537.812H167.584V535.469H171.772V526.656H167.522V524.25H188.616V526.656H184.334V535.469H188.522V537.812H179.522V543.781H190.959ZM174.709 535.469H181.428V526.656H174.709V535.469ZM216.159 521.688V540.594H213.347V521.688H216.159ZM192.316 537.688C196.206 536.062 198.722 533.953 200.175 531.438L192.816 532.219L192.378 529.781L201.144 529.281C201.456 528.344 201.644 527.375 201.737 526.344H193.659V523.938H204.628C204.628 526 204.378 527.938 203.816 529.719H207.722V522.156H210.534V538.094H207.722V532.125H202.816C201.144 535.297 198.253 537.906 193.753 539.844L192.316 537.688ZM195.659 547.219C200.956 546.438 205.175 543.312 205.159 539.781V538.969H208.097V539.781C208.097 543.312 212.316 546.438 217.597 547.219L216.441 549.531C212.097 548.812 208.394 546.672 206.644 543.688C204.878 546.672 201.175 548.812 196.847 549.531L195.659 547.219ZM242.172 540.031V549.312H223.484V540.031H227.016V536.438C224.297 536.547 221.719 536.562 219.453 536.562L219.078 534.094C224.359 534.109 231.328 534.109 237.422 533.344L237.609 535.438C235.125 535.859 232.547 536.125 230.016 536.281V540.031H242.172ZM220.234 530.25C224.469 529.281 227 526.688 227.016 523.75V522.406H230.047V523.75C230.047 526.547 232.625 528.922 236.734 529.844L235.453 532.062C232.203 531.328 229.797 529.656 228.578 527.391C227.359 529.828 224.938 531.688 221.609 532.531L220.234 530.25ZM226.391 546.906H239.234V542.406H226.391V546.906ZM239.203 538.594V521.688H242.172V538.594H239.203ZM269.247 521.656V549.719H266.309V534.438H260.747V532H266.309V521.656H269.247ZM247.184 543.094V524.156H260.278V526.562H250.184V532H259.091V534.375H250.184V540.625C254.872 540.625 258.122 540.484 261.841 539.844L262.153 542.25C258.075 542.906 254.559 543.078 249.372 543.094H247.184ZM281.759 547.312C277.072 547.312 273.744 544.797 273.603 541.094H277.103C277.228 543.078 279.197 544.344 281.728 544.344C284.463 544.344 286.447 542.859 286.447 540.656C286.447 538.422 284.588 536.828 281.353 536.812H279.416V534H281.353C283.931 534.016 285.728 532.578 285.728 530.406C285.728 528.344 284.181 526.938 281.791 526.938C279.525 526.938 277.494 528.203 277.416 530.25H274.103C274.197 526.562 277.603 524.062 281.822 524.062C286.275 524.062 289.072 526.875 289.041 530.219C289.072 532.797 287.478 534.641 285.041 535.25V535.406C288.134 535.844 289.931 537.922 289.916 540.781C289.931 544.547 286.447 547.312 281.759 547.312Z" fill="#4E5968"/>
<path d="M739.219 408.656V420.375H743.438V422.875H739.219V436.656H736.25V408.656H739.219ZM716.938 429.031C719.141 429.031 721.703 429.031 724.375 428.953V426.109C721.219 425.641 719.156 423.734 719.188 421.031C719.156 417.875 721.891 415.797 725.875 415.781C729.844 415.797 732.609 417.875 732.625 421.031C732.609 423.734 730.516 425.656 727.344 426.109V428.844C729.828 428.719 732.328 428.516 734.656 428.188L734.844 430.375C728.781 431.453 722.234 431.516 717.406 431.5L716.938 429.031ZM717.469 414.344V411.969H724.375V408.719H727.344V411.969H734.25V414.344H717.469ZM721.969 421.031C721.969 422.812 723.531 423.922 725.875 423.906C728.219 423.922 729.766 422.812 729.781 421.031C729.766 419.234 728.219 418.094 725.875 418.094C723.531 418.094 721.969 419.234 721.969 421.031ZM753.919 413.812C753.903 417.375 756.388 420.625 760.638 421.969L759.231 424.281C756.044 423.266 753.716 421.156 752.481 418.5C751.263 421.562 748.809 423.984 745.45 425.156L743.919 422.781C748.294 421.344 750.934 417.734 750.95 413.844V413.062H744.794V410.656H759.95V413.062H753.919V413.812ZM747.7 431.344C747.7 428.062 751.278 426.141 757.106 426.156C762.872 426.141 766.388 428.062 766.388 431.344C766.388 434.672 762.872 436.609 757.106 436.594C751.278 436.609 747.7 434.672 747.7 431.344ZM750.669 431.344C750.653 433.219 753.059 434.266 757.106 434.25C761.122 434.266 763.497 433.219 763.481 431.344C763.497 429.516 761.122 428.484 757.106 428.5C753.059 428.484 750.653 429.516 750.669 431.344ZM763.169 425.469V408.656H766.138V415.594H770.2V418.031H766.138V425.469H763.169ZM794.181 408.656V423.062H791.244V408.656H794.181ZM771.088 420.562C775.463 419.109 778.134 415.438 778.15 411.562V409.406H781.181V411.562C781.166 415.312 783.853 418.719 788.15 420.062L786.681 422.375C783.416 421.312 780.963 419.109 779.697 416.266C778.431 419.328 775.931 421.766 772.588 422.906L771.088 420.562ZM775.806 426.75V424.406H794.213V431.406H778.775V434H795.15V436.375H775.9V429.156H791.275V426.75H775.806ZM799.537 425.375C799.569 419.484 801.241 414.594 804.162 410.406H807.225C805.069 413.5 803.006 419.797 803.006 425.375C803.006 430.969 805.069 437.266 807.225 440.375H804.162C801.241 436.172 799.569 431.281 799.537 425.375ZM830.488 408.688V414.906H834.581V417.375H830.488V424.469H827.519V408.688H830.488ZM809.769 422.562V410.062H812.738V420.094C816.534 420.062 820.488 419.734 824.8 418.875L825.175 421.312C820.456 422.266 816.175 422.547 812.05 422.562H809.769ZM812.55 436.281V425.938H830.488V436.281H812.55ZM815.456 433.906H827.613V428.25H815.456V433.906ZM843.031 425.375C843 431.281 841.328 436.172 838.406 440.375H835.344C837.5 437.266 839.562 430.969 839.562 425.375C839.562 419.797 837.5 413.5 835.344 410.406H838.406C841.328 414.594 843 419.484 843.031 425.375Z" fill="#4E5968"/>
<path d="M1572.22 305.656V317.375H1576.44V319.875H1572.22V333.656H1569.25V305.656H1572.22ZM1549.94 326.031C1552.14 326.031 1554.7 326.031 1557.38 325.953V323.109C1554.22 322.641 1552.16 320.734 1552.19 318.031C1552.16 314.875 1554.89 312.797 1558.88 312.781C1562.84 312.797 1565.61 314.875 1565.62 318.031C1565.61 320.734 1563.52 322.656 1560.34 323.109V325.844C1562.83 325.719 1565.33 325.516 1567.66 325.188L1567.84 327.375C1561.78 328.453 1555.23 328.516 1550.41 328.5L1549.94 326.031ZM1550.47 311.344V308.969H1557.38V305.719H1560.34V308.969H1567.25V311.344H1550.47ZM1554.97 318.031C1554.97 319.812 1556.53 320.922 1558.88 320.906C1561.22 320.922 1562.77 319.812 1562.78 318.031C1562.77 316.234 1561.22 315.094 1558.88 315.094C1556.53 315.094 1554.97 316.234 1554.97 318.031ZM1586.92 310.812C1586.9 314.375 1589.39 317.625 1593.64 318.969L1592.23 321.281C1589.04 320.266 1586.72 318.156 1585.48 315.5C1584.26 318.562 1581.81 320.984 1578.45 322.156L1576.92 319.781C1581.29 318.344 1583.93 314.734 1583.95 310.844V310.062H1577.79V307.656H1592.95V310.062H1586.92V310.812ZM1580.7 328.344C1580.7 325.062 1584.28 323.141 1590.11 323.156C1595.87 323.141 1599.39 325.062 1599.39 328.344C1599.39 331.672 1595.87 333.609 1590.11 333.594C1584.28 333.609 1580.7 331.672 1580.7 328.344ZM1583.67 328.344C1583.65 330.219 1586.06 331.266 1590.11 331.25C1594.12 331.266 1596.5 330.219 1596.48 328.344C1596.5 326.516 1594.12 325.484 1590.11 325.5C1586.06 325.484 1583.65 326.516 1583.67 328.344ZM1596.17 322.469V305.656H1599.14V312.594H1603.2V315.031H1599.14V322.469H1596.17ZM1627.18 305.656V320.062H1624.24V305.656H1627.18ZM1604.09 317.562C1608.46 316.109 1611.13 312.438 1611.15 308.562V306.406H1614.18V308.562C1614.17 312.312 1616.85 315.719 1621.15 317.062L1619.68 319.375C1616.42 318.312 1613.96 316.109 1612.7 313.266C1611.43 316.328 1608.93 318.766 1605.59 319.906L1604.09 317.562ZM1608.81 323.75V321.406H1627.21V328.406H1611.78V331H1628.15V333.375H1608.9V326.156H1624.28V323.75H1608.81ZM1632.54 322.375C1632.57 316.484 1634.24 311.594 1637.16 307.406H1640.22C1638.07 310.5 1636.01 316.797 1636.01 322.375C1636.01 327.969 1638.07 334.266 1640.22 337.375H1637.16C1634.24 333.172 1632.57 328.281 1632.54 322.375ZM1663.49 305.688V311.906H1667.58V314.375H1663.49V321.469H1660.52V305.688H1663.49ZM1642.77 319.562V307.062H1645.74V317.094C1649.53 317.062 1653.49 316.734 1657.8 315.875L1658.18 318.312C1653.46 319.266 1649.18 319.547 1645.05 319.562H1642.77ZM1645.55 333.281V322.938H1663.49V333.281H1645.55ZM1648.46 330.906H1660.61V325.25H1648.46V330.906ZM1676.03 322.375C1676 328.281 1674.33 333.172 1671.41 337.375H1668.34C1670.5 334.266 1672.56 327.969 1672.56 322.375C1672.56 316.797 1670.5 310.5 1668.34 307.406H1671.41C1674.33 311.594 1676 316.484 1676.03 322.375Z" fill="#4E5968"/>
<path d="M924.219 516.656V528.375H928.438V530.875H924.219V544.656H921.25V516.656H924.219ZM901.938 537.031C904.141 537.031 906.703 537.031 909.375 536.953V534.109C906.219 533.641 904.156 531.734 904.188 529.031C904.156 525.875 906.891 523.797 910.875 523.781C914.844 523.797 917.609 525.875 917.625 529.031C917.609 531.734 915.516 533.656 912.344 534.109V536.844C914.828 536.719 917.328 536.516 919.656 536.188L919.844 538.375C913.781 539.453 907.234 539.516 902.406 539.5L901.938 537.031ZM902.469 522.344V519.969H909.375V516.719H912.344V519.969H919.25V522.344H902.469ZM906.969 529.031C906.969 530.812 908.531 531.922 910.875 531.906C913.219 531.922 914.766 530.812 914.781 529.031C914.766 527.234 913.219 526.094 910.875 526.094C908.531 526.094 906.969 527.234 906.969 529.031ZM938.919 521.812C938.903 525.375 941.388 528.625 945.638 529.969L944.231 532.281C941.044 531.266 938.716 529.156 937.481 526.5C936.263 529.562 933.809 531.984 930.45 533.156L928.919 530.781C933.294 529.344 935.934 525.734 935.95 521.844V521.062H929.794V518.656H944.95V521.062H938.919V521.812ZM932.7 539.344C932.7 536.062 936.278 534.141 942.106 534.156C947.872 534.141 951.388 536.062 951.388 539.344C951.388 542.672 947.872 544.609 942.106 544.594C936.278 544.609 932.7 542.672 932.7 539.344ZM935.669 539.344C935.653 541.219 938.059 542.266 942.106 542.25C946.122 542.266 948.497 541.219 948.481 539.344C948.497 537.516 946.122 536.484 942.106 536.5C938.059 536.484 935.653 537.516 935.669 539.344ZM948.169 533.469V516.656H951.138V523.594H955.2V526.031H951.138V533.469H948.169ZM979.181 516.656V531.062H976.244V516.656H979.181ZM956.088 528.562C960.463 527.109 963.134 523.438 963.15 519.562V517.406H966.181V519.562C966.166 523.312 968.853 526.719 973.15 528.062L971.681 530.375C968.416 529.312 965.963 527.109 964.697 524.266C963.431 527.328 960.931 529.766 957.588 530.906L956.088 528.562ZM960.806 534.75V532.406H979.213V539.406H963.775V542H980.15V544.375H960.9V537.156H976.275V534.75H960.806ZM984.537 533.375C984.569 527.484 986.241 522.594 989.162 518.406H992.225C990.069 521.5 988.006 527.797 988.006 533.375C988.006 538.969 990.069 545.266 992.225 548.375H989.162C986.241 544.172 984.569 539.281 984.537 533.375ZM1001.08 518.75C1003.64 518.766 1005.74 520.219 1006.97 522.75H1013.89V516.656H1016.83V544.719H1013.89V533.969H1007.18C1005.97 536.781 1003.78 538.422 1001.08 538.406C996.909 538.422 993.956 534.609 993.988 528.562C993.956 522.578 996.909 518.766 1001.08 518.75ZM996.8 528.562C996.816 533.016 998.55 535.75 1001.08 535.75C1003.61 535.75 1005.35 533.016 1005.36 528.562C1005.35 524.172 1003.61 521.422 1001.08 521.406C998.55 521.422 996.816 524.172 996.8 528.562ZM1007.82 525.188C1008.03 526.219 1008.18 527.344 1008.18 528.562C1008.18 529.625 1008.08 530.609 1007.89 531.531H1013.89V525.188H1007.82ZM1028.03 533.375C1028 539.281 1026.33 544.172 1023.41 548.375H1020.34C1022.5 545.266 1024.56 538.969 1024.56 533.375C1024.56 527.797 1022.5 521.5 1020.34 518.406H1023.41C1026.33 522.594 1028 527.484 1028.03 533.375Z" fill="#4E5968"/>
<path d="M1663.22 358.656V370.375H1667.44V372.875H1663.22V386.656H1660.25V358.656H1663.22ZM1640.94 379.031C1643.14 379.031 1645.7 379.031 1648.38 378.953V376.109C1645.22 375.641 1643.16 373.734 1643.19 371.031C1643.16 367.875 1645.89 365.797 1649.88 365.781C1653.84 365.797 1656.61 367.875 1656.62 371.031C1656.61 373.734 1654.52 375.656 1651.34 376.109V378.844C1653.83 378.719 1656.33 378.516 1658.66 378.188L1658.84 380.375C1652.78 381.453 1646.23 381.516 1641.41 381.5L1640.94 379.031ZM1641.47 364.344V361.969H1648.38V358.719H1651.34V361.969H1658.25V364.344H1641.47ZM1645.97 371.031C1645.97 372.812 1647.53 373.922 1649.88 373.906C1652.22 373.922 1653.77 372.812 1653.78 371.031C1653.77 369.234 1652.22 368.094 1649.88 368.094C1647.53 368.094 1645.97 369.234 1645.97 371.031ZM1677.92 363.812C1677.9 367.375 1680.39 370.625 1684.64 371.969L1683.23 374.281C1680.04 373.266 1677.72 371.156 1676.48 368.5C1675.26 371.562 1672.81 373.984 1669.45 375.156L1667.92 372.781C1672.29 371.344 1674.93 367.734 1674.95 363.844V363.062H1668.79V360.656H1683.95V363.062H1677.92V363.812ZM1671.7 381.344C1671.7 378.062 1675.28 376.141 1681.11 376.156C1686.87 376.141 1690.39 378.062 1690.39 381.344C1690.39 384.672 1686.87 386.609 1681.11 386.594C1675.28 386.609 1671.7 384.672 1671.7 381.344ZM1674.67 381.344C1674.65 383.219 1677.06 384.266 1681.11 384.25C1685.12 384.266 1687.5 383.219 1687.48 381.344C1687.5 379.516 1685.12 378.484 1681.11 378.5C1677.06 378.484 1674.65 379.516 1674.67 381.344ZM1687.17 375.469V358.656H1690.14V365.594H1694.2V368.031H1690.14V375.469H1687.17ZM1718.18 358.656V373.062H1715.24V358.656H1718.18ZM1695.09 370.562C1699.46 369.109 1702.13 365.438 1702.15 361.562V359.406H1705.18V361.562C1705.17 365.312 1707.85 368.719 1712.15 370.062L1710.68 372.375C1707.42 371.312 1704.96 369.109 1703.7 366.266C1702.43 369.328 1699.93 371.766 1696.59 372.906L1695.09 370.562ZM1699.81 376.75V374.406H1718.21V381.406H1702.78V384H1719.15V386.375H1699.9V379.156H1715.28V376.75H1699.81ZM1723.54 375.375C1723.57 369.484 1725.24 364.594 1728.16 360.406H1731.22C1729.07 363.5 1727.01 369.797 1727.01 375.375C1727.01 380.969 1729.07 387.266 1731.22 390.375H1728.16C1725.24 386.172 1723.57 381.281 1723.54 375.375ZM1740.08 360.75C1742.64 360.766 1744.74 362.219 1745.97 364.75H1752.89V358.656H1755.83V386.719H1752.89V375.969H1746.18C1744.97 378.781 1742.78 380.422 1740.08 380.406C1735.91 380.422 1732.96 376.609 1732.99 370.562C1732.96 364.578 1735.91 360.766 1740.08 360.75ZM1735.8 370.562C1735.82 375.016 1737.55 377.75 1740.08 377.75C1742.61 377.75 1744.35 375.016 1744.36 370.562C1744.35 366.172 1742.61 363.422 1740.08 363.406C1737.55 363.422 1735.82 366.172 1735.8 370.562ZM1746.82 367.188C1747.03 368.219 1747.18 369.344 1747.18 370.562C1747.18 371.625 1747.08 372.609 1746.89 373.531H1752.89V367.188H1746.82ZM1767.03 375.375C1767 381.281 1765.33 386.172 1762.41 390.375H1759.34C1761.5 387.266 1763.56 380.969 1763.56 375.375C1763.56 369.797 1761.5 363.5 1759.34 360.406H1762.41C1765.33 364.594 1767 369.484 1767.03 375.375Z" fill="#4E5968"/>
<path d="M431.473 287.82V291.297H417.84V297.781H413.543V291.297H399.207V287.82H431.473ZM403.113 304.773V294.539H407.449V301.258H427.918V304.773H403.113ZM403.309 284.539V271.766H427.332V284.539H403.309ZM407.527 281.141H423.035V275.164H407.527V281.141ZM453.793 273.562V277H432.855V273.562H441.176V270.008H445.512V273.562H453.793ZM434.652 284.812C434.652 280.945 438.227 278.367 443.324 278.367C448.422 278.367 451.938 280.945 451.957 284.812C451.938 288.68 448.422 291.258 443.324 291.258C438.227 291.258 434.652 288.68 434.652 284.812ZM437.152 297.391V293.914H460.668V305.477H456.332V297.391H437.152ZM438.871 284.812C438.852 286.805 440.648 287.918 443.324 287.898C446 287.918 447.816 286.805 447.816 284.812C447.816 282.82 446 281.648 443.324 281.648C440.648 281.648 438.852 282.82 438.871 284.812ZM456.332 292.273V270.164H460.668V279.539H465.59V283.094H460.668V292.273H456.332ZM479.043 280.203C479.023 285.652 482.305 291.863 487.871 294.461L485.449 297.898C481.465 296.023 478.516 292.234 476.934 287.82C475.332 292.664 472.246 296.805 468.184 298.758L465.645 295.359C471.27 292.684 474.688 286.082 474.707 280.203V277.234H467.012V273.641H486.426V277.234H479.043V280.203ZM489.707 305.477V270.164H494.043V283.914H499.473V287.547H494.043V305.477H489.707ZM532.223 297.781V301.375H499.957V297.781H508.512V291.961H503.785V280.438H524.098V276.102H503.707V272.586H528.395V283.914H508.121V288.445H529.215V291.961H524.059V297.781H532.223ZM512.73 297.781H519.801V291.961H512.73V297.781ZM562.863 270.164V288.172H558.566V270.164H562.863ZM533.488 284.734C539.211 282.918 542.219 278.387 542.199 273.758V271.023H546.691V273.758C546.672 278.25 549.66 282.449 555.246 284.148L553.137 287.508C549.035 286.238 546.105 283.621 544.504 280.262C542.902 283.914 539.895 286.785 535.676 288.133L533.488 284.734ZM539.504 293.172V289.812H562.941V298.992H543.84V301.727H563.996V305.164H539.582V295.75H558.605V293.172H539.504Z" fill="#191F28"/>
<path d="M718.117 59.2031C718.098 64.6523 721.379 70.8633 726.945 73.4609L724.523 76.8984C720.539 75.0234 717.59 71.2344 716.008 66.8203C714.406 71.6641 711.32 75.8047 707.258 77.7578L704.719 74.3594C710.344 71.6836 713.762 65.082 713.781 59.2031V56.2344H706.086V52.6406H725.5V56.2344H718.117V59.2031ZM728.781 84.4766V49.1641H733.117V62.9141H738.547V66.5469H733.117V84.4766H728.781ZM768.641 49.2031V75.9219H764.266V72.8359H757.352V69.7891H764.266V49.2031H768.641ZM738.875 65.0625C745.379 65.0234 754.148 64.9648 761.648 64.0078L761.883 67.1328C758.973 67.6211 755.965 67.9336 752.977 68.1484V74.9453H748.641V68.3828C745.34 68.5195 742.195 68.5391 739.422 68.5391L738.875 65.0625ZM741.57 56.7422C741.57 53.0117 745.164 50.4727 750.398 50.4922C755.535 50.4727 759.148 53.0117 759.188 56.7422C759.148 60.5312 755.535 62.9336 750.398 62.9531C745.164 62.9336 741.57 60.5312 741.57 56.7422ZM743.562 83.7734V73.3438H747.898V80.2578H769.461V83.7734H743.562ZM745.672 56.7422C745.672 58.6562 747.566 59.7695 750.398 59.7891C753.094 59.7695 755.027 58.6562 755.047 56.7422C755.027 54.8281 753.094 53.6758 750.398 53.6953C747.566 53.6758 745.672 54.8281 745.672 56.7422ZM804.789 66.4297V69.9453H772.602V66.4297H786.469V63.3438H776.781V50.1406H781.078V53.5H796.312V50.1406H800.609V63.3438H790.844V66.4297H804.789ZM776.391 78.1875C776.391 74.1641 780.922 71.918 788.656 71.8984C796.273 71.918 800.883 74.1641 800.922 78.1875C800.883 82.2305 796.273 84.4375 788.656 84.4375C780.922 84.4375 776.391 82.2305 776.391 78.1875ZM780.727 78.1875C780.727 80.1211 783.52 81.1367 788.656 81.1172C793.715 81.1367 796.488 80.1211 796.508 78.1875C796.488 76.2148 793.715 75.2383 788.656 75.2188C783.52 75.2383 780.727 76.2148 780.727 78.1875ZM781.078 59.9453H796.312V56.8203H781.078V59.9453ZM818.789 57.6406C818.75 63.9492 821.914 70.3164 827.383 72.9531L824.727 76.4297C820.898 74.4961 818.145 70.7656 816.641 66.2734C815.098 71.0781 812.207 75.0625 808.164 77.0938L805.508 73.6172C811.191 70.9219 814.434 64.1641 814.453 57.6406V52.0156H818.789V57.6406ZM829.492 84.4766V49.1641H833.828V62.9922H839.258V66.7031H833.828V84.4766H829.492ZM852.398 59.2031C852.379 64.6523 855.66 70.8633 861.227 73.4609L858.805 76.8984C854.82 75.0234 851.871 71.2344 850.289 66.8203C848.688 71.6641 845.602 75.8047 841.539 77.7578L839 74.3594C844.625 71.6836 848.043 65.082 848.062 59.2031V56.2344H840.367V52.6406H859.781V56.2344H852.398V59.2031ZM863.062 84.4766V49.1641H867.398V62.9141H872.828V66.5469H867.398V84.4766H863.062ZM902.648 49.1641V67.1719H898.352V49.1641H902.648ZM873.273 63.7344C878.996 61.918 882.004 57.3867 881.984 52.7578V50.0234H886.477V52.7578C886.457 57.25 889.445 61.4492 895.031 63.1484L892.922 66.5078C888.82 65.2383 885.891 62.6211 884.289 59.2617C882.688 62.9141 879.68 65.7852 875.461 67.1328L873.273 63.7344ZM879.289 72.1719V68.8125H902.727V77.9922H883.625V80.7266H903.781V84.1641H879.367V74.75H898.391V72.1719H879.289Z" fill="#191F28"/>
<g filter="url(#filter1_f_4338_10528)">
<ellipse cx="631" cy="177.025" rx="28" ry="7.97468" fill="black" fill-opacity="0.25"/>
</g>
<path d="M675 103.084C675 127.43 666.902 132.786 631 177.025C595.27 133.163 587 127.43 587 103.084C587 78.737 606.699 59 631 59C655.301 59 675 78.737 675 103.084Z" fill="url(#paint0_linear_4338_10528)"/>
<rect x="600.656" y="72.9277" width="60.6897" height="60.5258" rx="30.2629" fill="white"/>
<path d="M630.926 117.062C625.025 117.062 620.795 113.814 620.684 109.12H626.324C626.417 111.124 628.365 112.441 630.963 112.46C633.635 112.441 635.546 110.957 635.527 108.786C635.546 106.597 633.598 105.057 630.443 105.038H627.957V100.919H630.443C633.097 100.919 634.952 99.4717 634.934 97.3564C634.952 95.2969 633.375 93.8867 631 93.9053C628.625 93.8867 626.677 95.2227 626.584 97.2822H621.24C621.333 92.6621 625.489 89.4521 631 89.4521C636.604 89.4521 640.333 92.7734 640.314 97.0225C640.333 100.028 638.236 102.162 635.23 102.7V102.923C639.183 103.405 641.354 105.799 641.316 109.157C641.354 113.759 636.993 117.062 630.926 117.062Z" fill="#191F28"/>
<g filter="url(#filter2_f_4338_10528)">
<ellipse cx="792" cy="219.025" rx="28" ry="7.97468" fill="black" fill-opacity="0.25"/>
</g>
<path d="M836 145.084C836 169.43 827.902 174.786 792 219.025C756.27 175.163 748 169.43 748 145.084C748 120.737 767.699 101 792 101C816.301 101 836 120.737 836 145.084Z" fill="url(#paint1_linear_4338_10528)"/>
<rect x="761.656" y="114.928" width="60.6897" height="60.5258" rx="30.2629" fill="white"/>
<path d="M792.074 159.062C786.471 159.062 782.37 155.759 782.277 151.12H787.695C787.825 153.217 789.736 154.664 792.074 154.646C794.857 154.664 796.843 152.697 796.824 149.896C796.843 147.038 794.82 145.053 792 145.034C789.978 145.034 788.567 145.795 787.77 147.298H782.723L784.17 131.823H800.721V136.388H788.771L788.029 143.179H788.252C789.235 141.861 791.276 140.896 793.633 140.915C798.568 140.896 802.242 144.589 802.242 149.747C802.242 155.184 798.123 159.062 792.074 159.062Z" fill="#191F28"/>
<g filter="url(#filter3_f_4338_10528)">
<ellipse cx="708" cy="267.025" rx="28" ry="7.97468" fill="black" fill-opacity="0.25"/>
</g>
<path d="M752 193.084C752 217.43 743.902 222.786 708 267.025C672.27 223.163 664 217.43 664 193.084C664 168.737 683.699 149 708 149C732.301 149 752 168.737 752 193.084Z" fill="url(#paint2_linear_4338_10528)"/>
<rect x="677.656" y="162.928" width="60.6897" height="60.5258" rx="30.2629" fill="white"/>
<path d="M697.183 201.94V197.524L708.538 179.823H715.552V197.45H718.966V201.94H715.552V206.69H710.245V201.94H697.183ZM702.823 197.45H710.319V185.946H710.06L702.823 197.228V197.45Z" fill="#191F28"/>
<g filter="url(#filter4_f_4338_10528)">
<ellipse cx="483" cy="444.025" rx="28" ry="7.97468" fill="black" fill-opacity="0.25"/>
</g>
<path d="M527 370.084C527 394.43 518.902 399.786 483 444.025C447.27 400.163 439 394.43 439 370.084C439 345.737 458.699 326 483 326C507.301 326 527 345.737 527 370.084Z" fill="url(#paint3_linear_4338_10528)"/>
<rect x="452.656" y="339.928" width="60.6897" height="60.5258" rx="30.2629" fill="white"/>
<path d="M487.787 356.823V383.69H482.184V362.13H482.035L475.875 365.989V361.054L482.518 356.823H487.787Z" fill="#191F28"/>
<g filter="url(#filter5_f_4338_10528)">
<ellipse cx="1366" cy="745.025" rx="28" ry="7.97468" fill="black" fill-opacity="0.25"/>
</g>
<path d="M1410 671.084C1410 695.43 1401.9 700.786 1366 745.025C1330.27 701.163 1322 695.43 1322 671.084C1322 646.737 1341.7 627 1366 627C1390.3 627 1410 646.737 1410 671.084Z" fill="url(#paint4_linear_4338_10528)"/>
<rect x="1335.66" y="640.928" width="60.6897" height="60.5258" rx="30.2629" fill="white"/>
<path d="M1366.3 685.062C1360.75 685.043 1355.44 681.722 1355.46 671.888C1355.48 662.814 1359.8 657.452 1366.52 657.452C1371.92 657.452 1375.63 660.866 1376.17 665.282H1370.68C1370.23 663.408 1368.69 662.239 1366.52 662.239C1362.86 662.239 1360.95 665.523 1360.92 670.812H1361.18C1362.42 668.418 1365.07 667.026 1368.04 667.026C1372.88 667.026 1376.48 670.645 1376.46 675.71C1376.48 681.165 1372.36 685.08 1366.3 685.062ZM1361.47 675.858C1361.51 678.493 1363.51 680.664 1366.26 680.646C1369.02 680.664 1371.05 678.567 1371.05 675.858C1371.05 673.168 1369.06 671.09 1366.33 671.071C1363.59 671.09 1361.51 673.242 1361.47 675.858Z" fill="#191F28"/>
<g filter="url(#filter6_f_4338_10528)">
<ellipse cx="1107" cy="741.025" rx="28" ry="7.97468" fill="black" fill-opacity="0.25"/>
</g>
<path d="M1151 667.084C1151 691.43 1142.9 696.786 1107 741.025C1071.27 697.163 1063 691.43 1063 667.084C1063 642.737 1082.7 623 1107 623C1131.3 623 1151 642.737 1151 667.084Z" fill="url(#paint5_linear_4338_10528)"/>
<rect x="1076.66" y="636.928" width="60.6897" height="60.5258" rx="30.2629" fill="white"/>
<path d="M1097.52 680.69L1097.48 676.646L1107.13 667.776C1109.63 665.383 1110.99 663.898 1110.99 661.765C1110.99 659.371 1109.19 657.887 1106.72 657.905C1104.2 657.887 1102.55 659.482 1102.57 662.062H1097.26C1097.24 656.811 1101.14 653.452 1106.8 653.452C1112.55 653.452 1116.37 656.736 1116.37 661.394C1116.37 664.455 1114.89 666.96 1109.36 671.97L1105.27 675.94V676.089H1116.74V680.69H1097.52Z" fill="#191F28"/>
<defs>
<filter id="filter0_f_4338_10528" x="0" y="35" width="1906" height="988" filterUnits="userSpaceOnUse" color-interpolation-filters="sRGB">
<feFlood flood-opacity="0" result="BackgroundImageFix"/>
<feBlend mode="normal" in="SourceGraphic" in2="BackgroundImageFix" result="shape"/>
<feGaussianBlur stdDeviation="24" result="effect1_foregroundBlur_4338_10528"/>
</filter>
<filter id="filter1_f_4338_10528" x="599" y="165.051" width="64" height="23.9492" filterUnits="userSpaceOnUse" color-interpolation-filters="sRGB">
<feFlood flood-opacity="0" result="BackgroundImageFix"/>
<feBlend mode="normal" in="SourceGraphic" in2="BackgroundImageFix" result="shape"/>
<feGaussianBlur stdDeviation="2" result="effect1_foregroundBlur_4338_10528"/>
</filter>
<filter id="filter2_f_4338_10528" x="760" y="207.051" width="64" height="23.9492" filterUnits="userSpaceOnUse" color-interpolation-filters="sRGB">
<feFlood flood-opacity="0" result="BackgroundImageFix"/>
<feBlend mode="normal" in="SourceGraphic" in2="BackgroundImageFix" result="shape"/>
<feGaussianBlur stdDeviation="2" result="effect1_foregroundBlur_4338_10528"/>
</filter>
<filter id="filter3_f_4338_10528" x="676" y="255.051" width="64" height="23.9492" filterUnits="userSpaceOnUse" color-interpolation-filters="sRGB">
<feFlood flood-opacity="0" result="BackgroundImageFix"/>
<feBlend mode="normal" in="SourceGraphic" in2="BackgroundImageFix" result="shape"/>
<feGaussianBlur stdDeviation="2" result="effect1_foregroundBlur_4338_10528"/>
</filter>
<filter id="filter4_f_4338_10528" x="451" y="432.051" width="64" height="23.9492" filterUnits="userSpaceOnUse" color-interpolation-filters="sRGB">
<feFlood flood-opacity="0" result="BackgroundImageFix"/>
<feBlend mode="normal" in="SourceGraphic" in2="BackgroundImageFix" result="shape"/>
<feGaussianBlur stdDeviation="2" result="effect1_foregroundBlur_4338_10528"/>
</filter>
<filter id="filter5_f_4338_10528" x="1334" y="733.051" width="64" height="23.9492" filterUnits="userSpaceOnUse" color-interpolation-filters="sRGB">
<feFlood flood-opacity="0" result="BackgroundImageFix"/>
<feBlend mode="normal" in="SourceGraphic" in2="BackgroundImageFix" result="shape"/>
<feGaussianBlur stdDeviation="2" result="effect1_foregroundBlur_4338_10528"/>
</filter>
<filter id="filter6_f_4338_10528" x="1075" y="729.051" width="64" height="23.9492" filterUnits="userSpaceOnUse" color-interpolation-filters="sRGB">
<feFlood flood-opacity="0" result="BackgroundImageFix"/>
<feBlend mode="normal" in="SourceGraphic" in2="BackgroundImageFix" result="shape"/>
<feGaussianBlur stdDeviation="2" result="effect1_foregroundBlur_4338_10528"/>
</filter>
<linearGradient id="paint0_linear_4338_10528" x1="656.362" y1="71.0864" x2="606.637" y2="156.956" gradientUnits="userSpaceOnUse">
<stop offset="0.144416" stop-color="#C41818"/>
<stop offset="1" stop-color="#072B24"/>
</linearGradient>
<linearGradient id="paint1_linear_4338_10528" x1="817.362" y1="113.086" x2="767.637" y2="198.956" gradientUnits="userSpaceOnUse">
<stop offset="0.144416" stop-color="#C41818"/>
<stop offset="1" stop-color="#072B24"/>
</linearGradient>
<linearGradient id="paint2_linear_4338_10528" x1="733.362" y1="161.086" x2="683.637" y2="246.956" gradientUnits="userSpaceOnUse">
<stop offset="0.144416" stop-color="#C41818"/>
<stop offset="1" stop-color="#072B24"/>
</linearGradient>
<linearGradient id="paint3_linear_4338_10528" x1="508.362" y1="338.086" x2="458.637" y2="423.956" gradientUnits="userSpaceOnUse">
<stop offset="0.144416" stop-color="#C41818"/>
<stop offset="1" stop-color="#072B24"/>
</linearGradient>
<linearGradient id="paint4_linear_4338_10528" x1="1391.36" y1="639.086" x2="1341.64" y2="724.956" gradientUnits="userSpaceOnUse">
<stop offset="0.144416" stop-color="#C41818"/>
<stop offset="1" stop-color="#072B24"/>
</linearGradient>
<linearGradient id="paint5_linear_4338_10528" x1="1132.36" y1="635.086" x2="1082.64" y2="720.956" gradientUnits="userSpaceOnUse">
<stop offset="0.144416" stop-color="#C41818"/>
<stop offset="1" stop-color="#072B24"/>
</linearGradient>
</defs>
</svg>
