<svg width="1906" height="1134" viewBox="0 0 1906 1134" fill="none" xmlns="http://www.w3.org/2000/svg">
<g filter="url(#filter0_f_4360_10174)">
<path d="M991.571 53L53 589.029L914.429 1081L1853 544.971L1518.71 354.057L1505.86 346.714L1261.57 207.2L991.571 53Z" stroke="black" stroke-opacity="0.25" stroke-width="10" stroke-linejoin="round"/>
</g>
<path d="M991.571 13L53 549.029L914.429 1041L1853 504.971L1518.71 314.057L1505.86 306.714L1261.57 167.2L991.571 13Z" stroke="#191F28" stroke-width="10" stroke-linejoin="round"/>
<path d="M1197.29 498.628L1242.29 524.328L1370.86 450.9L1325.86 425.2L1197.29 498.628Z" stroke="#191F28" stroke-width="4" stroke-linejoin="round"/>
<path d="M695.859 917.171L811.574 983.257L875.859 946.543L760.145 880.457L695.859 917.171Z" stroke="#191F28" stroke-width="4" stroke-linejoin="round"/>
<path d="M927.289 50.7143L1043 116.8L1107.29 80.0857L991.575 14L927.289 50.7143Z" stroke="#191F28" stroke-width="4" stroke-linejoin="round"/>
<path d="M1454.43 351.771L1570.14 417.857L1634.43 381.143L1518.72 315.057L1454.43 351.771Z" stroke="#191F28" stroke-width="4" stroke-linejoin="round"/>
<path d="M1415.86 476.6L1414.87 478.337C1415.48 478.688 1416.24 478.688 1416.85 478.337L1415.86 476.6ZM1326.85 423.463C1325.89 422.915 1324.67 423.249 1324.12 424.208C1323.57 425.167 1323.91 426.389 1324.87 426.937L1326.85 423.463ZM1416.85 478.337L1545.42 404.908L1543.44 401.435L1414.87 474.863L1416.85 478.337ZM1416.85 474.863L1326.85 423.463L1324.87 426.937L1414.87 478.337L1416.85 474.863Z" fill="#191F28"/>
<path d="M1120.14 542.686L1210.14 594.086L1293.71 546.357L1248.71 520.657L1242.28 524.328L1197.28 498.628L1120.14 542.686Z" stroke="#191F28" stroke-width="4" stroke-linejoin="round"/>
<path d="M1287.29 447.229L1309.82 460.062M1309.82 460.062L1333.21 473.387M1309.82 460.062L1296.93 467.421M1309.82 460.062L1322.65 452.736M1274.43 454.571L1296.93 467.421M1296.93 467.421L1319.43 480.271M1296.93 467.421L1284.07 474.764M1261.57 461.914L1284.07 474.764M1284.07 474.764L1306.57 487.614M1284.07 474.764L1271.22 482.107M1248.72 469.257L1271.22 482.107M1271.22 482.107L1293.72 494.957M1271.22 482.107L1258.36 489.45M1235.86 476.6L1258.36 489.45M1258.36 489.45L1280.86 502.3M1258.36 489.45L1245.5 496.793M1268 509.643L1245.5 496.793M1245.5 496.793L1219.79 511.479M1251.93 493.121L1274.43 505.971M1242.29 472.929L1287.29 498.629M1255.15 465.586L1300.15 491.286M1268 458.243L1313 483.943M1280.86 450.9L1325.86 476.6M1293.72 443.557L1338.72 469.257" stroke="#191F28" stroke-width="2" stroke-linecap="round"/>
<path d="M1364.43 652.829L1480.14 718.915L1595.86 652.829L1480.14 586.743L1364.43 652.829Z" stroke="#191F28" stroke-width="4" stroke-linejoin="round"/>
<path d="M1197.29 748.286L1313 814.371L1454.43 733.6L1338.72 667.514L1197.29 748.286Z" stroke="#191F28" stroke-width="4" stroke-linejoin="round"/>
<path d="M1300.14 689.543L1299.15 691.28C1299.76 691.631 1300.52 691.631 1301.13 691.28L1300.14 689.543ZM1171.57 616.115L1170.58 614.378C1169.96 614.734 1169.57 615.397 1169.57 616.115C1169.57 616.832 1169.96 617.495 1170.58 617.851L1171.57 616.115ZM1545.42 551.766C1546.38 551.218 1546.71 549.996 1546.16 549.037C1545.62 548.078 1544.39 547.744 1543.44 548.292L1545.42 551.766ZM1301.13 687.806L1172.56 614.378L1170.58 617.851L1299.15 691.28L1301.13 687.806ZM1172.56 617.851L1211.13 595.823L1209.15 592.349L1170.58 614.378L1172.56 617.851ZM1301.13 691.28L1545.42 551.766L1543.44 548.292L1299.15 687.806L1301.13 691.28Z" fill="#191F28"/>
<path d="M258.711 432.543L438.711 535.343L528.711 483.943L348.711 381.143L258.711 432.543Z" stroke="#191F28" stroke-width="4" stroke-linejoin="round"/>
<path d="M387.289 564.714L445.146 597.757L586.575 516.986L528.718 483.943L387.289 564.714Z" stroke="#191F28" stroke-width="4" stroke-linejoin="round"/>
<path d="M348.711 381.143L412.997 417.857L490.14 373.8L425.854 337.085L348.711 381.143Z" stroke="#191F28" stroke-width="4" stroke-linejoin="round"/>
<path d="M528.717 586.743L425.859 645.486L593.002 740.943L490.145 799.686L580.145 851.086L785.859 733.6L528.717 586.743Z" stroke="#191F28" stroke-width="4" stroke-linejoin="round"/>
<path d="M1248.71 520.657L1293.71 546.357L1351.57 513.314L1306.57 487.614L1248.71 520.657Z" stroke="#191F28" stroke-width="4" stroke-linejoin="round"/>
<path d="M695.852 682.2L734.423 704.229L811.566 660.171L772.994 638.143L695.852 682.2Z" stroke="#191F28" stroke-width="4" stroke-linejoin="round"/>
<path d="M594.836 587.66L650.856 619.785L676.571 605.1L620.55 572.975L607.693 580.317L594.836 587.66Z" stroke="#191F28" stroke-width="4" stroke-linejoin="round"/>
<path d="M682.997 674.857L528.711 586.743L618.711 535.343L785.854 630.8L695.854 682.2L682.997 674.857Z" stroke="#191F28" stroke-width="4" stroke-linecap="round" stroke-linejoin="round"/>
<path d="M633.828 629.833C634.307 630.106 634.918 629.94 635.192 629.46C635.466 628.981 635.299 628.37 634.82 628.096L633.828 629.833ZM563.609 588.579L563.113 587.71L561.593 588.579L563.113 589.447L563.609 588.579ZM621.467 555.536L621.962 554.667C621.655 554.492 621.278 554.492 620.971 554.667L621.467 555.536ZM678.828 589.447C679.307 589.721 679.918 589.554 680.192 589.074C680.466 588.595 680.299 587.984 679.82 587.71L678.828 589.447ZM634.82 628.096L564.105 587.71L563.113 589.447L633.828 629.833L634.82 628.096ZM564.105 589.447L621.962 556.404L620.971 554.667L563.113 587.71L564.105 589.447ZM620.971 556.404L678.828 589.447L679.82 587.71L621.962 554.667L620.971 556.404Z" fill="#191F28"/>
<path d="M618.709 638.143L650.852 619.785M605.852 630.8L637.994 612.443M592.994 623.457L625.137 605.1M580.137 616.114L612.28 597.757M567.28 608.771L599.423 590.414M594.831 587.66L560.852 568.385M573.709 561.043L607.229 580.318M586.566 553.7L620.545 572.975M657.28 557.371L625.137 575.728M670.137 564.714L637.994 583.071M682.994 572.057L650.852 590.414M695.852 579.4L663.709 597.757M605.852 594.085L573.709 612.443M618.709 601.428L586.566 619.785M631.566 608.771L599.423 627.128M644.423 616.114L612.28 634.471M631.566 579.4L663.709 561.043M644.423 586.743L676.566 568.385M657.28 594.085L689.423 575.728M567.28 564.714L601.26 583.989M580.137 557.371L614.117 576.646" stroke="#191F28" stroke-width="2" stroke-linecap="round"/>
<path d="M865.145 221.234C872.82 221.254 877.664 223.676 877.684 227.875C877.664 231.977 872.82 234.438 865.145 234.438C857.547 234.438 852.645 231.977 852.645 227.875C852.645 223.676 857.547 221.254 865.145 221.234ZM849.324 218.695V215.18H861.746V208.773H866.043V215.18H881.355V218.695H849.324ZM852.996 204.281V200.844H877.449V203.773C877.469 206.566 877.469 209.535 876.473 213.148L872.176 212.758C873.055 209.34 873.113 206.84 873.113 204.281H852.996ZM857.02 227.875C856.98 229.945 860.047 231.078 865.145 231.078C870.262 231.078 873.348 229.945 873.387 227.875C873.348 225.727 870.262 224.516 865.145 224.516C860.047 224.516 856.98 225.727 857.02 227.875ZM898.715 221.234C906.391 221.254 911.234 223.676 911.254 227.875C911.234 231.977 906.391 234.438 898.715 234.438C891.117 234.438 886.215 231.977 886.215 227.875C886.215 223.676 891.117 221.254 898.715 221.234ZM882.895 218.695V215.18H895.316V208.773H899.613V215.18H914.926V218.695H882.895ZM886.566 204.281V200.844H911.02V203.773C911.039 206.566 911.039 209.535 910.043 213.148L905.746 212.758C906.625 209.34 906.684 206.84 906.684 204.281H886.566ZM890.59 227.875C890.551 229.945 893.617 231.078 898.715 231.078C903.832 231.078 906.918 229.945 906.957 227.875C906.918 225.727 903.832 224.516 898.715 224.516C893.617 224.516 890.551 225.727 890.59 227.875ZM945.059 215.219V218.656H934.59V226.742H948.652V230.297H916.387V226.742H930.293V218.656H920.293V201.781H944.785V205.258H924.629V215.219H945.059ZM963.004 207.641C962.984 214.203 966.129 220.648 971.754 223.109L969.137 226.586C965.152 224.633 962.34 220.883 960.836 216.254C959.293 221.137 956.402 225.199 952.34 227.25L949.605 223.734C955.367 221.039 958.57 214.242 958.59 207.641V202.016H963.004V207.641ZM967.848 214.086V210.57H975.27V199.164H979.566V234.516H975.27V214.086H967.848ZM1003.25 201.781V203.891C1003.21 206.293 1003.21 209.809 1002.39 214.281L998.098 213.891C998.801 210.258 998.938 207.543 998.977 205.375H985.246V201.781H1003.25ZM983.137 217.094C985.227 217.074 987.57 217.055 990.051 217.016V209.828H994.348V216.879C998 216.723 1001.75 216.449 1005.17 215.961L1005.4 219.086C998.059 220.414 989.719 220.551 983.527 220.57L983.137 217.094ZM988.41 233.773V223.266H992.785V230.258H1012.82V233.773H988.41ZM1007.24 225.609V199.164H1011.69V210.18H1016.26V213.812H1011.69V225.609H1007.24ZM915.004 266.852V270.367H900.98V282.438H896.684V270.367H882.816V266.852H915.004ZM884.496 261.07C891.43 260.191 896.078 256.461 896.391 252.594H885.785V249.156H912.035V252.594H901.43C901.723 256.461 906.332 260.191 913.324 261.07L911.762 264.469C905.746 263.609 901.059 260.855 898.91 257.047C896.742 260.855 892.094 263.609 886.137 264.469L884.496 261.07ZM928.809 258.375C928.809 263.609 931.758 269.312 937.207 271.891L934.785 275.172C930.957 273.414 928.203 269.898 926.719 265.777C925.176 270.23 922.266 273.98 918.223 275.797L915.84 272.438C921.406 269.938 924.512 263.922 924.512 258.375V256.539H916.973V253.062H924.512V247.906H928.848V253.062H936.27V256.539H928.809V258.375ZM939.707 282.477V247.164H944.043V261.148H949.473V264.781H944.043V282.477H939.707ZM962.613 253.531C962.613 257.848 965.406 261.91 970.934 263.609L968.863 267.008C964.898 265.758 962.086 263.238 960.543 260.055C958.98 263.766 956.012 266.715 951.754 268.141L949.566 264.703C955.25 262.848 958.238 258.258 958.238 253.57V253.141H950.777V249.625H969.957V253.141H962.613V253.531ZM954.371 275.68C954.371 271.461 958.941 269 966.324 269C973.648 269 978.141 271.461 978.16 275.68C978.141 279.938 973.648 282.438 966.324 282.438C958.941 282.438 954.371 279.938 954.371 275.68ZM958.707 275.68C958.707 277.867 961.48 279.02 966.324 279.039C971.148 279.02 973.863 277.867 973.863 275.68C973.863 273.531 971.148 272.398 966.324 272.398C961.48 272.398 958.707 273.531 958.707 275.68ZM973.473 268.219V247.164H977.809V255.641H982.73V259.195H977.809V268.219H973.473Z" fill="#191F28"/>
<path d="M1417.68 534.898V537.984H1385.65V534.898H1399.75V527.711H1389.32V509.703H1393.03V515.719H1410.22V509.703H1413.89V527.711H1403.42V534.898H1417.68ZM1393.03 524.703H1410.22V518.727H1393.03V524.703ZM1448.28 508.961V511.969H1437.62C1437.81 515.816 1442.87 519.215 1449.38 519.977L1447.97 522.984C1441.97 522.145 1437.05 519.332 1435.18 515.387C1433.26 519.332 1428.36 522.145 1422.38 522.984L1420.98 519.977C1427.52 519.215 1432.52 515.816 1432.7 511.969H1422.15V508.961H1448.28ZM1419.22 529V525.992H1433.32V520.445H1436.99V525.992H1451.21V529H1419.22ZM1423.24 541.578V531.617H1426.99V538.57H1447.54V541.578H1423.24ZM1465.41 516.227C1465.41 522.633 1469 529.02 1474.35 531.422L1472.09 534.391C1468.12 532.398 1465.11 528.453 1463.57 523.668C1462.03 528.707 1458.98 532.965 1454.94 535.055L1452.59 532.047C1458.02 529.449 1461.64 522.711 1461.66 516.227V510.25H1465.41V516.227ZM1470.48 521.969V518.961H1478.3V507.32H1481.97V542.398H1478.3V521.969H1470.48ZM1514.68 510.68V514.117C1514.66 518.434 1514.66 523.277 1513.35 530.445L1509.6 530.055C1510.95 523.277 1510.95 518.316 1510.97 514.117V513.688H1489.72V510.68H1514.68ZM1486.36 537.594V534.508H1498.51V522.164H1502.18V534.508H1518.27V537.594H1486.36Z" fill="#191F28"/>
<path d="M1279.61 528V505.375H1293.8V508.344H1283.05V515.188H1293.05V518.125H1283.05V525.031H1293.92V528H1279.61ZM1305.56 504.312L1298.28 531.406H1295.31L1302.59 504.312H1305.56ZM1309.61 505.375L1315.89 523.781H1316.14L1322.42 505.375H1326.14L1317.98 528H1314.01L1305.89 505.375H1309.61Z" fill="#191F28"/>
<path d="M732.612 682V659.375H746.8V662.344H736.05V669.188H746.05V672.125H736.05V679.031H746.925V682H732.612ZM758.562 658.312L751.281 685.406H748.312L755.594 658.312H758.562ZM762.606 659.375L768.887 677.781H769.137L775.419 659.375H779.137L770.981 682H767.012L758.887 659.375H762.606Z" fill="#4E5968"/>
<path d="M244.628 542.656V570.656H241.628V542.656H244.628ZM221.628 563.156C229.066 559.609 232.706 554.562 233.284 548.031H222.972V545.656H236.284C236.284 553.859 232.8 560.953 223.191 565.562L221.628 563.156ZM272.266 542.656V570.656H269.453V542.656H272.266ZM248.047 562.562C254 559.031 256.844 554.328 257.359 548.562H249.422V546.125H260.297C260.297 547.562 260.188 548.953 259.969 550.312H263.734V543.375H266.547V569.281H263.734V559.75H258.953V557.312H263.734V552.75H259.422C258.062 557.453 255.078 561.547 249.797 564.688L248.047 562.562ZM298.247 542.656V557.062H295.309V542.656H298.247ZM275.153 554.562C279.528 553.109 282.2 549.438 282.216 545.562V543.406H285.247V545.562C285.231 549.312 287.919 552.719 292.216 554.062L290.747 556.375C287.481 555.312 285.028 553.109 283.763 550.266C282.497 553.328 279.997 555.766 276.653 556.906L275.153 554.562ZM279.872 560.75V558.406H298.278V565.406H282.841V568H299.216V570.375H279.966V563.156H295.341V560.75H279.872Z" fill="#4E5968"/>
<path d="M377.691 444.688V465.188H374.722V454.656H369.378V452.25H374.722V444.688H377.691ZM354.378 459.344C358.675 457.891 361.362 454.203 361.347 450.344V449.25H355.284V446.812H370.378V449.25H364.378V450.344C364.362 453.828 366.894 457.344 371.128 458.75L369.597 461.125C366.456 460.031 364.128 457.781 362.909 455C361.691 458.094 359.237 460.562 355.909 461.75L354.378 459.344ZM359.503 472.062V463.344H362.472V469.656H378.441V472.062H359.503ZM404.484 444.656V472.656H401.484V444.656H404.484ZM381.484 465.156C388.922 461.609 392.562 456.562 393.141 450.031H382.828V447.656H396.141C396.141 455.859 392.656 462.953 383.047 467.562L381.484 465.156ZM431.247 444.656V459.062H428.309V444.656H431.247ZM408.153 456.562C412.528 455.109 415.2 451.438 415.216 447.562V445.406H418.247V447.562C418.231 451.312 420.919 454.719 425.216 456.062L423.747 458.375C420.481 457.312 418.028 455.109 416.763 452.266C415.497 455.328 412.997 457.766 409.653 458.906L408.153 456.562ZM412.872 462.75V460.406H431.278V467.406H415.841V470H432.216V472.375H412.966V465.156H428.341V462.75H412.872Z" fill="#4E5968"/>
<g filter="url(#filter1_f_4360_10174)">
<ellipse cx="931" cy="417.025" rx="28" ry="7.97468" fill="black" fill-opacity="0.25"/>
</g>
<path d="M975 343.084C975 367.43 966.902 372.786 931 417.025C895.27 373.163 887 367.43 887 343.084C887 318.737 906.699 299 931 299C955.301 299 975 318.737 975 343.084Z" fill="url(#paint0_linear_4360_10174)"/>
<rect x="900.656" y="312.928" width="60.6897" height="60.5258" rx="30.2629" fill="white"/>
<path d="M935.787 329.823V356.69H930.184V335.13H930.035L923.875 338.989V334.054L930.518 329.823H935.787Z" fill="#191F28"/>
<defs>
<filter id="filter0_f_4360_10174" x="0" y="0" width="1906" height="1134" filterUnits="userSpaceOnUse" color-interpolation-filters="sRGB">
<feFlood flood-opacity="0" result="BackgroundImageFix"/>
<feBlend mode="normal" in="SourceGraphic" in2="BackgroundImageFix" result="shape"/>
<feGaussianBlur stdDeviation="24" result="effect1_foregroundBlur_4360_10174"/>
</filter>
<filter id="filter1_f_4360_10174" x="899" y="405.051" width="64" height="23.9492" filterUnits="userSpaceOnUse" color-interpolation-filters="sRGB">
<feFlood flood-opacity="0" result="BackgroundImageFix"/>
<feBlend mode="normal" in="SourceGraphic" in2="BackgroundImageFix" result="shape"/>
<feGaussianBlur stdDeviation="2" result="effect1_foregroundBlur_4360_10174"/>
</filter>
<linearGradient id="paint0_linear_4360_10174" x1="956.362" y1="311.086" x2="906.637" y2="396.956" gradientUnits="userSpaceOnUse">
<stop offset="0.144416" stop-color="#C41818"/>
<stop offset="1" stop-color="#072B24"/>
</linearGradient>
</defs>
</svg>
