<svg width="740" height="1300" viewBox="0 0 740 1300" fill="none" xmlns="http://www.w3.org/2000/svg">
<g clip-path="url(#clip0_1200_2882)">
<g filter="url(#filter0_f_1200_2882)">
<ellipse cx="419" cy="1088.33" rx="273" ry="43.6651" fill="#2C0C4B" fill-opacity="0.3" style="mix-blend-mode:multiply"/>
</g>
<g opacity="0.3" clip-path="url(#clip1_1200_2882)" filter="url(#filter1_f_1200_2882)">
<path d="M275.175 1026.51C258.916 1025.27 192.443 979.709 190.967 965.82C205.316 943.079 292.222 989.388 275.175 1026.51Z" fill="#2843B7"/>
<path d="M150.181 1014.84C154.157 1043.98 175.239 1070.75 199.883 1097.01C207.127 1104.75 217.284 1109.09 227.894 1109.09H288.856C293.324 1109.09 296.926 1105.47 296.926 1101.03V1097.15C296.926 1088.38 292.32 1080.21 284.801 1075.67L256.141 1058.34L243.504 1013.15L258.208 985.965C240.571 967.237 221.457 955.512 198.899 949.473L183.88 981.106L158.822 996.489C152.563 1000.35 149.177 1007.55 150.181 1014.84Z" fill="#DFA088"/>
<path d="M233.248 1021.49C242.756 1043.86 256.141 1058.32 256.141 1058.32L284.801 1075.65C292.32 1080.19 296.926 1088.36 296.926 1097.13V1101.01C296.926 1105.45 293.304 1109.07 288.856 1109.07H227.874C217.284 1109.07 207.127 1104.73 199.864 1096.99C175.219 1070.73 154.157 1043.98 150.161 1014.82C149.158 1007.54 152.543 1000.34 158.803 996.489L183.861 981.105C183.88 981.105 216.084 981.105 233.248 1021.49Z" fill="#714B4B"/>
<path d="M212.147 1040.79C223.15 1061.8 231.142 1080.31 235.098 1089.93C236.85 1094.2 240.925 1097.03 245.551 1097.21L296.926 1099.22V1101.01C296.926 1105.45 293.304 1109.07 288.856 1109.07H227.874C217.284 1109.07 207.127 1104.72 199.864 1096.99C175.219 1070.73 154.157 1043.98 150.161 1014.82C149.669 1011.24 150.24 1007.68 151.697 1004.53C164.905 992.77 196.045 1010.06 212.147 1040.79Z" fill="#E6D9CD"/>
<path d="M473.67 555.301C406.449 752.495 339.72 931.119 275.175 1026.51C285.844 1006.84 201.635 946.129 190.967 965.821C257.755 826.246 310.567 707.485 336.157 577.648L473.67 555.301Z" fill="#6187FF"/>
<path d="M409.559 736.207L342.456 616.266C358.892 726.371 343.597 848.654 303.028 980.615C338.066 917.192 373.655 832.365 409.559 736.207Z" fill="#2843B7"/>
<path d="M500.657 997.023V1037.59L580.417 1073.08C587.346 1076.16 591.814 1083.03 591.814 1090.62C591.814 1097.17 586.499 1102.49 579.945 1102.49H432.235C425.109 1102.49 419.598 1096.27 420.444 1089.21L426.979 1034.46L423.849 997.023H500.657Z" fill="#F39B7A"/>
<path d="M579.945 1102.48H432.235C425.109 1102.48 419.598 1096.27 420.444 1089.2L426.979 1034.46C459.281 1022.42 526.856 1067.76 541.187 1055.6L580.417 1073.05C587.346 1076.14 591.814 1083.01 591.814 1090.6C591.814 1097.17 586.499 1102.48 579.945 1102.48Z" fill="#714B4B"/>
<path d="M342.456 616.265L422.078 1038.02L510.578 1035.4L473.67 523.157C487.193 464.927 467.883 411.891 467.883 411.891L332.082 444.35C329.641 448.953 333.677 461.563 330.921 465.911C299.721 515.268 304.761 593.426 342.456 616.265Z" fill="#466FFF"/>
<path d="M450.974 111.906C457.687 127.644 452.825 146.628 452.825 146.628C454.419 152.018 457.076 168.267 452.884 183.179C449.281 195.966 436.25 203.972 423.2 201.376C410.228 198.799 397.178 191.264 385.19 177.887L450.974 111.906Z" fill="#F39B7A"/>
<path d="M422.472 192.7C414.165 204.424 406.37 217.782 399.067 232.752L343.479 193.388L376.135 148.477L422.472 192.7Z" fill="#F39B7A"/>
<path d="M449.852 107.285C434.302 70.557 407.866 55.2717 340.743 77.1275C300.627 99.3768 319.386 174.643 354.601 181.764C379.875 186.879 399.618 176.846 406.114 156.898C406.114 156.879 455.757 133.666 449.852 107.285Z" fill="#BD380F"/>
<path d="M449.852 107.285C438.416 80.255 421.054 64.8516 385.938 67.3107C388.792 97.9403 390.426 150.937 372.73 182.787C389.087 181.095 401.292 171.751 406.114 156.878C406.114 156.878 455.758 133.665 449.852 107.285Z" fill="#9B2F12"/>
<path d="M418.502 173.151C427.56 171.022 433.176 161.958 431.046 152.905C428.916 143.852 419.846 138.239 410.788 140.368C401.73 142.497 396.113 151.561 398.243 160.614C400.373 169.667 409.443 175.28 418.502 173.151Z" fill="#F39B7A"/>
<path d="M320.783 120.858C341.21 120.858 357.77 105.04 357.77 85.5266C357.77 66.0137 341.21 50.1953 320.783 50.1953C300.356 50.1953 283.797 66.0137 283.797 85.5266C283.797 105.04 300.356 120.858 320.783 120.858Z" fill="#9B2F12"/>
<path d="M314.622 107.52C330.559 107.52 343.479 95.1806 343.479 79.9592C343.479 64.7378 330.559 52.3984 314.622 52.3984C298.685 52.3984 285.765 64.7378 285.765 79.9592C285.765 95.1806 298.685 107.52 314.622 107.52Z" fill="#BD380F"/>
<path d="M353.892 180.171C341.688 179.994 328.992 174.151 322.89 163.351L323.48 162.879C329.366 168.348 337.338 170.826 345.231 170.335C347.534 170.158 350.132 169.882 352.278 169.135L353.892 180.171Z" fill="#BD380F"/>
<path d="M414.657 164.236C418.788 164.236 422.137 160.889 422.137 156.761C422.137 152.632 418.788 149.285 414.657 149.285C410.526 149.285 407.177 152.632 407.177 156.761C407.177 160.889 410.526 164.236 414.657 164.236Z" fill="white"/>
<path d="M414.874 181.509C413.023 181.509 411.527 180.014 411.527 178.164V159.594H418.2V178.164C418.2 180.014 416.704 181.509 414.874 181.509Z" fill="white"/>
<path d="M474.556 417.594L589.098 380.276C591.48 379.489 592.779 376.932 592.011 374.552L583.763 349.253C582.976 346.873 580.417 345.574 578.035 346.342L463.493 383.66C461.112 384.447 459.812 387.004 460.58 389.384L468.828 414.683C469.595 417.063 472.154 418.362 474.556 417.594Z" fill="#EA446D"/>
<path d="M463.336 383.7L569.886 348.978C572.189 348.231 573.449 345.752 572.701 343.45L564.355 317.857C563.607 315.555 561.127 314.296 558.824 315.044L452.273 349.765C449.97 350.513 448.711 352.991 449.459 355.293L457.805 380.887C458.553 383.188 461.013 384.447 463.336 383.7Z" fill="#FFC233"/>
<path d="M447.963 350.022L562.367 312.743C564.237 312.133 565.26 310.127 564.65 308.238L559.926 293.74C559.316 291.871 557.308 290.848 555.418 291.458L441.014 328.736C439.144 329.346 438.12 331.353 438.731 333.241L443.455 347.74C444.085 349.609 446.093 350.632 447.963 350.022Z" fill="#71BA23"/>
<path d="M332.082 444.347C375.899 443.206 421.389 430.813 467.883 411.888C460.934 386.649 454.163 370.085 454.163 370.085L458.671 344.53C460.265 335.58 458.336 326.373 453.297 318.799L401.547 240.936L342.456 199.113C342.456 199.113 253.661 267.553 332.082 444.347Z" fill="white"/>
<path d="M356.412 442.596C392.65 438.425 429.952 427.33 467.883 411.887C460.934 386.648 454.163 370.084 454.163 370.084L458.671 344.53C460.265 335.579 458.336 326.372 453.297 318.798L407.177 247.191L323.047 269.165L356.412 442.596Z" fill="#E0DDD5"/>
<path d="M411.075 262.122L414.578 260.568L421.271 257.598C421.271 257.598 416.468 198.011 366.155 188.135C330.685 181.171 331.413 210.148 331.413 210.148C347.888 202.516 363.281 212.332 378.497 224.647L411.075 262.122Z" fill="white"/>
<path d="M357.947 210.995C364.876 214.162 371.706 219.139 378.497 224.628L411.075 262.123L414.578 260.569L421.271 257.599C421.271 257.599 416.606 200.313 368.97 188.805L357.947 210.995Z" fill="#E0DDD5"/>
<path d="M592.7 361.626L586.381 363.081C585.417 363.298 584.531 363.809 583.822 364.517L559.867 389.245C559.257 389.954 558.292 390.229 557.406 389.973C556.166 389.619 555.458 388.34 555.772 387.081L557.997 376.399C558.292 374.963 558.016 373.468 557.209 372.229C555.182 369.14 550.714 368.845 548.352 371.698C544.356 376.498 539.041 383.993 536.679 392.098L534.002 396.996L438.849 368.373L407.138 247.173C401.055 223.959 377.316 210.051 354.089 216.13C330.862 222.208 316.945 245.933 323.027 269.146L361.707 416.983C365.348 430.872 375.328 441.416 387.729 446.354C393.418 448.734 399.658 449.954 406.213 449.62L529.868 444.839L529.908 444.918C529.908 444.918 566.953 442.144 582.149 408.19C592.227 385.665 595.633 372.052 596.775 365.442C597.188 363.101 595.042 361.094 592.7 361.626Z" fill="#F39B7A"/>
<path d="M429.479 332.452L407.177 247.192C401.095 223.979 377.356 210.071 354.128 216.149C330.901 222.228 316.984 245.953 323.067 269.166L346.491 358.734C363.813 343.409 404.087 332.097 429.479 332.452Z" fill="white"/>
</g>
<g clip-path="url(#clip2_1200_2882)">
<path d="M324.327 1008.31C308.068 1007.07 241.595 961.514 240.119 947.625C254.468 924.884 341.374 971.192 324.327 1008.31Z" fill="#2843B7"/>
<path d="M199.333 996.648C203.309 1025.78 224.391 1052.56 249.036 1078.82C256.279 1086.55 266.436 1090.9 277.046 1090.9H338.008C342.476 1090.9 346.078 1087.28 346.078 1082.83V1078.96C346.078 1070.18 341.472 1062.02 333.953 1057.47L305.293 1040.14L292.656 994.956L307.36 967.769C289.723 949.041 270.609 937.317 248.051 931.277L233.032 962.91L207.974 978.294C201.715 982.15 198.329 989.35 199.333 996.648Z" fill="#DFA088"/>
<path d="M282.4 1003.3C291.908 1025.66 305.293 1040.12 305.293 1040.12L333.953 1057.45C341.472 1062 346.078 1070.16 346.078 1078.94V1082.81C346.078 1087.26 342.456 1090.88 338.008 1090.88H277.026C266.436 1090.88 256.279 1086.53 249.016 1078.8C224.371 1052.54 203.309 1025.78 199.314 996.628C198.31 989.35 201.695 982.15 207.955 978.294L233.013 962.91C233.032 962.91 265.236 962.91 282.4 1003.3Z" fill="#714B4B"/>
<path d="M261.299 1022.59C272.302 1043.6 280.294 1062.12 284.251 1071.74C286.002 1076 290.077 1078.84 294.703 1079.01L346.078 1081.02V1082.81C346.078 1087.26 342.456 1090.88 338.008 1090.88H277.026C266.436 1090.88 256.279 1086.53 249.016 1078.8C224.371 1052.54 203.309 1025.78 199.314 996.627C198.821 993.047 199.392 989.486 200.849 986.339C214.057 974.575 245.197 991.867 261.299 1022.59Z" fill="#E6D9CD"/>
<path d="M522.822 537.105C455.601 734.3 388.872 912.924 324.327 1008.31C334.996 988.642 250.788 927.934 240.119 947.626C306.907 808.051 359.719 689.29 385.309 559.453L522.822 537.105Z" fill="#6187FF"/>
<path d="M458.711 718.012L391.608 598.07C408.044 708.176 392.749 830.458 352.18 962.42C387.218 898.996 422.807 814.17 458.711 718.012Z" fill="#2843B7"/>
<path d="M549.809 978.828V1019.39L629.569 1054.88C636.498 1057.97 640.966 1064.84 640.966 1072.43C640.966 1078.98 635.651 1084.29 629.097 1084.29H481.387C474.261 1084.29 468.75 1078.07 469.596 1071.01L476.131 1016.26L473.002 978.828H549.809Z" fill="#F39B7A"/>
<path d="M629.097 1084.29H481.387C474.261 1084.29 468.75 1078.07 469.596 1071.01L476.131 1016.26C508.433 1004.22 576.009 1049.57 590.339 1037.41L629.569 1054.86C636.498 1057.95 640.966 1064.81 640.966 1072.41C640.966 1078.98 635.651 1084.29 629.097 1084.29Z" fill="#714B4B"/>
<path d="M391.608 598.07L471.23 1019.82L559.73 1017.21L522.822 504.961C536.345 446.732 517.035 393.695 517.035 393.695L381.234 426.155C378.793 430.758 382.829 443.368 380.073 447.715C348.873 497.073 353.913 575.231 391.608 598.07Z" fill="#466FFF"/>
<path d="M500.126 93.7109C506.839 109.449 501.977 128.432 501.977 128.432C503.571 133.823 506.228 150.072 502.036 164.983C498.433 177.77 485.403 185.777 472.352 183.18C459.38 180.603 446.33 173.069 434.342 159.692L500.126 93.7109Z" fill="#F39B7A"/>
<path d="M471.624 174.504C463.317 186.229 455.522 199.587 448.219 214.557L392.631 175.193L425.287 130.281L471.624 174.504Z" fill="#F39B7A"/>
<path d="M499.004 89.0897C483.454 52.3617 457.018 37.0764 389.895 58.9322C349.779 81.1815 368.538 156.447 403.753 163.569C429.027 168.684 448.77 158.651 455.266 138.703C455.266 138.683 504.91 115.47 499.004 89.0897Z" fill="#BD380F"/>
<path d="M499.004 89.0893C487.568 62.0597 470.206 46.6563 435.09 49.1153C437.944 79.745 439.578 132.742 421.882 164.591C438.239 162.9 450.444 153.555 455.266 138.683C455.266 138.683 504.91 115.47 499.004 89.0893Z" fill="#9B2F12"/>
<path d="M467.654 154.956C476.712 152.827 482.328 143.763 480.198 134.71C478.068 125.657 468.998 120.044 459.94 122.173C450.882 124.302 445.265 133.366 447.395 142.419C449.525 151.472 458.595 157.085 467.654 154.956Z" fill="#F39B7A"/>
<path d="M369.936 102.663C390.363 102.663 406.922 86.8443 406.922 67.3313C406.922 47.8184 390.363 32 369.936 32C349.508 32 332.949 47.8184 332.949 67.3313C332.949 86.8443 349.508 102.663 369.936 102.663Z" fill="#9B2F12"/>
<path d="M363.774 89.3247C379.712 89.3247 392.631 76.9853 392.631 61.7639C392.631 46.5425 379.712 34.2031 363.774 34.2031C347.837 34.2031 334.917 46.5425 334.917 61.7639C334.917 76.9853 347.837 89.3247 363.774 89.3247Z" fill="#BD380F"/>
<path d="M403.044 161.975C390.84 161.798 378.144 155.956 372.042 145.156L372.632 144.684C378.518 150.152 386.49 152.631 394.383 152.139C396.686 151.962 399.285 151.687 401.43 150.939L403.044 161.975Z" fill="#BD380F"/>
<path d="M463.809 146.041C467.94 146.041 471.289 142.694 471.289 138.565C471.289 134.437 467.94 131.09 463.809 131.09C459.678 131.09 456.329 134.437 456.329 138.565C456.329 142.694 459.678 146.041 463.809 146.041Z" fill="white"/>
<path d="M464.026 163.313C462.175 163.313 460.679 161.818 460.679 159.969V141.398H467.352V159.969C467.352 161.818 465.856 163.313 464.026 163.313Z" fill="white"/>
<path d="M523.708 399.399L638.25 362.081C640.632 361.294 641.931 358.737 641.163 356.356L632.915 331.058C632.128 328.677 629.569 327.379 627.187 328.146L512.645 365.465C510.264 366.251 508.965 368.809 509.732 371.189L517.98 396.488C518.748 398.868 521.306 400.166 523.708 399.399Z" fill="#EA446D"/>
<path d="M512.488 365.504L619.038 330.783C621.341 330.035 622.601 327.557 621.853 325.255L613.507 299.661C612.759 297.36 610.279 296.101 607.976 296.848L501.425 331.57C499.122 332.317 497.863 334.796 498.611 337.098L506.957 362.691C507.705 364.993 510.165 366.252 512.488 365.504Z" fill="#FFC233"/>
<path d="M497.115 331.827L611.519 294.548C613.389 293.938 614.412 291.931 613.802 290.043L609.078 275.544C608.468 273.675 606.46 272.652 604.57 273.262L490.166 310.541C488.296 311.151 487.273 313.158 487.883 315.046L492.607 329.545C493.237 331.413 495.245 332.436 497.115 331.827Z" fill="#71BA23"/>
<path d="M381.234 426.152C425.051 425.011 470.541 412.618 517.035 393.693C510.087 368.453 503.315 351.889 503.315 351.889L507.823 326.335C509.417 317.384 507.488 308.178 502.449 300.604L450.699 222.741L391.608 180.918C391.608 180.918 302.813 249.358 381.234 426.152Z" fill="white"/>
<path d="M405.564 424.4C441.802 420.23 479.104 409.135 517.035 393.692C510.086 368.453 503.315 351.889 503.315 351.889L507.823 326.334C509.417 317.383 507.488 308.177 502.449 300.603L456.329 228.996L372.199 250.97L405.564 424.4Z" fill="#E0DDD5"/>
<path d="M460.227 243.927L463.73 242.373L470.423 239.403C470.423 239.403 465.62 179.815 415.307 169.94C379.837 162.976 380.565 191.953 380.565 191.953C397.041 184.32 412.434 194.137 427.649 206.452L460.227 243.927Z" fill="white"/>
<path d="M407.099 192.8C414.028 195.967 420.858 200.944 427.649 206.433L460.227 243.928L463.73 242.374L470.423 239.403C470.423 239.403 465.758 182.118 418.122 170.609L407.099 192.8Z" fill="#E0DDD5"/>
<path d="M641.852 343.43L635.533 344.886C634.569 345.102 633.683 345.614 632.974 346.322L609.019 371.05C608.409 371.758 607.444 372.034 606.558 371.778C605.318 371.424 604.61 370.145 604.925 368.886L607.149 358.204C607.444 356.768 607.169 355.273 606.362 354.034C604.334 350.945 599.866 350.65 597.504 353.502C593.508 358.302 588.193 365.798 585.831 373.903L583.154 378.801L488.001 350.178L456.29 228.977C450.207 205.764 426.468 191.856 403.241 197.934C380.014 204.013 366.097 227.738 372.179 250.951L410.859 398.788C414.5 412.677 424.48 423.221 436.881 428.159C442.57 430.539 448.81 431.759 455.365 431.424L579.02 426.644L579.06 426.723C579.06 426.723 616.105 423.949 631.301 389.994C641.38 367.47 644.785 353.857 645.927 347.247C646.34 344.906 644.194 342.899 641.852 343.43Z" fill="#F39B7A"/>
<path d="M478.631 314.256L456.329 228.997C450.247 205.784 426.508 191.875 403.28 197.954C380.053 204.033 366.136 227.757 372.219 250.971L395.643 340.538C412.965 325.214 453.239 313.902 478.631 314.256Z" fill="white"/>
</g>
</g>
<defs>
<filter id="filter0_f_1200_2882" x="66" y="964.668" width="706" height="247.332" filterUnits="userSpaceOnUse" color-interpolation-filters="sRGB">
<feFlood flood-opacity="0" result="BackgroundImageFix"/>
<feBlend mode="normal" in="SourceGraphic" in2="BackgroundImageFix" result="shape"/>
<feGaussianBlur stdDeviation="40" result="effect1_foregroundBlur_1200_2882"/>
</filter>
<filter id="filter1_f_1200_2882" x="100.004" y="0.195312" width="546.81" height="1158.88" filterUnits="userSpaceOnUse" color-interpolation-filters="sRGB">
<feFlood flood-opacity="0" result="BackgroundImageFix"/>
<feBlend mode="normal" in="SourceGraphic" in2="BackgroundImageFix" result="shape"/>
<feGaussianBlur stdDeviation="25" result="effect1_foregroundBlur_1200_2882"/>
</filter>
<clipPath id="clip0_1200_2882">
<rect width="740" height="1300" fill="white"/>
</clipPath>
<clipPath id="clip1_1200_2882">
<rect width="446.81" height="1058.88" fill="white" transform="translate(150.004 50.1953)"/>
</clipPath>
<clipPath id="clip2_1200_2882">
<rect width="446.81" height="1058.88" fill="white" transform="translate(199.156 32)"/>
</clipPath>
</defs>
</svg>
