<svg width="740" height="1300" viewBox="0 0 740 1300" fill="none" xmlns="http://www.w3.org/2000/svg">
<g filter="url(#filter0_f_1386_4439)">
<ellipse cx="352.167" cy="1150.96" rx="171.532" ry="29.617" fill="#2C0C4B" fill-opacity="0.3" style="mix-blend-mode:multiply"/>
</g>
<g opacity="0.3" clip-path="url(#clip0_1386_4439)" filter="url(#filter1_f_1386_4439)">
<path d="M394.218 962.633L397.125 1021.08L453.43 1053.45L468.061 1057.44C476.731 1059.8 482.815 1068.27 482.815 1078C482.815 1089.7 474.071 1099.21 463.283 1099.21H337.641C326.631 1099.21 317.961 1088.99 318.873 1077.07L323.035 1022.9L318.799 962.657H394.169L394.218 962.633Z" fill="#F29A78"/>
<path d="M394.218 962.633H318.873L321.681 1002.85L397.149 1021.08L394.218 962.633Z" fill="#1C242B"/>
<path d="M482.865 1078C482.865 1089.7 474.121 1099.2 463.333 1099.2H337.692C326.682 1099.2 318.012 1088.98 318.923 1077.06L320.746 1053.46C366.14 1075.36 410.451 1076.57 453.456 1053.46L468.087 1057.46C476.757 1059.82 482.841 1068.29 482.841 1078.02L482.865 1078Z" fill="#270F1B"/>
<path d="M439.489 508.637C436.09 659.845 422.321 847.161 402.887 1007.78L310.941 1011.03L305.325 508.637H439.489Z" fill="#D7DCD1"/>
<path d="M205.694 947.21L177.935 996.792L207.96 1058.37L218.059 1070.78C224.044 1078.15 224.709 1088.86 219.709 1096.79C213.675 1106.35 201.507 1108.66 192.566 1101.92L88.3042 1023.47C79.1662 1016.59 77.245 1002.83 84.1662 993.663L115.57 952.013L143.157 900.141L205.694 947.185V947.21Z" fill="#FDB397"/>
<path d="M177.936 996.794L205.695 947.213L143.158 900.168L126.901 930.759L177.936 996.794Z" fill="#1C242B"/>
<path d="M219.709 1096.8C213.675 1106.35 201.507 1108.67 192.566 1101.92L88.3042 1023.47C79.1662 1016.6 77.245 1002.83 84.1662 993.669L97.8609 975.516C124.24 1021.75 160.349 1050.39 207.985 1058.37L218.083 1070.79C224.069 1078.15 224.734 1088.87 219.734 1096.8H219.709Z" fill="#3A0F24"/>
<path d="M435.72 508.418L369.981 640.858L207.886 992.289L121.949 924.16C123.944 905.17 129.166 881.155 141.334 855.219C173.551 786.499 217.738 739.947 217.738 739.947C217.738 739.947 223.255 646.892 233.723 600.02C244.61 551.177 280.965 498.738 280.965 498.738L435.745 508.418H435.72Z" fill="white"/>
<path d="M280.941 498.738C280.941 498.738 278.651 502.039 275.055 507.753C304.981 547.187 390.031 539.33 422.716 534.65L435.745 508.418L280.966 498.738H280.941Z" fill="#19233D"/>
<path d="M406.877 414.401L423.232 315.878C427.616 289.474 409.267 264.671 382.739 261.124C357.222 257.725 333.675 275.286 329.66 300.681C320.621 357.849 306.31 448.342 306.31 448.342C300.423 475.879 322.148 502.997 350.522 502.135L518.479 499.155L522.74 431.027L406.877 414.376V414.401Z" fill="#121C3B"/>
<path d="M346.336 502.064C347.715 502.163 349.095 502.212 350.499 502.163L514.736 492.631L522.717 431.029L406.854 414.379C369.169 415.832 351.164 468.788 346.336 502.064Z" fill="#212A59"/>
<path d="M362.19 247.573C375.608 234.155 375.608 212.4 362.19 198.981C348.772 185.563 327.016 185.563 313.598 198.981C300.179 212.4 300.179 234.155 313.598 247.573C327.016 260.992 348.772 260.992 362.19 247.573Z" fill="#9F5A38"/>
<path d="M330.891 230.977L317.049 240.706C315.842 241.568 314.659 242.43 313.502 243.341C286.309 264.4 272.073 298.145 274.117 332.48L280.94 498.737L439.488 508.663L445.276 374.795C442.271 298.933 378.281 257.455 378.281 257.455L330.891 231.001V230.977Z" fill="#19264A"/>
<path d="M434.538 482.598L436.509 437.13L414.021 431.735C379.341 421.07 373.873 388.065 370.055 355.627L367.543 334.469L315.276 460.159L434.538 482.598Z" fill="#121C3B"/>
<path d="M350.769 156.98C338.429 187.202 358.109 225.38 388.922 237.941C419.735 250.528 459.933 240.035 472.273 209.813C484.613 179.591 462.667 144.665 433.578 128.482C397.223 108.261 363.109 126.758 350.769 156.98Z" fill="#9F5A38"/>
<path d="M433.579 128.491C462.668 144.674 484.614 179.6 472.274 209.822C467.003 222.753 456.609 232.063 444.047 237.507C433.481 238.098 422.643 236.448 412.766 232.433C381.953 219.847 362.273 181.694 374.613 151.472C380.229 137.703 390.377 126.373 403.209 120.043C412.84 120.092 423.136 122.678 433.604 128.516L433.579 128.491Z" fill="#6F2B1A"/>
<path d="M398.232 243.951L381.187 278.754C372.838 289.321 318.724 246.537 327.074 235.971L364.242 189.246L398.232 243.951Z" fill="#FDB397"/>
<path d="M361.828 274.838C370.671 279.887 378.405 282.251 381.163 278.754L398.208 243.951L383.405 220.133L361.804 274.838H361.828Z" fill="#F29A78"/>
<path d="M355.843 209.934L387.863 147.668C387.863 147.668 470.179 169.368 467.864 195.624C468.726 208.506 459.218 224.54 450.942 232.989C451.263 236.462 453.701 242.275 454.514 245.895C455.006 248.087 447.913 250.452 444.267 248.432C436.878 262.324 424.021 275.23 408.922 272.398C384.636 267.817 364.439 246.56 356.681 233.013C352.543 225.772 352.198 217.151 355.868 209.934H355.843Z" fill="#F29A78"/>
<path d="M449.983 210.164C447.397 207.726 443.751 206.42 440.204 206.839C439.687 206.913 439.244 207.011 438.85 207.406C438.529 207.726 438.283 208.268 438.283 208.76C438.332 209.696 439.121 210.805 440.18 210.657C440.894 210.558 441.633 210.558 442.347 210.608C442.397 210.608 442.618 210.608 442.643 210.632C442.643 210.608 442.249 210.583 442.52 210.632C442.692 210.657 442.889 210.706 443.062 210.731C443.431 210.805 443.776 210.903 444.145 211.026C444.293 211.076 444.465 211.125 444.613 211.199C444.884 211.297 444.712 211.273 444.564 211.174C444.638 211.223 444.712 211.248 444.786 211.273C445.131 211.42 445.451 211.593 445.771 211.79C446.066 211.962 446.362 212.159 446.658 212.356C446.855 212.504 446.313 212.085 446.584 212.307C446.658 212.356 446.707 212.406 446.781 212.455C446.929 212.578 447.101 212.726 447.249 212.874C447.963 213.563 449.244 213.662 449.934 212.874C450.623 212.135 450.722 210.903 449.934 210.189L449.983 210.164Z" fill="#753C3D"/>
<path d="M436.165 223.78C434.318 227.006 434.367 230.504 436.263 231.588C438.16 232.671 441.214 230.947 443.061 227.745C444.909 224.543 444.859 221.021 442.963 219.937C441.066 218.854 438.012 220.578 436.165 223.78Z" fill="#22201F"/>
<path d="M421.534 243.484C421.534 243.484 424.12 253.115 432.175 255.381" stroke="#753C3D" stroke-width="2.46307" stroke-linecap="round" stroke-linejoin="round"/>
<path d="M371.927 178.661C373.824 199.277 363.479 242.775 395.08 267.898C377.124 259.696 362.888 243.884 356.656 232.997C352.518 225.755 352.173 217.135 355.843 209.918L371.927 178.637V178.661Z" fill="#FDB397"/>
<path d="M459.883 173.587C441.483 198.267 396.926 204.868 379.611 197.947C362.296 191.026 384.291 140.016 384.291 140.016C384.291 140.016 449.365 161.297 459.907 173.563L459.883 173.587Z" fill="#6F2B1A"/>
<path d="M362.69 174.422C355.104 181.073 354.365 192.625 361.015 200.186C367.665 207.772 379.217 208.511 386.779 201.861C394.365 195.211 395.104 183.659 388.454 176.097C381.804 168.511 370.252 167.772 362.69 174.422Z" fill="#FDB397"/>
<path d="M386.803 201.856C382.493 205.649 376.902 207.029 371.655 206.093L370.892 170.28C377.148 168.925 383.946 170.92 388.478 176.068C395.128 183.654 394.389 195.181 386.803 201.856Z" fill="#F29A78"/>
<path d="M382.69 181.144C378.847 176.76 372.148 176.316 367.764 180.183C365.079 182.548 363.872 185.947 364.217 189.247" stroke="#753C3D" stroke-width="2.46307" stroke-miterlimit="10" stroke-linecap="round"/>
<path d="M371.064 187.53C368.404 190.19 368.404 194.501 371.064 197.161C373.725 199.821 378.035 199.821 380.695 197.161C383.355 194.501 383.355 190.19 380.695 187.53C378.035 184.87 373.725 184.87 371.064 187.53Z" fill="white"/>
<path d="M356.138 212.162C357.616 213.639 360.005 213.639 361.483 212.162L374.685 198.935C376.163 197.457 376.163 195.068 374.685 193.565C373.207 192.088 370.793 192.088 369.315 193.565L356.113 206.792C354.635 208.27 354.635 210.659 356.113 212.162H356.138Z" fill="white"/>
<path d="M357.668 423.664L368.062 325.732C372.446 299.328 360.402 276.002 333.85 272.48C308.332 269.081 287.815 286.791 283.8 312.185C274.761 369.353 257.076 457.629 257.076 457.629C251.189 485.167 272.913 512.285 301.288 511.423L469.245 508.443L473.506 440.314L357.643 423.664H357.668Z" fill="#FDB397"/>
<path d="M470.894 482.599H328.356C299.415 482.599 273.331 466.836 259.513 442.328C258.011 451.86 257.099 457.624 257.099 457.624C251.212 485.161 272.937 512.279 301.311 511.417L469.268 508.437L470.894 482.599Z" fill="#F29A78"/>
<path d="M333.528 270.413C308.011 267.014 284.464 284.576 280.449 309.97C271.41 367.138 257.099 457.631 257.099 457.631C251.212 485.168 272.937 512.287 301.311 511.424H301.41C298.971 447.188 357.691 423.641 357.691 423.641L374.046 325.118C378.43 298.714 360.08 273.91 333.553 270.364L333.528 270.413Z" fill="#1B2C55"/>
<path d="M609.834 468.286L456.927 514.592L448.257 401.734C448.134 400.034 449.193 398.482 450.818 397.99L596.608 353.827C598.824 353.162 601.09 354.714 601.287 357.029L609.834 468.286Z" fill="#F8EFDD"/>
<path d="M609.835 460.655L456.903 506.961L426.607 433.044L579.54 386.738L609.835 460.655Z" fill="white"/>
<path d="M609.835 468.292L456.903 514.598L426.607 440.681L579.54 394.375L609.835 468.292Z" fill="#270F1B"/>
<path d="M609.835 460.655V468.291L579.539 394.374V386.738L609.835 460.655Z" fill="#948C8F"/>
<path d="M604.343 385.879L586.288 376.002C580.451 372.751 584.54 363.834 590.771 366.076L610.106 373.145C619.294 376.938 613.259 390.263 604.343 385.854V385.879Z" fill="#F29A78"/>
<path d="M595.402 383.313L607.618 383.731C611.485 383.879 614.515 387.106 614.367 390.973C614.269 395.283 610.106 398.51 605.894 397.574L593.948 395.012C586.929 393.387 588.234 383.116 595.402 383.263V383.313Z" fill="#F29A78"/>
<path d="M595.402 395.801L607.618 396.22C611.485 396.367 614.515 399.594 614.367 403.461C614.269 407.771 610.106 410.998 605.894 410.062L593.948 407.5C586.929 405.875 588.234 395.604 595.402 395.752V395.801Z" fill="#F29A78"/>
<path d="M598.087 409.204L607.545 409.401C615.87 409.795 615.624 421.988 607.274 422.037C606.757 422.16 597.545 419.919 596.781 419.771C590.574 418.318 591.757 409.081 598.087 409.204Z" fill="#F29A78"/>
</g>
<g clip-path="url(#clip1_1386_4439)">
<path d="M440.068 962.633L442.974 1021.08L499.28 1053.45L513.911 1057.44C522.581 1059.8 528.664 1068.27 528.664 1078C528.664 1089.7 519.921 1099.21 509.132 1099.21H383.491C372.481 1099.21 363.811 1088.99 364.722 1077.07L368.885 1022.9L364.648 962.657H440.018L440.068 962.633Z" fill="#F29A78"/>
<path d="M440.067 962.633H364.722L367.53 1002.85L442.998 1021.08L440.067 962.633Z" fill="#1C242B"/>
<path d="M528.715 1078C528.715 1089.7 519.971 1099.2 509.183 1099.2H383.541C372.532 1099.2 363.862 1088.98 364.773 1077.06L366.596 1053.46C411.99 1075.36 456.301 1076.57 499.306 1053.46L513.937 1057.46C522.607 1059.82 528.69 1068.29 528.69 1078.02L528.715 1078Z" fill="#270F1B"/>
<path d="M485.338 508.637C481.939 659.845 468.171 847.161 448.737 1007.78L356.791 1011.03L351.175 508.637H485.338Z" fill="#D7DCD1"/>
<path d="M251.544 947.21L223.785 996.792L253.81 1058.37L263.908 1070.78C269.894 1078.15 270.559 1088.86 265.559 1096.79C259.524 1106.35 247.357 1108.66 238.416 1101.92L134.154 1023.47C125.016 1016.59 123.095 1002.83 130.016 993.663L161.42 952.013L189.006 900.141L251.544 947.185V947.21Z" fill="#FDB397"/>
<path d="M223.787 996.794L251.546 947.213L189.008 900.168L172.752 930.759L223.787 996.794Z" fill="#1C242B"/>
<path d="M265.559 1096.8C259.524 1106.35 247.357 1108.67 238.416 1101.92L134.154 1023.47C125.016 1016.6 123.095 1002.83 130.016 993.669L143.71 975.516C170.09 1021.75 206.199 1050.39 253.834 1058.37L263.933 1070.79C269.918 1078.15 270.583 1088.87 265.583 1096.8H265.559Z" fill="#3A0F24"/>
<path d="M481.57 508.418L415.83 640.858L253.735 992.289L167.799 924.16C169.794 905.17 175.016 881.155 187.183 855.219C219.4 786.499 263.588 739.947 263.588 739.947C263.588 739.947 269.105 646.892 279.573 600.02C290.46 551.177 326.815 498.738 326.815 498.738L481.594 508.418H481.57Z" fill="white"/>
<path d="M326.792 498.738C326.792 498.738 324.501 502.039 320.905 507.753C350.832 547.187 435.881 539.33 468.566 534.65L481.596 508.418L326.817 498.738H326.792Z" fill="#19233D"/>
<path d="M452.728 414.401L469.083 315.878C473.467 289.474 455.117 264.671 428.59 261.124C403.072 257.725 379.525 275.286 375.511 300.681C366.471 357.849 352.161 448.342 352.161 448.342C346.274 475.879 367.998 502.997 396.373 502.135L557.209 490.471L568.591 431.027L452.728 414.376V414.401Z" fill="#121C3B"/>
<path d="M392.186 502.064C393.565 502.163 394.944 502.212 396.348 502.163L560.586 492.631L568.566 431.029L452.703 414.379C415.018 415.832 397.013 468.788 392.186 502.064Z" fill="#212A59"/>
<path d="M408.041 247.573C421.459 234.155 421.459 212.4 408.041 198.981C394.622 185.563 372.867 185.563 359.448 198.981C346.03 212.4 346.03 234.155 359.448 247.573C372.867 260.992 394.622 260.992 408.041 247.573Z" fill="#9F5A38"/>
<path d="M376.742 230.977L362.899 240.706C361.692 241.568 360.51 242.43 359.352 243.341C332.16 264.4 317.923 298.145 319.968 332.48L326.79 498.737L485.338 508.663L491.127 374.795C488.122 298.933 424.131 257.455 424.131 257.455L376.742 231.001V230.977Z" fill="#19264A"/>
<path d="M480.388 482.598L482.358 437.13L459.871 431.735C425.19 421.07 419.722 388.065 415.905 355.627L413.392 334.469L361.126 460.159L480.388 482.598Z" fill="#121C3B"/>
<path d="M396.619 156.98C384.279 187.202 403.959 225.38 434.772 237.941C465.585 250.528 505.782 240.035 518.122 209.813C530.462 179.591 508.516 144.665 479.428 128.482C443.073 108.261 408.959 126.758 396.619 156.98Z" fill="#9F5A38"/>
<path d="M479.428 128.491C508.517 144.674 530.463 179.6 518.123 209.822C512.852 222.753 502.458 232.063 489.896 237.507C479.329 238.098 468.492 236.448 458.615 232.433C427.802 219.847 408.122 181.694 420.462 151.472C426.078 137.703 436.225 126.373 449.058 120.043C458.689 120.092 468.984 122.678 479.452 128.516L479.428 128.491Z" fill="#6F2B1A"/>
<path d="M444.083 243.951L427.038 278.754C418.688 289.321 364.575 246.537 372.924 235.971L410.092 189.246L444.083 243.951Z" fill="#FDB397"/>
<path d="M407.677 274.838C416.519 279.887 424.253 282.251 427.012 278.754L444.057 243.951L429.253 220.133L407.652 274.838H407.677Z" fill="#F29A78"/>
<path d="M401.694 209.934L433.714 147.668C433.714 147.668 516.03 169.368 513.714 195.624C514.576 208.506 505.069 224.54 496.793 232.989C497.113 236.462 499.552 242.275 500.364 245.895C500.857 248.087 493.763 250.452 490.118 248.432C482.729 262.324 469.872 275.23 454.773 272.398C430.487 267.817 410.29 246.56 402.531 233.013C398.393 225.772 398.048 217.151 401.718 209.934H401.694Z" fill="#F29A78"/>
<path d="M495.831 210.164C493.245 207.726 489.6 206.42 486.053 206.839C485.536 206.913 485.092 207.011 484.698 207.406C484.378 207.726 484.132 208.268 484.132 208.76C484.181 209.696 484.969 210.805 486.028 210.657C486.743 210.558 487.482 210.558 488.196 210.608C488.245 210.608 488.467 210.608 488.491 210.632C488.491 210.608 488.097 210.583 488.368 210.632C488.541 210.657 488.738 210.706 488.91 210.731C489.28 210.805 489.624 210.903 489.994 211.026C490.142 211.076 490.314 211.125 490.462 211.199C490.733 211.297 490.56 211.273 490.413 211.174C490.487 211.223 490.56 211.248 490.634 211.273C490.979 211.42 491.299 211.593 491.62 211.79C491.915 211.962 492.211 212.159 492.506 212.356C492.703 212.504 492.161 212.085 492.432 212.307C492.506 212.356 492.556 212.406 492.629 212.455C492.777 212.578 492.95 212.726 493.097 212.874C493.812 213.563 495.092 213.662 495.782 212.874C496.472 212.135 496.57 210.903 495.782 210.189L495.831 210.164Z" fill="#753C3D"/>
<path d="M482.013 223.78C480.166 227.006 480.215 230.504 482.112 231.588C484.009 232.671 487.063 230.947 488.91 227.745C490.757 224.543 490.708 221.021 488.812 219.937C486.915 218.854 483.861 220.578 482.013 223.78Z" fill="#22201F"/>
<path d="M467.384 243.484C467.384 243.484 469.97 253.115 478.024 255.381" stroke="#753C3D" stroke-width="2.46307" stroke-linecap="round" stroke-linejoin="round"/>
<path d="M417.777 178.661C419.673 199.277 409.328 242.775 440.93 267.898C422.974 259.696 408.737 243.884 402.506 232.997C398.368 225.755 398.023 217.135 401.693 209.918L417.777 178.637V178.661Z" fill="#FDB397"/>
<path d="M505.733 173.587C487.334 198.267 442.777 204.868 425.462 197.947C408.146 191.026 430.142 140.016 430.142 140.016C430.142 140.016 495.216 161.297 505.758 173.563L505.733 173.587Z" fill="#6F2B1A"/>
<path d="M408.542 174.415C400.955 181.065 400.216 192.617 406.867 200.178C413.517 207.765 425.069 208.504 432.63 201.853C440.217 195.203 440.956 183.651 434.305 176.089C427.655 168.503 416.103 167.764 408.542 174.415Z" fill="#FDB397"/>
<path d="M432.657 201.856C428.346 205.649 422.755 207.029 417.509 206.093L416.745 170.28C423.001 168.925 429.799 170.92 434.331 176.068C440.982 183.654 440.243 195.181 432.657 201.856Z" fill="#F29A78"/>
<path d="M428.542 181.144C424.7 176.76 418 176.316 413.616 180.183C410.931 182.548 409.724 185.947 410.069 189.247" stroke="#753C3D" stroke-width="2.46307" stroke-miterlimit="10" stroke-linecap="round"/>
<path d="M416.915 187.53C414.255 190.19 414.255 194.501 416.915 197.161C419.575 199.821 423.886 199.821 426.546 197.161C429.206 194.501 429.206 190.19 426.546 187.53C423.886 184.87 419.575 184.87 416.915 187.53Z" fill="white"/>
<path d="M401.988 212.162C403.466 213.639 405.856 213.639 407.333 212.162L420.535 198.935C422.013 197.457 422.013 195.068 420.535 193.565C419.058 192.088 416.644 192.088 415.166 193.565L401.964 206.792C400.486 208.27 400.486 210.659 401.964 212.162H401.988Z" fill="white"/>
<path d="M403.516 423.664L413.91 325.732C418.295 299.328 406.25 276.002 379.698 272.48C354.181 269.081 333.664 286.791 329.649 312.185C320.609 369.353 302.924 457.629 302.924 457.629C297.038 485.167 318.762 512.285 347.137 511.423L515.093 508.443L519.355 440.314L403.492 423.664H403.516Z" fill="#FDB397"/>
<path d="M516.743 482.599H374.205C345.263 482.599 319.179 466.836 305.362 442.328C303.859 451.86 302.948 457.624 302.948 457.624C297.061 485.161 318.785 512.279 347.16 511.417L515.117 508.437L516.743 482.599Z" fill="#F29A78"/>
<path d="M379.377 270.413C353.86 267.014 330.313 284.576 326.298 309.97C317.258 367.138 302.948 457.631 302.948 457.631C297.061 485.168 318.785 512.287 347.16 511.424H347.259C344.82 447.188 403.54 423.641 403.54 423.641L419.895 325.118C424.279 298.714 405.929 273.91 379.402 270.364L379.377 270.413Z" fill="#1B2C55"/>
<path d="M655.685 468.286L502.777 514.592L494.107 401.734C493.984 400.034 495.043 398.482 496.669 397.99L642.458 353.827C644.675 353.162 646.941 354.714 647.138 357.029L655.685 468.286Z" fill="#F8EFDD"/>
<path d="M655.685 460.655L502.753 506.961L472.457 433.044L625.389 386.738L655.685 460.655Z" fill="white"/>
<path d="M655.685 468.292L502.753 514.598L472.457 440.681L625.389 394.375L655.685 468.292Z" fill="#270F1B"/>
<path d="M655.685 460.655V468.291L625.39 394.374V386.738L655.685 460.655Z" fill="#948C8F"/>
<path d="M650.192 385.879L632.138 376.002C626.301 372.751 630.389 363.834 636.621 366.076L655.956 373.145C665.143 376.938 659.109 390.263 650.192 385.854V385.879Z" fill="#F29A78"/>
<path d="M641.251 383.313L653.468 383.731C657.335 383.879 660.365 387.106 660.217 390.973C660.118 395.283 655.956 398.51 651.744 397.574L639.798 395.012C632.778 393.387 634.084 383.116 641.251 383.263V383.313Z" fill="#F29A78"/>
<path d="M641.251 395.801L653.468 396.22C657.335 396.367 660.365 399.594 660.217 403.461C660.118 407.771 655.956 410.998 651.744 410.062L639.798 407.5C632.778 405.875 634.084 395.604 641.251 395.752V395.801Z" fill="#F29A78"/>
<path d="M643.936 409.204L653.394 409.401C661.72 409.795 661.473 421.988 653.124 422.037C652.606 422.16 643.394 419.919 642.631 419.771C636.424 418.318 637.606 409.081 643.936 409.204Z" fill="#F29A78"/>
</g>
<defs>
<filter id="filter0_f_1386_4439" x="88.9352" y="1029.64" width="526.463" height="242.634" filterUnits="userSpaceOnUse" color-interpolation-filters="sRGB">
<feFlood flood-opacity="0" result="BackgroundImageFix"/>
<feBlend mode="normal" in="SourceGraphic" in2="BackgroundImageFix" result="shape"/>
<feGaussianBlur stdDeviation="45.8498" result="effect1_foregroundBlur_1386_4439"/>
</filter>
<filter id="filter1_f_1386_4439" x="21.3103" y="61.3103" width="652.067" height="1103.17" filterUnits="userSpaceOnUse" color-interpolation-filters="sRGB">
<feFlood flood-opacity="0" result="BackgroundImageFix"/>
<feBlend mode="normal" in="SourceGraphic" in2="BackgroundImageFix" result="shape"/>
<feGaussianBlur stdDeviation="29.3448" result="effect1_foregroundBlur_1386_4439"/>
</filter>
<clipPath id="clip0_1386_4439">
<rect width="534.688" height="985.789" fill="white" transform="translate(80 120)"/>
</clipPath>
<clipPath id="clip1_1386_4439">
<rect width="534.688" height="985.789" fill="white" transform="translate(125.85 120)"/>
</clipPath>
</defs>
</svg>
