<svg width="740" height="1300" viewBox="0 0 740 1300" fill="none" xmlns="http://www.w3.org/2000/svg">
<g filter="url(#filter0_f_1386_4376)">
<ellipse cx="390.167" cy="1135.97" rx="248.65" ry="43.6383" fill="#2C0C4B" fill-opacity="0.3" style="mix-blend-mode:multiply"/>
</g>
<g opacity="0.3" clip-path="url(#clip0_1386_4376)" filter="url(#filter1_f_1386_4376)">
<path d="M358.12 1030.76C343.483 1051.25 235.866 1004.1 223.346 979.192C251.148 946.641 351.998 992.544 358.12 1030.76Z" fill="#040000"/>
<path d="M320.56 1025.23L317.2 1003.83L346.843 934.441L255.981 895.996L224.404 976.753L270.71 1054.29L320.56 1025.23Z" fill="#DB7D5A"/>
<path d="M320.56 1025.23L325.439 1063.77C325.439 1063.77 348.914 1068.19 357.567 1086.74C358.948 1089.64 358.304 1093.19 356.095 1095.54C338.511 1113.72 293.034 1128.13 257.914 1112.43C220.308 1095.63 204.105 1017.36 205.624 1001.43C207.143 985.543 239.64 964.732 257.269 970.257C285.623 979.097 298.236 1030.2 298.236 1030.2L320.56 1025.32V1025.23Z" fill="#C74964"/>
<path d="M356.049 1095.5C338.465 1113.68 292.988 1128.09 257.868 1112.39C220.262 1095.59 204.059 1017.32 205.578 1001.39C206.729 989.51 220.308 978.828 233.104 979.058C269.743 987.254 300.583 1093.24 320.514 1099.87C342.608 1107.19 357.522 1086.75 357.522 1086.75C358.902 1089.65 358.258 1093.2 356.049 1095.54V1095.5Z" fill="#313D70"/>
<path d="M345.233 516.016C315.084 578.079 301.045 654.646 296.212 720.163C287.42 839.595 223.301 979.192 223.301 979.192C223.301 979.192 285.993 960.085 358.076 1030.76L461.918 647.234L345.233 516.016Z" fill="#355DAA"/>
<path d="M401.987 1066.9C396.233 1075 393.61 1093.79 392.413 1108.2C391.446 1119.99 399.133 1130.67 410.595 1133.57C425.508 1137.34 446.912 1139.42 466.612 1129.24L550.432 1082.05C555.081 1079.42 558.948 1075.37 560.789 1070.35C562.86 1064.64 562.86 1056.96 554.575 1048.85C542.423 1037.07 495.749 1048.85 495.749 1048.85L401.987 1066.9Z" fill="#C74964"/>
<path d="M507.808 494.879C564.654 658.694 548.912 855.66 523.734 1050.88C483.689 1095.4 391.169 1093.65 378.465 1055.02C395.956 901.056 395.68 781.763 382.332 647.23C382.332 647.23 341.227 609.108 345.232 516.012L507.808 494.879Z" fill="#5079BD"/>
<path d="M507.073 415.692L491.423 457.498L450.365 334.383L502.93 393.316C508.362 399.393 509.973 408.003 507.119 415.646L507.073 415.692Z" fill="#F6B737"/>
<path d="M459.801 303.395C392.045 304.039 328.755 312.971 274.578 338.708C291.379 415.413 316.465 473.011 345.28 516.014L507.855 494.881L502.93 475.175L459.847 303.395H459.801Z" fill="#F6B737"/>
<path d="M190.114 469.924C214.97 429.04 239.135 388.753 266.339 349.204C292.391 314.995 342.61 350.355 319.319 386.405C298.375 416.885 278.629 448.929 259.25 480.836C281.206 501.14 312.506 530.147 312.506 530.147C335.659 552.523 306.569 588.527 279.779 570.387L197.479 511.73C184.222 502.291 180.954 483.599 190.16 469.97L190.114 469.924Z" fill="#DB7D5A"/>
<path d="M316.051 534.75C328.571 537.006 330.136 551.739 330.136 551.739L311.08 617.532L282.817 572.228L316.051 534.75Z" fill="#DB7D5A"/>
<path d="M274.579 338.71C257.087 346.905 229.746 399.209 229.746 399.209C229.746 399.209 254.234 458.602 286.776 464.726L318.353 415.691L274.579 338.664V338.71Z" fill="#D89532"/>
<path d="M389.974 186.445C404.059 197.633 409.076 217.569 409.076 217.569C413.219 221.759 423.852 235.433 427.396 251.318C430.48 264.946 417.453 281.521 404.105 285.665C390.848 289.762 380.032 286.678 362.264 280.324L389.974 186.491V186.445Z" fill="#F39B7A"/>
<path d="M404.104 275.306C402.308 290.315 401.802 306.522 402.539 324.018L331.561 315.5L339.248 257.672L404.104 275.352V275.306Z" fill="#F39B7A"/>
<path d="M367.281 248.651C371.792 256.985 382.195 260.069 390.526 255.557C398.857 251.045 401.941 240.64 397.43 232.307C392.919 223.973 382.517 220.888 374.185 225.4C365.854 229.912 362.77 240.318 367.281 248.651Z" fill="#D89C85"/>
<path d="M389.973 186.448C404.104 223.327 410.41 254.359 389.973 281.109C371.93 304.729 435.681 326 436.969 369.647C438.258 413.248 422.194 430.606 422.194 430.606L299.433 446.03C299.433 446.03 267.121 409.795 284.658 350.816C295.199 315.41 293.358 309.517 285.763 280.05C278.168 250.584 278.168 154.265 389.927 186.494L389.973 186.448Z" fill="#3A2B1D"/>
<path d="M423.114 337.923C424.357 315.777 443.367 298.834 465.507 300.077L549.695 304.865C558.533 273.833 572.25 225.628 574.827 216.512C577.221 192.708 578.694 165.498 581.686 159.559L624.999 170.102C632.686 172.312 637.565 180.047 636.046 187.92C635.08 192.939 618.555 233.041 618.555 233.041L605.253 345.704C603.043 358.872 592.18 369.415 578.28 370.613L574.137 370.981L466.658 380.281C442.539 382.537 421.503 362.141 423.068 337.969L423.114 337.923Z" fill="#F39B7A"/>
<path d="M592.55 168.172L596.554 126.919C596.831 123.972 594.667 121.301 591.721 121.025C588.867 120.749 586.29 122.775 585.876 125.583L579.523 166.56C578.419 175.4 591.445 177.058 592.55 168.218V168.172Z" fill="#F39B7A"/>
<path d="M423.115 337.922C424.357 315.776 443.368 298.833 465.508 300.076L512.688 302.746C522.906 325.997 521.986 358.318 518.349 375.768L466.704 380.234C442.585 382.49 421.55 362.094 423.115 337.922Z" fill="#E5B14C"/>
</g>
<g clip-path="url(#clip1_1386_4376)">
<path d="M408.276 1030.76C393.639 1051.25 286.022 1004.1 273.502 979.192C301.304 946.641 402.154 992.544 408.276 1030.76Z" fill="#040000"/>
<path d="M370.716 1025.23L367.356 1003.83L396.999 934.441L306.137 895.996L274.561 976.753L320.866 1054.29L370.716 1025.23Z" fill="#DB7D5A"/>
<path d="M370.717 1025.23L375.596 1063.77C375.596 1063.77 399.071 1068.19 407.725 1086.74C409.106 1089.64 408.461 1093.19 406.252 1095.54C388.668 1113.72 343.191 1128.13 308.071 1112.43C270.465 1095.63 254.263 1017.36 255.782 1001.43C257.3 985.543 289.797 964.732 307.427 970.257C335.781 979.097 348.393 1030.2 348.393 1030.2L370.717 1025.32V1025.23Z" fill="#C74964"/>
<path d="M406.206 1095.5C388.623 1113.68 343.146 1128.09 308.025 1112.39C270.419 1095.59 254.217 1017.32 255.736 1001.39C256.886 989.51 270.465 978.828 283.261 979.058C319.901 987.254 350.74 1093.24 370.671 1099.87C392.765 1107.19 407.679 1086.75 407.679 1086.75C409.06 1089.65 408.415 1093.2 406.206 1095.54V1095.5Z" fill="#313D70"/>
<path d="M395.39 516.016C365.24 578.079 351.201 654.646 346.368 720.163C337.577 839.595 273.458 979.192 273.458 979.192C273.458 979.192 336.15 960.085 408.232 1030.76L512.074 647.234L395.39 516.016Z" fill="#355DAA"/>
<path d="M452.143 1066.9C446.39 1075 443.766 1093.79 442.569 1108.2C441.603 1119.99 449.29 1130.67 460.751 1133.57C475.664 1137.34 497.068 1139.42 516.769 1129.24L600.588 1082.05C605.237 1079.42 609.104 1075.37 610.945 1070.35C613.016 1064.64 613.016 1056.96 604.731 1048.85C592.579 1037.07 545.905 1048.85 545.905 1048.85L452.143 1066.9Z" fill="#C74964"/>
<path d="M557.965 494.879C614.812 658.694 599.069 855.66 573.891 1050.88C533.846 1095.4 441.327 1093.65 428.622 1055.02C446.114 901.056 445.837 781.763 432.489 647.23C432.489 647.23 391.385 609.108 395.389 516.012L557.965 494.879Z" fill="#5079BD"/>
<path d="M557.228 415.692L541.578 457.498L500.52 334.383L553.086 393.316C558.517 399.393 560.128 408.003 557.274 415.646L557.228 415.692Z" fill="#F6B737"/>
<path d="M509.957 303.395C442.202 304.039 378.911 312.971 324.735 338.708C341.535 415.413 366.621 473.011 395.436 516.014L558.012 494.881L553.087 475.175L510.003 303.395H509.957Z" fill="#F6B737"/>
<path d="M240.27 469.924C265.126 429.04 289.292 388.753 316.495 349.204C342.548 314.995 392.766 350.355 369.475 386.405C348.532 416.885 328.785 448.929 309.407 480.836C331.363 501.14 362.663 530.147 362.663 530.147C385.815 552.523 356.725 588.527 329.936 570.387L247.635 511.73C234.379 502.291 231.11 483.599 240.316 469.97L240.27 469.924Z" fill="#DB7D5A"/>
<path d="M366.207 534.75C378.727 537.006 380.292 551.739 380.292 551.739L361.236 617.532L332.974 572.228L366.207 534.75Z" fill="#DB7D5A"/>
<path d="M324.735 338.71C307.244 346.905 279.902 399.209 279.902 399.209C279.902 399.209 304.39 458.602 336.933 464.726L368.509 415.691L324.735 338.664V338.71Z" fill="#D89532"/>
<path d="M440.128 186.445C454.213 197.633 459.23 217.569 459.23 217.569C463.373 221.759 474.006 235.433 477.55 251.318C480.634 264.946 467.608 281.521 454.259 285.665C441.003 289.762 430.186 286.678 412.418 280.324L440.128 186.491V186.445Z" fill="#F39B7A"/>
<path d="M454.26 275.306C452.465 290.315 451.958 306.522 452.695 324.018L381.717 315.5L389.404 257.672L454.26 275.352V275.306Z" fill="#F39B7A"/>
<path d="M417.436 248.651C421.947 256.985 432.35 260.069 440.681 255.557C449.013 251.045 452.096 240.64 447.586 232.307C443.075 223.973 432.672 220.888 424.341 225.4C416.009 229.912 412.925 240.318 417.436 248.651Z" fill="#D89C85"/>
<path d="M440.13 186.448C454.261 223.327 460.567 254.359 440.13 281.109C422.086 304.729 485.837 326 487.126 369.647C488.414 413.248 472.35 430.606 472.35 430.606L349.59 446.03C349.59 446.03 317.277 409.795 334.814 350.816C345.355 315.41 343.514 309.517 335.919 280.05C328.324 250.584 328.324 154.265 440.084 186.494L440.13 186.448Z" fill="#3A2B1D"/>
<path d="M473.271 337.923C474.514 315.777 493.524 298.834 515.665 300.077L599.852 304.865C608.69 273.833 622.407 225.628 624.985 216.512C627.378 192.708 628.851 165.498 631.843 159.559L675.157 170.102C682.844 172.312 687.723 180.047 686.204 187.92C685.237 192.939 668.712 233.041 668.712 233.041L655.41 345.704C653.201 358.872 642.338 369.415 628.437 370.613L624.294 370.981L516.815 380.281C492.696 382.537 471.66 362.141 473.225 337.969L473.271 337.923Z" fill="#F39B7A"/>
<path d="M642.705 168.172L646.71 126.919C646.986 123.972 644.822 121.301 641.877 121.025C639.023 120.749 636.445 122.775 636.031 125.583L629.679 166.56C628.574 175.4 641.6 177.058 642.705 168.218V168.172Z" fill="#F39B7A"/>
<path d="M473.271 337.922C474.514 315.776 493.524 298.833 515.664 300.076L562.844 302.746C573.063 325.997 572.142 358.318 568.506 375.768L516.861 380.234C492.741 382.49 471.706 362.094 473.271 337.922Z" fill="#E5B14C"/>
</g>
<defs>
<filter id="filter0_f_1386_4376" x="41.2031" y="992.015" width="697.928" height="287.904" filterUnits="userSpaceOnUse" color-interpolation-filters="sRGB">
<feFlood flood-opacity="0" result="BackgroundImageFix"/>
<feBlend mode="normal" in="SourceGraphic" in2="BackgroundImageFix" result="shape"/>
<feGaussianBlur stdDeviation="50.1567" result="effect1_foregroundBlur_1386_4376"/>
</filter>
<filter id="filter1_f_1386_4376" x="122.236" y="58.3041" width="576.783" height="1141.06" filterUnits="userSpaceOnUse" color-interpolation-filters="sRGB">
<feFlood flood-opacity="0" result="BackgroundImageFix"/>
<feBlend mode="normal" in="SourceGraphic" in2="BackgroundImageFix" result="shape"/>
<feGaussianBlur stdDeviation="31.348" result="effect1_foregroundBlur_1386_4376"/>
</filter>
<clipPath id="clip0_1386_4376">
<rect width="451.392" height="1015.67" fill="white" transform="matrix(-1 0 0 1 636.323 121)"/>
</clipPath>
<clipPath id="clip1_1386_4376">
<rect width="451.392" height="1015.67" fill="white" transform="matrix(-1 0 0 1 686.48 121)"/>
</clipPath>
</defs>
</svg>
