<svg width="740" height="1300" viewBox="0 0 740 1300" fill="none" xmlns="http://www.w3.org/2000/svg">
<g clip-path="url(#clip0_1434_7000)">
<g filter="url(#filter0_f_1434_7000)">
<ellipse cx="477.759" cy="1168.64" rx="212.241" ry="41.3557" fill="#2C0C4B" fill-opacity="0.3" style="mix-blend-mode:multiply"/>
</g>
<g opacity="0.3" clip-path="url(#clip1_1434_7000)" filter="url(#filter1_f_1434_7000)">
<path d="M516.85 296.449C530.729 308.035 535.427 338.643 537.776 357.509C540.125 376.345 548.749 406.209 561.299 426.624C573.849 447.04 567.574 525.231 486.063 518.726C404.551 512.22 395.772 395.211 395.772 395.211L516.85 296.449Z" fill="white"/>
<path d="M471.627 414.231L516.819 296.448C412.372 214.353 297.384 250.072 264.897 264.911C249.441 271.974 157.451 448.835 202.117 495.769C231.668 526.81 271.233 500.013 271.233 500.013L487.763 495.211L471.627 414.231Z" fill="white"/>
<path d="M237.015 510.762C255.809 510.483 271.233 500.043 271.233 500.043L487.763 495.241L480.468 458.686C444.179 420.457 402.387 383.809 374.784 382.787C333.827 381.269 270.708 462.651 237.015 510.762Z" fill="#E2E2E2"/>
<path d="M420.966 1108.57L350.674 1097.98L356.238 1008.23L417.905 1018.73L408.045 1077.25L420.966 1108.57Z" fill="#F39B7A"/>
<path d="M350.674 1087.48L345.697 1139.99C345.697 1139.99 368.818 1173.51 463.034 1160.56C468.258 1149 452.339 1140.42 443.499 1133.64C427.518 1121.34 415.617 1090.57 415.617 1090.57C415.617 1090.57 383.47 1078.06 366.717 1102.87C366.717 1102.87 356.949 1083.29 350.674 1087.48Z" fill="white"/>
<path d="M463.004 1160.56C447.054 1162.76 433.113 1163.59 420.965 1163.5C422.387 1162.32 449.805 1140.33 460.5 1148.51V1148.54C463.56 1152.1 465.106 1155.97 463.004 1160.56Z" fill="#162686"/>
<path d="M487.793 495.242C516.819 582.449 481.024 852.867 426.498 1060.21C393.269 1069.97 363.223 1064.67 335.62 1047.85L364.12 497.968L487.793 495.242Z" fill="#162686"/>
<path d="M526.988 1066.84L472.091 1098.78L422.325 1020.12L477.748 984.344L503.28 1040.08L526.988 1066.84Z" fill="#FDB397"/>
<path d="M487.794 495.242L271.264 500.044C221.684 613.924 301.186 849.893 443.715 1053.99C481.148 1053.09 511.719 1040.39 529.863 1006.25C459.294 889.64 417.379 764.39 404.829 630.281L487.794 495.242Z" fill="#3047B0"/>
<path d="M455.152 1072.01C454.781 1087.13 505.011 1160.03 546.926 1158.07C572.582 1156.9 580.248 1141.07 582.319 1128.95C583.648 1121.27 581.329 1113.4 576.353 1107.42L516.757 1053.98C516.757 1053.98 486.928 1056.37 484.424 1080.01C484.424 1080.01 465.538 1078.06 455.152 1072.01Z" fill="white"/>
<path d="M390.024 247.127C390.024 240.9 377.165 497.688 377.165 497.688" stroke="#E6D9CD" stroke-width="1.0559" stroke-miterlimit="10"/>
<path d="M352.776 229.688L339.392 253.17C344.925 269.372 352.498 282.693 361.74 293.505L390.704 252.457C371.972 250.537 359.978 245.549 352.776 229.688Z" fill="#E2E2E2"/>
<path d="M388.57 253.415L413.237 295.95C424.056 286.935 432.557 274.512 438.986 259.147L427.889 234.797L388.57 253.415Z" fill="#E2E2E2"/>
<path d="M352.776 222.871L339.392 246.353C344.925 262.587 352.498 275.877 361.74 286.688L389.437 252.332C370.674 250.412 359.978 238.733 352.776 222.871Z" fill="white"/>
<path d="M389.436 252.334L413.238 289.138C424.056 280.123 432.557 267.7 438.986 252.334L427.889 227.984L389.436 252.334Z" fill="white"/>
<path d="M264.526 267.945C262.888 294.402 269.688 321.354 283.691 343.845" stroke="#E6D9CD" stroke-width="1.0559" stroke-miterlimit="10"/>
<path d="M389.437 91.3027C380.658 86.408 348.82 93.9359 346.965 134.488C346.965 134.488 320.412 156.173 337.104 180.089L364.43 181.422C364.43 181.422 393.919 137.927 393.424 135.727C392.899 133.497 389.437 91.3027 389.437 91.3027Z" fill="#AD537E"/>
<path d="M389.436 252.331C365.511 249.76 348.17 228.26 350.736 204.282L354.136 172.312C356.701 148.334 378.153 130.954 402.078 133.526C426.003 136.097 443.344 157.597 440.778 181.575L437.378 213.545C434.844 237.523 413.361 254.903 389.436 252.331Z" fill="#FDB397"/>
<path d="M420.47 199.046C420.099 202.392 418.182 204.933 416.142 204.716C414.102 204.499 412.773 201.618 413.113 198.272C413.484 194.926 415.4 192.386 417.441 192.603C419.45 192.789 420.81 195.701 420.47 199.046Z" fill="#272525"/>
<path d="M377.597 195.207C377.226 198.552 375.309 201.093 373.269 200.876C371.229 200.659 369.9 197.778 370.24 194.432C370.611 191.086 372.527 188.546 374.568 188.763C376.577 188.98 377.937 191.861 377.597 195.207Z" fill="#272525"/>
<path d="M388.076 213.609C389.776 216.676 393.052 218.814 396.514 219.093" stroke="#9F612E" stroke-width="1.0622" stroke-miterlimit="10" stroke-linecap="round" stroke-linejoin="round"/>
<path d="M380.595 228.48C388.168 230.68 396.143 231.393 403.995 230.494" stroke="#9F612E" stroke-width="1.0622" stroke-miterlimit="10" stroke-linecap="round" stroke-linejoin="round"/>
<path d="M388.57 239.816C389.869 240.529 391.383 240.839 392.867 240.684" stroke="#9F612E" stroke-width="1.0622" stroke-miterlimit="10" stroke-linecap="round" stroke-linejoin="round"/>
<path d="M371.631 180.895C373.764 181.111 375.897 181.328 377.999 181.576" stroke="#3B1125" stroke-width="1.0559" stroke-miterlimit="10" stroke-linecap="round" stroke-linejoin="round"/>
<path d="M416.359 185.355C418.492 185.572 420.625 185.789 422.727 186.037" stroke="#3B1125" stroke-width="1.0559" stroke-miterlimit="10" stroke-linecap="round" stroke-linejoin="round"/>
<path d="M365.882 179.16C365.882 187.803 359.113 194.835 350.767 194.835C342.421 194.835 335.651 187.803 335.651 179.16C335.651 170.486 342.421 163.484 350.767 163.484C359.082 163.484 365.882 170.486 365.882 179.16Z" fill="#FDB397"/>
<path d="M456.76 187.121C456.76 195.795 449.99 202.796 441.644 202.796C433.298 202.796 426.529 195.764 426.529 187.121C426.529 178.478 433.298 171.445 441.644 171.445C449.959 171.445 456.76 178.478 456.76 187.121Z" fill="#FDB397"/>
<path d="M389.436 91.3009C389.436 91.3009 370.179 120.948 379.916 146.103C379.916 146.103 387.767 153.6 400.131 146.103C412.495 138.606 438.151 152.454 440.13 171.444C442.108 190.404 439.079 197.529 439.079 197.529L452.741 175.286C452.741 175.286 461.952 174.945 461.952 162.615C461.952 155.118 456.203 152.113 456.759 140.465C459.696 77.4222 389.436 91.3009 389.436 91.3009Z" fill="#AD537E"/>
<path d="M350.736 161.686C350.736 161.686 350.736 180.77 352.003 177.517C352.281 176.835 359.051 170.547 360.72 160.757C362.389 150.999 375.434 143.626 379.916 146.135C384.367 148.644 393.393 132.287 393.393 132.287L373.919 117.758L350.736 161.686Z" fill="#AD537E"/>
<path d="M400.131 146.138C400.131 146.138 421.83 126.404 434.782 131.546C447.734 136.689 441.583 171.479 441.583 171.479C441.583 171.479 435.308 139.663 400.131 146.138Z" fill="#AD537E"/>
<path d="M328.573 330.68C328.573 329.658 335.589 299.453 335.589 299.453C335.589 299.453 398.245 317.855 406.251 355.835L328.573 330.68Z" fill="#E6D9CD"/>
<path d="M406.282 355.805C406.282 355.805 417.225 309.956 456.76 308.934L450.887 352.398L406.282 355.805Z" fill="#E6D9CD"/>
<path d="M406.282 355.804C380.194 326.436 352.869 310.637 323.967 312.371L297.539 420.055L379.452 452.088C379.452 452.088 441.613 433.222 441.613 431.921C441.613 430.619 469.958 323.648 469.958 323.648C449.125 323.586 427.889 334.677 406.282 355.804Z" fill="#971F3D"/>
<path d="M469.959 323.68C449.125 323.587 427.889 334.678 406.283 355.806L379.452 452.12C379.452 452.12 441.614 433.254 441.614 431.953C441.614 430.683 469.959 323.68 469.959 323.68Z" fill="#C13A5B"/>
<path d="M237.633 430.898L300.969 396.604L336.177 367.422L351.292 419.715C351.292 419.715 336.517 448.588 312.468 451.624C312.468 451.624 264.711 499.487 243.692 502.894C230.524 487.591 215.625 446.76 237.633 430.898Z" fill="#FDB397"/>
<path d="M328.573 379.441L345.759 364.694L357.104 357.445" stroke="#FDB397" stroke-width="14" stroke-miterlimit="10" stroke-linecap="round" stroke-linejoin="round"/>
<path d="M334.075 392.173L351.261 377.426L365.171 368.566" stroke="#FDB397" stroke-width="14" stroke-miterlimit="10" stroke-linecap="round" stroke-linejoin="round"/>
<path d="M337.877 407.786L355.064 393.04L368.973 384.18" stroke="#FDB397" stroke-width="14" stroke-miterlimit="10" stroke-linecap="round" stroke-linejoin="round"/>
<path d="M337.877 425.567L355.064 410.821L368.973 401.961" stroke="#FDB397" stroke-width="14" stroke-miterlimit="10" stroke-linecap="round" stroke-linejoin="round"/>
<path d="M305.729 399.576L315.497 379.44L323.627 370.766" stroke="#FDB397" stroke-width="14" stroke-miterlimit="10" stroke-linecap="round" stroke-linejoin="round"/>
<path d="M548.78 426.313L485.413 392.018L450.206 362.836L435.091 415.129C435.091 415.129 449.866 444.002 473.915 447.038C473.915 447.038 508.844 484.306 529.832 487.714C557.497 485.545 565.658 440.563 548.78 426.313Z" fill="#FDB397"/>
<path d="M457.842 374.855L440.655 360.109L429.342 352.891" stroke="#FDB397" stroke-width="14" stroke-miterlimit="10" stroke-linecap="round" stroke-linejoin="round"/>
<path d="M452.339 387.587L435.153 372.841L421.243 363.98" stroke="#FDB397" stroke-width="14" stroke-miterlimit="10" stroke-linecap="round" stroke-linejoin="round"/>
<path d="M448.537 403.2L431.351 388.454L417.472 379.594" stroke="#FDB397" stroke-width="14" stroke-miterlimit="10" stroke-linecap="round" stroke-linejoin="round"/>
<path d="M448.537 421.012L431.351 406.235L417.472 397.375" stroke="#FDB397" stroke-width="14" stroke-miterlimit="10" stroke-linecap="round" stroke-linejoin="round"/>
<path d="M480.684 394.99L470.916 374.854L462.787 366.18" stroke="#FDB397" stroke-width="14" stroke-miterlimit="10" stroke-linecap="round" stroke-linejoin="round"/>
</g>
<g clip-path="url(#clip2_1434_7000)">
<path d="M564.06 296.449C577.938 308.035 582.637 338.643 584.986 357.509C587.335 376.345 595.959 406.209 608.509 426.624C621.059 447.04 614.784 525.231 533.273 518.726C451.761 512.22 442.982 395.211 442.982 395.211L564.06 296.449Z" fill="white"/>
<path d="M518.837 414.231L564.029 296.448C459.582 214.353 344.594 250.072 312.107 264.911C296.651 271.974 204.661 448.835 249.327 495.769C278.878 526.81 318.443 500.013 318.443 500.013L534.973 495.211L518.837 414.231Z" fill="white"/>
<path d="M284.225 510.762C303.019 510.483 318.443 500.043 318.443 500.043L534.973 495.241L527.678 458.686C491.389 420.457 449.597 383.809 421.994 382.787C381.037 381.269 317.918 462.651 284.225 510.762Z" fill="#E2E2E2"/>
<path d="M468.176 1108.57L397.884 1097.98L403.448 1008.23L465.115 1018.73L455.255 1077.25L468.176 1108.57Z" fill="#F39B7A"/>
<path d="M397.884 1087.48L392.907 1139.99C392.907 1139.99 416.028 1173.51 510.244 1160.56C515.468 1149 499.549 1140.42 490.709 1133.64C474.728 1121.34 462.827 1090.57 462.827 1090.57C462.827 1090.57 430.68 1078.06 413.926 1102.87C413.926 1102.87 404.159 1083.29 397.884 1087.48Z" fill="white"/>
<path d="M510.214 1160.56C494.264 1162.76 480.323 1163.59 468.175 1163.5C469.597 1162.32 497.015 1140.33 507.71 1148.51V1148.54C510.77 1152.1 512.316 1155.97 510.214 1160.56Z" fill="#162686"/>
<path d="M535.003 495.242C564.029 582.449 528.234 852.867 473.708 1060.21C440.479 1069.97 410.433 1064.67 382.83 1047.85L411.33 497.968L535.003 495.242Z" fill="#162686"/>
<path d="M574.198 1066.84L519.301 1098.78L469.535 1020.12L524.958 984.344L550.49 1040.08L574.198 1066.84Z" fill="#FDB397"/>
<path d="M535.004 495.242L318.474 500.044C268.893 613.924 348.396 849.893 490.925 1053.99C528.358 1053.09 558.929 1040.39 577.073 1006.25C506.504 889.64 464.589 764.39 452.039 630.281L535.004 495.242Z" fill="#3047B0"/>
<path d="M502.362 1072.01C501.991 1087.13 552.221 1160.03 594.136 1158.07C619.792 1156.9 627.457 1141.07 629.528 1128.95C630.858 1121.27 628.539 1113.4 623.563 1107.42L563.967 1053.98C563.967 1053.98 534.138 1056.37 531.634 1080.01C531.634 1080.01 512.748 1078.06 502.362 1072.01Z" fill="white"/>
<path d="M437.234 247.127C437.234 240.9 424.375 497.688 424.375 497.688" stroke="#E6D9CD" stroke-width="1.0559" stroke-miterlimit="10"/>
<path d="M399.986 229.688L386.602 253.17C392.135 269.372 399.708 282.693 408.95 293.505L437.914 252.457C419.182 250.537 407.188 245.549 399.986 229.688Z" fill="#E2E2E2"/>
<path d="M435.78 253.415L460.447 295.95C471.266 286.935 479.767 274.512 486.196 259.147L475.099 234.797L435.78 253.415Z" fill="#E2E2E2"/>
<path d="M399.986 222.871L386.602 246.353C392.135 262.587 399.708 275.877 408.95 286.688L436.647 252.332C417.884 250.412 407.188 238.733 399.986 222.871Z" fill="white"/>
<path d="M436.646 252.334L460.448 289.138C471.266 280.123 479.767 267.7 486.196 252.334L475.099 227.984L436.646 252.334Z" fill="white"/>
<path d="M311.736 267.945C310.097 294.402 316.898 321.354 330.901 343.845" stroke="#E6D9CD" stroke-width="1.0559" stroke-miterlimit="10"/>
<path d="M436.647 91.3027C427.868 86.408 396.029 93.9359 394.175 134.488C394.175 134.488 367.622 156.173 384.314 180.089L411.64 181.422C411.64 181.422 441.129 137.927 440.634 135.727C440.109 133.497 436.647 91.3027 436.647 91.3027Z" fill="#AD537E"/>
<path d="M436.646 252.331C412.721 249.76 395.38 228.26 397.946 204.282L401.346 172.312C403.911 148.334 425.363 130.954 449.288 133.526C473.213 136.097 490.554 157.597 487.988 181.575L484.588 213.545C482.054 237.523 460.571 254.903 436.646 252.331Z" fill="#FDB397"/>
<path d="M467.68 199.046C467.309 202.392 465.392 204.933 463.352 204.716C461.312 204.499 459.983 201.618 460.323 198.272C460.694 194.926 462.61 192.386 464.651 192.603C466.66 192.789 468.02 195.701 467.68 199.046Z" fill="#272525"/>
<path d="M424.807 195.207C424.436 198.552 422.519 201.093 420.479 200.876C418.439 200.659 417.11 197.778 417.45 194.432C417.821 191.086 419.737 188.546 421.778 188.763C423.787 188.98 425.147 191.861 424.807 195.207Z" fill="#272525"/>
<path d="M435.286 213.609C436.986 216.676 440.262 218.814 443.724 219.093" stroke="#9F612E" stroke-width="1.0622" stroke-miterlimit="10" stroke-linecap="round" stroke-linejoin="round"/>
<path d="M427.805 228.48C435.378 230.68 443.353 231.393 451.205 230.494" stroke="#9F612E" stroke-width="1.0622" stroke-miterlimit="10" stroke-linecap="round" stroke-linejoin="round"/>
<path d="M435.78 239.816C437.079 240.529 438.593 240.839 440.077 240.684" stroke="#9F612E" stroke-width="1.0622" stroke-miterlimit="10" stroke-linecap="round" stroke-linejoin="round"/>
<path d="M418.841 180.895C420.974 181.111 423.107 181.328 425.209 181.576" stroke="#3B1125" stroke-width="1.0559" stroke-miterlimit="10" stroke-linecap="round" stroke-linejoin="round"/>
<path d="M463.569 185.355C465.702 185.572 467.835 185.789 469.937 186.037" stroke="#3B1125" stroke-width="1.0559" stroke-miterlimit="10" stroke-linecap="round" stroke-linejoin="round"/>
<path d="M413.092 179.16C413.092 187.803 406.323 194.835 397.977 194.835C389.631 194.835 382.861 187.803 382.861 179.16C382.861 170.486 389.631 163.484 397.977 163.484C406.292 163.484 413.092 170.486 413.092 179.16Z" fill="#FDB397"/>
<path d="M503.97 187.121C503.97 195.795 497.2 202.796 488.854 202.796C480.508 202.796 473.739 195.764 473.739 187.121C473.739 178.478 480.508 171.445 488.854 171.445C497.169 171.445 503.97 178.478 503.97 187.121Z" fill="#FDB397"/>
<path d="M436.646 91.3009C436.646 91.3009 417.389 120.948 427.125 146.103C427.125 146.103 434.977 153.6 447.341 146.103C459.705 138.606 485.361 152.454 487.339 171.444C489.318 190.404 486.289 197.529 486.289 197.529L499.951 175.286C499.951 175.286 509.162 174.945 509.162 162.615C509.162 155.118 503.413 152.113 503.969 140.465C506.906 77.4222 436.646 91.3009 436.646 91.3009Z" fill="#AD537E"/>
<path d="M397.946 161.686C397.946 161.686 397.946 180.77 399.213 177.517C399.491 176.835 406.261 170.547 407.93 160.757C409.599 150.999 422.644 143.626 427.126 146.135C431.577 148.644 440.603 132.287 440.603 132.287L421.129 117.758L397.946 161.686Z" fill="#AD537E"/>
<path d="M447.341 146.138C447.341 146.138 469.04 126.404 481.992 131.546C494.944 136.689 488.793 171.479 488.793 171.479C488.793 171.479 482.518 139.663 447.341 146.138Z" fill="#AD537E"/>
<path d="M375.783 330.68C375.783 329.658 382.799 299.453 382.799 299.453C382.799 299.453 445.455 317.855 453.461 355.835L375.783 330.68Z" fill="#E6D9CD"/>
<path d="M453.492 355.805C453.492 355.805 464.435 309.956 503.97 308.934L498.097 352.398L453.492 355.805Z" fill="#E6D9CD"/>
<path d="M453.492 355.804C427.404 326.436 400.079 310.637 371.177 312.371L344.749 420.055L426.662 452.088C426.662 452.088 488.823 433.222 488.823 431.921C488.823 430.619 517.168 323.648 517.168 323.648C496.335 323.586 475.099 334.677 453.492 355.804Z" fill="#971F3D"/>
<path d="M517.169 323.68C496.335 323.587 475.099 334.678 453.493 355.806L426.662 452.12C426.662 452.12 488.824 433.254 488.824 431.953C488.824 430.683 517.169 323.68 517.169 323.68Z" fill="#C13A5B"/>
<path d="M284.843 430.898L348.179 396.604L383.387 367.422L398.502 419.715C398.502 419.715 383.727 448.588 359.678 451.624C359.678 451.624 311.921 499.487 290.902 502.894C277.734 487.591 262.835 446.76 284.843 430.898Z" fill="#FDB397"/>
<path d="M375.783 379.441L392.969 364.694L404.314 357.445" stroke="#FDB397" stroke-width="14" stroke-miterlimit="10" stroke-linecap="round" stroke-linejoin="round"/>
<path d="M381.285 392.173L398.471 377.426L412.381 368.566" stroke="#FDB397" stroke-width="14" stroke-miterlimit="10" stroke-linecap="round" stroke-linejoin="round"/>
<path d="M385.087 407.786L402.273 393.04L416.183 384.18" stroke="#FDB397" stroke-width="14" stroke-miterlimit="10" stroke-linecap="round" stroke-linejoin="round"/>
<path d="M385.087 425.567L402.273 410.821L416.183 401.961" stroke="#FDB397" stroke-width="14" stroke-miterlimit="10" stroke-linecap="round" stroke-linejoin="round"/>
<path d="M352.939 399.576L362.707 379.44L370.837 370.766" stroke="#FDB397" stroke-width="14" stroke-miterlimit="10" stroke-linecap="round" stroke-linejoin="round"/>
<path d="M595.99 426.313L532.623 392.018L497.416 362.836L482.301 415.129C482.301 415.129 497.076 444.002 521.125 447.038C521.125 447.038 556.054 484.306 577.042 487.714C604.707 485.545 612.868 440.563 595.99 426.313Z" fill="#FDB397"/>
<path d="M505.052 374.855L487.865 360.109L476.552 352.891" stroke="#FDB397" stroke-width="14" stroke-miterlimit="10" stroke-linecap="round" stroke-linejoin="round"/>
<path d="M499.549 387.587L482.363 372.841L468.453 363.98" stroke="#FDB397" stroke-width="14" stroke-miterlimit="10" stroke-linecap="round" stroke-linejoin="round"/>
<path d="M495.747 403.2L478.561 388.454L464.682 379.594" stroke="#FDB397" stroke-width="14" stroke-miterlimit="10" stroke-linecap="round" stroke-linejoin="round"/>
<path d="M495.747 421.012L478.561 406.235L464.682 397.375" stroke="#FDB397" stroke-width="14" stroke-miterlimit="10" stroke-linecap="round" stroke-linejoin="round"/>
<path d="M527.894 394.99L518.126 374.854L509.997 366.18" stroke="#FDB397" stroke-width="14" stroke-miterlimit="10" stroke-linecap="round" stroke-linejoin="round"/>
</g>
</g>
<defs>
<filter id="filter0_f_1434_7000" x="185.518" y="1047.29" width="584.482" height="242.711" filterUnits="userSpaceOnUse" color-interpolation-filters="sRGB">
<feFlood flood-opacity="0" result="BackgroundImageFix"/>
<feBlend mode="normal" in="SourceGraphic" in2="BackgroundImageFix" result="shape"/>
<feGaussianBlur stdDeviation="40" result="effect1_foregroundBlur_1434_7000"/>
</filter>
<filter id="filter1_f_1434_7000" x="140" y="40" width="492.689" height="1173.53" filterUnits="userSpaceOnUse" color-interpolation-filters="sRGB">
<feFlood flood-opacity="0" result="BackgroundImageFix"/>
<feBlend mode="normal" in="SourceGraphic" in2="BackgroundImageFix" result="shape"/>
<feGaussianBlur stdDeviation="25" result="effect1_foregroundBlur_1434_7000"/>
</filter>
<clipPath id="clip0_1434_7000">
<rect width="740" height="1300" fill="white"/>
</clipPath>
<clipPath id="clip1_1434_7000">
<rect width="392.689" height="1073.53" fill="white" transform="translate(190 90)"/>
</clipPath>
<clipPath id="clip2_1434_7000">
<rect width="392.689" height="1073.53" fill="white" transform="translate(237.21 90)"/>
</clipPath>
</defs>
</svg>
