<svg width="1860" height="1314" viewBox="0 0 1860 1314" fill="none" xmlns="http://www.w3.org/2000/svg">
<path d="M1725.2 906.257L1625.8 962.957M1658.54 888.137L1756.77 944.252M1642.17 897.489L1740.4 953.604M1625.8 906.842L1724.03 962.957M1609.42 916.194L1707.65 972.309M1593.05 925.547L1691.28 981.662M1625.8 962.957L1674.91 991.014M1625.8 962.957L1593.05 981.842" stroke="white" stroke-width="3" stroke-linecap="round" stroke-linejoin="round"/>
<path d="M512.522 9L5 298.928L758.097 729.144L332.434 972.309L921.814 1309L1855 775.906L512.522 9Z" stroke="white" stroke-width="10" stroke-linejoin="round"/>
<path d="M1805.89 916.194L1707.66 860.079L1511.2 972.309L1609.43 1028.42L1805.89 916.194Z" stroke="white" stroke-width="4" stroke-linejoin="round"/>
<path d="M1134.65 326.985L954.557 429.863M1232.88 383.1L1052.79 485.978" stroke="white" stroke-width="4" stroke-linecap="round" stroke-linejoin="round"/>
<path d="M1152.19 373.163L1052.79 429.863M1085.53 355.043L1183.76 411.158M1069.16 364.395L1167.39 420.511M1052.79 373.748L1151.02 429.863M1036.42 383.101L1134.65 439.216M1020.04 392.453L1118.28 448.568M1052.79 429.863L1101.9 457.921M1052.79 429.863L1020.36 448.568" stroke="white" stroke-width="3" stroke-linecap="round" stroke-linejoin="round"/>
<path d="M1069.16 476.626L970.928 420.511L954.557 429.863L1052.79 485.978L1069.16 476.626Z" fill="white" fill-opacity="0.5"/>
<path d="M889.071 654.324L643.496 514.036L627.124 523.389L872.699 663.676L889.071 654.324Z" fill="white" fill-opacity="0.5"/>
<path d="M921.814 635.619L758.097 729.144L659.867 785.259L790.841 860.08L1052.79 710.439L921.814 635.619Z" stroke="white" stroke-width="4" stroke-linejoin="round"/>
<path d="M1151.02 953.604L1347.48 1065.83L1642.17 897.489L1445.71 785.259L1151.02 953.604Z" stroke="white" stroke-width="4" stroke-linejoin="round"/>
<path d="M1511.2 747.848L1707.66 860.079L1855 775.906L1658.54 663.676L1511.2 747.848Z" stroke="white" stroke-width="4" stroke-linejoin="round"/>
<path d="M1052.79 485.978L1183.76 560.798L1331.11 476.626L1200.13 401.806L1052.79 485.978Z" stroke="white" stroke-width="4" stroke-linejoin="round"/>
<path d="M823.584 355.043L954.557 429.863L1101.9 345.69L970.929 270.87L823.584 355.043Z" stroke="white" stroke-width="4" stroke-linejoin="round"/>
<path d="M1183.76 560.799L1511.2 747.849L1658.54 663.676L1331.11 476.626L1183.76 560.799Z" stroke="white" stroke-width="4" stroke-linejoin="round"/>
<path d="M365.177 93.1727L823.584 355.043L970.929 270.871L512.522 9L365.177 93.1727Z" stroke="white" stroke-width="4" stroke-linejoin="round"/>
<path d="M365.177 93.1729L5 298.928L512.522 588.856L790.841 429.863L594.381 317.633L676.239 270.871L365.177 93.1729Z" stroke="white" stroke-width="4" stroke-linejoin="round"/>
<mask id="mask0_2710_3987" style="mask-type:alpha" maskUnits="userSpaceOnUse" x="952" y="671" width="496" height="285">
<path d="M954.559 841.375L1151.02 953.605L1445.71 785.26L1249.25 673.029L954.559 841.375Z" stroke="white" stroke-width="4" stroke-linejoin="round"/>
</mask>
<g mask="url(#mask0_2710_3987)">
<path d="M1290.5 710.5L1314 693L1327 700.5L1299.5 656L1235.5 664.5L914.5 839.5L1142.5 1002L1472 803L1453.5 765.5L1439 770.5L1423.5 780.5L1419 790.5L1390.5 803L1148.5 929.5L1039 839.5L1254.5 712.5L1290.5 710.5Z" fill="white"/>
</g>
<path d="M921.814 635.618L987.301 673.028L1069.16 626.266L1003.67 588.855L921.814 635.618Z" stroke="white" stroke-width="4" stroke-linejoin="round"/>
<path d="M332.434 972.309L659.867 785.259L1052.79 1009.72L725.354 1196.77L332.434 972.309Z" stroke="white" stroke-width="4" stroke-linejoin="round"/>
<path d="M921.815 1309L725.354 1196.77L1052.79 1009.72L1249.25 1121.95L921.815 1309Z" stroke="white" stroke-width="4" stroke-linejoin="round"/>
<g filter="url(#filter0_f_2710_3987)">
<ellipse cx="404" cy="411" rx="35" ry="10" fill="black" fill-opacity="0.25"/>
</g>
<path d="M459 318.28C459 348.81 448.878 355.526 404 411C359.338 355.998 349 348.81 349 318.28C349 287.75 373.624 263 404 263C434.376 263 459 287.75 459 318.28Z" fill="url(#paint0_linear_2710_3987)"/>
<rect x="366.068" y="280.465" width="75.8621" height="75.8974" rx="37.931" fill="white"/>
<path d="M392.978 329.229L404.149 318.96C405.252 317.9 406.104 317.026 406.706 316.339C407.322 315.637 407.795 314.942 408.124 314.255C408.453 313.553 408.618 312.801 408.618 311.999C408.618 311.097 408.403 310.309 407.974 309.636C407.558 308.948 406.971 308.425 406.212 308.067C405.467 307.709 404.622 307.53 403.677 307.53C402.201 307.516 401.027 307.946 400.153 308.819C399.28 309.679 398.85 310.853 398.864 312.343H392.72C392.72 310.352 393.178 308.604 394.095 307.101C395.026 305.582 396.322 304.415 397.983 303.599C399.659 302.782 401.586 302.374 403.763 302.374C405.954 302.374 407.888 302.768 409.563 303.556C411.239 304.329 412.535 305.41 413.452 306.8C414.383 308.189 414.849 309.779 414.849 311.569C414.849 312.801 414.612 313.983 414.14 315.114C413.667 316.231 412.843 317.478 411.669 318.853C410.509 320.228 408.862 321.882 406.728 323.815L402.001 328.413V328.585H415.278V333.913H393.021L392.978 329.229Z" fill="#191F28"/>
<g filter="url(#filter1_f_2710_3987)">
<ellipse cx="863" cy="750" rx="35" ry="10" fill="black" fill-opacity="0.25"/>
</g>
<path d="M918 657.28C918 687.81 907.878 694.526 863 750C818.338 694.998 808 687.81 808 657.28C808 626.75 832.624 602 863 602C893.376 602 918 626.75 918 657.28Z" fill="url(#paint1_linear_2710_3987)"/>
<rect x="825.068" y="619.465" width="75.8621" height="75.8974" rx="37.931" fill="white"/>
<path d="M863.086 673.343C860.952 673.343 859.025 672.949 857.307 672.161C855.602 671.373 854.256 670.285 853.268 668.896C852.279 667.492 851.771 665.909 851.742 664.147H858.016C858.059 664.935 858.309 665.644 858.768 666.274C859.24 666.89 859.849 667.37 860.594 667.714C861.353 668.058 862.184 668.229 863.086 668.229C864.146 668.229 865.091 668 865.922 667.542C866.767 667.069 867.419 666.418 867.877 665.587C868.35 664.756 868.586 663.804 868.586 662.729C868.586 661.641 868.35 660.674 867.877 659.829C867.404 658.97 866.738 658.304 865.879 657.831C865.034 657.344 864.074 657.101 863 657.101C860.665 657.101 859.033 657.974 858.102 659.722H852.258L853.934 641.804H873.098V647.089H859.262L858.402 654.952H858.66C859.233 654.164 860.085 653.534 861.217 653.062C862.348 652.575 863.587 652.331 864.934 652.331C866.81 652.331 868.5 652.768 870.004 653.642C871.522 654.515 872.711 655.733 873.57 657.294C874.43 658.855 874.859 660.61 874.859 662.558C874.859 664.634 874.365 666.496 873.377 668.144C872.389 669.776 870.999 671.051 869.209 671.968C867.433 672.884 865.392 673.343 863.086 673.343Z" fill="#191F28"/>
<g filter="url(#filter2_f_2710_3987)">
<ellipse cx="1163" cy="849" rx="35" ry="10" fill="black" fill-opacity="0.25"/>
</g>
<path d="M1218 756.28C1218 786.81 1207.88 793.526 1163 849C1118.34 793.998 1108 786.81 1108 756.28C1108 725.75 1132.62 701 1163 701C1193.38 701 1218 725.75 1218 756.28Z" fill="url(#paint2_linear_2710_3987)"/>
<rect x="1125.07" y="718.465" width="75.8621" height="75.8974" rx="37.931" fill="white"/>
<path d="M1163.39 772.343C1161.1 772.343 1159 771.849 1157.11 770.86C1155.24 769.858 1153.71 768.225 1152.54 765.962C1151.38 763.699 1150.8 760.763 1150.8 757.153C1150.8 753.701 1151.31 750.715 1152.34 748.194C1153.39 745.659 1154.87 743.726 1156.79 742.394C1158.72 741.047 1160.99 740.374 1163.6 740.374C1165.64 740.374 1167.46 740.768 1169.08 741.556C1170.7 742.343 1171.99 743.432 1172.97 744.821C1173.96 746.196 1174.56 747.736 1174.77 749.44H1168.41C1168.16 748.352 1167.6 747.493 1166.74 746.862C1165.89 746.232 1164.85 745.917 1163.6 745.917C1161.52 745.917 1159.93 746.798 1158.81 748.56C1157.71 750.307 1157.14 752.735 1157.11 755.843H1157.41C1158.13 754.468 1159.2 753.394 1160.62 752.62C1162.05 751.847 1163.63 751.46 1165.36 751.46C1167.21 751.46 1168.88 751.89 1170.37 752.749C1171.86 753.608 1173.02 754.804 1173.85 756.337C1174.69 757.869 1175.12 759.595 1175.12 761.515C1175.12 763.591 1174.62 765.453 1173.63 767.101C1172.66 768.748 1171.29 770.037 1169.51 770.968C1167.73 771.884 1165.69 772.343 1163.39 772.343ZM1157.76 761.687C1157.77 762.703 1158.02 763.634 1158.49 764.479C1158.98 765.325 1159.64 765.998 1160.49 766.499C1161.33 766.986 1162.27 767.229 1163.3 767.229C1164.35 767.229 1165.29 766.993 1166.14 766.521C1166.98 766.034 1167.64 765.368 1168.11 764.522C1168.6 763.663 1168.84 762.718 1168.84 761.687C1168.84 760.655 1168.61 759.724 1168.13 758.894C1167.66 758.049 1167.01 757.382 1166.18 756.896C1165.35 756.394 1164.42 756.144 1163.39 756.144C1162.34 756.144 1161.39 756.394 1160.53 756.896C1159.68 757.397 1159.01 758.07 1158.51 758.915C1158.02 759.76 1157.77 760.684 1157.76 761.687Z" fill="#191F28"/>
<g filter="url(#filter3_f_2710_3987)">
<ellipse cx="1347" cy="959" rx="35" ry="10" fill="black" fill-opacity="0.25"/>
</g>
<path d="M1402 866.28C1402 896.81 1391.88 903.526 1347 959C1302.34 903.998 1292 896.81 1292 866.28C1292 835.75 1316.62 811 1347 811C1377.38 811 1402 835.75 1402 866.28Z" fill="url(#paint3_linear_2710_3987)"/>
<rect x="1309.07" y="828.465" width="75.8621" height="75.8974" rx="37.931" fill="white"/>
<path d="M1338 881.913L1351.1 856.304V856.089H1335.85V850.804H1357.81V856.175L1344.7 881.913H1338Z" fill="#191F28"/>
<g filter="url(#filter4_f_2710_3987)">
<ellipse cx="665" cy="1093" rx="35" ry="10" fill="black" fill-opacity="0.25"/>
</g>
<path d="M720 1000.28C720 1030.81 709.878 1037.53 665 1093C620.338 1038 610 1030.81 610 1000.28C610 969.75 634.624 945 665 945C695.376 945 720 969.75 720 1000.28Z" fill="url(#paint4_linear_2710_3987)"/>
<rect x="627.068" y="962.465" width="75.8621" height="75.8974" rx="37.931" fill="white"/>
<path d="M664.978 1016.34C657.866 1016.34 652.774 1012.6 652.774 1007.53C652.774 1003.62 655.782 1000.44 659.649 999.843V999.628C656.276 998.983 653.956 996.169 653.978 992.753C653.956 987.919 658.618 984.374 664.978 984.374C671.337 984.374 675.999 987.919 676.021 992.753C675.999 996.169 673.614 998.983 670.349 999.628V999.843C674.13 1000.44 677.181 1003.62 677.181 1007.53C677.181 1012.6 672.067 1016.34 664.978 1016.34ZM659.521 1006.89C659.499 1009.55 661.69 1011.42 664.978 1011.4C668.265 1011.42 670.456 1009.55 670.435 1006.89C670.456 1004.2 668.136 1002.23 664.978 1002.21C661.819 1002.23 659.499 1004.18 659.521 1006.89ZM660.294 993.397C660.272 995.89 662.228 997.63 664.978 997.651C667.706 997.63 669.683 995.89 669.704 993.397C669.683 990.97 667.749 989.272 664.978 989.272C662.185 989.272 660.272 990.97 660.294 993.397Z" fill="#191F28"/>
<g filter="url(#filter5_f_2710_3987)">
<ellipse cx="884" cy="1226" rx="35" ry="10" fill="black" fill-opacity="0.25"/>
</g>
<path d="M939 1133.28C939 1163.81 928.878 1170.53 884 1226C839.338 1171 829 1163.81 829 1133.28C829 1102.75 853.624 1078 884 1078C914.376 1078 939 1102.75 939 1133.28Z" fill="url(#paint5_linear_2710_3987)"/>
<rect x="846.068" y="1095.46" width="75.8621" height="75.8974" rx="37.931" fill="white"/>
<path d="M883.656 1117.37C890.102 1117.4 896.203 1121.24 896.203 1132.54C896.225 1143.11 891.219 1149.34 883.398 1149.34C877.146 1149.34 872.85 1145.41 872.227 1140.15H878.586C879.123 1142.45 880.906 1143.8 883.398 1143.8C887.631 1143.8 889.865 1140 889.887 1133.79H889.629C888.168 1136.54 885.096 1138.17 881.637 1138.17C876.051 1138.17 871.926 1133.96 871.883 1128.16C871.883 1121.91 876.631 1117.35 883.656 1117.37ZM878.199 1127.99C878.199 1131.06 880.455 1133.44 883.656 1133.44C886.814 1133.44 889.242 1130.93 889.242 1127.94C889.199 1124.98 886.879 1122.47 883.699 1122.44C880.52 1122.47 878.156 1124.89 878.199 1127.99Z" fill="#191F28"/>
<g filter="url(#filter6_f_2710_3987)">
<ellipse cx="745" cy="223" rx="35" ry="10" fill="black" fill-opacity="0.25"/>
</g>
<path d="M800 130.28C800 160.81 789.878 167.526 745 223C700.338 167.998 690 160.81 690 130.28C690 99.7495 714.624 75 745 75C775.376 75 800 99.7495 800 130.28Z" fill="url(#paint6_linear_2710_3987)"/>
<rect x="707.068" y="92.4648" width="75.8621" height="75.8974" rx="37.931" fill="white"/>
<path d="M750.542 145.913H744.054V120.948H743.882L736.749 125.417V119.702L744.44 114.804H750.542V145.913Z" fill="#191F28"/>
<g filter="url(#filter7_f_2710_3987)">
<ellipse cx="1428" cy="612" rx="35" ry="10" fill="black" fill-opacity="0.25"/>
</g>
<path d="M1483 519.28C1483 549.81 1472.88 556.526 1428 612C1383.34 556.998 1373 549.81 1373 519.28C1373 488.75 1397.62 464 1428 464C1458.38 464 1483 488.75 1483 519.28Z" fill="url(#paint7_linear_2710_3987)"/>
<rect x="1390.07" y="481.465" width="75.8621" height="75.8974" rx="37.931" fill="white"/>
<path d="M1427.91 535.343C1425.67 535.343 1423.65 534.956 1421.86 534.183C1420.08 533.409 1418.68 532.328 1417.64 530.938C1416.63 529.535 1416.1 527.938 1416.05 526.147H1422.59C1422.61 526.907 1422.87 527.58 1423.34 528.167C1423.81 528.74 1424.45 529.191 1425.25 529.521C1426.05 529.85 1426.95 530.015 1427.96 530.015C1428.97 530.015 1429.88 529.836 1430.69 529.478C1431.5 529.105 1432.13 528.604 1432.58 527.974C1433.02 527.329 1433.24 526.591 1433.24 525.761C1433.24 524.916 1433.01 524.171 1432.53 523.526C1432.06 522.868 1431.38 522.352 1430.49 521.979C1429.6 521.607 1428.56 521.421 1427.36 521.421H1424.48V516.651H1427.36C1428.37 516.651 1429.27 516.479 1430.06 516.136C1430.85 515.792 1431.46 515.305 1431.89 514.675C1432.33 514.045 1432.55 513.328 1432.55 512.526C1432.55 511.739 1432.37 511.044 1432 510.442C1431.62 509.841 1431.09 509.375 1430.41 509.046C1429.73 508.702 1428.95 508.53 1428.04 508.53C1427.13 508.53 1426.28 508.695 1425.51 509.024C1424.73 509.34 1424.11 509.791 1423.64 510.378C1423.17 510.965 1422.92 511.653 1422.89 512.44H1416.7C1416.73 510.693 1417.24 509.132 1418.22 507.757C1419.23 506.368 1420.58 505.293 1422.29 504.534C1423.99 503.761 1425.89 503.374 1428 503.374C1430.12 503.374 1432 503.761 1433.63 504.534C1435.28 505.308 1436.54 506.36 1437.43 507.692C1438.33 509.024 1438.79 510.507 1438.79 512.14C1438.79 513.271 1438.54 514.302 1438.05 515.233C1437.57 516.15 1436.87 516.909 1435.97 517.511C1435.08 518.098 1434.06 518.499 1432.9 518.714V518.972C1435.16 519.244 1436.91 520.024 1438.14 521.313C1439.37 522.603 1439.97 524.228 1439.95 526.19C1439.96 527.938 1439.45 529.513 1438.42 530.917C1437.4 532.306 1435.98 533.395 1434.14 534.183C1432.31 534.956 1430.23 535.343 1427.91 535.343Z" fill="#191F28"/>
<g filter="url(#filter8_f_2710_3987)">
<ellipse cx="1693" cy="766" rx="35" ry="10" fill="black" fill-opacity="0.25"/>
</g>
<path d="M1748 673.28C1748 703.81 1737.88 710.526 1693 766C1648.34 710.998 1638 703.81 1638 673.28C1638 642.75 1662.62 618 1693 618C1723.38 618 1748 642.75 1748 673.28Z" fill="url(#paint8_linear_2710_3987)"/>
<rect x="1655.07" y="635.465" width="75.8621" height="75.8974" rx="37.931" fill="white"/>
<path d="M1680.47 678.3L1693.62 657.804H1701.74V678.214H1705.7V683.413H1701.74V688.913H1695.6V683.413H1680.47V678.3ZM1695.69 678.214V664.894H1695.38L1687.01 677.956V678.214H1695.69Z" fill="#191F28"/>
<path d="M652.029 29.8008V34.1406H616.364V29.8008H631.446V26.3203H620.704V12.3984H647.818V16.7383H626.161V21.8945H648.204V26.3203H636.946V29.8008H652.029ZM620.318 41.1875V36.8477H647.775V50.082H642.404V41.1875H620.318ZM685.175 28.3398V32.6797H673.831V41.0156H689.085V45.4844H653.292V41.0156H668.374V32.6797H657.503V13.6016H684.874V17.9844H663.003V28.3398H685.175ZM722.661 14.2461V18.0703C722.639 22.8398 722.639 28.1895 721.2 36.0742L715.829 35.6016C717.096 28.4258 717.139 23.1191 717.161 18.5859H693.743V14.2461H722.661ZM690.219 45.1836V40.7148H697.825V28.4258H703.282V40.7148H707.579V28.4258H712.993V40.7148H725.883V45.1836H690.219ZM762.811 29.1133V33.4531H754.217V37.1055H758.471V49.9531H753.014V41.4023H731.1V37.1055H735.568V33.4531H727.146V29.1133H762.811ZM730.713 19.3164C730.713 14.5469 736.32 11.6035 744.979 11.625C753.572 11.6035 759.18 14.5469 759.201 19.3164C759.18 24.1074 753.572 27.0508 744.979 27.0508C736.32 27.0508 730.713 24.1074 730.713 19.3164ZM736.428 19.3164C736.385 21.6367 739.5 22.7969 744.979 22.7969C750.371 22.7969 753.529 21.6367 753.529 19.3164C753.529 17.0605 750.371 15.8574 744.979 15.8789C739.5 15.8574 736.385 17.0605 736.428 19.3164ZM741.111 37.1055H748.803V33.4531H741.111V37.1055ZM776.277 22.7539C776.277 28.6836 778.404 34.6348 783.968 37.6211L780.961 41.6172C777.437 39.8125 775.095 36.6543 773.72 32.8516C772.367 36.998 770.025 40.5 766.48 42.5625L763.343 38.4375C768.994 35.1719 771.078 28.791 771.121 22.7539V21.8516H764.804V17.4688H771.121V12.1836H776.234V17.4688H782.421V21.8516H776.277V22.7539ZM780.144 30.1445V25.6758H784.742V11.4961H789.898V48.1484H784.742V30.1445H780.144ZM792.691 49.9531V10.8516H797.89V49.9531H792.691ZM833.958 10.8516V34.4844H828.501V26.793H823.431V22.3242H828.501V10.8516H833.958ZM801.087 18.6289V14.2461H809.939V10.5078H815.353V14.2461H824.118V18.6289H801.087ZM803.236 26.9219C803.236 22.8398 807.167 19.918 812.646 19.918C818.146 19.918 822.013 22.8398 822.013 26.9219C822.013 31.1973 818.124 33.9902 812.646 34.0117C807.167 33.9902 803.236 31.1973 803.236 26.9219ZM807.661 49.5234V36.1602H833.958V49.5234H807.661ZM808.521 26.9219C808.478 28.8984 810.089 29.9512 812.646 29.9727C815.138 29.9512 816.771 28.8984 816.771 26.9219C816.771 25.0742 815.138 24.0215 812.646 24.043C810.089 24.0215 808.478 25.0742 808.521 26.9219ZM813.161 45.1406H828.587V40.457H813.161V45.1406ZM859.843 13.6875V16.1367C859.843 18.8438 859.843 22.7539 858.94 27.6094L853.569 27.0938C854.278 23.3555 854.45 20.498 854.493 18.1562H839.733V13.6875H859.843ZM837.413 30.4453C839.604 30.4453 842.075 30.4453 844.675 30.3809V22.7109H850.132V30.209C854.042 30.0371 858.016 29.7363 861.69 29.1992L861.991 33.1523C853.848 34.6562 844.696 34.8066 837.886 34.8281L837.413 30.4453ZM843.171 49.2656V37.4922H848.671V44.8828H870.628V49.2656H843.171ZM863.796 40.1133V10.8516H869.425V22.7539H874.151V27.3516H869.425V40.1133H863.796Z" fill="white"/>
<path d="M360.133 199.969C363.291 199.947 366.041 201.021 367.911 202.848H376.719V198.852H382.176V218.445H376.719V215.051H367.954C366.084 216.898 363.313 217.994 360.133 218.016C354.161 217.994 349.692 214.299 349.735 208.949C349.692 203.643 354.161 199.947 360.133 199.969ZM354.934 208.949C354.912 211.871 357.082 213.59 360.133 213.59C363.077 213.59 365.225 211.871 365.246 208.949C365.225 206.092 363.077 204.373 360.133 204.395C357.082 204.373 354.912 206.092 354.934 208.949ZM356.137 224.332V220.121H382.176V230.691H361.68V233.227H383.336V237.523H356.18V226.652H376.719V224.332H356.137ZM370.252 207.102C370.381 207.682 370.446 208.305 370.446 208.949C370.446 209.594 370.381 210.217 370.252 210.797H376.719V207.102H370.252ZM417.17 198.895V208.133H422.455V212.688H417.17V222.098H411.67V198.895H417.17ZM387.521 205.168V200.785H405.482V212.688H393.021V216.211C399.467 216.168 403.85 215.975 408.834 215.094L409.436 219.391C403.828 220.486 398.801 220.68 390.873 220.68H387.564V208.562H400.154V205.168H387.521ZM391.561 237.523V223.73H417.17V237.523H391.561ZM396.932 233.141H411.799V228.027H396.932V233.141ZM455.773 198.852V218.66H450.316V198.852H455.773ZM422.902 214.449C429.433 212.494 432.355 207.574 432.355 202.719V199.711H438.07V202.719C438.027 207.467 440.863 212 447.265 213.848L444.601 218.059C440.111 216.77 437.017 214.041 435.234 210.561C433.472 214.363 430.271 217.35 425.609 218.746L422.902 214.449ZM429.562 224.59V220.336H455.816V230.949H435.019V233.355H456.89V237.695H429.648V226.867H450.359V224.59H429.562Z" fill="white"/>
<path d="M1358.12 366.43V370.812H1354.9V381.232C1356.21 381.146 1357.5 381.018 1358.72 380.867L1358.94 384.906C1351.59 386.131 1343.06 386.281 1336.85 386.281L1336.29 381.855C1337.58 381.855 1339 381.834 1340.46 381.812V370.812H1337.28V366.43H1358.12ZM1342.44 395.691C1342.44 391.008 1347.51 388.365 1355.89 388.344C1364.29 388.365 1369.36 391.008 1369.38 395.691C1369.36 400.246 1364.29 402.975 1355.89 402.953C1347.51 402.975 1342.44 400.246 1342.44 395.691ZM1345.74 381.705C1347.03 381.684 1348.34 381.619 1349.66 381.576V370.812H1345.74V381.705ZM1347.89 395.691C1347.89 397.754 1350.66 398.785 1355.89 398.785C1361.11 398.785 1363.9 397.754 1363.92 395.691C1363.9 393.564 1361.11 392.533 1355.89 392.555C1350.66 392.533 1347.89 393.564 1347.89 395.691ZM1358.98 381.898V377.516H1363.79V374.508H1358.98V370.211H1363.79V363.852H1369.25V387.742H1363.79V381.898H1358.98ZM1385.72 370.812C1385.72 375.045 1387.91 379.213 1393.11 381.211L1390.19 385.379C1386.84 384.111 1384.54 381.791 1383.14 378.912C1381.73 382.285 1379.28 385.1 1375.63 386.625L1372.66 382.414C1378.18 379.986 1380.39 375.174 1380.39 370.812V366.215H1385.72V370.812ZM1379.92 395.648C1379.9 391.072 1385.16 388.322 1393.46 388.344C1401.71 388.322 1406.99 391.072 1407.04 395.648C1406.99 400.182 1401.71 402.975 1393.46 402.953C1385.16 402.975 1379.9 400.182 1379.92 395.648ZM1385.42 395.648C1385.38 397.754 1388.32 398.828 1393.46 398.828C1398.55 398.828 1401.49 397.754 1401.49 395.648C1401.49 393.521 1398.55 392.426 1393.46 392.426C1388.32 392.426 1385.38 393.521 1385.42 395.648ZM1393.24 386.582V364.582H1398.36V373.434H1401.62V363.895H1406.82V387.785H1401.62V377.859H1398.36V386.582H1393.24ZM1433.35 367.332V371.672H1410.15V367.332H1419.04V363.637H1424.5V367.332H1433.35ZM1412.04 380.137C1412.04 375.84 1416.08 372.939 1421.75 372.918C1427.44 372.939 1431.37 375.84 1431.37 380.137C1431.37 384.434 1427.44 387.334 1421.75 387.355C1416.08 387.334 1412.04 384.434 1412.04 380.137ZM1414.83 394.402V390.02H1441.17V402.953H1435.67V394.402H1414.83ZM1417.41 380.137C1417.39 382.135 1419.13 383.166 1421.75 383.145C1424.39 383.166 1426.17 382.135 1426.17 380.137C1426.17 378.117 1424.39 377.043 1421.75 377.043C1419.13 377.043 1417.39 378.117 1417.41 380.137ZM1435.67 388.387V363.852H1441.17V373.992H1446.46V378.461H1441.17V388.387H1435.67ZM1456.66 387.312V390.621H1472.77V387.312H1478.23V402.523H1451.24V387.312H1456.66ZM1447.07 385.336V380.91H1482.74V385.336H1447.07ZM1448.84 374.895C1457.56 373.842 1462.07 369.588 1462.11 365.57V364.238H1467.74V365.57C1467.74 369.48 1472.23 373.906 1480.98 374.895L1479.04 379.191C1472.32 378.332 1467.42 375.539 1464.91 371.758C1462.37 375.539 1457.47 378.332 1450.81 379.191L1448.84 374.895ZM1456.66 398.227H1472.77V394.789H1456.66V398.227ZM1516.7 363.852V383.66H1511.24V363.852H1516.7ZM1483.83 379.449C1490.36 377.494 1493.28 372.574 1493.28 367.719V364.711H1499V367.719C1498.95 372.467 1501.79 377 1508.19 378.848L1505.53 383.059C1501.04 381.77 1497.94 379.041 1496.16 375.561C1494.4 379.363 1491.2 382.35 1486.54 383.746L1483.83 379.449ZM1490.49 389.59V385.336H1516.74V395.949H1495.95V398.355H1517.82V402.695H1490.58V391.867H1511.29V389.59H1490.49ZM1363.93 432.297C1363.95 425.688 1365.98 420.186 1369.34 415.457H1374.3C1371.87 418.955 1369.34 426.004 1369.34 432.297C1369.34 438.607 1371.87 445.639 1374.3 449.172H1369.34C1365.98 444.426 1363.95 438.924 1363.93 432.297ZM1380.32 416.09V423.297H1384.68V416.09H1388.83V437.641H1376.11V416.09H1380.32ZM1380.32 434.055H1384.68V426.812H1380.32V434.055ZM1391.5 443.758V413.699H1395.76V425.441H1398.64V413.242H1402.93V445.234H1398.64V429.098H1395.76V443.758H1391.5ZM1419.99 413.664C1427.11 413.682 1431.61 416.002 1431.63 419.887C1431.61 423.701 1427.11 425.986 1419.99 425.969C1412.91 425.986 1408.32 423.701 1408.32 419.887C1408.32 416.002 1412.91 413.682 1419.99 413.664ZM1405.41 431.207V427.621H1434.58V431.207H1422.21V433.984H1431.1V444.883H1408.78V433.984H1417.74V431.207H1405.41ZM1413 419.887C1412.96 421.645 1415.51 422.559 1419.99 422.559C1424.41 422.559 1426.99 421.645 1426.99 419.887C1426.99 418.041 1424.41 417.092 1419.99 417.109C1415.51 417.092 1412.96 418.041 1413 419.887ZM1413.21 441.297H1426.71V437.535H1413.21V441.297ZM1447.64 416.547V442H1442.33V421.574H1442.19L1436.36 425.23V420.555L1442.65 416.547H1447.64ZM1478.35 413.242V429.449H1473.88V413.242H1478.35ZM1451.45 426.004C1456.8 424.404 1459.19 420.379 1459.19 416.406V413.945H1463.86V416.406C1463.83 420.291 1466.15 424 1471.39 425.512L1469.21 428.957C1465.53 427.902 1463 425.67 1461.54 422.822C1460.1 425.934 1457.48 428.377 1453.67 429.52L1451.45 426.004ZM1456.9 434.301V430.82H1478.38V439.504H1461.37V441.473H1479.26V445.023H1456.97V436.164H1473.92V434.301H1456.9ZM1492.07 432.297C1492.05 438.924 1490.02 444.426 1486.66 449.172H1481.7C1484.13 445.639 1486.66 438.607 1486.66 432.297C1486.66 426.004 1484.13 418.955 1481.7 415.457H1486.66C1490.02 420.186 1492.05 425.688 1492.07 432.297Z" fill="white"/>
<path d="M921.219 347.375H925.438V349.875H921.219V363.656H918.25V335.656H921.219V347.375ZM898.938 356.031C902.115 356.031 904.594 356.005 906.375 355.953V353.109C905.323 352.953 904.401 352.646 903.609 352.188C902.828 351.729 902.224 351.146 901.797 350.438C901.38 349.719 901.177 348.917 901.188 348.031C901.177 346.99 901.448 346.073 902 345.281C902.562 344.49 903.349 343.875 904.359 343.438C905.38 343 906.552 342.781 907.875 342.781C909.188 342.781 910.354 343 911.375 343.438C912.396 343.875 913.193 344.49 913.766 345.281C914.339 346.073 914.625 346.99 914.625 348.031C914.625 348.917 914.406 349.719 913.969 350.438C913.531 351.146 912.911 351.734 912.109 352.203C911.318 352.661 910.396 352.964 909.344 353.109V355.844C912.094 355.708 914.531 355.49 916.656 355.188L916.844 357.375C914.312 357.823 911.693 358.125 908.984 358.281C906.286 358.427 903.443 358.5 900.453 358.5H899.406L898.938 356.031ZM899.469 338.969H906.375V335.719H909.344V338.969H916.25V341.344H899.469V338.969ZM903.969 348.031C903.969 348.615 904.13 349.125 904.453 349.562C904.776 349.99 905.224 350.323 905.797 350.562C906.38 350.792 907.057 350.906 907.828 350.906C909.026 350.906 909.979 350.651 910.688 350.141C911.406 349.63 911.771 348.927 911.781 348.031C911.781 347.438 911.615 346.922 911.281 346.484C910.958 346.036 910.5 345.693 909.906 345.453C909.323 345.214 908.646 345.094 907.875 345.094C907.094 345.094 906.406 345.214 905.812 345.453C905.229 345.693 904.776 346.036 904.453 346.484C904.13 346.922 903.969 347.438 903.969 348.031ZM935.919 340.812C935.908 342 936.169 343.135 936.7 344.219C937.242 345.292 938.018 346.245 939.028 347.078C940.039 347.901 941.242 348.531 942.638 348.969L941.231 351.281C939.658 350.781 938.294 350.031 937.138 349.031C935.992 348.031 935.106 346.854 934.481 345.5C933.867 347.052 932.955 348.406 931.747 349.562C930.539 350.708 929.106 351.573 927.45 352.156L925.919 349.781C927.346 349.312 928.591 348.625 929.653 347.719C930.716 346.812 931.528 345.766 932.091 344.578C932.653 343.391 932.94 342.146 932.95 340.844V340.062H926.794V337.656H941.95V340.062H935.919V340.812ZM929.7 358.344C929.7 357.26 930.075 356.328 930.825 355.547C931.585 354.766 932.669 354.172 934.075 353.766C935.492 353.359 937.169 353.156 939.106 353.156C941.023 353.156 942.674 353.359 944.059 353.766C945.455 354.172 946.523 354.766 947.263 355.547C948.013 356.328 948.388 357.26 948.388 358.344C948.388 359.448 948.013 360.391 947.263 361.172C946.523 361.964 945.455 362.562 944.059 362.969C942.674 363.385 941.023 363.594 939.106 363.594C937.169 363.594 935.492 363.385 934.075 362.969C932.669 362.562 931.585 361.964 930.825 361.172C930.075 360.391 929.7 359.448 929.7 358.344ZM932.669 358.344C932.658 359.271 933.21 359.99 934.325 360.5C935.45 361 937.013 361.25 939.013 361.25C941.065 361.25 942.658 361 943.794 360.5C944.929 360 945.492 359.281 945.481 358.344C945.492 357.438 944.945 356.74 943.841 356.25C942.736 355.75 941.19 355.5 939.2 355.5C937.127 355.5 935.518 355.745 934.372 356.234C933.226 356.724 932.658 357.427 932.669 358.344ZM945.169 335.656H948.138V342.594H952.2V345.031H948.138V352.469H945.169V335.656ZM976.181 350.062H973.244V335.656H976.181V350.062ZM953.088 347.562C954.515 347.083 955.759 346.385 956.822 345.469C957.895 344.552 958.713 343.495 959.275 342.297C959.848 341.099 960.14 339.854 960.15 338.562V336.406H963.181V338.562C963.181 339.802 963.463 340.99 964.025 342.125C964.588 343.26 965.395 344.26 966.447 345.125C967.499 345.979 968.733 346.625 970.15 347.062L968.681 349.375C967.056 348.844 965.645 348.052 964.447 347C963.249 345.948 962.332 344.703 961.697 343.266C961.051 344.818 960.114 346.172 958.884 347.328C957.666 348.484 956.233 349.344 954.588 349.906L953.088 347.562ZM957.806 351.406H976.213V358.406H960.775V361H977.15V363.375H957.9V356.156H973.275V353.75H957.806V351.406ZM981.537 352.375C981.548 349.49 981.944 346.812 982.725 344.344C983.517 341.865 984.662 339.552 986.162 337.406H989.225C988.496 338.458 987.808 339.812 987.162 341.469C986.517 343.115 985.996 344.896 985.6 346.812C985.204 348.729 985.006 350.583 985.006 352.375C985.006 354.167 985.204 356.026 985.6 357.953C985.996 359.87 986.517 361.656 987.162 363.312C987.808 364.969 988.496 366.323 989.225 367.375H986.162C984.662 365.219 983.517 362.901 982.725 360.422C981.944 357.943 981.548 355.26 981.537 352.375ZM998.081 337.75C999.352 337.76 1000.49 338.115 1001.5 338.812C1002.52 339.5 1003.35 340.479 1003.97 341.75H1010.89V335.656H1013.83V363.719H1010.89V352.969H1004.18C1003.57 354.385 1002.74 355.484 1001.68 356.266C1000.62 357.036 999.425 357.417 998.081 357.406C996.696 357.406 995.461 357.005 994.378 356.203C993.305 355.401 992.467 354.255 991.863 352.766C991.269 351.276 990.977 349.542 990.988 347.562C990.977 345.604 991.269 343.885 991.863 342.406C992.467 340.917 993.305 339.771 994.378 338.969C995.461 338.156 996.696 337.75 998.081 337.75ZM993.8 347.562C993.8 349.021 993.977 350.292 994.331 351.375C994.696 352.458 995.201 353.292 995.847 353.875C996.493 354.458 997.238 354.75 998.081 354.75C998.925 354.75 999.67 354.458 1000.32 353.875C1000.96 353.292 1001.46 352.458 1001.82 351.375C1002.18 350.292 1002.36 349.021 1002.36 347.562C1002.36 346.125 1002.18 344.87 1001.82 343.797C1001.45 342.714 1000.95 341.88 1000.3 341.297C999.665 340.703 998.925 340.406 998.081 340.406C997.238 340.406 996.493 340.703 995.847 341.297C995.211 341.88 994.711 342.714 994.347 343.797C993.982 344.87 993.8 346.125 993.8 347.562ZM1004.82 344.188C1005.06 345.312 1005.18 346.438 1005.18 347.562C1005.18 348.615 1005.08 349.604 1004.89 350.531H1010.89V344.188H1004.82ZM1025.03 352.375C1025.02 355.26 1024.62 357.943 1023.83 360.422C1023.05 362.901 1021.91 365.219 1020.41 367.375H1017.34C1018.07 366.323 1018.76 364.969 1019.41 363.312C1020.05 361.656 1020.57 359.87 1020.97 357.953C1021.36 356.026 1021.56 354.167 1021.56 352.375C1021.56 350.583 1021.36 348.729 1020.97 346.812C1020.57 344.896 1020.05 343.115 1019.41 341.469C1018.76 339.812 1018.07 338.458 1017.34 337.406H1020.41C1021.91 339.552 1023.05 341.865 1023.83 344.344C1024.62 346.812 1025.02 349.49 1025.03 352.375Z" fill="#EFF1F3"/>
<path d="M1150.22 478.375H1154.44V480.875H1150.22V494.656H1147.25V466.656H1150.22V478.375ZM1127.94 487.031C1131.11 487.031 1133.59 487.005 1135.38 486.953V484.109C1134.32 483.953 1133.4 483.646 1132.61 483.188C1131.83 482.729 1131.22 482.146 1130.8 481.438C1130.38 480.719 1130.18 479.917 1130.19 479.031C1130.18 477.99 1130.45 477.073 1131 476.281C1131.56 475.49 1132.35 474.875 1133.36 474.438C1134.38 474 1135.55 473.781 1136.88 473.781C1138.19 473.781 1139.35 474 1140.38 474.438C1141.4 474.875 1142.19 475.49 1142.77 476.281C1143.34 477.073 1143.62 477.99 1143.62 479.031C1143.62 479.917 1143.41 480.719 1142.97 481.438C1142.53 482.146 1141.91 482.734 1141.11 483.203C1140.32 483.661 1139.4 483.964 1138.34 484.109V486.844C1141.09 486.708 1143.53 486.49 1145.66 486.188L1145.84 488.375C1143.31 488.823 1140.69 489.125 1137.98 489.281C1135.29 489.427 1132.44 489.5 1129.45 489.5H1128.41L1127.94 487.031ZM1128.47 469.969H1135.38V466.719H1138.34V469.969H1145.25V472.344H1128.47V469.969ZM1132.97 479.031C1132.97 479.615 1133.13 480.125 1133.45 480.562C1133.78 480.99 1134.22 481.323 1134.8 481.562C1135.38 481.792 1136.06 481.906 1136.83 481.906C1138.03 481.906 1138.98 481.651 1139.69 481.141C1140.41 480.63 1140.77 479.927 1140.78 479.031C1140.78 478.438 1140.61 477.922 1140.28 477.484C1139.96 477.036 1139.5 476.693 1138.91 476.453C1138.32 476.214 1137.65 476.094 1136.88 476.094C1136.09 476.094 1135.41 476.214 1134.81 476.453C1134.23 476.693 1133.78 477.036 1133.45 477.484C1133.13 477.922 1132.97 478.438 1132.97 479.031ZM1164.92 471.812C1164.91 473 1165.17 474.135 1165.7 475.219C1166.24 476.292 1167.02 477.245 1168.03 478.078C1169.04 478.901 1170.24 479.531 1171.64 479.969L1170.23 482.281C1168.66 481.781 1167.29 481.031 1166.14 480.031C1164.99 479.031 1164.11 477.854 1163.48 476.5C1162.87 478.052 1161.96 479.406 1160.75 480.562C1159.54 481.708 1158.11 482.573 1156.45 483.156L1154.92 480.781C1156.35 480.312 1157.59 479.625 1158.65 478.719C1159.72 477.812 1160.53 476.766 1161.09 475.578C1161.65 474.391 1161.94 473.146 1161.95 471.844V471.062H1155.79V468.656H1170.95V471.062H1164.92V471.812ZM1158.7 489.344C1158.7 488.26 1159.08 487.328 1159.83 486.547C1160.59 485.766 1161.67 485.172 1163.08 484.766C1164.49 484.359 1166.17 484.156 1168.11 484.156C1170.02 484.156 1171.67 484.359 1173.06 484.766C1174.46 485.172 1175.52 485.766 1176.26 486.547C1177.01 487.328 1177.39 488.26 1177.39 489.344C1177.39 490.448 1177.01 491.391 1176.26 492.172C1175.52 492.964 1174.46 493.562 1173.06 493.969C1171.67 494.385 1170.02 494.594 1168.11 494.594C1166.17 494.594 1164.49 494.385 1163.08 493.969C1161.67 493.562 1160.59 492.964 1159.83 492.172C1159.08 491.391 1158.7 490.448 1158.7 489.344ZM1161.67 489.344C1161.66 490.271 1162.21 490.99 1163.33 491.5C1164.45 492 1166.01 492.25 1168.01 492.25C1170.06 492.25 1171.66 492 1172.79 491.5C1173.93 491 1174.49 490.281 1174.48 489.344C1174.49 488.438 1173.94 487.74 1172.84 487.25C1171.74 486.75 1170.19 486.5 1168.2 486.5C1166.13 486.5 1164.52 486.745 1163.37 487.234C1162.23 487.724 1161.66 488.427 1161.67 489.344ZM1174.17 466.656H1177.14V473.594H1181.2V476.031H1177.14V483.469H1174.17V466.656ZM1205.18 481.062H1202.24V466.656H1205.18V481.062ZM1182.09 478.562C1183.51 478.083 1184.76 477.385 1185.82 476.469C1186.89 475.552 1187.71 474.495 1188.28 473.297C1188.85 472.099 1189.14 470.854 1189.15 469.562V467.406H1192.18V469.562C1192.18 470.802 1192.46 471.99 1193.03 473.125C1193.59 474.26 1194.39 475.26 1195.45 476.125C1196.5 476.979 1197.73 477.625 1199.15 478.062L1197.68 480.375C1196.06 479.844 1194.64 479.052 1193.45 478C1192.25 476.948 1191.33 475.703 1190.7 474.266C1190.05 475.818 1189.11 477.172 1187.88 478.328C1186.67 479.484 1185.23 480.344 1183.59 480.906L1182.09 478.562ZM1186.81 482.406H1205.21V489.406H1189.78V492H1206.15V494.375H1186.9V487.156H1202.28V484.75H1186.81V482.406ZM1210.54 483.375C1210.55 480.49 1210.94 477.812 1211.72 475.344C1212.52 472.865 1213.66 470.552 1215.16 468.406H1218.22C1217.5 469.458 1216.81 470.812 1216.16 472.469C1215.52 474.115 1215 475.896 1214.6 477.812C1214.2 479.729 1214.01 481.583 1214.01 483.375C1214.01 485.167 1214.2 487.026 1214.6 488.953C1215 490.87 1215.52 492.656 1216.16 494.312C1216.81 495.969 1217.5 497.323 1218.22 498.375H1215.16C1213.66 496.219 1212.52 493.901 1211.72 491.422C1210.94 488.943 1210.55 486.26 1210.54 483.375ZM1241.49 472.906H1245.58V475.375H1241.49V482.469H1238.52V466.688H1241.49V472.906ZM1220.77 468.062H1223.74V478.094C1227.87 478.062 1231.89 477.656 1235.8 476.875L1236.18 479.312C1233.96 479.76 1231.77 480.078 1229.63 480.266C1227.49 480.453 1225.3 480.552 1223.05 480.562H1220.77V468.062ZM1223.55 483.938H1241.49V494.281H1223.55V483.938ZM1238.61 491.906V486.25H1226.46V491.906H1238.61ZM1254.03 483.375C1254.02 486.26 1253.62 488.943 1252.83 491.422C1252.05 493.901 1250.91 496.219 1249.41 498.375H1246.34C1247.07 497.323 1247.76 495.969 1248.41 494.312C1249.05 492.656 1249.57 490.87 1249.97 488.953C1250.36 487.026 1250.56 485.167 1250.56 483.375C1250.56 481.583 1250.36 479.729 1249.97 477.812C1249.57 475.896 1249.05 474.115 1248.41 472.469C1247.76 470.812 1247.07 469.458 1246.34 468.406H1249.41C1250.91 470.552 1252.05 472.865 1252.83 475.344C1253.62 477.812 1254.02 480.49 1254.03 483.375Z" fill="#EFF1F3"/>
<path d="M793.12 504.43V508.812H789.897V519.232C791.208 519.146 792.497 519.018 793.721 518.867L793.936 522.906C786.589 524.131 778.059 524.281 771.85 524.281L771.292 519.855C772.581 519.855 773.999 519.834 775.46 519.812V508.812H772.28V504.43H793.12ZM777.436 533.691C777.436 529.008 782.507 526.365 790.886 526.344C799.286 526.365 804.356 529.008 804.378 533.691C804.356 538.246 799.286 540.975 790.886 540.953C782.507 540.975 777.436 538.246 777.436 533.691ZM780.745 519.705C782.034 519.684 783.345 519.619 784.655 519.576V508.812H780.745V519.705ZM782.893 533.691C782.893 535.754 785.665 536.785 790.886 536.785C796.106 536.785 798.899 535.754 798.921 533.691C798.899 531.564 796.106 530.533 790.886 530.555C785.665 530.533 782.893 531.564 782.893 533.691ZM793.979 519.898V515.516H798.792V512.508H793.979V508.211H798.792V501.852H804.249V525.742H798.792V519.898H793.979ZM820.723 508.812C820.723 513.045 822.914 517.213 828.114 519.211L825.192 523.379C821.84 522.111 819.541 519.791 818.145 516.912C816.727 520.285 814.278 523.1 810.625 524.625L807.661 520.414C813.182 517.986 815.395 513.174 815.395 508.812V504.215H820.723V508.812ZM814.922 533.648C814.901 529.072 820.164 526.322 828.457 526.344C836.707 526.322 841.993 529.072 842.036 533.648C841.993 538.182 836.707 540.975 828.457 540.953C820.164 540.975 814.901 538.182 814.922 533.648ZM820.422 533.648C820.379 535.754 823.323 536.828 828.457 536.828C833.549 536.828 836.493 535.754 836.493 533.648C836.493 531.521 833.549 530.426 828.457 530.426C823.323 530.426 820.379 531.521 820.422 533.648ZM828.243 524.582V502.582H833.356V511.434H836.621V501.895H841.821V525.785H836.621V515.859H833.356V524.582H828.243ZM868.35 505.332V509.672H845.146V505.332H854.041V501.637H859.498V505.332H868.35ZM847.037 518.137C847.037 513.84 851.076 510.939 856.748 510.918C862.441 510.939 866.373 513.84 866.373 518.137C866.373 522.434 862.441 525.334 856.748 525.355C851.076 525.334 847.037 522.434 847.037 518.137ZM849.83 532.402V528.02H876.17V540.953H870.67V532.402H849.83ZM852.408 518.137C852.387 520.135 854.127 521.166 856.748 521.145C859.391 521.166 861.174 520.135 861.174 518.137C861.174 516.117 859.391 515.043 856.748 515.043C854.127 515.043 852.387 516.117 852.408 518.137ZM870.67 526.387V501.852H876.17V511.992H881.455V516.461H876.17V526.387H870.67ZM891.656 525.312V528.621H907.769V525.312H913.226V540.523H886.242V525.312H891.656ZM882.074 523.336V518.91H917.738V523.336H882.074ZM883.836 512.895C892.558 511.842 897.07 507.588 897.113 503.57V502.238H902.742V503.57C902.742 507.48 907.232 511.906 915.976 512.895L914.043 517.191C907.318 516.332 902.42 513.539 899.906 509.758C897.371 513.539 892.472 516.332 885.812 517.191L883.836 512.895ZM891.656 536.227H907.769V532.789H891.656V536.227ZM951.7 501.852V521.66H946.243V501.852H951.7ZM918.829 517.449C925.361 515.494 928.282 510.574 928.282 505.719V502.711H933.997V505.719C933.954 510.467 936.79 515 943.193 516.848L940.529 521.059C936.038 519.77 932.945 517.041 931.161 513.561C929.4 517.363 926.198 520.35 921.536 521.746L918.829 517.449ZM925.489 527.59V523.336H951.743V533.949H930.946V536.355H952.818V540.695H925.575V529.867H946.286V527.59H925.489ZM798.928 570.297C798.945 563.688 800.984 558.186 804.342 553.457H809.299C806.873 556.955 804.342 564.004 804.342 570.297C804.342 576.607 806.873 583.639 809.299 587.172H804.342C800.984 582.426 798.945 576.924 798.928 570.297ZM839.969 563.371V567.027H835.434V583.164H830.934V551.242H835.434V563.371H839.969ZM811.211 575.359V554.301H815.676V571.65C819.772 571.58 824.166 571.193 828.789 570.262L829.246 573.988C823.885 575.078 818.7 575.359 813.989 575.359H811.211ZM866.35 559.082V562.668H844.096V551.699H848.561V559.082H866.35ZM840.405 568.715V565.129H869.655V568.715H857.139V571.598H866.034V582.848H844.026V571.598H852.675V568.715H840.405ZM848.421 579.332H861.675V575.078H848.421V579.332ZM882.642 554.547V580H877.333V559.574H877.193L871.357 563.23V558.555L877.65 554.547H882.642ZM913.347 551.242V567.449H908.882V551.242H913.347ZM886.453 564.004C891.796 562.404 894.187 558.379 894.187 554.406V551.945H898.863V554.406C898.828 558.291 901.148 562 906.386 563.512L904.207 566.957C900.533 565.902 898.002 563.67 896.543 560.822C895.101 563.934 892.482 566.377 888.668 567.52L886.453 564.004ZM891.902 572.301V568.82H913.382V577.504H896.367V579.473H914.261V583.023H891.972V574.164H908.918V572.301H891.902ZM927.072 570.297C927.055 576.924 925.016 582.426 921.658 587.172H916.701C919.127 583.639 921.658 576.607 921.658 570.297C921.658 564.004 919.127 556.955 916.701 553.457H921.658C925.016 558.186 927.055 563.688 927.072 570.297Z" fill="white"/>
<path d="M1092.12 603.43V607.812H1088.9V618.232C1090.21 618.146 1091.5 618.018 1092.72 617.867L1092.94 621.906C1085.59 623.131 1077.06 623.281 1070.85 623.281L1070.29 618.855C1071.58 618.855 1073 618.834 1074.46 618.812V607.812H1071.28V603.43H1092.12ZM1076.44 632.691C1076.44 628.008 1081.51 625.365 1089.89 625.344C1098.29 625.365 1103.36 628.008 1103.38 632.691C1103.36 637.246 1098.29 639.975 1089.89 639.953C1081.51 639.975 1076.44 637.246 1076.44 632.691ZM1079.74 618.705C1081.03 618.684 1082.34 618.619 1083.66 618.576V607.812H1079.74V618.705ZM1081.89 632.691C1081.89 634.754 1084.66 635.785 1089.89 635.785C1095.11 635.785 1097.9 634.754 1097.92 632.691C1097.9 630.564 1095.11 629.533 1089.89 629.555C1084.66 629.533 1081.89 630.564 1081.89 632.691ZM1092.98 618.898V614.516H1097.79V611.508H1092.98V607.211H1097.79V600.852H1103.25V624.742H1097.79V618.898H1092.98ZM1119.72 607.812C1119.72 612.045 1121.91 616.213 1127.11 618.211L1124.19 622.379C1120.84 621.111 1118.54 618.791 1117.14 615.912C1115.73 619.285 1113.28 622.1 1109.63 623.625L1106.66 619.414C1112.18 616.986 1114.39 612.174 1114.39 607.812V603.215H1119.72V607.812ZM1113.92 632.648C1113.9 628.072 1119.16 625.322 1127.46 625.344C1135.71 625.322 1140.99 628.072 1141.04 632.648C1140.99 637.182 1135.71 639.975 1127.46 639.953C1119.16 639.975 1113.9 637.182 1113.92 632.648ZM1119.42 632.648C1119.38 634.754 1122.32 635.828 1127.46 635.828C1132.55 635.828 1135.49 634.754 1135.49 632.648C1135.49 630.521 1132.55 629.426 1127.46 629.426C1122.32 629.426 1119.38 630.521 1119.42 632.648ZM1127.24 623.582V601.582H1132.36V610.434H1135.62V600.895H1140.82V624.785H1135.62V614.859H1132.36V623.582H1127.24ZM1167.35 604.332V608.672H1144.15V604.332H1153.04V600.637H1158.5V604.332H1167.35ZM1146.04 617.137C1146.04 612.84 1150.08 609.939 1155.75 609.918C1161.44 609.939 1165.37 612.84 1165.37 617.137C1165.37 621.434 1161.44 624.334 1155.75 624.355C1150.08 624.334 1146.04 621.434 1146.04 617.137ZM1148.83 631.402V627.02H1175.17V639.953H1169.67V631.402H1148.83ZM1151.41 617.137C1151.39 619.135 1153.13 620.166 1155.75 620.145C1158.39 620.166 1160.17 619.135 1160.17 617.137C1160.17 615.117 1158.39 614.043 1155.75 614.043C1153.13 614.043 1151.39 615.117 1151.41 617.137ZM1169.67 625.387V600.852H1175.17V610.992H1180.46V615.461H1175.17V625.387H1169.67ZM1190.66 624.312V627.621H1206.77V624.312H1212.23V639.523H1185.24V624.312H1190.66ZM1181.07 622.336V617.91H1216.74V622.336H1181.07ZM1182.84 611.895C1191.56 610.842 1196.07 606.588 1196.11 602.57V601.238H1201.74V602.57C1201.74 606.48 1206.23 610.906 1214.98 611.895L1213.04 616.191C1206.32 615.332 1201.42 612.539 1198.91 608.758C1196.37 612.539 1191.47 615.332 1184.81 616.191L1182.84 611.895ZM1190.66 635.227H1206.77V631.789H1190.66V635.227ZM1250.7 600.852V620.66H1245.24V600.852H1250.7ZM1217.83 616.449C1224.36 614.494 1227.28 609.574 1227.28 604.719V601.711H1233V604.719C1232.95 609.467 1235.79 614 1242.19 615.848L1239.53 620.059C1235.04 618.77 1231.94 616.041 1230.16 612.561C1228.4 616.363 1225.2 619.35 1220.54 620.746L1217.83 616.449ZM1224.49 626.59V622.336H1250.74V632.949H1229.95V635.355H1251.82V639.695H1224.58V628.867H1245.29V626.59H1224.49ZM1095.38 669.297C1095.4 662.688 1097.44 657.186 1100.79 652.457H1105.75C1103.32 655.955 1100.79 663.004 1100.79 669.297C1100.79 675.607 1103.32 682.639 1105.75 686.172H1100.79C1097.44 681.426 1095.4 675.924 1095.38 669.297ZM1136.42 662.371V666.027H1131.89V682.164H1127.39V650.242H1131.89V662.371H1136.42ZM1107.66 674.359V653.301H1112.13V670.65C1116.22 670.58 1120.62 670.193 1125.24 669.262L1125.7 672.988C1120.34 674.078 1115.15 674.359 1110.44 674.359H1107.66ZM1162.8 658.082V661.668H1140.55V650.699H1145.01V658.082H1162.8ZM1136.86 667.715V664.129H1166.11V667.715H1153.59V670.598H1162.49V681.848H1140.48V670.598H1149.13V667.715H1136.86ZM1144.87 678.332H1158.13V674.078H1144.87V678.332ZM1168.12 679L1168.09 675.168L1177.23 666.766C1179.6 664.498 1180.89 663.092 1180.89 661.07C1180.89 658.803 1179.18 657.396 1176.84 657.414C1174.45 657.396 1172.89 658.908 1172.91 661.352H1167.88C1167.86 656.377 1171.55 653.195 1176.91 653.195C1182.36 653.195 1185.98 656.307 1185.98 660.719C1185.98 663.619 1184.58 665.992 1179.34 670.738L1175.47 674.5V674.641H1186.34V679H1168.12ZM1214.9 650.242V666.449H1210.43V650.242H1214.9ZM1188 663.004C1193.35 661.404 1195.74 657.379 1195.74 653.406V650.945H1200.41V653.406C1200.38 657.291 1202.7 661 1207.94 662.512L1205.76 665.957C1202.08 664.902 1199.55 662.67 1198.09 659.822C1196.65 662.934 1194.03 665.377 1190.22 666.52L1188 663.004ZM1193.45 671.301V667.82H1214.93V676.504H1197.92V678.473H1215.81V682.023H1193.52V673.164H1210.47V671.301H1193.45ZM1228.62 669.297C1228.6 675.924 1226.56 681.426 1223.21 686.172H1218.25C1220.68 682.639 1223.21 675.607 1223.21 669.297C1223.21 663.004 1220.68 655.955 1218.25 652.457H1223.21C1226.56 657.186 1228.6 662.688 1228.62 669.297Z" fill="white"/>
<path d="M594.12 847.43V851.812H590.897V862.232C592.208 862.146 593.497 862.018 594.721 861.867L594.936 865.906C587.589 867.131 579.059 867.281 572.85 867.281L572.292 862.855C573.581 862.855 574.999 862.834 576.46 862.812V851.812H573.28V847.43H594.12ZM578.436 876.691C578.436 872.008 583.507 869.365 591.886 869.344C600.286 869.365 605.356 872.008 605.378 876.691C605.356 881.246 600.286 883.975 591.886 883.953C583.507 883.975 578.436 881.246 578.436 876.691ZM581.745 862.705C583.034 862.684 584.345 862.619 585.655 862.576V851.812H581.745V862.705ZM583.893 876.691C583.893 878.754 586.665 879.785 591.886 879.785C597.106 879.785 599.899 878.754 599.921 876.691C599.899 874.564 597.106 873.533 591.886 873.555C586.665 873.533 583.893 874.564 583.893 876.691ZM594.979 862.898V858.516H599.792V855.508H594.979V851.211H599.792V844.852H605.249V868.742H599.792V862.898H594.979ZM621.723 851.812C621.723 856.045 623.914 860.213 629.114 862.211L626.192 866.379C622.84 865.111 620.541 862.791 619.145 859.912C617.727 863.285 615.278 866.1 611.625 867.625L608.661 863.414C614.182 860.986 616.395 856.174 616.395 851.812V847.215H621.723V851.812ZM615.922 876.648C615.901 872.072 621.164 869.322 629.457 869.344C637.707 869.322 642.993 872.072 643.036 876.648C642.993 881.182 637.707 883.975 629.457 883.953C621.164 883.975 615.901 881.182 615.922 876.648ZM621.422 876.648C621.379 878.754 624.323 879.828 629.457 879.828C634.549 879.828 637.493 878.754 637.493 876.648C637.493 874.521 634.549 873.426 629.457 873.426C624.323 873.426 621.379 874.521 621.422 876.648ZM629.243 867.582V845.582H634.356V854.434H637.621V844.895H642.821V868.785H637.621V858.859H634.356V867.582H629.243ZM669.35 848.332V852.672H646.146V848.332H655.041V844.637H660.498V848.332H669.35ZM648.037 861.137C648.037 856.84 652.076 853.939 657.748 853.918C663.441 853.939 667.373 856.84 667.373 861.137C667.373 865.434 663.441 868.334 657.748 868.355C652.076 868.334 648.037 865.434 648.037 861.137ZM650.83 875.402V871.02H677.17V883.953H671.67V875.402H650.83ZM653.408 861.137C653.387 863.135 655.127 864.166 657.748 864.145C660.391 864.166 662.174 863.135 662.174 861.137C662.174 859.117 660.391 858.043 657.748 858.043C655.127 858.043 653.387 859.117 653.408 861.137ZM671.67 869.387V844.852H677.17V854.992H682.455V859.461H677.17V869.387H671.67ZM692.656 868.312V871.621H708.769V868.312H714.226V883.523H687.242V868.312H692.656ZM683.074 866.336V861.91H718.738V866.336H683.074ZM684.836 855.895C693.558 854.842 698.07 850.588 698.113 846.57V845.238H703.742V846.57C703.742 850.48 708.232 854.906 716.976 855.895L715.043 860.191C708.318 859.332 703.42 856.539 700.906 852.758C698.371 856.539 693.472 859.332 686.812 860.191L684.836 855.895ZM692.656 879.227H708.769V875.789H692.656V879.227ZM752.7 844.852V864.66H747.243V844.852H752.7ZM719.829 860.449C726.361 858.494 729.282 853.574 729.282 848.719V845.711H734.997V848.719C734.954 853.467 737.79 858 744.193 859.848L741.529 864.059C737.038 862.77 733.945 860.041 732.161 856.561C730.4 860.363 727.198 863.35 722.536 864.746L719.829 860.449ZM726.489 870.59V866.336H752.743V876.949H731.946V879.355H753.818V883.695H726.575V872.867H747.286V870.59H726.489ZM599.928 913.297C599.945 906.688 601.984 901.186 605.342 896.457H610.299C607.873 899.955 605.342 907.004 605.342 913.297C605.342 919.607 607.873 926.639 610.299 930.172H605.342C601.984 925.426 599.945 919.924 599.928 913.297ZM621.176 903.91C621.176 908.727 622.881 913.631 627.504 916.039L625.008 919.344C622.125 917.867 620.209 915.283 619.084 912.172C617.977 915.547 616.061 918.43 613.161 920.082L610.629 916.707C615.182 914.105 616.922 908.885 616.957 903.91V903.312H611.649V899.656H616.957V895.332H621.141V899.656H626.414V903.312H621.176V903.91ZM627.856 924.758V894.699H632.11V906.547H634.817V894.242H639.106V926.234H634.817V910.203H632.11V924.758H627.856ZM655.995 894.664C663.114 894.682 667.614 897.002 667.632 900.887C667.614 904.701 663.114 906.986 655.995 906.969C648.911 906.986 644.323 904.701 644.323 900.887C644.323 897.002 648.911 894.682 655.995 894.664ZM641.405 912.207V908.621H670.585V912.207H658.21V914.984H667.104V925.883H644.78V914.984H653.745V912.207H641.405ZM648.999 900.887C648.964 902.645 651.512 903.559 655.995 903.559C660.407 903.559 662.991 902.645 662.991 900.887C662.991 899.041 660.407 898.092 655.995 898.109C651.512 898.092 648.964 899.041 648.999 900.887ZM649.21 922.297H662.71V918.535H649.21V922.297ZM683.642 897.547V923H678.333V902.574H678.193L672.357 906.23V901.555L678.65 897.547H683.642ZM714.347 894.242V910.449H709.882V894.242H714.347ZM687.453 907.004C692.796 905.404 695.187 901.379 695.187 897.406V894.945H699.863V897.406C699.828 901.291 702.148 905 707.386 906.512L705.207 909.957C701.533 908.902 699.002 906.67 697.543 903.822C696.101 906.934 693.482 909.377 689.668 910.52L687.453 907.004ZM692.902 915.301V911.82H714.382V920.504H697.367V922.473H715.261V926.023H692.972V917.164H709.918V915.301H692.902ZM728.072 913.297C728.055 919.924 726.016 925.426 722.658 930.172H717.701C720.127 926.639 722.658 919.607 722.658 913.297C722.658 907.004 720.127 899.955 717.701 896.457H722.658C726.016 901.186 728.055 906.688 728.072 913.297Z" fill="white"/>
<path d="M813.12 980.43V984.812H809.897V995.232C811.208 995.146 812.497 995.018 813.721 994.867L813.936 998.906C806.589 1000.13 798.059 1000.28 791.85 1000.28L791.292 995.855C792.581 995.855 793.999 995.834 795.46 995.812V984.812H792.28V980.43H813.12ZM797.436 1009.69C797.436 1005.01 802.507 1002.37 810.886 1002.34C819.286 1002.37 824.356 1005.01 824.378 1009.69C824.356 1014.25 819.286 1016.97 810.886 1016.95C802.507 1016.97 797.436 1014.25 797.436 1009.69ZM800.745 995.705C802.034 995.684 803.345 995.619 804.655 995.576V984.812H800.745V995.705ZM802.893 1009.69C802.893 1011.75 805.665 1012.79 810.886 1012.79C816.106 1012.79 818.899 1011.75 818.921 1009.69C818.899 1007.56 816.106 1006.53 810.886 1006.55C805.665 1006.53 802.893 1007.56 802.893 1009.69ZM813.979 995.898V991.516H818.792V988.508H813.979V984.211H818.792V977.852H824.249V1001.74H818.792V995.898H813.979ZM840.723 984.812C840.723 989.045 842.914 993.213 848.114 995.211L845.192 999.379C841.84 998.111 839.541 995.791 838.145 992.912C836.727 996.285 834.278 999.1 830.625 1000.62L827.661 996.414C833.182 993.986 835.395 989.174 835.395 984.812V980.215H840.723V984.812ZM834.922 1009.65C834.901 1005.07 840.164 1002.32 848.457 1002.34C856.707 1002.32 861.993 1005.07 862.036 1009.65C861.993 1014.18 856.707 1016.97 848.457 1016.95C840.164 1016.97 834.901 1014.18 834.922 1009.65ZM840.422 1009.65C840.379 1011.75 843.323 1012.83 848.457 1012.83C853.549 1012.83 856.493 1011.75 856.493 1009.65C856.493 1007.52 853.549 1006.43 848.457 1006.43C843.323 1006.43 840.379 1007.52 840.422 1009.65ZM848.243 1000.58V978.582H853.356V987.434H856.621V977.895H861.821V1001.79H856.621V991.859H853.356V1000.58H848.243ZM888.35 981.332V985.672H865.146V981.332H874.041V977.637H879.498V981.332H888.35ZM867.037 994.137C867.037 989.84 871.076 986.939 876.748 986.918C882.441 986.939 886.373 989.84 886.373 994.137C886.373 998.434 882.441 1001.33 876.748 1001.36C871.076 1001.33 867.037 998.434 867.037 994.137ZM869.83 1008.4V1004.02H896.17V1016.95H890.67V1008.4H869.83ZM872.408 994.137C872.387 996.135 874.127 997.166 876.748 997.145C879.391 997.166 881.174 996.135 881.174 994.137C881.174 992.117 879.391 991.043 876.748 991.043C874.127 991.043 872.387 992.117 872.408 994.137ZM890.67 1002.39V977.852H896.17V987.992H901.455V992.461H896.17V1002.39H890.67ZM911.656 1001.31V1004.62H927.769V1001.31H933.226V1016.52H906.242V1001.31H911.656ZM902.074 999.336V994.91H937.738V999.336H902.074ZM903.836 988.895C912.558 987.842 917.07 983.588 917.113 979.57V978.238H922.742V979.57C922.742 983.48 927.232 987.906 935.976 988.895L934.043 993.191C927.318 992.332 922.42 989.539 919.906 985.758C917.371 989.539 912.472 992.332 905.812 993.191L903.836 988.895ZM911.656 1012.23H927.769V1008.79H911.656V1012.23ZM971.7 977.852V997.66H966.243V977.852H971.7ZM938.829 993.449C945.361 991.494 948.282 986.574 948.282 981.719V978.711H953.997V981.719C953.954 986.467 956.79 991 963.193 992.848L960.529 997.059C956.038 995.77 952.945 993.041 951.161 989.561C949.4 993.363 946.198 996.35 941.536 997.746L938.829 993.449ZM945.489 1003.59V999.336H971.743V1009.95H950.946V1012.36H972.818V1016.7H945.575V1005.87H966.286V1003.59H945.489ZM816.379 1046.3C816.396 1039.69 818.436 1034.19 821.793 1029.46H826.75C824.324 1032.96 821.793 1040 821.793 1046.3C821.793 1052.61 824.324 1059.64 826.75 1063.17H821.793C818.436 1058.43 816.396 1052.92 816.379 1046.3ZM837.627 1036.91C837.627 1041.73 839.332 1046.63 843.955 1049.04L841.459 1052.34C838.577 1050.87 836.661 1048.28 835.536 1045.17C834.428 1048.55 832.512 1051.43 829.612 1053.08L827.08 1049.71C831.633 1047.11 833.373 1041.88 833.409 1036.91V1036.31H828.1V1032.66H833.409V1028.33H837.592V1032.66H842.866V1036.31H837.627V1036.91ZM844.307 1057.76V1027.7H848.561V1039.55H851.268V1027.24H855.557V1059.23H851.268V1043.2H848.561V1057.76H844.307ZM872.446 1027.66C879.565 1027.68 884.065 1030 884.083 1033.89C884.065 1037.7 879.565 1039.99 872.446 1039.97C865.362 1039.99 860.774 1037.7 860.774 1033.89C860.774 1030 865.362 1027.68 872.446 1027.66ZM857.856 1045.21V1041.62H887.036V1045.21H874.661V1047.98H883.555V1058.88H861.231V1047.98H870.196V1045.21H857.856ZM865.45 1033.89C865.415 1035.64 867.964 1036.56 872.446 1036.56C876.858 1036.56 879.442 1035.64 879.442 1033.89C879.442 1032.04 876.858 1031.09 872.446 1031.11C867.964 1031.09 865.415 1032.04 865.45 1033.89ZM865.661 1055.3H879.161V1051.54H865.661V1055.3ZM889.124 1056L889.089 1052.17L898.23 1043.77C900.603 1041.5 901.886 1040.09 901.886 1038.07C901.886 1035.8 900.181 1034.4 897.843 1034.41C895.452 1034.4 893.888 1035.91 893.905 1038.35H888.878C888.861 1033.38 892.552 1030.2 897.913 1030.2C903.363 1030.2 906.984 1033.31 906.984 1037.72C906.984 1040.62 905.577 1042.99 900.339 1047.74L896.472 1051.5V1051.64H907.335V1056H889.124ZM935.896 1027.24V1043.45H931.431V1027.24H935.896ZM909.002 1040C914.345 1038.4 916.736 1034.38 916.736 1030.41V1027.95H921.412V1030.41C921.377 1034.29 923.697 1038 928.935 1039.51L926.755 1042.96C923.082 1041.9 920.55 1039.67 919.091 1036.82C917.65 1039.93 915.031 1042.38 911.216 1043.52L909.002 1040ZM914.451 1048.3V1044.82H935.931V1053.5H918.916V1055.47H936.81V1059.02H914.521V1050.16H931.466V1048.3H914.451ZM949.621 1046.3C949.604 1052.92 947.564 1058.43 944.207 1063.17H939.25C941.676 1059.64 944.207 1052.61 944.207 1046.3C944.207 1040 941.676 1032.96 939.25 1029.46H944.207C947.564 1034.19 949.604 1039.69 949.621 1046.3Z" fill="white"/>
<path d="M1277.12 713.43V717.812H1273.9V728.232C1275.21 728.146 1276.5 728.018 1277.72 727.867L1277.94 731.906C1270.59 733.131 1262.06 733.281 1255.85 733.281L1255.29 728.855C1256.58 728.855 1258 728.834 1259.46 728.812V717.812H1256.28V713.43H1277.12ZM1261.44 742.691C1261.44 738.008 1266.51 735.365 1274.89 735.344C1283.29 735.365 1288.36 738.008 1288.38 742.691C1288.36 747.246 1283.29 749.975 1274.89 749.953C1266.51 749.975 1261.44 747.246 1261.44 742.691ZM1264.74 728.705C1266.03 728.684 1267.34 728.619 1268.66 728.576V717.812H1264.74V728.705ZM1266.89 742.691C1266.89 744.754 1269.66 745.785 1274.89 745.785C1280.11 745.785 1282.9 744.754 1282.92 742.691C1282.9 740.564 1280.11 739.533 1274.89 739.555C1269.66 739.533 1266.89 740.564 1266.89 742.691ZM1277.98 728.898V724.516H1282.79V721.508H1277.98V717.211H1282.79V710.852H1288.25V734.742H1282.79V728.898H1277.98ZM1304.72 717.812C1304.72 722.045 1306.91 726.213 1312.11 728.211L1309.19 732.379C1305.84 731.111 1303.54 728.791 1302.14 725.912C1300.73 729.285 1298.28 732.1 1294.63 733.625L1291.66 729.414C1297.18 726.986 1299.39 722.174 1299.39 717.812V713.215H1304.72V717.812ZM1298.92 742.648C1298.9 738.072 1304.16 735.322 1312.46 735.344C1320.71 735.322 1325.99 738.072 1326.04 742.648C1325.99 747.182 1320.71 749.975 1312.46 749.953C1304.16 749.975 1298.9 747.182 1298.92 742.648ZM1304.42 742.648C1304.38 744.754 1307.32 745.828 1312.46 745.828C1317.55 745.828 1320.49 744.754 1320.49 742.648C1320.49 740.521 1317.55 739.426 1312.46 739.426C1307.32 739.426 1304.38 740.521 1304.42 742.648ZM1312.24 733.582V711.582H1317.36V720.434H1320.62V710.895H1325.82V734.785H1320.62V724.859H1317.36V733.582H1312.24ZM1352.35 714.332V718.672H1329.15V714.332H1338.04V710.637H1343.5V714.332H1352.35ZM1331.04 727.137C1331.04 722.84 1335.08 719.939 1340.75 719.918C1346.44 719.939 1350.37 722.84 1350.37 727.137C1350.37 731.434 1346.44 734.334 1340.75 734.355C1335.08 734.334 1331.04 731.434 1331.04 727.137ZM1333.83 741.402V737.02H1360.17V749.953H1354.67V741.402H1333.83ZM1336.41 727.137C1336.39 729.135 1338.13 730.166 1340.75 730.145C1343.39 730.166 1345.17 729.135 1345.17 727.137C1345.17 725.117 1343.39 724.043 1340.75 724.043C1338.13 724.043 1336.39 725.117 1336.41 727.137ZM1354.67 735.387V710.852H1360.17V720.992H1365.46V725.461H1360.17V735.387H1354.67ZM1375.66 734.312V737.621H1391.77V734.312H1397.23V749.523H1370.24V734.312H1375.66ZM1366.07 732.336V727.91H1401.74V732.336H1366.07ZM1367.84 721.895C1376.56 720.842 1381.07 716.588 1381.11 712.57V711.238H1386.74V712.57C1386.74 716.48 1391.23 720.906 1399.98 721.895L1398.04 726.191C1391.32 725.332 1386.42 722.539 1383.91 718.758C1381.37 722.539 1376.47 725.332 1369.81 726.191L1367.84 721.895ZM1375.66 745.227H1391.77V741.789H1375.66V745.227ZM1435.7 710.852V730.66H1430.24V710.852H1435.7ZM1402.83 726.449C1409.36 724.494 1412.28 719.574 1412.28 714.719V711.711H1418V714.719C1417.95 719.467 1420.79 724 1427.19 725.848L1424.53 730.059C1420.04 728.77 1416.94 726.041 1415.16 722.561C1413.4 726.363 1410.2 729.35 1405.54 730.746L1402.83 726.449ZM1409.49 736.59V732.336H1435.74V742.949H1414.95V745.355H1436.82V749.695H1409.58V738.867H1430.29V736.59H1409.49ZM1279.87 779.297C1279.89 772.688 1281.93 767.186 1285.28 762.457H1290.24C1287.81 765.955 1285.28 773.004 1285.28 779.297C1285.28 785.607 1287.81 792.639 1290.24 796.172H1285.28C1281.93 791.426 1279.89 785.924 1279.87 779.297ZM1320.91 772.371V776.027H1316.38V792.164H1311.88V760.242H1316.38V772.371H1320.91ZM1292.15 784.359V763.301H1296.62V780.65C1300.71 780.58 1305.11 780.193 1309.73 779.262L1310.19 782.988C1304.83 784.078 1299.64 784.359 1294.93 784.359H1292.15ZM1347.29 768.082V771.668H1325.04V760.699H1329.5V768.082H1347.29ZM1321.35 777.715V774.129H1350.6V777.715H1338.08V780.598H1346.98V791.848H1324.97V780.598H1333.62V777.715H1321.35ZM1329.36 788.332H1342.62V784.078H1329.36V788.332ZM1362.04 789.352C1356.45 789.352 1352.44 786.275 1352.33 781.828H1357.68C1357.76 783.727 1359.61 784.975 1362.07 784.992C1364.6 784.975 1366.41 783.568 1366.4 781.512C1366.41 779.438 1364.57 777.979 1361.58 777.961H1359.22V774.059H1361.58C1364.09 774.059 1365.85 772.688 1365.83 770.684C1365.85 768.732 1364.36 767.396 1362.11 767.414C1359.86 767.396 1358.01 768.662 1357.92 770.613H1352.86C1352.95 766.236 1356.89 763.195 1362.11 763.195C1367.42 763.195 1370.95 766.342 1370.93 770.367C1370.95 773.215 1368.96 775.236 1366.11 775.746V775.957C1369.86 776.414 1371.92 778.682 1371.88 781.863C1371.92 786.223 1367.78 789.352 1362.04 789.352ZM1400.41 760.242V776.449H1395.94V760.242H1400.41ZM1373.51 773.004C1378.86 771.404 1381.25 767.379 1381.25 763.406V760.945H1385.92V763.406C1385.89 767.291 1388.21 771 1393.44 772.512L1391.27 775.957C1387.59 774.902 1385.06 772.67 1383.6 769.822C1382.16 772.934 1379.54 775.377 1375.73 776.52L1373.51 773.004ZM1378.96 781.301V777.82H1400.44V786.504H1383.43V788.473H1401.32V792.023H1379.03V783.164H1395.98V781.301H1378.96ZM1414.13 779.297C1414.11 785.924 1412.07 791.426 1408.72 796.172H1403.76C1406.19 792.639 1408.72 785.607 1408.72 779.297C1408.72 773.004 1406.19 765.955 1403.76 762.457H1408.72C1412.07 767.186 1414.11 772.688 1414.13 779.297Z" fill="white"/>
<path d="M972.612 619.375H986.8V622.344H976.05V629.188H986.05V632.125H976.05V639.031H986.925V642H972.612V619.375ZM991.281 645.406H988.312L995.594 618.312H998.562L991.281 645.406ZM1008.89 637.781H1009.14L1015.42 619.375H1019.14L1010.98 642H1007.01L998.887 619.375H1002.61L1008.89 637.781Z" fill="#EFF1F3"/>
<path d="M1623.12 520.43V524.812H1619.9V535.232C1621.21 535.146 1622.5 535.018 1623.72 534.867L1623.94 538.906C1616.59 540.131 1608.06 540.281 1601.85 540.281L1601.29 535.855C1602.58 535.855 1604 535.834 1605.46 535.812V524.812H1602.28V520.43H1623.12ZM1607.44 549.691C1607.44 545.008 1612.51 542.365 1620.89 542.344C1629.29 542.365 1634.36 545.008 1634.38 549.691C1634.36 554.246 1629.29 556.975 1620.89 556.953C1612.51 556.975 1607.44 554.246 1607.44 549.691ZM1610.74 535.705C1612.03 535.684 1613.34 535.619 1614.66 535.576V524.812H1610.74V535.705ZM1612.89 549.691C1612.89 551.754 1615.66 552.785 1620.89 552.785C1626.11 552.785 1628.9 551.754 1628.92 549.691C1628.9 547.564 1626.11 546.533 1620.89 546.555C1615.66 546.533 1612.89 547.564 1612.89 549.691ZM1623.98 535.898V531.516H1628.79V528.508H1623.98V524.211H1628.79V517.852H1634.25V541.742H1628.79V535.898H1623.98ZM1650.72 524.812C1650.72 529.045 1652.91 533.213 1658.11 535.211L1655.19 539.379C1651.84 538.111 1649.54 535.791 1648.14 532.912C1646.73 536.285 1644.28 539.1 1640.63 540.625L1637.66 536.414C1643.18 533.986 1645.39 529.174 1645.39 524.812V520.215H1650.72V524.812ZM1644.92 549.648C1644.9 545.072 1650.16 542.322 1658.46 542.344C1666.71 542.322 1671.99 545.072 1672.04 549.648C1671.99 554.182 1666.71 556.975 1658.46 556.953C1650.16 556.975 1644.9 554.182 1644.92 549.648ZM1650.42 549.648C1650.38 551.754 1653.32 552.828 1658.46 552.828C1663.55 552.828 1666.49 551.754 1666.49 549.648C1666.49 547.521 1663.55 546.426 1658.46 546.426C1653.32 546.426 1650.38 547.521 1650.42 549.648ZM1658.24 540.582V518.582H1663.36V527.434H1666.62V517.895H1671.82V541.785H1666.62V531.859H1663.36V540.582H1658.24ZM1698.35 521.332V525.672H1675.15V521.332H1684.04V517.637H1689.5V521.332H1698.35ZM1677.04 534.137C1677.04 529.84 1681.08 526.939 1686.75 526.918C1692.44 526.939 1696.37 529.84 1696.37 534.137C1696.37 538.434 1692.44 541.334 1686.75 541.355C1681.08 541.334 1677.04 538.434 1677.04 534.137ZM1679.83 548.402V544.02H1706.17V556.953H1700.67V548.402H1679.83ZM1682.41 534.137C1682.39 536.135 1684.13 537.166 1686.75 537.145C1689.39 537.166 1691.17 536.135 1691.17 534.137C1691.17 532.117 1689.39 531.043 1686.75 531.043C1684.13 531.043 1682.39 532.117 1682.41 534.137ZM1700.67 542.387V517.852H1706.17V527.992H1711.46V532.461H1706.17V542.387H1700.67ZM1721.66 541.312V544.621H1737.77V541.312H1743.23V556.523H1716.24V541.312H1721.66ZM1712.07 539.336V534.91H1747.74V539.336H1712.07ZM1713.84 528.895C1722.56 527.842 1727.07 523.588 1727.11 519.57V518.238H1732.74V519.57C1732.74 523.48 1737.23 527.906 1745.98 528.895L1744.04 533.191C1737.32 532.332 1732.42 529.539 1729.91 525.758C1727.37 529.539 1722.47 532.332 1715.81 533.191L1713.84 528.895ZM1721.66 552.227H1737.77V548.789H1721.66V552.227ZM1781.7 517.852V537.66H1776.24V517.852H1781.7ZM1748.83 533.449C1755.36 531.494 1758.28 526.574 1758.28 521.719V518.711H1764V521.719C1763.95 526.467 1766.79 531 1773.19 532.848L1770.53 537.059C1766.04 535.77 1762.94 533.041 1761.16 529.561C1759.4 533.363 1756.2 536.35 1751.54 537.746L1748.83 533.449ZM1755.49 543.59V539.336H1781.74V549.949H1760.95V552.355H1782.82V556.695H1755.58V545.867H1776.29V543.59H1755.49ZM1626.38 586.297C1626.4 579.688 1628.44 574.186 1631.79 569.457H1636.75C1634.32 572.955 1631.79 580.004 1631.79 586.297C1631.79 592.607 1634.32 599.639 1636.75 603.172H1631.79C1628.44 598.426 1626.4 592.924 1626.38 586.297ZM1642.78 570.09V577.297H1647.14V570.09H1651.28V591.641H1638.56V570.09H1642.78ZM1642.78 588.055H1647.14V580.812H1642.78V588.055ZM1653.96 597.758V567.699H1658.21V579.441H1661.09V567.242H1665.38V599.234H1661.09V583.098H1658.21V597.758H1653.96ZM1682.45 567.664C1689.57 567.682 1694.07 570.002 1694.08 573.887C1694.07 577.701 1689.57 579.986 1682.45 579.969C1675.36 579.986 1670.77 577.701 1670.77 573.887C1670.77 570.002 1675.36 567.682 1682.45 567.664ZM1667.86 585.207V581.621H1697.04V585.207H1684.66V587.984H1693.56V598.883H1671.23V587.984H1680.2V585.207H1667.86ZM1675.45 573.887C1675.41 575.645 1677.96 576.559 1682.45 576.559C1686.86 576.559 1689.44 575.645 1689.44 573.887C1689.44 572.041 1686.86 571.092 1682.45 571.109C1677.96 571.092 1675.41 572.041 1675.45 573.887ZM1675.66 595.297H1689.16V591.535H1675.66V595.297ZM1699.12 596L1699.09 592.168L1708.23 583.766C1710.6 581.498 1711.89 580.092 1711.89 578.07C1711.89 575.803 1710.18 574.396 1707.84 574.414C1705.45 574.396 1703.89 575.908 1703.91 578.352H1698.88C1698.86 573.377 1702.55 570.195 1707.91 570.195C1713.36 570.195 1716.98 573.307 1716.98 577.719C1716.98 580.619 1715.58 582.992 1710.34 587.738L1706.47 591.5V591.641H1717.34V596H1699.12ZM1745.9 567.242V583.449H1741.43V567.242H1745.9ZM1719 580.004C1724.35 578.404 1726.74 574.379 1726.74 570.406V567.945H1731.41V570.406C1731.38 574.291 1733.7 578 1738.94 579.512L1736.76 582.957C1733.08 581.902 1730.55 579.67 1729.09 576.822C1727.65 579.934 1725.03 582.377 1721.22 583.52L1719 580.004ZM1724.45 588.301V584.82H1745.93V593.504H1728.92V595.473H1746.81V599.023H1724.52V590.164H1741.47V588.301H1724.45ZM1759.62 586.297C1759.6 592.924 1757.56 598.426 1754.21 603.172H1749.25C1751.68 599.639 1754.21 592.607 1754.21 586.297C1754.21 580.004 1751.68 572.955 1749.25 569.457H1754.21C1757.56 574.186 1759.6 579.688 1759.62 586.297Z" fill="white"/>
<path d="M1502.75 216V192.562L1576.29 118.441C1599.58 94.2715 1611.15 80.7949 1611.15 62.1914C1611.15 41.2441 1594.16 27.9141 1571.89 27.9141C1548.31 27.9141 1533.37 42.8555 1533.22 65.4141H1502.75C1502.46 26.5957 1532.05 0.960938 1572.48 0.960938C1613.35 0.960938 1641.62 26.8887 1641.91 61.3125C1641.62 85.043 1630.49 103.939 1590.64 143.051L1547.58 186.703V188.461H1645.43V216H1502.75ZM1684.1 216V3.89062H1815.64V31.7227H1716.33V95.8828H1806.27V123.422H1716.33V216H1684.1Z" fill="white"/>
<defs>
<filter id="filter0_f_2710_3987" x="364" y="396" width="80" height="30" filterUnits="userSpaceOnUse" color-interpolation-filters="sRGB">
<feFlood flood-opacity="0" result="BackgroundImageFix"/>
<feBlend mode="normal" in="SourceGraphic" in2="BackgroundImageFix" result="shape"/>
<feGaussianBlur stdDeviation="2.5" result="effect1_foregroundBlur_2710_3987"/>
</filter>
<filter id="filter1_f_2710_3987" x="823" y="735" width="80" height="30" filterUnits="userSpaceOnUse" color-interpolation-filters="sRGB">
<feFlood flood-opacity="0" result="BackgroundImageFix"/>
<feBlend mode="normal" in="SourceGraphic" in2="BackgroundImageFix" result="shape"/>
<feGaussianBlur stdDeviation="2.5" result="effect1_foregroundBlur_2710_3987"/>
</filter>
<filter id="filter2_f_2710_3987" x="1123" y="834" width="80" height="30" filterUnits="userSpaceOnUse" color-interpolation-filters="sRGB">
<feFlood flood-opacity="0" result="BackgroundImageFix"/>
<feBlend mode="normal" in="SourceGraphic" in2="BackgroundImageFix" result="shape"/>
<feGaussianBlur stdDeviation="2.5" result="effect1_foregroundBlur_2710_3987"/>
</filter>
<filter id="filter3_f_2710_3987" x="1307" y="944" width="80" height="30" filterUnits="userSpaceOnUse" color-interpolation-filters="sRGB">
<feFlood flood-opacity="0" result="BackgroundImageFix"/>
<feBlend mode="normal" in="SourceGraphic" in2="BackgroundImageFix" result="shape"/>
<feGaussianBlur stdDeviation="2.5" result="effect1_foregroundBlur_2710_3987"/>
</filter>
<filter id="filter4_f_2710_3987" x="625" y="1078" width="80" height="30" filterUnits="userSpaceOnUse" color-interpolation-filters="sRGB">
<feFlood flood-opacity="0" result="BackgroundImageFix"/>
<feBlend mode="normal" in="SourceGraphic" in2="BackgroundImageFix" result="shape"/>
<feGaussianBlur stdDeviation="2.5" result="effect1_foregroundBlur_2710_3987"/>
</filter>
<filter id="filter5_f_2710_3987" x="844" y="1211" width="80" height="30" filterUnits="userSpaceOnUse" color-interpolation-filters="sRGB">
<feFlood flood-opacity="0" result="BackgroundImageFix"/>
<feBlend mode="normal" in="SourceGraphic" in2="BackgroundImageFix" result="shape"/>
<feGaussianBlur stdDeviation="2.5" result="effect1_foregroundBlur_2710_3987"/>
</filter>
<filter id="filter6_f_2710_3987" x="705" y="208" width="80" height="30" filterUnits="userSpaceOnUse" color-interpolation-filters="sRGB">
<feFlood flood-opacity="0" result="BackgroundImageFix"/>
<feBlend mode="normal" in="SourceGraphic" in2="BackgroundImageFix" result="shape"/>
<feGaussianBlur stdDeviation="2.5" result="effect1_foregroundBlur_2710_3987"/>
</filter>
<filter id="filter7_f_2710_3987" x="1388" y="597" width="80" height="30" filterUnits="userSpaceOnUse" color-interpolation-filters="sRGB">
<feFlood flood-opacity="0" result="BackgroundImageFix"/>
<feBlend mode="normal" in="SourceGraphic" in2="BackgroundImageFix" result="shape"/>
<feGaussianBlur stdDeviation="2.5" result="effect1_foregroundBlur_2710_3987"/>
</filter>
<filter id="filter8_f_2710_3987" x="1653" y="751" width="80" height="30" filterUnits="userSpaceOnUse" color-interpolation-filters="sRGB">
<feFlood flood-opacity="0" result="BackgroundImageFix"/>
<feBlend mode="normal" in="SourceGraphic" in2="BackgroundImageFix" result="shape"/>
<feGaussianBlur stdDeviation="2.5" result="effect1_foregroundBlur_2710_3987"/>
</filter>
<linearGradient id="paint0_linear_2710_3987" x1="435.703" y1="278.156" x2="373.25" y2="385.663" gradientUnits="userSpaceOnUse">
<stop offset="0.144416" stop-color="#C41818"/>
<stop offset="1" stop-color="#072B24"/>
</linearGradient>
<linearGradient id="paint1_linear_2710_3987" x1="894.703" y1="617.156" x2="832.25" y2="724.663" gradientUnits="userSpaceOnUse">
<stop offset="0.144416" stop-color="#C41818"/>
<stop offset="1" stop-color="#072B24"/>
</linearGradient>
<linearGradient id="paint2_linear_2710_3987" x1="1194.7" y1="716.156" x2="1132.25" y2="823.663" gradientUnits="userSpaceOnUse">
<stop offset="0.144416" stop-color="#C41818"/>
<stop offset="1" stop-color="#072B24"/>
</linearGradient>
<linearGradient id="paint3_linear_2710_3987" x1="1378.7" y1="826.156" x2="1316.25" y2="933.663" gradientUnits="userSpaceOnUse">
<stop offset="0.144416" stop-color="#C41818"/>
<stop offset="1" stop-color="#072B24"/>
</linearGradient>
<linearGradient id="paint4_linear_2710_3987" x1="696.703" y1="960.156" x2="634.25" y2="1067.66" gradientUnits="userSpaceOnUse">
<stop offset="0.144416" stop-color="#C41818"/>
<stop offset="1" stop-color="#072B24"/>
</linearGradient>
<linearGradient id="paint5_linear_2710_3987" x1="915.703" y1="1093.16" x2="853.25" y2="1200.66" gradientUnits="userSpaceOnUse">
<stop offset="0.144416" stop-color="#C41818"/>
<stop offset="1" stop-color="#072B24"/>
</linearGradient>
<linearGradient id="paint6_linear_2710_3987" x1="776.703" y1="90.1559" x2="714.25" y2="197.663" gradientUnits="userSpaceOnUse">
<stop offset="0.144416" stop-color="#C41818"/>
<stop offset="1" stop-color="#072B24"/>
</linearGradient>
<linearGradient id="paint7_linear_2710_3987" x1="1459.7" y1="479.156" x2="1397.25" y2="586.663" gradientUnits="userSpaceOnUse">
<stop offset="0.144416" stop-color="#C41818"/>
<stop offset="1" stop-color="#072B24"/>
</linearGradient>
<linearGradient id="paint8_linear_2710_3987" x1="1724.7" y1="633.156" x2="1662.25" y2="740.663" gradientUnits="userSpaceOnUse">
<stop offset="0.144416" stop-color="#C41818"/>
<stop offset="1" stop-color="#072B24"/>
</linearGradient>
</defs>
</svg>
