<svg xmlns="http://www.w3.org/2000/svg" width="96" height="96" viewBox="0 0 96 96" fill="none">
    <path d="M60.3149 50.3668C63.5829 47.7956 65.9682 44.2698 67.139 40.2799C68.3099 36.29 68.208 32.0343 66.8475 28.105C65.4871 24.1757 62.9357 20.7681 59.5485 18.3563C56.1612 15.9445 52.1064 14.6484 47.9482 14.6484C43.7901 14.6484 39.7353 15.9445 36.348 18.3563C32.9607 20.7681 30.4094 24.1757 29.0489 28.105C27.6885 32.0343 27.5866 36.29 28.7574 40.2799C29.9283 44.2698 32.3136 47.7956 35.5816 50.3668C29.9818 52.6102 25.0959 56.3313 21.4445 61.1331C17.7932 65.935 15.5134 71.6378 14.8482 77.6334C14.8001 78.0712 14.8386 78.5141 14.9616 78.937C15.0847 79.3598 15.2898 79.7543 15.5653 80.0978C16.1216 80.7917 16.9308 81.2362 17.8149 81.3334C18.699 81.4307 19.5854 81.1727 20.2793 80.6164C20.9732 80.06 21.4177 79.2508 21.5149 78.3668C22.2468 71.8507 25.3539 65.8328 30.2423 61.4627C35.1307 57.0927 41.4579 54.6769 48.0149 54.6769C54.5719 54.6769 60.8991 57.0927 65.7875 61.4627C70.6759 65.8328 73.7829 71.8507 74.5149 78.3668C74.6055 79.1858 74.9963 79.9423 75.6119 80.4901C76.2275 81.038 77.0242 81.3384 77.8482 81.3334H78.2149C79.0887 81.2329 79.8873 80.7911 80.4368 80.1043C80.9862 79.4174 81.242 78.5413 81.1482 77.6668C80.4799 71.6541 78.1878 65.9367 74.5177 61.1274C70.8477 56.3182 65.9379 52.5984 60.3149 50.3668ZM47.9482 48.0001C45.3111 48.0001 42.7333 47.2181 40.5406 45.753C38.348 44.2879 36.639 42.2056 35.6298 39.7692C34.6207 37.3329 34.3566 34.652 34.8711 32.0656C35.3856 29.4791 36.6554 27.1034 38.5201 25.2387C40.3848 23.374 42.7606 22.1041 45.347 21.5896C47.9334 21.0752 50.6143 21.3392 53.0507 22.3484C55.487 23.3575 57.5694 25.0665 59.0345 27.2592C60.4996 29.4518 61.2816 32.0297 61.2816 34.6668C61.2816 38.203 59.8768 41.5944 57.3763 44.0949C54.8758 46.5953 51.4845 48.0001 47.9482 48.0001Z" fill="#8B95A1"/>
</svg>