<svg width="720" height="720" viewBox="0 0 720 720" fill="none" xmlns="http://www.w3.org/2000/svg">
<g clip-path="url(#clip0_2666_10498)">
<path d="M70 0C75.5228 0 80 4.47715 80 10C80 15.5228 75.5228 20 70 20H20V70C20 75.5228 15.5228 80 10 80C4.47715 80 0 75.5228 0 70V10C0 4.47715 4.47715 0 10 0H70Z" fill="#E0E4E8"/>
<path d="M10 640C15.5228 640 20 644.477 20 650V700H70C75.5228 700 80 704.477 80 710C80 715.523 75.5228 720 70 720H10C4.47715 720 0 715.523 0 710V650C0 644.477 4.47715 640 10 640Z" fill="#E0E4E8"/>
<path d="M710 0C715.523 0 720 4.47715 720 10V70C720 75.5228 715.523 80 710 80C704.477 80 700 75.5228 700 70V20H650C644.477 20 640 15.5228 640 10C640 4.47715 644.477 0 650 0H710Z" fill="#E0E4E8"/>
<path d="M710 640C715.523 640 720 644.477 720 650V710C720 715.523 715.523 720 710 720H650C644.477 720 640 715.523 640 710C640 704.477 644.477 700 650 700H700V650C700 644.477 704.477 640 710 640Z" fill="#E0E4E8"/>
</g>
<defs>
<clipPath id="clip0_2666_10498">
<rect width="720" height="720" fill="white"/>
</clipPath>
</defs>
</svg>
