<?xml version="1.0" encoding="utf-8"?>
<!-- Generator: Adobe Illustrator 24.0.1, SVG Export Plug-In . SVG Version: 6.00 Build 0)  -->
<svg version="1.1" id="레이어_1" xmlns="http://www.w3.org/2000/svg" xmlns:xlink="http://www.w3.org/1999/xlink" x="0px"
	 y="0px" viewBox="0 0 96 97" style="enable-background:new 0 0 96 97;" xml:space="preserve">
<g id="u:book-reader">
	<path id="Vector" d="M80.7,41.8C77.8,41.2,74.9,41,72,41c-1.7,0-3.3,0-5,0.3c-2-2.7-4.6-5-7.6-6.6c2.6-2.8,4-6.5,4-10.3
		c0-4.1-1.6-8-4.5-10.9C56,10.6,52.1,9,48,9c-4.1,0-8,1.6-10.9,4.5c-2.9,2.9-4.5,6.8-4.5,10.9c0,3.8,1.4,7.5,4,10.3
		c-3,1.6-5.6,3.9-7.6,6.6C27.3,41,25.7,41,24,41c-2.9,0-5.8,0.3-8.7,0.8c-0.9,0.2-1.8,0.7-2.4,1.4C12.3,44,12,44.9,12,45.8v33
		c0,0.6,0.1,1.2,0.4,1.7c0.2,0.5,0.6,1,1.1,1.4c0.4,0.4,1,0.7,1.5,0.8c0.6,0.2,1.2,0.2,1.7,0.1c2.4-0.5,4.8-0.8,7.3-0.9
		c7.7,0,15.3,2.3,21.8,6.5l0.5,0.2c0.5,0.2,1.1,0.4,1.7,0.4c0.4,0,0.8-0.1,1.1-0.2h0.3l0.5-0.2c6.5-4.4,14.2-6.7,22.1-6.7
		c2.4,0,4.9,0.3,7.3,0.7c0.6,0.1,1.2,0.1,1.7-0.1c0.6-0.2,1.1-0.4,1.5-0.8c0.5-0.4,0.8-0.8,1.1-1.4s0.4-1.1,0.4-1.7v-33
		c0-0.9-0.3-1.8-0.9-2.6S81.6,41.9,80.7,41.8z M48,17c1.9,0.1,3.6,1,4.9,2.4c1.3,1.4,2,3.2,2,5.1s-0.7,3.7-2,5.1
		c-1.3,1.4-3,2.2-4.9,2.4c-1.9-0.1-3.6-1-4.9-2.4c-1.3-1.4-2-3.2-2-5.1s0.7-3.7,2-5.1C44.4,18,46.1,17.1,48,17z M44,78.3
		c-6.3-2.9-13.1-4.4-20-4.4c-1.3,0-2.6,0-4,0.2V49c3.4-0.4,6.7-0.3,10.1,0.2h0.4c4.8,0.9,9.3,2.6,13.5,5.1V78.3z M48,47.4
		c-1.8-1-3.6-1.9-5.5-2.7h-0.2c-1.3-0.5-2.6-1-4-1.4c2.8-2.2,6.2-3.4,9.8-3.5c3.5,0,7,1.2,9.8,3.4C54.4,44.2,51.1,45.6,48,47.4z
		 M76,74.1c-8.2-0.8-16.5,0.6-24,4v-24c4.2-2.4,8.7-4.1,13.5-4.9h0.8c3.2-0.5,6.5-0.6,9.7-0.2V74.1z"/>
</g>
</svg>
