<svg width="68" height="69" viewBox="0 0 68 69" fill="none" xmlns="http://www.w3.org/2000/svg">
<path d="M14.1397 11.6033C13.576 11.6034 13.0252 11.7717 12.5577 12.0865C12.0902 12.4013 11.7272 12.8484 11.5151 13.3706C11.303 13.8928 11.2514 14.4665 11.3671 15.0181C11.4827 15.5698 11.7602 16.0744 12.1641 16.4675L29.9942 34.2976L12.1641 52.1277C11.8922 52.3888 11.6751 52.7015 11.5255 53.0475C11.376 53.3935 11.297 53.7659 11.2931 54.1429C11.2893 54.5198 11.3607 54.8938 11.5032 55.2428C11.6457 55.5918 11.8564 55.9088 12.1229 56.1754C12.3895 56.4419 12.7065 56.6526 13.0555 56.7951C13.4045 56.9376 13.7785 57.009 14.1554 57.0052C14.5324 57.0014 14.9048 56.9223 15.2508 56.7728C15.5968 56.6232 15.9095 56.4061 16.1706 56.1342L34.0007 38.3041L51.8308 56.1342C52.0918 56.4061 52.4046 56.6232 52.7506 56.7728C53.0966 56.9224 53.469 57.0014 53.846 57.0052C54.2229 57.009 54.5968 56.9376 54.9458 56.7951C55.2948 56.6526 55.6119 56.442 55.8785 56.1754C56.145 55.9088 56.3557 55.5918 56.4982 55.2428C56.6407 54.8938 56.7121 54.5198 56.7083 54.1429C56.7044 53.7659 56.6254 53.3935 56.4759 53.0475C56.3263 52.7015 56.1092 52.3888 55.8373 52.1277L38.0072 34.2976L55.8373 16.4675C56.2467 16.0696 56.5263 15.5572 56.6396 14.9975C56.7528 14.4379 56.6943 13.8571 56.4718 13.3313C56.2492 12.8055 55.873 12.3591 55.3925 12.0508C54.9119 11.7424 54.3494 11.5865 53.7787 11.6033C53.0426 11.6252 52.3439 11.9329 51.8308 12.461L34.0007 30.2911L16.1706 12.461C15.9066 12.1896 15.5908 11.9739 15.242 11.8265C14.8932 11.6792 14.5183 11.6033 14.1397 11.6033Z" fill="#6B7684"/>
</svg>
