<svg width="100" height="100" viewBox="0 0 100 100" fill="none" xmlns="http://www.w3.org/2000/svg">
<mask id="mask0_4041_17362" style="mask-type:alpha" maskUnits="userSpaceOnUse" x="0" y="0" width="100" height="100">
<rect width="100" height="100" fill="#D9D9D9"/>
</mask>
<g mask="url(#mask0_4041_17362)">
<path d="M25 78.5094H38.9427V57.5156C38.9427 56.449 39.3035 55.5545 40.025 54.8323C40.7472 54.1108 41.6417 53.75 42.7083 53.75H57.2917C58.3583 53.75 59.2528 54.1108 59.975 54.8323C60.6965 55.5545 61.0573 56.449 61.0573 57.5156V78.5094H75V41.65C75 41.4368 74.9531 41.2434 74.8594 41.0698C74.7663 40.8962 74.6396 40.7424 74.4792 40.6083L50.7615 22.7802C50.5476 22.5934 50.2937 22.5 50 22.5C49.7062 22.5 49.4524 22.5934 49.2385 22.7802L25.5208 40.6083C25.3604 40.7424 25.2337 40.8962 25.1406 41.0698C25.0469 41.2434 25 41.4368 25 41.65V78.5094ZM18.75 78.5094V41.65C18.75 40.4576 19.0167 39.3281 19.55 38.2615C20.084 37.1941 20.8215 36.3153 21.7625 35.625L45.4812 17.7563C46.7972 16.7521 48.3014 16.25 49.9937 16.25C51.6861 16.25 53.1944 16.7521 54.5187 17.7563L78.2375 35.625C79.1785 36.3153 79.916 37.1941 80.45 38.2615C80.9833 39.3281 81.25 40.4576 81.25 41.65V78.5094C81.25 80.2136 80.6344 81.6813 79.4031 82.9125C78.1719 84.1438 76.7042 84.7594 75 84.7594H58.574C57.5066 84.7594 56.6121 84.3983 55.8906 83.6761C55.1684 82.9545 54.8073 82.0601 54.8073 80.9927V60H45.1927V80.9927C45.1927 82.0601 44.8316 82.9545 44.1094 83.6761C43.3878 84.3983 42.4934 84.7594 41.426 84.7594H25C23.2958 84.7594 21.8281 84.1438 20.5969 82.9125C19.3656 81.6813 18.75 80.2136 18.75 78.5094Z" fill="#8B95A1"/>
</g>
</svg>
