<svg xmlns="http://www.w3.org/2000/svg" width="126" height="140" viewBox="0 0 63 70" fill="none" style="width: 63px; height: 70px;">
    <path d="M6.25 63.0047H20.1927V42.011C20.1927 40.9443 20.5535 40.0499 21.275 39.3277C21.9972 38.6061 22.8917 38.2454 23.9583 38.2454H38.5417C39.6083 38.2454 40.5028 38.6061 41.225 39.3277C41.9465 40.0499 42.3073 40.9443 42.3073 42.011V63.0047H56.25V26.1454C56.25 25.9322 56.2031 25.7388 56.1094 25.5652C56.0163 25.3915 55.8896 25.2377 55.7292 25.1037L32.0115 7.27557C31.7976 7.08877 31.5438 6.99536 31.25 6.99536C30.9563 6.99536 30.7024 7.08877 30.4885 7.27557L6.77083 25.1037C6.61042 25.2377 6.48368 25.3915 6.39063 25.5652C6.29688 25.7388 6.25 25.9322 6.25 26.1454V63.0047ZM0 63.0047V26.1454C0 24.953 0.266666 23.8235 0.799999 22.7568C1.33403 21.6895 2.07153 20.8106 3.0125 20.1204L26.7313 2.25161C28.0472 1.24745 29.5514 0.745361 31.2438 0.745361C32.9361 0.745361 34.4444 1.24745 35.7688 2.25161L59.4875 20.1204C60.4285 20.8106 61.166 21.6895 61.7 22.7568C62.2333 23.8235 62.5 24.953 62.5 26.1454V63.0047C62.5 64.7089 61.8844 66.1766 60.6531 67.4079C59.4219 68.6391 57.9542 69.2547 56.25 69.2547H39.824C38.7566 69.2547 37.8622 68.8936 37.1406 68.1714C36.4184 67.4499 36.0573 66.5554 36.0573 65.4881V44.4954H26.4427V65.4881C26.4427 66.5554 26.0816 67.4499 25.3594 68.1714C24.6379 68.8936 23.7434 69.2547 22.676 69.2547H6.25C4.54583 69.2547 3.07813 68.6391 1.84687 67.4079C0.615625 66.1766 0 64.7089 0 63.0047Z" fill="#8B95A1"/>
</svg>
