<svg xmlns="http://www.w3.org/2000/svg" width="48" height="51" viewBox="0 0 48 51" fill="none">
    <g clip-path="url(#clip0_3196_8425)">
        <path d="M23.7743 0.5C14.2966 0.5 6.56074 8.42344 6.56074 18.1309C6.56074 21.4393 7.47437 24.5314 9.03422 27.1824L0 36.9079L9.52892 40.258L12.8621 50.5L23.7743 39.3233L34.6864 50.5L38.0148 40.2727L48 36.8636L38.5239 27.1578C40.0757 24.5118 40.9878 21.43 40.9878 18.1309C40.9878 8.42344 33.2519 0.5 23.7743 0.5ZM23.7743 5.53739C30.5939 5.53739 36.0696 11.1458 36.0696 18.1309C36.0696 25.1159 30.5939 30.7243 23.7743 30.7243C16.9546 30.7243 11.4789 25.1159 11.4789 18.1309C11.4789 11.1458 16.9546 5.53739 23.7743 5.53739ZM18.8561 10.5748V15.6122H21.3152V25.6869H26.2333V10.5748H18.8561ZM35.402 31.0834L38.8937 34.6598L34.1245 36.2881L32.5347 41.173L26.9442 35.4469C30.171 34.8263 33.0751 33.2774 35.402 31.0834ZM12.1753 31.108C14.4977 33.2883 17.3902 34.8287 20.6044 35.4469L15.0138 41.173L13.4289 36.3028L8.84691 34.6893L12.1753 31.108Z" fill="url(#paint0_linear_3196_8425)"/>
    </g>
    <defs>
        <linearGradient id="paint0_linear_3196_8425" x1="24" y1="0.5" x2="24" y2="50.5" gradientUnits="userSpaceOnUse">
            <stop stop-color="#63EBE6"/>
            <stop offset="1" stop-color="#71C1F3"/>
        </linearGradient>
        <clipPath id="clip0_3196_8425">
            <rect width="48" height="50" fill="white" transform="translate(0 0.5)"/>
        </clipPath>
    </defs>
</svg>