<svg xmlns="http://www.w3.org/2000/svg" width="48" height="48" viewBox="0 0 48 48" fill="none">
    <path d="M24 4C18.6957 4 13.6086 6.10714 9.85786 9.85786C6.10714 13.6086 4 18.6957 4 24C4 29.3043 6.10714 34.3914 9.85786 38.1421C13.6086 41.8929 18.6957 44 24 44C29.3043 44 34.3914 41.8929 38.1421 38.1421C41.8929 34.3914 44 29.3043 44 24C44 18.6957 41.8929 13.6086 38.1421 9.85786C34.3914 6.10714 29.3043 4 24 4ZM14.5469 22.8281C13.8125 22.0938 13.8125 20.9062 14.5469 20.1797C15.2812 19.4531 16.4687 19.4453 17.1953 20.1797L23.9922 26.9766L30.7891 20.1797C31.5234 19.4453 32.7109 19.4453 33.4375 20.1797C34.1641 20.9141 34.1719 22.1016 33.4375 22.8281L25.3281 30.9531C24.5938 31.6875 23.4062 31.6875 22.6797 30.9531L14.5469 22.8281Z" fill="#4E5968"/>
</svg>