<svg xmlns="http://www.w3.org/2000/svg" width="69" height="69" viewBox="0 0 69 69" fill="none">
    <path d="M16.5073 15.0011C16.0108 15.0012 15.5257 15.1494 15.1139 15.4268C14.7022 15.7041 14.3824 16.098 14.1956 16.5581C14.0088 17.0182 13.9634 17.5235 14.0653 18.0095C14.1671 18.4955 14.4115 18.9401 14.7673 19.2865L30.4712 34.9946L14.7673 50.7028C14.5278 50.9328 14.3365 51.2083 14.2048 51.5132C14.0731 51.818 14.0035 52.1461 14.0001 52.4782C13.9968 52.8103 14.0597 53.1397 14.1851 53.4472C14.3106 53.7546 14.4962 54.034 14.731 54.2688C14.9658 54.5036 15.245 54.6893 15.5524 54.8148C15.8598 54.9403 16.1891 55.0032 16.5211 54.9999C16.8531 54.9965 17.1811 54.9269 17.4859 54.7951C17.7906 54.6634 18.0661 54.4721 18.296 54.2325L34 38.5243L49.704 54.2325C49.9339 54.4721 50.2093 54.6634 50.5141 54.7951C50.8189 54.9269 51.1469 54.9965 51.4789 54.9999C51.8109 55.0033 52.1402 54.9403 52.4476 54.8148C52.755 54.6893 53.0342 54.5037 53.269 54.2688C53.5038 54.034 53.6894 53.7547 53.8149 53.4472C53.9403 53.1397 54.0033 52.8103 53.9999 52.4782C53.9965 52.1461 53.9269 51.818 53.7952 51.5132C53.6634 51.2083 53.4722 50.9328 53.2327 50.7028L37.5288 34.9946L53.2327 19.2865C53.5933 18.9358 53.8396 18.4844 53.9394 17.9914C54.0391 17.4984 53.9876 16.9867 53.7916 16.5234C53.5956 16.0602 53.2642 15.667 52.841 15.3953C52.4177 15.1237 51.9223 14.9863 51.4196 15.0011C50.7713 15.0204 50.156 15.2914 49.704 15.7568L34 31.4649L18.296 15.7568C18.0635 15.5176 17.7854 15.3276 17.4781 15.1978C17.1709 15.068 16.8408 15.0011 16.5073 15.0011Z" fill="#ADB5BD"/>
</svg>