<svg width="96" height="96" viewBox="0 0 96 96" fill="none" xmlns="http://www.w3.org/2000/svg">
<mask id="mask0_3196_9342" style="mask-type:alpha" maskUnits="userSpaceOnUse" x="0" y="0" width="96" height="96">
<rect width="96" height="96" fill="#D9D9D9"/>
</mask>
<g mask="url(#mask0_3196_9342)">
<path d="M24 76.0034H37.385V55.8494C37.385 54.8254 37.7313 53.9667 38.424 53.2734C39.1173 52.5807 39.976 52.2344 41 52.2344H55C56.024 52.2344 56.8827 52.5807 57.576 53.2734C58.2687 53.9667 58.615 54.8254 58.615 55.8494V76.0034H72V40.6184C72 40.4137 71.955 40.228 71.865 40.0614C71.7757 39.8947 71.654 39.747 71.5 39.6184L48.731 22.5034C48.5257 22.324 48.282 22.2344 48 22.2344C47.718 22.2344 47.4743 22.324 47.269 22.5034L24.5 39.6184C24.346 39.747 24.2243 39.8947 24.135 40.0614C24.045 40.228 24 40.4137 24 40.6184V76.0034ZM18 76.0034V40.6184C18 39.4737 18.256 38.3894 18.768 37.3654C19.2807 36.3407 19.9887 35.497 20.892 34.8344L43.662 17.6804C44.9253 16.7164 46.3693 16.2344 47.994 16.2344C49.6187 16.2344 51.0667 16.7164 52.338 17.6804L75.108 34.8344C76.0113 35.497 76.7193 36.3407 77.232 37.3654C77.744 38.3894 78 39.4737 78 40.6184V76.0034C78 77.6394 77.409 79.0484 76.227 80.2304C75.045 81.4124 73.636 82.0034 72 82.0034H56.231C55.2063 82.0034 54.3477 81.6567 53.655 80.9634C52.9617 80.2707 52.615 79.412 52.615 78.3874V58.2344H43.385V78.3874C43.385 79.412 43.0383 80.2707 42.345 80.9634C41.6523 81.6567 40.7937 82.0034 39.769 82.0034H24C22.364 82.0034 20.955 81.4124 19.773 80.2304C18.591 79.0484 18 77.6394 18 76.0034Z" fill="#6B7684"/>
</g>
</svg>
