<svg width="96" height="97" viewBox="0 0 96 97" fill="current" xmlns="http://www.w3.org/2000/svg">
<path d="M11.9014 36.987L46.1001 56.8811C46.6777 57.2169 47.333 57.3937 48 57.3937C48.667 57.3937 49.3223 57.2169 49.8999 56.8811L84.0986 36.987C84.6729 36.6532 85.1504 36.1739 85.4837 35.5967C85.817 35.0195 85.9945 34.3645 85.9985 33.6968C86.0012 33.0227 85.8268 32.3598 85.4932 31.7753C85.1596 31.1908 84.6784 30.7055 84.0986 30.3684L49.8999 10.5126C49.3223 10.1768 48.667 10 48 10C47.333 10 46.6777 10.1768 46.1001 10.5126L11.9014 30.3684C11.3216 30.7055 10.8404 31.1908 10.5068 31.7753C10.1732 32.3598 9.99885 33.0227 10.0015 33.6968C10.0055 34.3645 10.183 35.0195 10.5163 35.5967C10.8496 36.1739 11.3271 36.6532 11.9014 36.987ZM48 18.3937L74.5989 33.6968L48 49L21.4011 33.6968L48 18.3937ZM80.2987 45.8246L48 64.3032L15.7013 45.6716C15.2676 45.4186 14.7885 45.2545 14.2915 45.1888C13.7946 45.1231 13.2897 45.1569 12.8058 45.2885C12.3219 45.4201 11.8687 45.6467 11.4722 45.9554C11.0757 46.2641 10.7437 46.6487 10.4955 47.0871C10.0001 47.9656 9.86989 49.0056 10.1333 49.9804C10.3967 50.9552 11.0323 51.7855 11.9014 52.2902L46.1001 72.1843C46.6777 72.5201 47.333 72.6968 48 72.6968C48.667 72.6968 49.3223 72.5201 49.8999 72.1843L84.0986 52.2902C84.9677 51.7855 85.6033 50.9552 85.8667 49.9804C86.1301 49.0056 85.9999 47.9656 85.5045 47.0871C85.2563 46.6487 84.9243 46.2641 84.5278 45.9554C84.1313 45.6467 83.6781 45.4201 83.1942 45.2885C82.7103 45.1569 82.2054 45.1231 81.7085 45.1888C81.2115 45.2545 80.7324 45.4186 80.2987 45.6716V45.8246ZM80.2987 61.1277L48 79.6063L15.7013 60.9747C15.2676 60.7218 14.7885 60.5577 14.2915 60.4919C13.7946 60.4262 13.2897 60.4601 12.8058 60.5917C12.3219 60.7232 11.8687 60.9499 11.4722 61.2586C11.0757 61.5673 10.7437 61.9519 10.4955 62.3903C10.0001 63.2687 9.86989 64.3088 10.1333 65.2836C10.3967 66.2583 11.0323 67.0886 11.9014 67.5933L46.1001 87.4874C46.6777 87.8232 47.333 88 48 88C48.667 88 49.3223 87.8232 49.8999 87.4874L84.0986 67.5933C84.9677 67.0886 85.6033 66.2583 85.8667 65.2836C86.1301 64.3088 85.9999 63.2687 85.5045 62.3903C85.2563 61.9519 84.9243 61.5673 84.5278 61.2586C84.1313 60.9499 83.6781 60.7232 83.1942 60.5917C82.7103 60.4601 82.2054 60.4262 81.7085 60.4919C81.2115 60.5577 80.7324 60.7218 80.2987 60.9747V61.1277Z" fill="#6B7684"/>
</svg>
