<svg width="96" height="97" viewBox="0 0 96 97" fill="none" xmlns="http://www.w3.org/2000/svg">
<path d="M80.7205 41.76C77.8434 41.2394 74.9244 40.985 72.0005 41C70.3205 41 68.6805 41 67.0405 41.32C64.9988 38.5955 62.3928 36.3442 59.4005 34.72C61.9707 31.913 63.3976 28.2459 63.4005 24.44C63.4005 20.3451 61.7738 16.4178 58.8783 13.5223C55.9827 10.6267 52.0555 9 47.9605 9C43.8656 9 39.9384 10.6267 37.0428 13.5223C34.1472 16.4178 32.5205 20.3451 32.5205 24.44C32.5235 28.2459 33.9503 31.913 36.5205 34.72C33.5461 36.3526 30.9442 38.5867 28.8805 41.28C27.3205 41 25.6805 41 24.0005 41C21.0742 41.0114 18.1552 41.2926 15.2805 41.84C14.3487 42.0104 13.5076 42.5059 12.9069 43.2384C12.3063 43.9709 11.9851 44.8928 12.0005 45.84V78.84C11.9996 79.4276 12.1281 80.0083 12.377 80.5406C12.6259 81.0729 12.989 81.5439 13.4405 81.92C13.8892 82.2983 14.4157 82.5733 14.9825 82.7254C15.5494 82.8774 16.1427 82.9029 16.7205 82.8C19.1142 82.2787 21.5516 81.984 24.0005 81.92C31.7489 81.9115 39.3292 84.1786 45.8005 88.44L46.3205 88.64C46.8511 88.8702 47.4222 88.9926 48.0005 89C48.3823 88.9952 48.7607 88.9277 49.1205 88.8H49.4005L49.9205 88.6C56.4535 84.2292 64.1403 81.9037 72.0005 81.92C74.4444 81.9314 76.8818 82.1724 79.2805 82.64C79.8583 82.7429 80.4517 82.7175 81.0186 82.5654C81.5854 82.4133 82.1118 82.1383 82.5605 81.76C83.0121 81.3839 83.3752 80.9129 83.6241 80.3806C83.873 79.8483 84.0015 79.2676 84.0005 78.68V45.68C83.9971 44.7465 83.6673 43.8437 83.0683 43.1278C82.4693 42.4119 81.6387 41.928 80.7205 41.76ZM48.0005 17C49.8743 17.1377 51.6266 17.9792 52.9056 19.3555C54.1845 20.7319 54.8954 22.5412 54.8954 24.42C54.8954 26.2988 54.1845 28.1081 52.9056 29.4845C51.6266 30.8608 49.8743 31.7023 48.0005 31.84C46.1267 31.7023 44.3744 30.8608 43.0955 29.4845C41.8165 28.1081 41.1057 26.2988 41.1057 24.42C41.1057 22.5412 41.8165 20.7319 43.0955 19.3555C44.3744 17.9792 46.1267 17.1377 48.0005 17ZM44.0005 78.32C37.7312 75.4221 30.9072 73.9208 24.0005 73.92C22.6805 73.92 21.3605 73.92 20.0005 74.12V49C23.3548 48.6248 26.7438 48.692 30.0805 49.2H30.5205C35.2869 50.076 39.8545 51.8108 44.0005 54.32V78.32ZM48.0005 47.4C46.2218 46.3739 44.3779 45.4653 42.4805 44.68H42.2405C40.9205 44.16 39.6005 43.64 38.2405 43.24C41.0178 41.0295 44.4513 39.8053 48.0005 39.76C51.5404 39.7824 54.9729 40.9782 57.7605 43.16C54.3649 44.2201 51.0928 45.6416 48.0005 47.4ZM76.0005 74.12C67.7872 73.2948 59.5023 74.6756 52.0005 78.12V54.12C56.1541 51.6752 60.7245 50.0206 65.4805 49.24H66.2805C69.4964 48.7392 72.7638 48.6585 76.0005 49V74.12Z" fill="#6B7684"/>
</svg>
