<svg xmlns="http://www.w3.org/2000/svg" width="48" height="48" viewBox="0 0 48 48" fill="none">
    <path fill-rule="evenodd" clip-rule="evenodd" d="M40.0649 20.0696C40.0649 23.8698 38.7458 27.3619 36.5404 30.113H36.5497C36.5497 30.113 30.9648 37.5866 26.6383 42.8786C25.258 44.5669 22.7332 44.5662 21.3537 42.8773C17.041 37.5969 11.4633 30.1292 11.4633 30.1292L11.4503 30.113C9.24493 27.3619 7.92578 23.8698 7.92578 20.0696C7.92578 11.1946 15.1204 4 23.9953 4C32.8703 4 40.0649 11.1946 40.0649 20.0696ZM29.9956 20C29.9956 23.3137 27.3093 26 23.9956 26C20.6819 26 17.9956 23.3137 17.9956 20C17.9956 16.6863 20.6819 14 23.9956 14C27.3093 14 29.9956 16.6863 29.9956 20Z" fill="#4E5968"/>
</svg>