<svg xmlns="http://www.w3.org/2000/svg" width="202" height="46" viewBox="0 0 202 46" fill="none">
    <g clip-path="url(#clip0_7267_13282)">
        <path d="M88.3002 17.6695H85.1964V10.5098H82.0827V24.8392H72.1567V14.1392H79.5839V11.0254H69.043V26.4358C69.043 27.2688 69.7173 27.953 70.5601 27.953H82.0926V33.3774H85.2063V20.7833H88.3101V33.3774H91.4238V10.5098H88.3101V17.6695H88.3002Z" fill="#1A1A1A"/>
        <path d="M116.468 10.5098H95.6337V13.6236H114.871L114.831 21.4378H94.543V24.5516H104.429V33.3675H107.543V24.5516H119.155V21.4378H117.935L117.975 12.027C117.985 11.194 117.301 10.5098 116.468 10.5098Z" fill="#1A1A1A"/>
        <path d="M135.396 23.5699H145.025V20.4561H125.787V13.6236H145.025V10.5098H122.674V22.0626C122.674 22.8956 123.348 23.5798 124.191 23.5798H132.282V30.2636H121.652V33.3774H145.977V30.2537H135.396V23.5699Z" fill="#1A1A1A"/>
        <path d="M201.476 14.2385H198.729V10.5H195.615V19.3059H191.659V12.0272C191.659 11.1942 190.985 10.5099 190.142 10.5099H176.715V13.6237H188.545V19.3059H183.2V15.7954H180.087V19.3059H176.438V22.4197H195.625V30.2538H180.602V24.9286H177.489V31.8603C177.489 32.6933 178.163 33.3775 179.006 33.3775H198.719V32.3363H198.749V17.3524H201.496V14.2385H201.476Z" fill="#1A1A1A"/>
        <path d="M169.847 10.5098V15.9639H164.383V19.0777H169.847V21.061H169.876V33.3675H172.96V10.5098H169.847Z" fill="#1A1A1A"/>
        <path d="M157.428 10.5176H154.394C152.044 10.5176 150.041 12.2728 149.724 14.7024L148.375 33.3852H151.459L152.778 15.0098C152.887 14.2065 153.571 13.6016 154.384 13.6016H157.419C158.232 13.6016 158.926 14.2065 159.015 14.9205L160.344 33.3852H163.428L162.069 14.6131C161.782 12.2728 159.779 10.5176 157.428 10.5176Z" fill="#10833C"/>
        <path d="M155.935 32.4938C155.727 32.4938 155.559 32.3252 155.559 32.117V16.2108C155.559 16.0026 155.727 15.834 155.935 15.834C156.144 15.834 156.312 16.0026 156.312 16.2108V32.117C156.312 32.3252 156.144 32.4938 155.935 32.4938Z" fill="#C9CACA"/>
        <path d="M153.664 32.4933C153.456 32.4834 153.297 32.3148 153.297 32.1066L153.753 16.8747C153.763 16.6665 153.932 16.5078 154.14 16.5078C154.348 16.5177 154.507 16.6863 154.507 16.8946L154.051 32.1264C154.051 32.3347 153.872 32.5032 153.664 32.4933Z" fill="#C9CACA"/>
        <path d="M158.226 32.4933C158.434 32.4834 158.593 32.3148 158.593 32.1066L158.136 16.8747C158.127 16.6665 157.958 16.5078 157.75 16.5078C157.541 16.5177 157.383 16.6863 157.383 16.8946L157.839 32.1264C157.849 32.3347 158.027 32.5032 158.226 32.4933Z" fill="#C9CACA"/>
        <path d="M70.5039 37.9195C70.8708 37.86 71.2972 37.8203 71.7732 37.8203C72.626 37.8203 73.2408 38.0286 73.6473 38.3955C74.0638 38.7723 74.3018 39.2979 74.3018 40.0416C74.3018 40.7854 74.0638 41.4002 73.6374 41.8167C73.2011 42.2431 72.4871 42.4712 71.5848 42.4712C71.1485 42.4712 70.8014 42.4513 70.5039 42.4216V37.9195ZM71.0989 41.9654C71.2476 41.9853 71.4658 41.9952 71.7038 41.9952C72.9829 41.9952 73.6672 41.2911 73.6672 40.0515C73.6771 38.9706 73.0524 38.2864 71.793 38.2864C71.4856 38.2864 71.2476 38.3161 71.089 38.3459V41.9654H71.0989Z" fill="#1A1A1A"/>
        <path d="M77.083 40.9814L76.607 42.4193H75.9922L77.5689 37.8379H78.2828L79.8595 42.4193H79.2249L78.7291 40.9814H77.083ZM78.6101 40.5253L78.1539 39.2064C78.0548 38.9089 77.9853 38.6312 77.9159 38.3734H77.8961C77.8267 38.6411 77.7573 38.9287 77.6581 39.2064L77.202 40.5352H78.6101V40.5253Z" fill="#1A1A1A"/>
        <path d="M84.2961 40.2772H82.5111V41.9333H84.5142V42.4291H81.9062V37.8477H84.4051V38.3435H82.5111V39.7913H84.2961V40.2772Z" fill="#1A1A1A"/>
        <path d="M90.1807 42.2197C89.913 42.3188 89.3775 42.4676 88.7528 42.4676C88.0487 42.4676 87.4736 42.2891 87.0274 41.8627C86.6307 41.4858 86.3828 40.871 86.3828 40.157C86.3828 38.7885 87.3348 37.7969 88.8817 37.7969C89.4172 37.7969 89.8436 37.9159 90.0419 38.0051L89.8931 38.491C89.6452 38.372 89.3378 38.2927 88.8718 38.2927C87.7512 38.2927 87.0174 38.9869 87.0174 40.1372C87.0174 41.2974 87.7215 41.9817 88.8024 41.9817C89.1891 41.9817 89.4568 41.9321 89.5956 41.8627V40.4942H88.6635V40.0182H90.1807V42.2197Z" fill="#1A1A1A"/>
        <path d="M93.0619 37.8477V40.5648C93.0619 41.5862 93.5181 42.0225 94.1329 42.0225C94.8072 42.0225 95.2534 41.5763 95.2534 40.5648V37.8477H95.8583V40.5251C95.8583 41.9333 95.1146 42.4985 94.113 42.4985C93.171 42.4985 92.457 41.9729 92.457 40.545V37.8477H93.0619Z" fill="#1A1A1A"/>
        <path d="M104.991 40.416C104.961 39.7814 104.911 38.998 104.911 38.4427H104.901C104.733 38.9682 104.554 39.5533 104.316 40.1781L103.503 42.3994H103.047L102.293 40.2177C102.075 39.5632 101.897 38.9781 101.768 38.4427H101.758C101.748 39.0178 101.708 39.7715 101.669 40.4656L101.55 42.4291H100.984L101.302 37.8477H102.065L102.849 40.0591C103.037 40.6243 103.196 41.13 103.315 41.606H103.325C103.453 41.14 103.612 40.6441 103.82 40.0591L104.643 37.8477H105.407L105.695 42.4291H105.109L104.991 40.416Z" fill="#1A1A1A"/>
        <path d="M110.374 40.2772H108.589V41.9333H110.592V42.4291H107.984V37.8477H110.483V38.3435H108.589V39.7913H110.374V40.2772Z" fill="#1A1A1A"/>
        <path d="M113.717 38.3436H112.309V37.8379H115.73V38.3436H114.322V42.4193H113.717V38.3436Z" fill="#1A1A1A"/>
        <path d="M117.625 37.9097C117.922 37.8601 118.369 37.8105 118.765 37.8105C119.4 37.8105 119.816 37.9295 120.104 38.1874C120.332 38.3956 120.471 38.703 120.471 39.06C120.471 39.655 120.084 40.0616 119.608 40.2203V40.2401C119.955 40.3591 120.173 40.6864 120.283 41.1623C120.431 41.797 120.54 42.2433 120.64 42.4218H120.025C119.945 42.2829 119.846 41.8962 119.727 41.3309C119.588 40.6963 119.341 40.4583 118.795 40.4384H118.23V42.4218H117.635V37.9097H117.625ZM118.22 39.9922H118.835C119.469 39.9922 119.876 39.6451 119.876 39.1195C119.876 38.5245 119.44 38.2667 118.815 38.2667C118.527 38.2667 118.329 38.2865 118.23 38.3163V39.9922H118.22Z" fill="#1A1A1A"/>
        <path d="M126.656 40.0902C126.656 41.657 125.694 42.4999 124.514 42.4999C123.284 42.4999 122.441 41.5578 122.441 40.1695C122.441 38.7118 123.344 37.7598 124.583 37.7598C125.843 37.7697 126.656 38.7217 126.656 40.0902ZM123.066 40.1596C123.066 41.1413 123.602 42.0239 124.544 42.0239C125.486 42.0239 126.021 41.1611 126.021 40.1199C126.021 39.2076 125.545 38.2556 124.544 38.2556C123.542 38.2556 123.066 39.158 123.066 40.1596Z" fill="#1A1A1A"/>
        <path d="M128.809 37.8998C129.096 37.8502 129.473 37.8105 129.949 37.8105C130.534 37.8105 130.97 37.9494 131.248 38.1874C131.496 38.4055 131.655 38.7328 131.655 39.1493C131.655 39.5658 131.536 39.893 131.298 40.131C130.98 40.4682 130.465 40.6368 129.889 40.6368C129.711 40.6368 129.542 40.6269 129.413 40.5971V42.4317H128.819V37.8998H128.809ZM129.404 40.1112C129.532 40.1409 129.701 40.1608 129.899 40.1608C130.623 40.1608 131.06 39.8038 131.06 39.189C131.06 38.5741 130.623 38.2865 129.969 38.2865C129.711 38.2865 129.513 38.3064 129.404 38.3361V40.1112Z" fill="#1A1A1A"/>
        <path d="M137.773 40.0902C137.773 41.657 136.811 42.4999 135.631 42.4999C134.401 42.4999 133.559 41.5578 133.559 40.1695C133.559 38.7118 134.461 37.7598 135.7 37.7598C136.96 37.7697 137.773 38.7217 137.773 40.0902ZM134.183 40.1596C134.183 41.1413 134.719 42.0239 135.661 42.0239C136.603 42.0239 137.138 41.1611 137.138 40.1199C137.138 39.2076 136.662 38.2556 135.661 38.2556C134.659 38.2556 134.183 39.158 134.183 40.1596Z" fill="#1A1A1A"/>
        <path d="M139.918 37.8477H140.523V41.9333H142.496V42.4291H139.918V37.8477Z" fill="#1A1A1A"/>
        <path d="M145.128 37.8477V42.4291H144.523V37.8477H145.128Z" fill="#1A1A1A"/>
        <path d="M148.424 38.3436H147.016V37.8379H150.437V38.3436H149.029V42.4193H148.424V38.3436Z" fill="#1A1A1A"/>
        <path d="M152.56 40.9814L152.084 42.4193H151.469L153.045 37.8379H153.759L155.336 42.4193H154.701L154.206 40.9814H152.56ZM154.087 40.5253L153.63 39.2064C153.521 38.9089 153.462 38.6312 153.392 38.3734H153.383C153.313 38.6411 153.244 38.9287 153.145 39.2064L152.688 40.5352H154.087V40.5253Z" fill="#1A1A1A"/>
        <path d="M157.387 42.4291V37.8477H158.041L159.519 40.1681C159.856 40.7036 160.133 41.1895 160.342 41.6556L160.362 41.6457C160.312 41.0309 160.292 40.4755 160.292 39.7616V37.8477H160.857V42.4291H160.252L158.785 40.1086C158.468 39.6029 158.16 39.0773 157.932 38.5815L157.912 38.5914C157.952 39.1666 157.952 39.7219 157.952 40.4755V42.4291H157.387Z" fill="#1A1A1A"/>
        <path d="M166.094 37.8477H166.699V41.9333H168.672V42.4291H166.094V37.8477Z" fill="#1A1A1A"/>
        <path d="M171.296 37.8477V42.4291H170.691V37.8477H171.296Z" fill="#1A1A1A"/>
        <path d="M173.719 37.9195C173.977 37.86 174.403 37.8203 174.81 37.8203C175.404 37.8203 175.791 37.9195 176.069 38.1575C176.307 38.336 176.456 38.6037 176.456 38.9706C176.456 39.4169 176.158 39.8036 175.672 39.9722V39.992C176.109 40.0912 176.624 40.4581 176.624 41.1324C176.624 41.5291 176.466 41.8365 176.228 42.0448C175.91 42.3323 175.395 42.4712 174.641 42.4712C174.234 42.4712 173.917 42.4414 173.719 42.4216V37.9195ZM174.314 39.7937H174.859C175.484 39.7937 175.851 39.4565 175.851 39.0202C175.851 38.4946 175.444 38.2765 174.839 38.2765C174.562 38.2765 174.403 38.2963 174.314 38.3161V39.7937ZM174.314 41.9754C174.443 41.9952 174.601 42.0051 174.81 42.0051C175.424 42.0051 175.999 41.777 175.999 41.1126C175.999 40.4978 175.454 40.23 174.81 40.23H174.314V41.9754Z" fill="#1A1A1A"/>
        <path d="M178.805 37.9097C179.102 37.8601 179.548 37.8105 179.945 37.8105C180.58 37.8105 180.996 37.9295 181.284 38.1874C181.512 38.3956 181.651 38.703 181.651 39.06C181.651 39.655 181.264 40.0616 180.788 40.2203V40.2401C181.135 40.3591 181.353 40.6864 181.462 41.1623C181.611 41.797 181.72 42.2433 181.819 42.4218H181.204C181.125 42.2829 181.026 41.8962 180.907 41.3309C180.768 40.6963 180.52 40.4583 179.975 40.4384H179.41V42.4218H178.815V37.9097H178.805ZM179.4 39.9922H180.014C180.649 39.9922 181.056 39.6451 181.056 39.1195C181.056 38.5245 180.619 38.2667 179.995 38.2667C179.707 38.2667 179.509 38.2865 179.41 38.3163V39.9922H179.4Z" fill="#1A1A1A"/>
        <path d="M184.645 40.9814L184.169 42.4193H183.555L185.131 37.8379H185.845L187.422 42.4193H186.787L186.292 40.9814H184.645ZM186.173 40.5253L185.716 39.2064C185.607 38.9089 185.548 38.6312 185.478 38.3734H185.469C185.399 38.6411 185.33 38.9287 185.231 39.2064L184.774 40.5352H186.173V40.5253Z" fill="#1A1A1A"/>
        <path d="M189.477 37.9097C189.774 37.8601 190.22 37.8105 190.617 37.8105C191.252 37.8105 191.668 37.9295 191.956 38.1874C192.184 38.3956 192.322 38.703 192.322 39.06C192.322 39.655 191.936 40.0616 191.46 40.2203V40.2401C191.807 40.3591 192.025 40.6864 192.134 41.1623C192.283 41.797 192.392 42.2433 192.491 42.4218H191.876C191.797 42.2829 191.698 41.8962 191.579 41.3309C191.44 40.6963 191.192 40.4583 190.647 40.4384H190.081V42.4218H189.486V37.9097H189.477ZM190.072 39.9922H190.686C191.321 39.9922 191.728 39.6451 191.728 39.1195C191.728 38.5245 191.291 38.2667 190.666 38.2667C190.379 38.2667 190.181 38.2865 190.081 38.3163V39.9922H190.072Z" fill="#1A1A1A"/>
        <path d="M195.483 42.4291V40.4855L194.016 37.8477H194.7L195.354 39.1071C195.523 39.4541 195.672 39.7318 195.81 40.0491H195.82C195.949 39.7516 196.108 39.4541 196.286 39.1071L196.951 37.8477H197.625L196.088 40.4755V42.4291H195.483Z" fill="#1A1A1A"/>
        <path d="M1 35.1684L19.5045 6.01758L22.1018 10.4902L7.28988 33.6582C7.28988 33.6582 1.97086 34.6871 1 35.1684Z" fill="#10833C"/>
        <path d="M29.1223 2.32422L9.40625 33.2923C9.40625 33.2923 12.7918 32.9936 13.3976 33.0517L30.9395 5.77618L29.1223 2.32422Z" fill="#10833C"/>
        <path d="M36.5887 0.5L15.8438 33.4679C15.8438 33.4679 32.2323 32.746 40.6464 34.1898C40.6464 34.1898 57.7652 36.6129 53.2262 41.8738C53.2262 41.8738 51.2928 43.9898 44.5133 45.5C44.5133 45.5 56.8524 44.8942 58.6033 39.0276C58.6033 39.0276 59.3252 37.2103 58.3046 35.642L36.5887 0.5Z" fill="#10833C"/>
        <path d="M6.45213 38.3799H7.93747C8.60131 38.3799 9.64685 38.5625 9.64685 40.8776C9.64685 42.1638 9.22366 43.4998 7.96236 43.4998H6.45213V38.3799ZM4.93359 44.844H8.15321C10.6011 44.844 11.2318 42.4293 11.2318 40.7531C11.2318 39.2761 10.7173 37.0273 8.2113 37.0273H4.93359V44.844Z" fill="#10833C"/>
        <path d="M14.9246 38.7948H14.9412L15.8623 41.89H13.9703L14.9246 38.7948ZM13.5637 43.2342H16.3021L16.775 44.844H18.4595L15.8457 37.0273H14.0533L11.4062 44.844H13.041L13.5637 43.2342Z" fill="#10833C"/>
        <path d="M24.9132 38.4126H20.9717V40.0556H24.5896V41.4414H20.9717V43.4661H25.0875V44.8519H19.4531V37.0352H24.9132V38.4126Z" fill="#10833C"/>
        <path d="M29.8327 40.6369H32.9362V44.8523H31.8989L31.7412 43.8731C31.3512 44.3544 30.7787 45.0598 29.4261 45.0598C27.6337 45.0598 26.0156 43.7072 26.0156 40.9688C26.0156 38.8363 27.1442 36.8199 29.6418 36.8282C31.9155 36.8282 32.82 38.3882 32.903 39.4669H31.3512C31.3512 39.1599 30.8202 38.1807 29.7248 38.1807C28.6212 38.1807 27.5922 38.9856 27.5922 40.9937C27.5922 43.1263 28.6959 43.6823 29.7497 43.6823C30.0899 43.6823 31.2268 43.5412 31.5504 41.9646H29.8244V40.6369H29.8327Z" fill="#10833C"/>
        <path d="M40.3466 42.114C40.3466 44.1719 39.1683 45.0515 37.293 45.0515C36.6125 45.0515 35.5919 44.8772 34.9363 44.1055C34.5297 43.6242 34.3804 42.9936 34.3555 42.2136V37.0356H35.9404V42.1057C35.9404 43.1927 36.5378 43.674 37.2681 43.674C38.3302 43.674 38.77 43.1264 38.77 42.1804V37.0273H40.3549V42.114H40.3466Z" fill="#10833C"/>
    </g>
    <defs>
        <clipPath id="clip0_7267_13282">
            <rect width="202" height="45" fill="white" transform="translate(0 0.5)"/>
        </clipPath>
    </defs>
</svg>