<svg xmlns="http://www.w3.org/2000/svg" width="202" height="46" viewBox="0 0 202 46" fill="none">
    <g clip-path="url(#clip0_7361_13002)">
        <path d="M87.9098 17.6611H84.8054V10.5H81.691V24.8322H71.7628V14.1302H79.1916V11.0158H68.6484V26.429C68.6484 27.2622 69.3229 27.9466 70.1659 27.9466H81.7009V33.3719H84.8153V20.7755H87.9197V33.3719H91.0341V10.5099H87.9197V17.6611H87.9098Z" fill="white"/>
        <path d="M116.086 10.5H95.2473V13.6144H114.489L114.449 21.4301H94.1562V24.5445H104.045V33.362H107.159V24.5445H118.773V21.4301H117.554L117.593 12.0175C117.603 11.1844 116.919 10.5 116.086 10.5Z" fill="white"/>
        <path d="M135.016 23.5626H144.647V20.4482H125.405V13.6144H144.647V10.5H122.291V22.055C122.291 22.8881 122.966 23.5725 123.809 23.5725H131.902V30.2576H121.27V33.3719H145.599V30.2576H135.016V23.5626Z" fill="white"/>
        <path d="M201.114 14.2393H198.367V10.5H195.252V19.3076H191.295V12.0274C191.295 11.1943 190.62 10.5099 189.777 10.5099H176.348V13.6243H188.181V19.3076H182.835V15.7964H179.72V19.3076H176.07V22.422H195.262V30.2576H180.236V24.9314H177.122V31.8643C177.122 32.6975 177.796 33.3819 178.639 33.3819H198.357V32.3503H198.387V17.3636H201.134V14.2393H201.114Z" fill="white"/>
        <path d="M169.481 10.5V15.9551H164.016V19.0695H169.481V21.0532H169.51V33.362H172.595V10.5H169.481Z" fill="white"/>
        <path d="M157.048 10.5098H154.013C151.662 10.5098 149.658 12.2653 149.341 14.6954L147.992 33.3817H151.077L152.396 15.0028C152.505 14.1994 153.189 13.5944 154.003 13.5944H157.038C157.851 13.5944 158.545 14.1994 158.635 14.9136L159.964 33.3817H163.048L161.689 14.6061C161.402 12.2653 159.398 10.5098 157.048 10.5098Z" fill="white"/>
        <path d="M155.557 32.5009C155.348 32.5009 155.18 32.3323 155.18 32.124V16.2148C155.18 16.0065 155.348 15.8379 155.557 15.8379C155.765 15.8379 155.933 16.0065 155.933 16.2148V32.124C155.933 32.3323 155.765 32.5009 155.557 32.5009Z" fill="#C9CACA"/>
        <path d="M153.289 32.4905C153.081 32.4806 152.922 32.312 152.922 32.1037L153.378 16.8689C153.388 16.6606 153.557 16.502 153.765 16.502C153.973 16.502 154.132 16.6805 154.132 16.8888L153.676 32.1235C153.676 32.3318 153.497 32.5004 153.289 32.4905Z" fill="#C9CACA"/>
        <path d="M157.851 32.4905C158.059 32.4806 158.218 32.312 158.218 32.1037L157.762 16.8689C157.752 16.6606 157.583 16.502 157.375 16.502C157.167 16.502 157.008 16.6805 157.008 16.8888L157.464 32.1235C157.474 32.3318 157.652 32.5004 157.851 32.4905Z" fill="#C9CACA"/>
        <path d="M70.1133 37.9156C70.4803 37.8561 70.9067 37.8164 71.3828 37.8164C72.2358 37.8164 72.8507 38.0247 73.2574 38.3917C73.674 38.7686 73.912 39.2943 73.912 40.0381C73.912 40.782 73.674 41.397 73.2475 41.8136C72.8111 42.24 72.0969 42.4682 71.1944 42.4682C70.758 42.4682 70.4108 42.4483 70.1133 42.4186V37.9156ZM70.7084 41.9623C70.8572 41.9822 71.0754 41.9921 71.3134 41.9921C72.5929 41.9921 73.2772 41.2879 73.2772 40.0481C73.2871 38.9669 72.6623 38.2826 71.4027 38.2826C71.0952 38.2826 70.8572 38.3123 70.6985 38.3421V41.9623H70.7084Z" fill="white"/>
        <path d="M76.6926 40.982L76.2165 42.4202H75.6016L77.1786 37.8379H77.8927L79.4697 42.4202H78.8349L78.339 40.982H76.6926ZM78.22 40.5258L77.7638 39.2066C77.6646 38.9091 77.5951 38.6314 77.5257 38.3735H77.5059C77.4364 38.6413 77.367 38.9289 77.2678 39.2066L76.8116 40.5357H78.22V40.5258Z" fill="white"/>
        <path d="M83.9059 40.2777H82.1206V41.9341H84.1241V42.43H81.5156V37.8477H84.015V38.3436H82.1206V39.7917H83.9059V40.2777Z" fill="white"/>
        <path d="M89.7909 42.2205C89.5231 42.3197 88.9875 42.4685 88.3627 42.4685C87.6585 42.4685 87.0832 42.2899 86.6369 41.8634C86.2401 41.4865 85.9922 40.8716 85.9922 40.1575C85.9922 38.7887 86.9443 37.7969 88.4916 37.7969C89.0272 37.7969 89.4537 37.9159 89.652 38.0052L89.5033 38.4912C89.2553 38.3721 88.9478 38.2928 88.4817 38.2928C87.3609 38.2928 86.627 38.9871 86.627 40.1376C86.627 41.2981 87.3312 41.9825 88.4123 41.9825C88.7991 41.9825 89.0669 41.9329 89.2057 41.8634V40.4947H88.2734V40.0186H89.7909V42.2205Z" fill="white"/>
        <path d="M92.6714 37.8477V40.5653C92.6714 41.5869 93.1277 42.0233 93.7426 42.0233C94.417 42.0233 94.8634 41.577 94.8634 40.5653V37.8477H95.4684V40.5256C95.4684 41.9341 94.7245 42.4994 93.7228 42.4994C92.7805 42.4994 92.0664 41.9737 92.0664 40.5455V37.8477H92.6714Z" fill="white"/>
        <path d="M104.605 40.4165C104.575 39.7818 104.525 38.9982 104.525 38.4428H104.515C104.347 38.9684 104.168 39.5536 103.93 40.1785L103.117 42.4002H102.661L101.907 40.2182C101.689 39.5635 101.51 38.9784 101.381 38.4428H101.371C101.361 39.018 101.322 39.7718 101.282 40.4661L101.163 42.43H100.598L100.915 37.8477H101.679L102.462 40.0595C102.651 40.6248 102.809 41.1307 102.928 41.6067H102.938C103.067 41.1406 103.226 40.6447 103.434 40.0595L104.258 37.8477H105.021L105.309 42.43H104.724L104.605 40.4165Z" fill="white"/>
        <path d="M109.992 40.2777H108.207V41.9341H110.21V42.43H107.602V37.8477H110.101V38.3436H108.207V39.7917H109.992V40.2777Z" fill="white"/>
        <path d="M113.326 38.3535H111.918V37.8477H115.34V38.3535H113.931V42.43H113.326V38.3535Z" fill="white"/>
        <path d="M117.246 37.9097C117.544 37.8601 117.99 37.8105 118.387 37.8105C119.021 37.8105 119.438 37.9296 119.726 38.1875C119.954 38.3957 120.093 38.7032 120.093 39.0603C120.093 39.6554 119.706 40.062 119.23 40.2207V40.2406C119.577 40.3596 119.795 40.6869 119.904 41.163C120.053 41.7978 120.162 42.2441 120.261 42.4226H119.646C119.567 42.2838 119.468 41.897 119.349 41.3316C119.21 40.6968 118.962 40.4588 118.416 40.4389H117.851V42.4226H117.256V37.9097H117.246ZM117.841 39.9926H118.456C119.091 39.9926 119.498 39.6455 119.498 39.1198C119.498 38.5247 119.061 38.2668 118.436 38.2668C118.149 38.2668 117.95 38.2866 117.851 38.3164V39.9926H117.841Z" fill="white"/>
        <path d="M126.274 40.0906C126.274 41.6577 125.312 42.5008 124.132 42.5008C122.902 42.5008 122.059 41.5585 122.059 40.17C122.059 38.7119 122.961 37.7598 124.201 37.7598C125.461 37.7697 126.274 38.7219 126.274 40.0906ZM122.683 40.16C122.683 41.142 123.219 42.0247 124.161 42.0247C125.104 42.0247 125.639 41.1618 125.639 40.1204C125.639 39.2079 125.163 38.2557 124.161 38.2557C123.16 38.2557 122.683 39.1583 122.683 40.16Z" fill="white"/>
        <path d="M128.43 37.8998C128.717 37.8502 129.094 37.8105 129.57 37.8105C130.155 37.8105 130.592 37.9494 130.87 38.1875C131.118 38.4057 131.276 38.733 131.276 39.1495C131.276 39.5661 131.157 39.8934 130.919 40.1315C130.602 40.4687 130.086 40.6373 129.511 40.6373C129.332 40.6373 129.164 40.6274 129.035 40.5976V42.4325H128.44V37.8998H128.43ZM129.025 40.1116C129.154 40.1414 129.322 40.1612 129.521 40.1612C130.245 40.1612 130.681 39.8042 130.681 39.1892C130.681 38.5743 130.245 38.2866 129.59 38.2866C129.332 38.2866 129.134 38.3065 129.025 38.3362V40.1116Z" fill="white"/>
        <path d="M137.395 40.0906C137.395 41.6577 136.433 42.5008 135.253 42.5008C134.023 42.5008 133.18 41.5585 133.18 40.17C133.18 38.7119 134.082 37.7598 135.322 37.7598C136.582 37.7697 137.395 38.7219 137.395 40.0906ZM133.805 40.16C133.805 41.142 134.34 42.0247 135.282 42.0247C136.225 42.0247 136.76 41.1618 136.76 40.1204C136.76 39.2079 136.284 38.2557 135.282 38.2557C134.281 38.2557 133.805 39.1583 133.805 40.16Z" fill="white"/>
        <path d="M139.543 37.8477H140.148V41.9341H142.122V42.43H139.543V37.8477Z" fill="white"/>
        <path d="M144.757 37.8477V42.43H144.152V37.8477H144.757Z" fill="white"/>
        <path d="M148.053 38.3535H146.645V37.8477H150.066V38.3535H148.658V42.43H148.053V38.3535Z" fill="white"/>
        <path d="M152.177 40.982L151.701 42.4202H151.086L152.663 37.8379H153.377L154.954 42.4202H154.319L153.823 40.982H152.177ZM153.704 40.5258L153.248 39.2066C153.139 38.9091 153.08 38.6314 153.01 38.3735H153C152.931 38.6413 152.861 38.9289 152.762 39.2066L152.306 40.5357H153.704V40.5258Z" fill="white"/>
        <path d="M157.02 42.43V37.8477H157.674L159.152 40.1686C159.489 40.7042 159.767 41.1902 159.975 41.6563L159.995 41.6464C159.945 41.0315 159.926 40.476 159.926 39.7619V37.8477H160.491V42.43H159.886L158.418 40.1091C158.101 39.6032 157.793 39.0775 157.565 38.5816L157.545 38.5915C157.585 39.1668 157.585 39.7222 157.585 40.476V42.43H157.02Z" fill="white"/>
        <path d="M165.723 37.8477H166.328V41.9341H168.301V42.43H165.723V37.8477Z" fill="white"/>
        <path d="M170.933 37.8477V42.43H170.328V37.8477H170.933Z" fill="white"/>
        <path d="M173.348 37.9156C173.606 37.8561 174.032 37.8164 174.439 37.8164C175.034 37.8164 175.421 37.9156 175.698 38.1536C175.936 38.3322 176.085 38.6 176.085 38.967C176.085 39.4133 175.788 39.8001 175.302 39.9687V39.9885C175.738 40.0877 176.254 40.4547 176.254 41.1292C176.254 41.5259 176.095 41.8334 175.857 42.0417C175.54 42.3293 175.024 42.4682 174.27 42.4682C173.863 42.4682 173.546 42.4384 173.348 42.4186V37.9156ZM173.943 39.7902H174.488C175.113 39.7902 175.48 39.453 175.48 39.0165C175.48 38.4909 175.073 38.2727 174.468 38.2727C174.191 38.2727 174.032 38.2925 173.943 38.3123V39.7902ZM173.943 41.9722C174.072 41.9921 174.23 42.002 174.439 42.002C175.054 42.002 175.629 41.7739 175.629 41.1093C175.629 40.4944 175.083 40.2266 174.439 40.2266H173.943V41.9722Z" fill="white"/>
        <path d="M178.441 37.9097C178.739 37.8601 179.185 37.8105 179.582 37.8105C180.217 37.8105 180.633 37.9296 180.921 38.1875C181.149 38.3957 181.288 38.7032 181.288 39.0603C181.288 39.6554 180.901 40.062 180.425 40.2207V40.2406C180.772 40.3596 180.99 40.6869 181.1 41.163C181.248 41.7978 181.357 42.2441 181.457 42.4226H180.842C180.762 42.2838 180.663 41.897 180.544 41.3316C180.405 40.6968 180.157 40.4588 179.612 40.4389H179.046V42.4226H178.451V37.9097H178.441ZM179.036 39.9926H179.651C180.286 39.9926 180.693 39.6455 180.693 39.1198C180.693 38.5247 180.256 38.2668 179.632 38.2668C179.344 38.2668 179.146 38.2866 179.046 38.3164V39.9926H179.036Z" fill="white"/>
        <path d="M184.282 40.982L183.806 42.4202H183.191L184.768 37.8379H185.483L187.06 42.4202H186.425L185.929 40.982H184.282ZM185.81 40.5258L185.354 39.2066C185.244 38.9091 185.185 38.6314 185.116 38.3735H185.106C185.036 38.6413 184.967 38.9289 184.868 39.2066L184.411 40.5357H185.81V40.5258Z" fill="white"/>
        <path d="M189.113 37.9097C189.411 37.8601 189.857 37.8105 190.254 37.8105C190.889 37.8105 191.305 37.9296 191.593 38.1875C191.821 38.3957 191.96 38.7032 191.96 39.0603C191.96 39.6554 191.573 40.062 191.097 40.2207V40.2406C191.444 40.3596 191.662 40.6869 191.771 41.163C191.92 41.7978 192.029 42.2441 192.128 42.4226H191.514C191.434 42.2838 191.335 41.897 191.216 41.3316C191.077 40.6968 190.829 40.4588 190.284 40.4389H189.718V42.4226H189.123V37.9097H189.113ZM189.708 39.9926H190.323C190.958 39.9926 191.365 39.6455 191.365 39.1198C191.365 38.5247 190.928 38.2668 190.303 38.2668C190.016 38.2668 189.817 38.2866 189.718 38.3164V39.9926H189.708Z" fill="white"/>
        <path d="M195.12 42.43V40.486L193.652 37.8477H194.337L194.991 39.1073C195.16 39.4544 195.309 39.7321 195.448 40.0495H195.457C195.586 39.752 195.745 39.4544 195.924 39.1073L196.588 37.8477H197.263L195.725 40.476V42.43H195.12Z" fill="white"/>
        <path d="M0 35.1704L18.5043 6.01953L21.1015 10.4921L6.28979 33.6601C6.28979 33.6601 0.970851 34.6891 0 35.1704Z" fill="white"/>
        <path d="M28.122 2.32812L8.40625 33.2962C8.40625 33.2962 11.7918 32.9975 12.3975 33.0556L29.9392 5.78009L28.122 2.32812Z" fill="white"/>
        <path d="M35.5923 0.5L14.8477 33.4679C14.8477 33.4679 31.236 32.746 39.65 34.1898C39.65 34.1898 56.7685 36.6129 52.2296 41.8738C52.2296 41.8738 50.2962 43.9898 43.5168 45.5C43.5168 45.5 55.8557 44.8942 57.6066 39.0276C57.6066 39.0276 58.3285 37.2103 57.3079 35.642L35.5923 0.5Z" fill="white"/>
        <path d="M5.4521 38.3819H6.93742C7.60125 38.3819 8.64679 38.5644 8.64679 40.8796C8.64679 42.1658 8.22359 43.5017 6.96232 43.5017H5.4521V38.3819ZM3.93359 44.846H7.15317C9.60104 44.846 10.2317 42.4313 10.2317 40.7551C10.2317 39.278 9.71721 37.0293 7.21125 37.0293H3.93359V44.846Z" fill="white"/>
        <path d="M13.9245 38.7968H13.9411L14.8622 41.8919H12.9703L13.9245 38.7968ZM12.5637 43.2362H15.302L15.775 44.846H17.4594L14.8456 37.0293H13.0533L10.4062 44.846H12.0409L12.5637 43.2362Z" fill="white"/>
        <path d="M23.917 38.4146H19.9755V40.0576H23.5934V41.4433H19.9755V43.4681H24.0913V44.8538H18.457V37.0371H23.917V38.4146Z" fill="white"/>
        <path d="M28.8366 40.6408H31.94V44.8562H30.9027L30.7451 43.8771C30.3551 44.3583 29.7825 45.0637 28.43 45.0637C26.6376 45.0637 25.0195 43.7111 25.0195 40.9728C25.0195 38.8402 26.148 36.8238 28.6457 36.8321C30.9193 36.8321 31.8238 38.3921 31.9068 39.4708H30.3551C30.3551 39.1638 29.824 38.1846 28.7287 38.1846C27.6251 38.1846 26.5961 38.9895 26.5961 40.9977C26.5961 43.1302 27.6997 43.6862 28.7536 43.6862C29.0938 43.6862 30.2306 43.5451 30.5542 41.9685H28.8283V40.6408H28.8366Z" fill="white"/>
        <path d="M39.3465 42.116C39.3465 44.1739 38.1682 45.0535 36.2929 45.0535C35.6125 45.0535 34.5919 44.8792 33.9363 44.1075C33.5297 43.6262 33.3804 42.9956 33.3555 42.2155V37.0376H34.9404V42.1077C34.9404 43.1947 35.5378 43.676 36.268 43.676C37.3301 43.676 37.7699 43.1283 37.7699 42.1823V37.0293H39.3548V42.116H39.3465Z" fill="white"/>
    </g>
    <defs>
        <clipPath id="clip0_7361_13002">
            <rect width="202" height="45" fill="white" transform="translate(0 0.5)"/>
        </clipPath>
    </defs>
</svg>