<svg xmlns="http://www.w3.org/2000/svg" width="60" height="60" viewBox="0 0 60 60" fill="none">
    <path d="M23.2844 17.6754C23.2844 18.1344 23.1054 18.5854 22.7473 18.9335L11.419 29.9476L22.7473 40.9616C23.4635 41.6579 23.4635 42.7815 22.7473 43.4778C22.0311 44.1741 20.8755 44.1741 20.1594 43.4778L7.53712 31.2056C6.82096 30.5094 6.82096 29.3858 7.53712 28.6895L20.1594 16.4174C20.8755 15.7211 22.0311 15.7211 22.7473 16.4174C23.1054 16.7655 23.2844 17.2165 23.2844 17.6754Z" fill="#EFF1F3"/>
    <path d="M52.9995 29.9502C52.9995 30.9313 52.1776 31.7305 51.1684 31.7305L10.126 31.7305C9.11687 31.7305 8.29492 30.9313 8.29492 29.9502C8.29492 28.969 9.11687 28.1699 10.126 28.1699L51.1684 28.1699C52.1857 28.1699 52.9995 28.969 52.9995 29.9502Z" fill="#EFF1F3"/>
</svg>