<svg xmlns="http://www.w3.org/2000/svg" width="144" height="144" viewBox="0 0 144 144" fill="none">
    <path d="M72 114C83.1391 114 93.822 109.575 101.698 101.698C109.575 93.822 114 83.1391 114 72C114 60.8609 109.575 50.178 101.698 42.3015C93.822 34.425 83.1391 30 72 30C60.8609 30 50.178 34.425 42.3015 42.3015C34.425 50.178 30 60.8609 30 72C30 83.1391 34.425 93.822 42.3015 101.698C50.178 109.575 60.8609 114 72 114ZM58.7109 58.7109C60.2531 57.1688 62.7469 57.1688 64.2727 58.7109L71.9836 66.4219L79.6945 58.7109C81.2367 57.1688 83.7305 57.1688 85.2562 58.7109C86.782 60.2531 86.7984 62.7469 85.2562 64.2727L77.5453 71.9836L85.2562 79.6945C86.7984 81.2367 86.7984 83.7305 85.2562 85.2562C83.7141 86.782 81.2203 86.7984 79.6945 85.2562L71.9836 77.5453L64.2727 85.2562C62.7305 86.7984 60.2367 86.7984 58.7109 85.2562C57.1852 83.7141 57.1688 81.2203 58.7109 79.6945L66.4219 71.9836L58.7109 64.2727C57.1688 62.7305 57.1688 60.2367 58.7109 58.7109Z" fill="#6B7684"/>
</svg>