<svg xmlns="http://www.w3.org/2000/svg" width="198" height="198" viewBox="0 0 198 198" fill="none">
    <g clip-path="url(#clip0_627_6450)">
        <path d="M99 116.164C110.383 116.164 119.503 106.959 119.503 95.5548L119.571 54.336C119.571 42.9321 110.383 33.7266 99 33.7266C87.6171 33.7266 78.4286 42.9321 78.4286 54.336V95.5548C78.4286 106.959 87.6171 116.164 99 116.164ZM135.343 95.5548C135.343 116.164 117.926 130.591 99 130.591C80.0743 130.591 62.6571 116.164 62.6571 95.5548H51C51 119.05 69.6514 138.354 92.1429 141.72V164.253H105.857V141.72C128.349 138.422 147 119.05 147 95.5548H135.343Z" fill="#20B625"/>
    </g>
    <defs>
        <clipPath id="clip0_627_6450">
            <rect width="197" height="197" fill="white" transform="translate(0.5 0.484375)"/>
        </clipPath>
    </defs>
</svg>