<svg xmlns="http://www.w3.org/2000/svg" width="144" height="144" viewBox="0 0 144 144" fill="none">
    <g clip-path="url(#clip0_627_6121)">
        <path d="M72.0039 84.1451C80.0668 84.1451 86.5268 77.6365 86.5268 69.5737L86.5753 40.4308C86.5753 32.3679 80.0668 25.8594 72.0039 25.8594C63.941 25.8594 57.4325 32.3679 57.4325 40.4308V69.5737C57.4325 77.6365 63.941 84.1451 72.0039 84.1451ZM97.7468 69.5737C97.7468 84.1451 85.4096 94.3451 72.0039 94.3451C58.5982 94.3451 46.261 84.1451 46.261 69.5737H38.0039C38.0039 86.1851 51.2153 99.8337 67.1468 102.214V118.145H76.861V102.214C92.7925 99.8822 106.004 86.1851 106.004 69.5737H97.7468Z" fill="white"/>
    </g>
    <defs>
        <clipPath id="clip0_627_6121">
            <rect width="144" height="144" fill="white"/>
        </clipPath>
    </defs>
</svg>