<svg xmlns="http://www.w3.org/2000/svg" width="61" height="60" viewBox="0 0 61 60" fill="none">
    <path d="M55.4969 27.625C55.4969 27.35 55.4969 27.075 55.4969 26.8L55.2719 25.3L55.0469 24.325C55.0469 23.9 54.8469 23.475 54.7219 23.05C54.5969 22.625 54.5219 22.375 54.3969 22.05C54.3271 21.8535 54.2686 21.6532 54.2219 21.45C54.2219 21.45 54.2219 21.45 54.2219 21.325C52.956 17.9576 50.9851 14.8995 48.4412 12.3556C45.8974 9.81181 42.8393 7.84092 39.4719 6.575C39.4719 6.575 39.4719 6.575 39.3469 6.575L38.7719 6.4L37.7219 6.075C37.3469 6.075 36.9469 5.875 36.5719 5.775L35.4219 5.525L34.2719 5.35C33.8719 5.35 33.4969 5.35 33.0719 5.2C32.6469 5.05 32.1969 5.2 31.7719 5.2L30.4969 5H29.5219C29.0969 5 28.6469 5 28.2219 5C27.7969 5 27.4219 5 27.0219 5.15L25.8719 5.325L24.7219 5.575C24.3469 5.575 23.9469 5.75 23.5719 5.875L22.5219 6.2L21.9469 6.375C21.9469 6.375 21.9469 6.375 21.8219 6.375C18.4544 7.64092 15.3964 9.61181 12.8525 12.1556C10.3087 14.6995 8.33779 17.7576 7.07188 21.125C7.07188 21.125 7.07188 21.125 7.07188 21.25C7.02512 21.4532 6.96669 21.6535 6.89688 21.85C6.89688 22.175 6.67188 22.5 6.57188 22.85C6.47188 23.2 6.34688 23.7 6.24688 24.125L6.02188 25.1L5.79688 26.6C5.79688 26.875 5.79688 27.15 5.79688 27.425C5.79688 28.2 5.79688 29 5.79688 29.8C5.79688 30.6 5.79688 31.4 5.79688 32.175C5.79688 32.45 5.79688 32.725 5.79688 33L6.02188 34.5L6.24688 35.475C6.24688 35.9 6.44688 36.325 6.57188 36.75C6.69688 37.175 6.77188 37.425 6.89688 37.75C6.96669 37.9465 7.02512 38.1468 7.07188 38.35C7.07663 38.4082 7.07663 38.4668 7.07188 38.525C8.32678 41.8889 10.2915 44.943 12.8324 47.4797C15.3734 50.0163 18.4308 51.9758 21.7969 53.225C21.7969 53.225 21.7969 53.225 21.9219 53.225L22.5219 53.4L23.5219 53.725L24.7969 54.05L25.7719 54.275L27.2719 54.5H28.0969C28.8719 54.5 29.6719 54.625 30.4719 54.625C31.2719 54.625 32.0719 54.625 32.8469 54.5H33.6719L35.1719 54.275L36.1469 54.05L37.4219 53.725L38.4219 53.4L39.0219 53.225C39.0219 53.225 39.0219 53.225 39.1469 53.225C42.5129 51.9758 45.5704 50.0163 48.1113 47.4797C50.6522 44.943 52.617 41.8889 53.8719 38.525C53.8671 38.4668 53.8671 38.4082 53.8719 38.35C53.8719 38.15 53.9969 37.95 54.0469 37.75C54.0969 37.55 54.2719 37.1 54.3719 36.75C54.4719 36.4 54.5969 35.9 54.6969 35.475L54.9219 34.5L55.1469 33C55.1469 32.725 55.1469 32.45 55.1469 32.175C55.1469 31.4 55.2719 30.6 55.2719 29.8C55.2719 29 55.4969 28.4 55.4969 27.625ZM39.7469 12.225C43.4629 14.1341 46.4877 17.159 48.3969 20.875L41.2469 23.375C40.2104 21.7138 38.8081 20.3115 37.1469 19.275L39.7469 12.225ZM26.3469 10.475C26.8719 10.35 27.3719 10.275 27.8719 10.2H28.4719C29.9013 10.05 31.3425 10.05 32.7719 10.2H33.3719C33.8719 10.2 34.3719 10.35 34.8969 10.475H35.0469L32.5469 17.625C31.8688 17.5208 31.1826 17.4789 30.4969 17.5C29.8854 17.4992 29.275 17.5494 28.6719 17.65L26.1719 10.5L26.3469 10.475ZM21.4969 12.225L23.9969 19.375C22.3266 20.4085 20.9155 21.811 19.8719 23.475L12.7219 20.975C14.6141 17.2219 17.6407 14.1603 21.3719 12.225H21.4969ZM10.9719 34.275C10.8521 33.7818 10.7686 33.2804 10.7219 32.775C10.7219 32.55 10.7219 32.35 10.7219 32.15C10.5552 30.7215 10.5552 29.2785 10.7219 27.85C10.7219 27.65 10.7219 27.45 10.7219 27.225C10.7686 26.7196 10.8521 26.2182 10.9719 25.725C10.9719 25.725 10.9719 25.725 10.9719 25.575L18.1219 28.075C17.9218 29.2834 17.9218 30.5166 18.1219 31.725L10.9719 34.225C10.9719 34.225 10.9719 34.325 10.9719 34.275ZM21.3719 47.775C17.6559 45.8659 14.631 42.841 12.7219 39.125L19.8719 36.625C20.9083 38.2862 22.3107 39.6885 23.9719 40.725L21.3719 47.775ZM34.7719 49.525C34.2469 49.65 33.7469 49.725 33.2469 49.8H32.6469C31.2175 49.95 29.7763 49.95 28.3469 49.8H27.7469C27.2469 49.8 26.7469 49.65 26.2219 49.525H26.0719L28.5719 42.375C29.7803 42.575 31.0134 42.575 32.2219 42.375L34.7219 49.525H34.7719ZM33.0969 37.025C32.6719 37.175 32.2469 37.275 31.8469 37.375C31.0206 37.5289 30.1731 37.5289 29.3469 37.375C28.9469 37.375 28.5219 37.175 28.0969 37.025C27.0417 36.6606 26.0812 36.0653 25.2854 35.2825C24.4896 34.4996 23.8785 33.549 23.4969 32.5C23.3456 32.0853 23.2285 31.6589 23.1469 31.225C22.987 30.3993 22.987 29.5507 23.1469 28.725C23.2229 28.3088 23.3316 27.8992 23.4719 27.5C23.8488 26.4633 24.4497 25.5225 25.2319 24.7447C26.014 23.9669 26.9581 23.3712 27.9969 23C28.4219 22.85 28.8469 22.75 29.2469 22.65C30.0731 22.4961 30.9207 22.4961 31.7469 22.65C32.1469 22.65 32.5719 22.85 32.9969 23C34.031 23.3743 34.9702 23.9714 35.7478 24.749C36.5255 25.5267 37.1226 26.4659 37.4969 27.5C37.6482 27.9147 37.7653 28.3411 37.8469 28.775C38.0068 29.6007 38.0068 30.4493 37.8469 31.275C37.7653 31.7089 37.6482 32.1353 37.4969 32.55C37.1164 33.5749 36.5166 34.5042 35.7392 35.2729C34.9619 36.0416 34.0259 36.631 32.9969 37L33.0969 37.025ZM39.6219 47.8L37.1219 40.65C38.7831 39.6135 40.1854 38.2112 41.2219 36.55L48.3719 39.05C46.4493 42.809 43.3864 45.8632 39.6219 47.775V47.8ZM50.4969 32.15C50.4969 32.35 50.4969 32.55 50.4969 32.775C50.4502 33.2804 50.3666 33.7818 50.2469 34.275C50.2469 34.275 50.2469 34.275 50.2469 34.425L43.0969 31.925C43.2969 30.7166 43.2969 29.4834 43.0969 28.275L50.2469 25.775C50.2469 25.775 50.2469 25.775 50.2469 25.925C50.3666 26.4182 50.4502 26.9196 50.4969 27.425C50.4969 27.65 50.4969 27.85 50.4969 28.05C50.6636 29.4785 50.6636 30.9215 50.4969 32.35V32.15Z" fill="#ADB5BD"/>
</svg>