<svg xmlns="http://www.w3.org/2000/svg" width="61" height="60" viewBox="0 0 61 60" fill="none">
    <path d="M45.5005 50H33.0005V37.35C38.4989 36.7353 43.5781 34.1162 47.2675 29.9933C50.9569 25.8704 52.9979 20.5327 53.0005 15C53.0132 12.0915 52.4436 9.20998 51.3255 6.525C51.1962 6.22496 51.0094 5.95317 50.7755 5.725L50.5005 5.525C50.3409 5.39356 50.1644 5.28424 49.9755 5.2C49.754 5.09738 49.5178 5.0299 49.2755 5H49.0255H11.9755H11.7505C11.5025 5.01138 11.2578 5.06201 11.0255 5.15C10.8437 5.25614 10.6684 5.37301 10.5005 5.5L10.2005 5.725C9.9667 5.95317 9.77984 6.22496 9.65054 6.525C8.54101 9.21174 7.98001 12.0932 8.00054 15C8.00317 20.5327 10.0442 25.8704 13.7336 29.9933C17.423 34.1162 22.5021 36.7353 28.0005 37.35V50H15.5005C14.8375 50 14.2016 50.2634 13.7328 50.7322C13.2639 51.2011 13.0005 51.837 13.0005 52.5C13.0005 53.163 13.2639 53.7989 13.7328 54.2678C14.2016 54.7366 14.8375 55 15.5005 55H45.5005C46.1636 55 46.7995 54.7366 47.2683 54.2678C47.7372 53.7989 48.0005 53.163 48.0005 52.5C48.0005 51.837 47.7372 51.2011 47.2683 50.7322C46.7995 50.2634 46.1636 50 45.5005 50ZM13.0005 15C12.9959 13.3068 13.2401 11.6221 13.7255 10H47.2755C47.7609 11.6221 48.0052 13.3068 48.0005 15C48.0005 19.6413 46.1568 24.0925 42.8749 27.3744C39.593 30.6563 35.1418 32.5 30.5005 32.5C25.8593 32.5 21.4081 30.6563 18.1262 27.3744C14.8443 24.0925 13.0005 19.6413 13.0005 15Z" fill="#ADB5BD"/>
</svg>