<svg width="1860" height="1310" viewBox="0 0 1860 1310" fill="none" xmlns="http://www.w3.org/2000/svg">
<path d="M1725.2 902.257L1625.8 958.957M1580.19 985.261L1625.8 958.957M1658.54 884.137L1756.77 940.252M1642.17 893.489L1740.4 949.604M1625.8 902.842L1724.03 958.957M1609.42 912.194L1707.65 968.309M1593.05 921.547L1691.28 977.662M1625.8 958.957L1674.91 987.014" stroke="white" stroke-width="3" stroke-linecap="round" stroke-linejoin="round"/>
<path d="M512.522 5L5 294.928L758.097 725.144L332.434 968.309L921.814 1305L1855 771.906L512.522 5Z" stroke="white" stroke-width="10" stroke-linejoin="round"/>
<path d="M1805.89 912.194L1707.66 856.079L1511.2 968.309L1609.43 1024.42L1805.89 912.194Z" stroke="white" stroke-width="4" stroke-linejoin="round"/>
<path d="M1134.65 322.985L954.559 425.863M1232.88 379.1L1052.79 481.978" stroke="white" stroke-width="4" stroke-linecap="round" stroke-linejoin="round"/>
<path d="M1152.19 369.163L1052.79 425.863M1007.18 452.167L1052.79 425.863M1085.53 351.043L1183.76 407.158M1069.16 360.395L1167.39 416.511M1052.79 369.748L1151.02 425.863M1036.41 379.101L1134.64 435.216M1020.04 388.453L1118.27 444.568M1052.79 425.863L1101.9 453.921" stroke="white" stroke-width="3" stroke-linecap="round" stroke-linejoin="round"/>
<path d="M1069.16 472.626L970.93 416.511L954.559 425.863L1052.79 481.978L1069.16 472.626Z" fill="#D1D1D1"/>
<path d="M889.072 650.324L643.497 510.036L627.125 519.389L872.7 659.676L889.072 650.324Z" fill="#D1D1D1"/>
<path d="M1052.79 481.978L1183.76 556.798L1331.11 472.626L1200.13 397.806L1052.79 481.978Z" stroke="white" stroke-width="4" stroke-linejoin="round"/>
<path d="M823.584 351.043L954.557 425.863L1101.9 341.69L970.929 266.87L823.584 351.043Z" stroke="white" stroke-width="4" stroke-linejoin="round"/>
<path d="M512.522 5L5 294.928L512.522 584.856L872.699 379.101L823.584 351.043L970.929 266.87L512.522 5Z" stroke="white" stroke-width="4" stroke-linejoin="round"/>
<path d="M921.814 631.619L987.301 669.029L1069.16 622.267L1003.67 584.856L921.814 631.619Z" stroke="white" stroke-width="4" stroke-linejoin="round"/>
<path d="M921.814 1305L332.434 968.309L1003.67 584.856L1036.42 603.561L1151.02 538.094L1183.76 556.799L1331.11 472.626L1855 771.907L921.814 1305Z" stroke="white" stroke-width="4" stroke-linejoin="round"/>
<g filter="url(#filter0_f_4107_10135)">
<ellipse cx="1125" cy="926" rx="35" ry="10" fill="black" fill-opacity="0.25"/>
</g>
<path d="M1180 833.28C1180 863.81 1169.88 870.526 1125 926C1080.34 870.998 1070 863.81 1070 833.28C1070 802.75 1094.62 778 1125 778C1155.38 778 1180 802.75 1180 833.28Z" fill="url(#paint0_linear_4107_10135)"/>
<rect x="1087.07" y="795.465" width="75.8621" height="75.8974" rx="37.931" fill="white"/>
<path d="M1114.02 848.913L1113.98 844.229L1125.15 833.96C1128.05 831.188 1129.62 829.47 1129.62 826.999C1129.62 824.228 1127.54 822.509 1124.68 822.53C1121.76 822.509 1119.84 824.356 1119.87 827.343H1113.72C1113.7 821.263 1118.21 817.374 1124.76 817.374C1131.42 817.374 1135.85 821.177 1135.85 826.569C1135.85 830.114 1134.13 833.015 1127.73 838.815L1123 843.413V843.585H1136.28V848.913H1114.02Z" fill="#191F28"/>
<g filter="url(#filter1_f_4107_10135)">
<ellipse cx="509" cy="345" rx="35" ry="10" fill="black" fill-opacity="0.25"/>
</g>
<path d="M564 252.28C564 282.81 553.878 289.526 509 345C464.338 289.998 454 282.81 454 252.28C454 221.75 478.624 197 509 197C539.376 197 564 221.75 564 252.28Z" fill="url(#paint1_linear_4107_10135)"/>
<rect x="471.068" y="214.465" width="75.8621" height="75.8974" rx="37.931" fill="white"/>
<path d="M514.543 267.913H508.055V242.948H507.883L500.75 247.417V241.702L508.441 236.804H514.543V267.913Z" fill="#191F28"/>
<path d="M432.285 132.852V156.055H426.828V146.816H420.727V142.391H426.828V132.852H432.285ZM399.07 151.758C405.473 149.609 408.395 144.496 408.523 139.598H400.66V135.215H421.887V139.598H414.109C414.217 144.152 417.01 148.75 423.09 150.77L420.383 155.066C416.086 153.67 413.1 150.834 411.402 147.332C409.684 151.307 406.547 154.508 401.906 156.098L399.07 151.758ZM405.473 164.477C405.473 159.729 410.586 156.936 418.922 156.914C427.279 156.936 432.393 159.729 432.414 164.477C432.393 169.225 427.279 171.996 418.922 171.996C410.586 171.996 405.473 169.225 405.473 164.477ZM410.93 164.477C410.93 166.711 413.744 167.828 418.922 167.828C424.121 167.828 426.936 166.711 426.957 164.477C426.936 162.221 424.121 161.104 418.922 161.125C413.744 161.104 410.93 162.221 410.93 164.477ZM472.048 162.93V167.398H436.255V162.93H451.338V155.711H440.037V135.344H445.537V141.402H462.595V135.344H468.052V155.711H456.795V162.93H472.048ZM445.537 151.328H462.595V145.785H445.537V151.328ZM488.394 141.703C488.372 148.879 491.638 156.076 498.277 158.891L495.054 163.273C490.585 161.254 487.491 157.344 485.708 152.51C483.946 157.795 480.745 162.049 475.976 164.219L472.667 159.664C479.499 156.785 482.829 149.287 482.851 141.703V135.859H488.394V141.703ZM500.382 172.039V132.852H505.925V172.039H500.382ZM530.692 138.008C530.671 143.744 535.762 149.867 544.614 151.371L542.208 155.926C535.376 154.572 530.327 150.727 527.792 145.721C525.214 150.684 520.143 154.551 513.376 155.926L511.012 151.371C519.714 149.824 524.805 143.68 524.848 138.008V135.172H530.692V138.008ZM510.11 167.141V162.629H545.903V167.141H510.11ZM563.495 135.172V139.598H553.827V142.691H562.034V146.902H553.827V150.318C558.08 150.254 561.196 150.061 564.827 149.48L565.385 153.734C560.895 154.508 557.157 154.658 551.248 154.637H548.584V135.172H563.495ZM553.955 171.523V157.73H580.639V171.523H553.955ZM559.413 167.141H575.225V162.027H559.413V167.141ZM563.709 146.645V142.262H567.663V133.453H572.862V155.926H567.663V146.645H563.709ZM575.44 156.184V132.852H580.639V156.184H575.44ZM616.664 132.852V152.66H611.207V132.852H616.664ZM583.793 148.449C590.324 146.494 593.246 141.574 593.246 136.719V133.711H598.961V136.719C598.918 141.467 601.754 146 608.156 147.848L605.492 152.059C601.002 150.77 597.908 148.041 596.125 144.561C594.363 148.363 591.162 151.35 586.5 152.746L583.793 148.449ZM590.453 158.59V154.336H616.707V164.949H595.91V167.355H617.781V171.695H590.539V160.867H611.25V158.59H590.453Z" fill="white"/>
<path d="M921.219 343.375H925.438V345.875H921.219V359.656H918.25V331.656H921.219V343.375ZM898.938 352.031C902.115 352.031 904.594 352.005 906.375 351.953V349.109C905.323 348.953 904.401 348.646 903.609 348.188C902.828 347.729 902.224 347.146 901.797 346.438C901.38 345.719 901.177 344.917 901.188 344.031C901.177 342.99 901.448 342.073 902 341.281C902.562 340.49 903.349 339.875 904.359 339.438C905.38 339 906.552 338.781 907.875 338.781C909.188 338.781 910.354 339 911.375 339.438C912.396 339.875 913.193 340.49 913.766 341.281C914.339 342.073 914.625 342.99 914.625 344.031C914.625 344.917 914.406 345.719 913.969 346.438C913.531 347.146 912.911 347.734 912.109 348.203C911.318 348.661 910.396 348.964 909.344 349.109V351.844C912.094 351.708 914.531 351.49 916.656 351.188L916.844 353.375C914.312 353.823 911.693 354.125 908.984 354.281C906.286 354.427 903.443 354.5 900.453 354.5H899.406L898.938 352.031ZM899.469 334.969H906.375V331.719H909.344V334.969H916.25V337.344H899.469V334.969ZM903.969 344.031C903.969 344.615 904.13 345.125 904.453 345.562C904.776 345.99 905.224 346.323 905.797 346.562C906.38 346.792 907.057 346.906 907.828 346.906C909.026 346.906 909.979 346.651 910.688 346.141C911.406 345.63 911.771 344.927 911.781 344.031C911.781 343.438 911.615 342.922 911.281 342.484C910.958 342.036 910.5 341.693 909.906 341.453C909.323 341.214 908.646 341.094 907.875 341.094C907.094 341.094 906.406 341.214 905.812 341.453C905.229 341.693 904.776 342.036 904.453 342.484C904.13 342.922 903.969 343.438 903.969 344.031ZM935.919 336.812C935.908 338 936.169 339.135 936.7 340.219C937.242 341.292 938.018 342.245 939.028 343.078C940.039 343.901 941.242 344.531 942.638 344.969L941.231 347.281C939.658 346.781 938.294 346.031 937.138 345.031C935.992 344.031 935.106 342.854 934.481 341.5C933.867 343.052 932.955 344.406 931.747 345.562C930.539 346.708 929.106 347.573 927.45 348.156L925.919 345.781C927.346 345.312 928.591 344.625 929.653 343.719C930.716 342.812 931.528 341.766 932.091 340.578C932.653 339.391 932.94 338.146 932.95 336.844V336.062H926.794V333.656H941.95V336.062H935.919V336.812ZM929.7 354.344C929.7 353.26 930.075 352.328 930.825 351.547C931.585 350.766 932.669 350.172 934.075 349.766C935.492 349.359 937.169 349.156 939.106 349.156C941.023 349.156 942.674 349.359 944.059 349.766C945.455 350.172 946.523 350.766 947.263 351.547C948.013 352.328 948.388 353.26 948.388 354.344C948.388 355.448 948.013 356.391 947.263 357.172C946.523 357.964 945.455 358.562 944.059 358.969C942.674 359.385 941.023 359.594 939.106 359.594C937.169 359.594 935.492 359.385 934.075 358.969C932.669 358.562 931.585 357.964 930.825 357.172C930.075 356.391 929.7 355.448 929.7 354.344ZM932.669 354.344C932.658 355.271 933.21 355.99 934.325 356.5C935.45 357 937.013 357.25 939.013 357.25C941.065 357.25 942.658 357 943.794 356.5C944.929 356 945.492 355.281 945.481 354.344C945.492 353.438 944.945 352.74 943.841 352.25C942.736 351.75 941.19 351.5 939.2 351.5C937.127 351.5 935.518 351.745 934.372 352.234C933.226 352.724 932.658 353.427 932.669 354.344ZM945.169 331.656H948.138V338.594H952.2V341.031H948.138V348.469H945.169V331.656ZM976.181 346.062H973.244V331.656H976.181V346.062ZM953.088 343.562C954.515 343.083 955.759 342.385 956.822 341.469C957.895 340.552 958.713 339.495 959.275 338.297C959.848 337.099 960.14 335.854 960.15 334.562V332.406H963.181V334.562C963.181 335.802 963.463 336.99 964.025 338.125C964.588 339.26 965.395 340.26 966.447 341.125C967.499 341.979 968.733 342.625 970.15 343.062L968.681 345.375C967.056 344.844 965.645 344.052 964.447 343C963.249 341.948 962.332 340.703 961.697 339.266C961.051 340.818 960.114 342.172 958.884 343.328C957.666 344.484 956.233 345.344 954.588 345.906L953.088 343.562ZM957.806 347.406H976.213V354.406H960.775V357H977.15V359.375H957.9V352.156H973.275V349.75H957.806V347.406ZM981.537 348.375C981.548 345.49 981.944 342.812 982.725 340.344C983.517 337.865 984.662 335.552 986.162 333.406H989.225C988.496 334.458 987.808 335.812 987.162 337.469C986.517 339.115 985.996 340.896 985.6 342.812C985.204 344.729 985.006 346.583 985.006 348.375C985.006 350.167 985.204 352.026 985.6 353.953C985.996 355.87 986.517 357.656 987.162 359.312C987.808 360.969 988.496 362.323 989.225 363.375H986.162C984.662 361.219 983.517 358.901 982.725 356.422C981.944 353.943 981.548 351.26 981.537 348.375ZM998.081 333.75C999.352 333.76 1000.49 334.115 1001.5 334.812C1002.52 335.5 1003.35 336.479 1003.97 337.75H1010.89V331.656H1013.83V359.719H1010.89V348.969H1004.18C1003.57 350.385 1002.74 351.484 1001.68 352.266C1000.62 353.036 999.425 353.417 998.081 353.406C996.696 353.406 995.461 353.005 994.378 352.203C993.305 351.401 992.467 350.255 991.863 348.766C991.269 347.276 990.977 345.542 990.988 343.562C990.977 341.604 991.269 339.885 991.863 338.406C992.467 336.917 993.305 335.771 994.378 334.969C995.461 334.156 996.696 333.75 998.081 333.75ZM993.8 343.562C993.8 345.021 993.977 346.292 994.331 347.375C994.696 348.458 995.201 349.292 995.847 349.875C996.493 350.458 997.238 350.75 998.081 350.75C998.925 350.75 999.67 350.458 1000.32 349.875C1000.96 349.292 1001.46 348.458 1001.82 347.375C1002.18 346.292 1002.36 345.021 1002.36 343.562C1002.36 342.125 1002.18 340.87 1001.82 339.797C1001.45 338.714 1000.95 337.88 1000.3 337.297C999.665 336.703 998.925 336.406 998.081 336.406C997.238 336.406 996.493 336.703 995.847 337.297C995.211 337.88 994.711 338.714 994.347 339.797C993.982 340.87 993.8 342.125 993.8 343.562ZM1004.82 340.188C1005.06 341.312 1005.18 342.438 1005.18 343.562C1005.18 344.615 1005.08 345.604 1004.89 346.531H1010.89V340.188H1004.82ZM1025.03 348.375C1025.02 351.26 1024.62 353.943 1023.83 356.422C1023.05 358.901 1021.91 361.219 1020.41 363.375H1017.34C1018.07 362.323 1018.76 360.969 1019.41 359.312C1020.05 357.656 1020.57 355.87 1020.97 353.953C1021.36 352.026 1021.56 350.167 1021.56 348.375C1021.56 346.583 1021.36 344.729 1020.97 342.812C1020.57 340.896 1020.05 339.115 1019.41 337.469C1018.76 335.812 1018.07 334.458 1017.34 333.406H1020.41C1021.91 335.552 1023.05 337.865 1023.83 340.344C1024.62 342.812 1025.02 345.49 1025.03 348.375Z" fill="#EFF1F3"/>
<path d="M1150.22 474.375H1154.44V476.875H1150.22V490.656H1147.25V462.656H1150.22V474.375ZM1127.94 483.031C1131.11 483.031 1133.59 483.005 1135.38 482.953V480.109C1134.32 479.953 1133.4 479.646 1132.61 479.188C1131.83 478.729 1131.22 478.146 1130.8 477.438C1130.38 476.719 1130.18 475.917 1130.19 475.031C1130.18 473.99 1130.45 473.073 1131 472.281C1131.56 471.49 1132.35 470.875 1133.36 470.438C1134.38 470 1135.55 469.781 1136.88 469.781C1138.19 469.781 1139.35 470 1140.38 470.438C1141.4 470.875 1142.19 471.49 1142.77 472.281C1143.34 473.073 1143.62 473.99 1143.62 475.031C1143.62 475.917 1143.41 476.719 1142.97 477.438C1142.53 478.146 1141.91 478.734 1141.11 479.203C1140.32 479.661 1139.4 479.964 1138.34 480.109V482.844C1141.09 482.708 1143.53 482.49 1145.66 482.188L1145.84 484.375C1143.31 484.823 1140.69 485.125 1137.98 485.281C1135.29 485.427 1132.44 485.5 1129.45 485.5H1128.41L1127.94 483.031ZM1128.47 465.969H1135.38V462.719H1138.34V465.969H1145.25V468.344H1128.47V465.969ZM1132.97 475.031C1132.97 475.615 1133.13 476.125 1133.45 476.562C1133.78 476.99 1134.22 477.323 1134.8 477.562C1135.38 477.792 1136.06 477.906 1136.83 477.906C1138.03 477.906 1138.98 477.651 1139.69 477.141C1140.41 476.63 1140.77 475.927 1140.78 475.031C1140.78 474.438 1140.61 473.922 1140.28 473.484C1139.96 473.036 1139.5 472.693 1138.91 472.453C1138.32 472.214 1137.65 472.094 1136.88 472.094C1136.09 472.094 1135.41 472.214 1134.81 472.453C1134.23 472.693 1133.78 473.036 1133.45 473.484C1133.13 473.922 1132.97 474.438 1132.97 475.031ZM1164.92 467.812C1164.91 469 1165.17 470.135 1165.7 471.219C1166.24 472.292 1167.02 473.245 1168.03 474.078C1169.04 474.901 1170.24 475.531 1171.64 475.969L1170.23 478.281C1168.66 477.781 1167.29 477.031 1166.14 476.031C1164.99 475.031 1164.11 473.854 1163.48 472.5C1162.87 474.052 1161.96 475.406 1160.75 476.562C1159.54 477.708 1158.11 478.573 1156.45 479.156L1154.92 476.781C1156.35 476.312 1157.59 475.625 1158.65 474.719C1159.72 473.812 1160.53 472.766 1161.09 471.578C1161.65 470.391 1161.94 469.146 1161.95 467.844V467.062H1155.79V464.656H1170.95V467.062H1164.92V467.812ZM1158.7 485.344C1158.7 484.26 1159.08 483.328 1159.83 482.547C1160.59 481.766 1161.67 481.172 1163.08 480.766C1164.49 480.359 1166.17 480.156 1168.11 480.156C1170.02 480.156 1171.67 480.359 1173.06 480.766C1174.46 481.172 1175.52 481.766 1176.26 482.547C1177.01 483.328 1177.39 484.26 1177.39 485.344C1177.39 486.448 1177.01 487.391 1176.26 488.172C1175.52 488.964 1174.46 489.562 1173.06 489.969C1171.67 490.385 1170.02 490.594 1168.11 490.594C1166.17 490.594 1164.49 490.385 1163.08 489.969C1161.67 489.562 1160.59 488.964 1159.83 488.172C1159.08 487.391 1158.7 486.448 1158.7 485.344ZM1161.67 485.344C1161.66 486.271 1162.21 486.99 1163.33 487.5C1164.45 488 1166.01 488.25 1168.01 488.25C1170.06 488.25 1171.66 488 1172.79 487.5C1173.93 487 1174.49 486.281 1174.48 485.344C1174.49 484.438 1173.94 483.74 1172.84 483.25C1171.74 482.75 1170.19 482.5 1168.2 482.5C1166.13 482.5 1164.52 482.745 1163.37 483.234C1162.23 483.724 1161.66 484.427 1161.67 485.344ZM1174.17 462.656H1177.14V469.594H1181.2V472.031H1177.14V479.469H1174.17V462.656ZM1205.18 477.062H1202.24V462.656H1205.18V477.062ZM1182.09 474.562C1183.51 474.083 1184.76 473.385 1185.82 472.469C1186.89 471.552 1187.71 470.495 1188.28 469.297C1188.85 468.099 1189.14 466.854 1189.15 465.562V463.406H1192.18V465.562C1192.18 466.802 1192.46 467.99 1193.03 469.125C1193.59 470.26 1194.39 471.26 1195.45 472.125C1196.5 472.979 1197.73 473.625 1199.15 474.062L1197.68 476.375C1196.06 475.844 1194.64 475.052 1193.45 474C1192.25 472.948 1191.33 471.703 1190.7 470.266C1190.05 471.818 1189.11 473.172 1187.88 474.328C1186.67 475.484 1185.23 476.344 1183.59 476.906L1182.09 474.562ZM1186.81 478.406H1205.21V485.406H1189.78V488H1206.15V490.375H1186.9V483.156H1202.28V480.75H1186.81V478.406ZM1210.54 479.375C1210.55 476.49 1210.94 473.812 1211.72 471.344C1212.52 468.865 1213.66 466.552 1215.16 464.406H1218.22C1217.5 465.458 1216.81 466.812 1216.16 468.469C1215.52 470.115 1215 471.896 1214.6 473.812C1214.2 475.729 1214.01 477.583 1214.01 479.375C1214.01 481.167 1214.2 483.026 1214.6 484.953C1215 486.87 1215.52 488.656 1216.16 490.312C1216.81 491.969 1217.5 493.323 1218.22 494.375H1215.16C1213.66 492.219 1212.52 489.901 1211.72 487.422C1210.94 484.943 1210.55 482.26 1210.54 479.375ZM1241.49 468.906H1245.58V471.375H1241.49V478.469H1238.52V462.688H1241.49V468.906ZM1220.77 464.062H1223.74V474.094C1227.87 474.062 1231.89 473.656 1235.8 472.875L1236.18 475.312C1233.96 475.76 1231.77 476.078 1229.63 476.266C1227.49 476.453 1225.3 476.552 1223.05 476.562H1220.77V464.062ZM1223.55 479.938H1241.49V490.281H1223.55V479.938ZM1238.61 487.906V482.25H1226.46V487.906H1238.61ZM1254.03 479.375C1254.02 482.26 1253.62 484.943 1252.83 487.422C1252.05 489.901 1250.91 492.219 1249.41 494.375H1246.34C1247.07 493.323 1247.76 491.969 1248.41 490.312C1249.05 488.656 1249.57 486.87 1249.97 484.953C1250.36 483.026 1250.56 481.167 1250.56 479.375C1250.56 477.583 1250.36 475.729 1249.97 473.812C1249.57 471.896 1249.05 470.115 1248.41 468.469C1247.76 466.812 1247.07 465.458 1246.34 464.406H1249.41C1250.91 466.552 1252.05 468.865 1252.83 471.344C1253.62 473.812 1254.02 476.49 1254.03 479.375Z" fill="#EFF1F3"/>
<path d="M1052.79 727.859V732.543H1067.96V736.969H1032.29V732.543H1047.37V727.859H1052.79ZM1033.84 725.797C1041.12 725.109 1045.12 722.531 1046.11 719.824H1035.56V715.527H1064.73V719.824H1054.1C1055.07 722.51 1059.06 725.109 1066.41 725.797L1064.48 730.094C1057.11 729.363 1052.16 726.635 1050.08 722.854C1048.02 726.613 1043.12 729.363 1035.77 730.094L1033.84 725.797ZM1036.37 746.035C1036.37 741.588 1041.51 739.117 1050.08 739.117C1058.59 739.117 1063.66 741.588 1063.7 746.035C1063.66 750.482 1058.59 752.975 1050.08 752.953C1041.51 752.975 1036.37 750.482 1036.37 746.035ZM1041.96 746.035C1041.94 747.947 1044.6 748.871 1050.08 748.871C1055.43 748.871 1058.18 747.947 1058.2 746.035C1058.18 744.166 1055.43 743.285 1050.08 743.285C1044.6 743.285 1041.94 744.166 1041.96 746.035ZM1100.24 713.852V723.262H1105.53V727.816H1100.24V736.754H1094.74V713.852H1100.24ZM1069.22 721.586V717.289H1078.11V713.594H1083.57V717.289H1092.42V721.586H1069.22ZM1071.11 729.621C1071.11 725.453 1075.06 722.703 1080.82 722.703C1086.51 722.703 1090.45 725.453 1090.45 729.621C1090.45 733.789 1086.51 736.539 1080.82 736.539C1075.06 736.539 1071.11 733.789 1071.11 729.621ZM1074.63 752.523V738.258H1080.09V741.223H1094.74V738.258H1100.24V752.523H1074.63ZM1076.48 729.621C1076.46 731.512 1078.2 732.521 1080.82 732.543C1083.46 732.521 1085.25 731.512 1085.25 729.621C1085.25 727.795 1083.46 726.699 1080.82 726.742C1078.2 726.699 1076.46 727.795 1076.48 729.621ZM1080.09 748.227H1094.74V745.434H1080.09V748.227ZM1120.58 724.508C1120.56 730.459 1123.74 737.334 1130.17 740.32L1127.12 744.617C1122.75 742.619 1119.66 738.623 1117.9 733.939C1116.16 739.096 1112.94 743.479 1108.42 745.605L1105.24 741.266C1111.75 738.236 1115.04 730.975 1115.08 724.508V722.102H1106.79V717.633H1128.45V722.102H1120.58V724.508ZM1131.5 752.953V713.852H1137V728.762H1142.76V733.359H1137V752.953H1131.5ZM1178.87 744.102V748.613H1143.07V744.102H1152.23V738.129H1147.2V724.98H1169.33V720.77H1147.16V716.387H1174.74V729.363H1152.7V733.703H1175.64V738.129H1170.1V744.102H1178.87ZM1157.55 744.102H1164.73V738.129H1157.55V744.102ZM1212.7 713.852V733.66H1207.24V713.852H1212.7ZM1179.83 729.449C1186.36 727.494 1189.28 722.574 1189.28 717.719V714.711H1195V717.719C1194.95 722.467 1197.79 727 1204.19 728.848L1201.53 733.059C1197.04 731.77 1193.94 729.041 1192.16 725.561C1190.4 729.363 1187.2 732.35 1182.54 733.746L1179.83 729.449ZM1186.49 739.59V735.336H1212.74V745.949H1191.95V748.355H1213.82V752.695H1186.58V741.867H1207.29V739.59H1186.49Z" fill="white"/>
<path d="M972.612 615.375H986.8V618.344H976.05V625.188H986.05V628.125H976.05V635.031H986.925V638H972.612V615.375ZM991.281 641.406H988.312L995.594 614.312H998.562L991.281 641.406ZM1008.89 633.781H1009.14L1015.42 615.375H1019.14L1010.98 638H1007.01L998.887 615.375H1002.61L1008.89 633.781Z" fill="#EFF1F3"/>
<defs>
<filter id="filter0_f_4107_10135" x="1085" y="911" width="80" height="30" filterUnits="userSpaceOnUse" color-interpolation-filters="sRGB">
<feFlood flood-opacity="0" result="BackgroundImageFix"/>
<feBlend mode="normal" in="SourceGraphic" in2="BackgroundImageFix" result="shape"/>
<feGaussianBlur stdDeviation="2.5" result="effect1_foregroundBlur_4107_10135"/>
</filter>
<filter id="filter1_f_4107_10135" x="469" y="330" width="80" height="30" filterUnits="userSpaceOnUse" color-interpolation-filters="sRGB">
<feFlood flood-opacity="0" result="BackgroundImageFix"/>
<feBlend mode="normal" in="SourceGraphic" in2="BackgroundImageFix" result="shape"/>
<feGaussianBlur stdDeviation="2.5" result="effect1_foregroundBlur_4107_10135"/>
</filter>
<linearGradient id="paint0_linear_4107_10135" x1="1156.7" y1="793.156" x2="1094.25" y2="900.663" gradientUnits="userSpaceOnUse">
<stop offset="0.144416" stop-color="#C41818"/>
<stop offset="1" stop-color="#072B24"/>
</linearGradient>
<linearGradient id="paint1_linear_4107_10135" x1="540.703" y1="212.156" x2="478.25" y2="319.663" gradientUnits="userSpaceOnUse">
<stop offset="0.144416" stop-color="#C41818"/>
<stop offset="1" stop-color="#072B24"/>
</linearGradient>
</defs>
</svg>
